G04 #@! TF.GenerationSoftware,KiCad,Pcbnew,(5.1.2-1)-1*
G04 #@! TF.CreationDate,2019-05-07T23:35:07-07:00*
G04 #@! TF.ProjectId,control_board,636f6e74-726f-46c5-9f62-6f6172642e6b,rev?*
G04 #@! TF.SameCoordinates,Original*
G04 #@! TF.FileFunction,Soldermask,Bot*
G04 #@! TF.FilePolarity,Negative*
%FSLAX46Y46*%
G04 Gerber Fmt 4.6, Leading zero omitted, Abs format (unit mm)*
G04 Created by KiCad (PCBNEW (5.1.2-1)-1) date 2019-05-07 23:35:07*
%MOMM*%
%LPD*%
G04 APERTURE LIST*
%ADD10C,0.100000*%
G04 APERTURE END LIST*
D10*
G36*
X202207395Y-109575546D02*
G01*
X202380466Y-109647234D01*
X202380467Y-109647235D01*
X202536227Y-109751310D01*
X202668690Y-109883773D01*
X202668691Y-109883775D01*
X202772766Y-110039534D01*
X202844454Y-110212605D01*
X202881000Y-110396333D01*
X202881000Y-110583667D01*
X202844454Y-110767395D01*
X202772766Y-110940466D01*
X202772765Y-110940467D01*
X202668690Y-111096227D01*
X202536227Y-111228690D01*
X202457818Y-111281081D01*
X202380466Y-111332766D01*
X202207395Y-111404454D01*
X202023667Y-111441000D01*
X201836333Y-111441000D01*
X201652605Y-111404454D01*
X201479534Y-111332766D01*
X201402182Y-111281081D01*
X201323773Y-111228690D01*
X201191310Y-111096227D01*
X201087235Y-110940467D01*
X201087234Y-110940466D01*
X201015546Y-110767395D01*
X200979000Y-110583667D01*
X200979000Y-110396333D01*
X201015546Y-110212605D01*
X201087234Y-110039534D01*
X201191309Y-109883775D01*
X201191310Y-109883773D01*
X201323773Y-109751310D01*
X201479533Y-109647235D01*
X201479534Y-109647234D01*
X201652605Y-109575546D01*
X201836333Y-109539000D01*
X202023667Y-109539000D01*
X202207395Y-109575546D01*
X202207395Y-109575546D01*
G37*
G36*
X200341000Y-111441000D02*
G01*
X198439000Y-111441000D01*
X198439000Y-109539000D01*
X200341000Y-109539000D01*
X200341000Y-111441000D01*
X200341000Y-111441000D01*
G37*
G36*
X176807395Y-109575546D02*
G01*
X176980466Y-109647234D01*
X176980467Y-109647235D01*
X177136227Y-109751310D01*
X177268690Y-109883773D01*
X177268691Y-109883775D01*
X177372766Y-110039534D01*
X177444454Y-110212605D01*
X177481000Y-110396333D01*
X177481000Y-110583667D01*
X177444454Y-110767395D01*
X177372766Y-110940466D01*
X177372765Y-110940467D01*
X177268690Y-111096227D01*
X177136227Y-111228690D01*
X177057818Y-111281081D01*
X176980466Y-111332766D01*
X176807395Y-111404454D01*
X176623667Y-111441000D01*
X176436333Y-111441000D01*
X176252605Y-111404454D01*
X176079534Y-111332766D01*
X176002182Y-111281081D01*
X175923773Y-111228690D01*
X175791310Y-111096227D01*
X175687235Y-110940467D01*
X175687234Y-110940466D01*
X175615546Y-110767395D01*
X175579000Y-110583667D01*
X175579000Y-110396333D01*
X175615546Y-110212605D01*
X175687234Y-110039534D01*
X175791309Y-109883775D01*
X175791310Y-109883773D01*
X175923773Y-109751310D01*
X176079533Y-109647235D01*
X176079534Y-109647234D01*
X176252605Y-109575546D01*
X176436333Y-109539000D01*
X176623667Y-109539000D01*
X176807395Y-109575546D01*
X176807395Y-109575546D01*
G37*
G36*
X174941000Y-111441000D02*
G01*
X173039000Y-111441000D01*
X173039000Y-109539000D01*
X174941000Y-109539000D01*
X174941000Y-111441000D01*
X174941000Y-111441000D01*
G37*
G36*
X151407395Y-109575546D02*
G01*
X151580466Y-109647234D01*
X151580467Y-109647235D01*
X151736227Y-109751310D01*
X151868690Y-109883773D01*
X151868691Y-109883775D01*
X151972766Y-110039534D01*
X152044454Y-110212605D01*
X152081000Y-110396333D01*
X152081000Y-110583667D01*
X152044454Y-110767395D01*
X151972766Y-110940466D01*
X151972765Y-110940467D01*
X151868690Y-111096227D01*
X151736227Y-111228690D01*
X151657818Y-111281081D01*
X151580466Y-111332766D01*
X151407395Y-111404454D01*
X151223667Y-111441000D01*
X151036333Y-111441000D01*
X150852605Y-111404454D01*
X150679534Y-111332766D01*
X150602182Y-111281081D01*
X150523773Y-111228690D01*
X150391310Y-111096227D01*
X150287235Y-110940467D01*
X150287234Y-110940466D01*
X150215546Y-110767395D01*
X150179000Y-110583667D01*
X150179000Y-110396333D01*
X150215546Y-110212605D01*
X150287234Y-110039534D01*
X150391309Y-109883775D01*
X150391310Y-109883773D01*
X150523773Y-109751310D01*
X150679533Y-109647235D01*
X150679534Y-109647234D01*
X150852605Y-109575546D01*
X151036333Y-109539000D01*
X151223667Y-109539000D01*
X151407395Y-109575546D01*
X151407395Y-109575546D01*
G37*
G36*
X149541000Y-111441000D02*
G01*
X147639000Y-111441000D01*
X147639000Y-109539000D01*
X149541000Y-109539000D01*
X149541000Y-111441000D01*
X149541000Y-111441000D01*
G37*
G36*
X126007395Y-109575546D02*
G01*
X126180466Y-109647234D01*
X126180467Y-109647235D01*
X126336227Y-109751310D01*
X126468690Y-109883773D01*
X126468691Y-109883775D01*
X126572766Y-110039534D01*
X126644454Y-110212605D01*
X126681000Y-110396333D01*
X126681000Y-110583667D01*
X126644454Y-110767395D01*
X126572766Y-110940466D01*
X126572765Y-110940467D01*
X126468690Y-111096227D01*
X126336227Y-111228690D01*
X126257818Y-111281081D01*
X126180466Y-111332766D01*
X126007395Y-111404454D01*
X125823667Y-111441000D01*
X125636333Y-111441000D01*
X125452605Y-111404454D01*
X125279534Y-111332766D01*
X125202182Y-111281081D01*
X125123773Y-111228690D01*
X124991310Y-111096227D01*
X124887235Y-110940467D01*
X124887234Y-110940466D01*
X124815546Y-110767395D01*
X124779000Y-110583667D01*
X124779000Y-110396333D01*
X124815546Y-110212605D01*
X124887234Y-110039534D01*
X124991309Y-109883775D01*
X124991310Y-109883773D01*
X125123773Y-109751310D01*
X125279533Y-109647235D01*
X125279534Y-109647234D01*
X125452605Y-109575546D01*
X125636333Y-109539000D01*
X125823667Y-109539000D01*
X126007395Y-109575546D01*
X126007395Y-109575546D01*
G37*
G36*
X124141000Y-111441000D02*
G01*
X122239000Y-111441000D01*
X122239000Y-109539000D01*
X124141000Y-109539000D01*
X124141000Y-111441000D01*
X124141000Y-111441000D01*
G37*
G36*
X100607395Y-109575546D02*
G01*
X100780466Y-109647234D01*
X100780467Y-109647235D01*
X100936227Y-109751310D01*
X101068690Y-109883773D01*
X101068691Y-109883775D01*
X101172766Y-110039534D01*
X101244454Y-110212605D01*
X101281000Y-110396333D01*
X101281000Y-110583667D01*
X101244454Y-110767395D01*
X101172766Y-110940466D01*
X101172765Y-110940467D01*
X101068690Y-111096227D01*
X100936227Y-111228690D01*
X100857818Y-111281081D01*
X100780466Y-111332766D01*
X100607395Y-111404454D01*
X100423667Y-111441000D01*
X100236333Y-111441000D01*
X100052605Y-111404454D01*
X99879534Y-111332766D01*
X99802182Y-111281081D01*
X99723773Y-111228690D01*
X99591310Y-111096227D01*
X99487235Y-110940467D01*
X99487234Y-110940466D01*
X99415546Y-110767395D01*
X99379000Y-110583667D01*
X99379000Y-110396333D01*
X99415546Y-110212605D01*
X99487234Y-110039534D01*
X99591309Y-109883775D01*
X99591310Y-109883773D01*
X99723773Y-109751310D01*
X99879533Y-109647235D01*
X99879534Y-109647234D01*
X100052605Y-109575546D01*
X100236333Y-109539000D01*
X100423667Y-109539000D01*
X100607395Y-109575546D01*
X100607395Y-109575546D01*
G37*
G36*
X98741000Y-111441000D02*
G01*
X96839000Y-111441000D01*
X96839000Y-109539000D01*
X98741000Y-109539000D01*
X98741000Y-111441000D01*
X98741000Y-111441000D01*
G37*
G36*
X196960443Y-68955519D02*
G01*
X197026627Y-68962037D01*
X197196466Y-69013557D01*
X197352991Y-69097222D01*
X197388729Y-69126552D01*
X197490186Y-69209814D01*
X197573448Y-69311271D01*
X197602778Y-69347009D01*
X197686443Y-69503534D01*
X197737963Y-69673373D01*
X197755359Y-69850000D01*
X197737963Y-70026627D01*
X197686443Y-70196466D01*
X197602778Y-70352991D01*
X197573448Y-70388729D01*
X197490186Y-70490186D01*
X197388729Y-70573448D01*
X197352991Y-70602778D01*
X197196466Y-70686443D01*
X197026627Y-70737963D01*
X196960443Y-70744481D01*
X196894260Y-70751000D01*
X196805740Y-70751000D01*
X196739557Y-70744481D01*
X196673373Y-70737963D01*
X196503534Y-70686443D01*
X196347009Y-70602778D01*
X196311271Y-70573448D01*
X196209814Y-70490186D01*
X196126552Y-70388729D01*
X196097222Y-70352991D01*
X196013557Y-70196466D01*
X195962037Y-70026627D01*
X195944641Y-69850000D01*
X195962037Y-69673373D01*
X196013557Y-69503534D01*
X196097222Y-69347009D01*
X196126552Y-69311271D01*
X196209814Y-69209814D01*
X196311271Y-69126552D01*
X196347009Y-69097222D01*
X196503534Y-69013557D01*
X196673373Y-68962037D01*
X196739557Y-68955519D01*
X196805740Y-68949000D01*
X196894260Y-68949000D01*
X196960443Y-68955519D01*
X196960443Y-68955519D01*
G37*
G36*
X194420443Y-68955519D02*
G01*
X194486627Y-68962037D01*
X194656466Y-69013557D01*
X194812991Y-69097222D01*
X194848729Y-69126552D01*
X194950186Y-69209814D01*
X195033448Y-69311271D01*
X195062778Y-69347009D01*
X195146443Y-69503534D01*
X195197963Y-69673373D01*
X195215359Y-69850000D01*
X195197963Y-70026627D01*
X195146443Y-70196466D01*
X195062778Y-70352991D01*
X195033448Y-70388729D01*
X194950186Y-70490186D01*
X194848729Y-70573448D01*
X194812991Y-70602778D01*
X194656466Y-70686443D01*
X194486627Y-70737963D01*
X194420443Y-70744481D01*
X194354260Y-70751000D01*
X194265740Y-70751000D01*
X194199557Y-70744481D01*
X194133373Y-70737963D01*
X193963534Y-70686443D01*
X193807009Y-70602778D01*
X193771271Y-70573448D01*
X193669814Y-70490186D01*
X193586552Y-70388729D01*
X193557222Y-70352991D01*
X193473557Y-70196466D01*
X193422037Y-70026627D01*
X193404641Y-69850000D01*
X193422037Y-69673373D01*
X193473557Y-69503534D01*
X193557222Y-69347009D01*
X193586552Y-69311271D01*
X193669814Y-69209814D01*
X193771271Y-69126552D01*
X193807009Y-69097222D01*
X193963534Y-69013557D01*
X194133373Y-68962037D01*
X194199557Y-68955519D01*
X194265740Y-68949000D01*
X194354260Y-68949000D01*
X194420443Y-68955519D01*
X194420443Y-68955519D01*
G37*
G36*
X191880443Y-68955519D02*
G01*
X191946627Y-68962037D01*
X192116466Y-69013557D01*
X192272991Y-69097222D01*
X192308729Y-69126552D01*
X192410186Y-69209814D01*
X192493448Y-69311271D01*
X192522778Y-69347009D01*
X192606443Y-69503534D01*
X192657963Y-69673373D01*
X192675359Y-69850000D01*
X192657963Y-70026627D01*
X192606443Y-70196466D01*
X192522778Y-70352991D01*
X192493448Y-70388729D01*
X192410186Y-70490186D01*
X192308729Y-70573448D01*
X192272991Y-70602778D01*
X192116466Y-70686443D01*
X191946627Y-70737963D01*
X191880443Y-70744481D01*
X191814260Y-70751000D01*
X191725740Y-70751000D01*
X191659557Y-70744481D01*
X191593373Y-70737963D01*
X191423534Y-70686443D01*
X191267009Y-70602778D01*
X191231271Y-70573448D01*
X191129814Y-70490186D01*
X191046552Y-70388729D01*
X191017222Y-70352991D01*
X190933557Y-70196466D01*
X190882037Y-70026627D01*
X190864641Y-69850000D01*
X190882037Y-69673373D01*
X190933557Y-69503534D01*
X191017222Y-69347009D01*
X191046552Y-69311271D01*
X191129814Y-69209814D01*
X191231271Y-69126552D01*
X191267009Y-69097222D01*
X191423534Y-69013557D01*
X191593373Y-68962037D01*
X191659557Y-68955519D01*
X191725740Y-68949000D01*
X191814260Y-68949000D01*
X191880443Y-68955519D01*
X191880443Y-68955519D01*
G37*
G36*
X189340443Y-68955519D02*
G01*
X189406627Y-68962037D01*
X189576466Y-69013557D01*
X189732991Y-69097222D01*
X189768729Y-69126552D01*
X189870186Y-69209814D01*
X189953448Y-69311271D01*
X189982778Y-69347009D01*
X190066443Y-69503534D01*
X190117963Y-69673373D01*
X190135359Y-69850000D01*
X190117963Y-70026627D01*
X190066443Y-70196466D01*
X189982778Y-70352991D01*
X189953448Y-70388729D01*
X189870186Y-70490186D01*
X189768729Y-70573448D01*
X189732991Y-70602778D01*
X189576466Y-70686443D01*
X189406627Y-70737963D01*
X189340443Y-70744481D01*
X189274260Y-70751000D01*
X189185740Y-70751000D01*
X189119557Y-70744481D01*
X189053373Y-70737963D01*
X188883534Y-70686443D01*
X188727009Y-70602778D01*
X188691271Y-70573448D01*
X188589814Y-70490186D01*
X188506552Y-70388729D01*
X188477222Y-70352991D01*
X188393557Y-70196466D01*
X188342037Y-70026627D01*
X188324641Y-69850000D01*
X188342037Y-69673373D01*
X188393557Y-69503534D01*
X188477222Y-69347009D01*
X188506552Y-69311271D01*
X188589814Y-69209814D01*
X188691271Y-69126552D01*
X188727009Y-69097222D01*
X188883534Y-69013557D01*
X189053373Y-68962037D01*
X189119557Y-68955519D01*
X189185740Y-68949000D01*
X189274260Y-68949000D01*
X189340443Y-68955519D01*
X189340443Y-68955519D01*
G37*
G36*
X186800443Y-68955519D02*
G01*
X186866627Y-68962037D01*
X187036466Y-69013557D01*
X187192991Y-69097222D01*
X187228729Y-69126552D01*
X187330186Y-69209814D01*
X187413448Y-69311271D01*
X187442778Y-69347009D01*
X187526443Y-69503534D01*
X187577963Y-69673373D01*
X187595359Y-69850000D01*
X187577963Y-70026627D01*
X187526443Y-70196466D01*
X187442778Y-70352991D01*
X187413448Y-70388729D01*
X187330186Y-70490186D01*
X187228729Y-70573448D01*
X187192991Y-70602778D01*
X187036466Y-70686443D01*
X186866627Y-70737963D01*
X186800443Y-70744481D01*
X186734260Y-70751000D01*
X186645740Y-70751000D01*
X186579557Y-70744481D01*
X186513373Y-70737963D01*
X186343534Y-70686443D01*
X186187009Y-70602778D01*
X186151271Y-70573448D01*
X186049814Y-70490186D01*
X185966552Y-70388729D01*
X185937222Y-70352991D01*
X185853557Y-70196466D01*
X185802037Y-70026627D01*
X185784641Y-69850000D01*
X185802037Y-69673373D01*
X185853557Y-69503534D01*
X185937222Y-69347009D01*
X185966552Y-69311271D01*
X186049814Y-69209814D01*
X186151271Y-69126552D01*
X186187009Y-69097222D01*
X186343534Y-69013557D01*
X186513373Y-68962037D01*
X186579557Y-68955519D01*
X186645740Y-68949000D01*
X186734260Y-68949000D01*
X186800443Y-68955519D01*
X186800443Y-68955519D01*
G37*
G36*
X184260443Y-68955519D02*
G01*
X184326627Y-68962037D01*
X184496466Y-69013557D01*
X184652991Y-69097222D01*
X184688729Y-69126552D01*
X184790186Y-69209814D01*
X184873448Y-69311271D01*
X184902778Y-69347009D01*
X184986443Y-69503534D01*
X185037963Y-69673373D01*
X185055359Y-69850000D01*
X185037963Y-70026627D01*
X184986443Y-70196466D01*
X184902778Y-70352991D01*
X184873448Y-70388729D01*
X184790186Y-70490186D01*
X184688729Y-70573448D01*
X184652991Y-70602778D01*
X184496466Y-70686443D01*
X184326627Y-70737963D01*
X184260443Y-70744481D01*
X184194260Y-70751000D01*
X184105740Y-70751000D01*
X184039557Y-70744481D01*
X183973373Y-70737963D01*
X183803534Y-70686443D01*
X183647009Y-70602778D01*
X183611271Y-70573448D01*
X183509814Y-70490186D01*
X183426552Y-70388729D01*
X183397222Y-70352991D01*
X183313557Y-70196466D01*
X183262037Y-70026627D01*
X183244641Y-69850000D01*
X183262037Y-69673373D01*
X183313557Y-69503534D01*
X183397222Y-69347009D01*
X183426552Y-69311271D01*
X183509814Y-69209814D01*
X183611271Y-69126552D01*
X183647009Y-69097222D01*
X183803534Y-69013557D01*
X183973373Y-68962037D01*
X184039557Y-68955519D01*
X184105740Y-68949000D01*
X184194260Y-68949000D01*
X184260443Y-68955519D01*
X184260443Y-68955519D01*
G37*
G36*
X181720443Y-68955519D02*
G01*
X181786627Y-68962037D01*
X181956466Y-69013557D01*
X182112991Y-69097222D01*
X182148729Y-69126552D01*
X182250186Y-69209814D01*
X182333448Y-69311271D01*
X182362778Y-69347009D01*
X182446443Y-69503534D01*
X182497963Y-69673373D01*
X182515359Y-69850000D01*
X182497963Y-70026627D01*
X182446443Y-70196466D01*
X182362778Y-70352991D01*
X182333448Y-70388729D01*
X182250186Y-70490186D01*
X182148729Y-70573448D01*
X182112991Y-70602778D01*
X181956466Y-70686443D01*
X181786627Y-70737963D01*
X181720443Y-70744481D01*
X181654260Y-70751000D01*
X181565740Y-70751000D01*
X181499557Y-70744481D01*
X181433373Y-70737963D01*
X181263534Y-70686443D01*
X181107009Y-70602778D01*
X181071271Y-70573448D01*
X180969814Y-70490186D01*
X180886552Y-70388729D01*
X180857222Y-70352991D01*
X180773557Y-70196466D01*
X180722037Y-70026627D01*
X180704641Y-69850000D01*
X180722037Y-69673373D01*
X180773557Y-69503534D01*
X180857222Y-69347009D01*
X180886552Y-69311271D01*
X180969814Y-69209814D01*
X181071271Y-69126552D01*
X181107009Y-69097222D01*
X181263534Y-69013557D01*
X181433373Y-68962037D01*
X181499557Y-68955519D01*
X181565740Y-68949000D01*
X181654260Y-68949000D01*
X181720443Y-68955519D01*
X181720443Y-68955519D01*
G37*
G36*
X179180443Y-68955519D02*
G01*
X179246627Y-68962037D01*
X179416466Y-69013557D01*
X179572991Y-69097222D01*
X179608729Y-69126552D01*
X179710186Y-69209814D01*
X179793448Y-69311271D01*
X179822778Y-69347009D01*
X179906443Y-69503534D01*
X179957963Y-69673373D01*
X179975359Y-69850000D01*
X179957963Y-70026627D01*
X179906443Y-70196466D01*
X179822778Y-70352991D01*
X179793448Y-70388729D01*
X179710186Y-70490186D01*
X179608729Y-70573448D01*
X179572991Y-70602778D01*
X179416466Y-70686443D01*
X179246627Y-70737963D01*
X179180443Y-70744481D01*
X179114260Y-70751000D01*
X179025740Y-70751000D01*
X178959557Y-70744481D01*
X178893373Y-70737963D01*
X178723534Y-70686443D01*
X178567009Y-70602778D01*
X178531271Y-70573448D01*
X178429814Y-70490186D01*
X178346552Y-70388729D01*
X178317222Y-70352991D01*
X178233557Y-70196466D01*
X178182037Y-70026627D01*
X178164641Y-69850000D01*
X178182037Y-69673373D01*
X178233557Y-69503534D01*
X178317222Y-69347009D01*
X178346552Y-69311271D01*
X178429814Y-69209814D01*
X178531271Y-69126552D01*
X178567009Y-69097222D01*
X178723534Y-69013557D01*
X178893373Y-68962037D01*
X178959557Y-68955519D01*
X179025740Y-68949000D01*
X179114260Y-68949000D01*
X179180443Y-68955519D01*
X179180443Y-68955519D01*
G37*
G36*
X176640443Y-68955519D02*
G01*
X176706627Y-68962037D01*
X176876466Y-69013557D01*
X177032991Y-69097222D01*
X177068729Y-69126552D01*
X177170186Y-69209814D01*
X177253448Y-69311271D01*
X177282778Y-69347009D01*
X177366443Y-69503534D01*
X177417963Y-69673373D01*
X177435359Y-69850000D01*
X177417963Y-70026627D01*
X177366443Y-70196466D01*
X177282778Y-70352991D01*
X177253448Y-70388729D01*
X177170186Y-70490186D01*
X177068729Y-70573448D01*
X177032991Y-70602778D01*
X176876466Y-70686443D01*
X176706627Y-70737963D01*
X176640443Y-70744481D01*
X176574260Y-70751000D01*
X176485740Y-70751000D01*
X176419557Y-70744481D01*
X176353373Y-70737963D01*
X176183534Y-70686443D01*
X176027009Y-70602778D01*
X175991271Y-70573448D01*
X175889814Y-70490186D01*
X175806552Y-70388729D01*
X175777222Y-70352991D01*
X175693557Y-70196466D01*
X175642037Y-70026627D01*
X175624641Y-69850000D01*
X175642037Y-69673373D01*
X175693557Y-69503534D01*
X175777222Y-69347009D01*
X175806552Y-69311271D01*
X175889814Y-69209814D01*
X175991271Y-69126552D01*
X176027009Y-69097222D01*
X176183534Y-69013557D01*
X176353373Y-68962037D01*
X176419557Y-68955519D01*
X176485740Y-68949000D01*
X176574260Y-68949000D01*
X176640443Y-68955519D01*
X176640443Y-68955519D01*
G37*
G36*
X174100443Y-68955519D02*
G01*
X174166627Y-68962037D01*
X174336466Y-69013557D01*
X174492991Y-69097222D01*
X174528729Y-69126552D01*
X174630186Y-69209814D01*
X174713448Y-69311271D01*
X174742778Y-69347009D01*
X174826443Y-69503534D01*
X174877963Y-69673373D01*
X174895359Y-69850000D01*
X174877963Y-70026627D01*
X174826443Y-70196466D01*
X174742778Y-70352991D01*
X174713448Y-70388729D01*
X174630186Y-70490186D01*
X174528729Y-70573448D01*
X174492991Y-70602778D01*
X174336466Y-70686443D01*
X174166627Y-70737963D01*
X174100443Y-70744481D01*
X174034260Y-70751000D01*
X173945740Y-70751000D01*
X173879557Y-70744481D01*
X173813373Y-70737963D01*
X173643534Y-70686443D01*
X173487009Y-70602778D01*
X173451271Y-70573448D01*
X173349814Y-70490186D01*
X173266552Y-70388729D01*
X173237222Y-70352991D01*
X173153557Y-70196466D01*
X173102037Y-70026627D01*
X173084641Y-69850000D01*
X173102037Y-69673373D01*
X173153557Y-69503534D01*
X173237222Y-69347009D01*
X173266552Y-69311271D01*
X173349814Y-69209814D01*
X173451271Y-69126552D01*
X173487009Y-69097222D01*
X173643534Y-69013557D01*
X173813373Y-68962037D01*
X173879557Y-68955519D01*
X173945740Y-68949000D01*
X174034260Y-68949000D01*
X174100443Y-68955519D01*
X174100443Y-68955519D01*
G37*
G36*
X171560443Y-68955519D02*
G01*
X171626627Y-68962037D01*
X171796466Y-69013557D01*
X171952991Y-69097222D01*
X171988729Y-69126552D01*
X172090186Y-69209814D01*
X172173448Y-69311271D01*
X172202778Y-69347009D01*
X172286443Y-69503534D01*
X172337963Y-69673373D01*
X172355359Y-69850000D01*
X172337963Y-70026627D01*
X172286443Y-70196466D01*
X172202778Y-70352991D01*
X172173448Y-70388729D01*
X172090186Y-70490186D01*
X171988729Y-70573448D01*
X171952991Y-70602778D01*
X171796466Y-70686443D01*
X171626627Y-70737963D01*
X171560443Y-70744481D01*
X171494260Y-70751000D01*
X171405740Y-70751000D01*
X171339557Y-70744481D01*
X171273373Y-70737963D01*
X171103534Y-70686443D01*
X170947009Y-70602778D01*
X170911271Y-70573448D01*
X170809814Y-70490186D01*
X170726552Y-70388729D01*
X170697222Y-70352991D01*
X170613557Y-70196466D01*
X170562037Y-70026627D01*
X170544641Y-69850000D01*
X170562037Y-69673373D01*
X170613557Y-69503534D01*
X170697222Y-69347009D01*
X170726552Y-69311271D01*
X170809814Y-69209814D01*
X170911271Y-69126552D01*
X170947009Y-69097222D01*
X171103534Y-69013557D01*
X171273373Y-68962037D01*
X171339557Y-68955519D01*
X171405740Y-68949000D01*
X171494260Y-68949000D01*
X171560443Y-68955519D01*
X171560443Y-68955519D01*
G37*
G36*
X169020443Y-68955519D02*
G01*
X169086627Y-68962037D01*
X169256466Y-69013557D01*
X169412991Y-69097222D01*
X169448729Y-69126552D01*
X169550186Y-69209814D01*
X169633448Y-69311271D01*
X169662778Y-69347009D01*
X169746443Y-69503534D01*
X169797963Y-69673373D01*
X169815359Y-69850000D01*
X169797963Y-70026627D01*
X169746443Y-70196466D01*
X169662778Y-70352991D01*
X169633448Y-70388729D01*
X169550186Y-70490186D01*
X169448729Y-70573448D01*
X169412991Y-70602778D01*
X169256466Y-70686443D01*
X169086627Y-70737963D01*
X169020443Y-70744481D01*
X168954260Y-70751000D01*
X168865740Y-70751000D01*
X168799557Y-70744481D01*
X168733373Y-70737963D01*
X168563534Y-70686443D01*
X168407009Y-70602778D01*
X168371271Y-70573448D01*
X168269814Y-70490186D01*
X168186552Y-70388729D01*
X168157222Y-70352991D01*
X168073557Y-70196466D01*
X168022037Y-70026627D01*
X168004641Y-69850000D01*
X168022037Y-69673373D01*
X168073557Y-69503534D01*
X168157222Y-69347009D01*
X168186552Y-69311271D01*
X168269814Y-69209814D01*
X168371271Y-69126552D01*
X168407009Y-69097222D01*
X168563534Y-69013557D01*
X168733373Y-68962037D01*
X168799557Y-68955519D01*
X168865740Y-68949000D01*
X168954260Y-68949000D01*
X169020443Y-68955519D01*
X169020443Y-68955519D01*
G37*
G36*
X166480443Y-68955519D02*
G01*
X166546627Y-68962037D01*
X166716466Y-69013557D01*
X166872991Y-69097222D01*
X166908729Y-69126552D01*
X167010186Y-69209814D01*
X167093448Y-69311271D01*
X167122778Y-69347009D01*
X167206443Y-69503534D01*
X167257963Y-69673373D01*
X167275359Y-69850000D01*
X167257963Y-70026627D01*
X167206443Y-70196466D01*
X167122778Y-70352991D01*
X167093448Y-70388729D01*
X167010186Y-70490186D01*
X166908729Y-70573448D01*
X166872991Y-70602778D01*
X166716466Y-70686443D01*
X166546627Y-70737963D01*
X166480443Y-70744481D01*
X166414260Y-70751000D01*
X166325740Y-70751000D01*
X166259557Y-70744481D01*
X166193373Y-70737963D01*
X166023534Y-70686443D01*
X165867009Y-70602778D01*
X165831271Y-70573448D01*
X165729814Y-70490186D01*
X165646552Y-70388729D01*
X165617222Y-70352991D01*
X165533557Y-70196466D01*
X165482037Y-70026627D01*
X165464641Y-69850000D01*
X165482037Y-69673373D01*
X165533557Y-69503534D01*
X165617222Y-69347009D01*
X165646552Y-69311271D01*
X165729814Y-69209814D01*
X165831271Y-69126552D01*
X165867009Y-69097222D01*
X166023534Y-69013557D01*
X166193373Y-68962037D01*
X166259557Y-68955519D01*
X166325740Y-68949000D01*
X166414260Y-68949000D01*
X166480443Y-68955519D01*
X166480443Y-68955519D01*
G37*
G36*
X163940443Y-68955519D02*
G01*
X164006627Y-68962037D01*
X164176466Y-69013557D01*
X164332991Y-69097222D01*
X164368729Y-69126552D01*
X164470186Y-69209814D01*
X164553448Y-69311271D01*
X164582778Y-69347009D01*
X164666443Y-69503534D01*
X164717963Y-69673373D01*
X164735359Y-69850000D01*
X164717963Y-70026627D01*
X164666443Y-70196466D01*
X164582778Y-70352991D01*
X164553448Y-70388729D01*
X164470186Y-70490186D01*
X164368729Y-70573448D01*
X164332991Y-70602778D01*
X164176466Y-70686443D01*
X164006627Y-70737963D01*
X163940443Y-70744481D01*
X163874260Y-70751000D01*
X163785740Y-70751000D01*
X163719557Y-70744481D01*
X163653373Y-70737963D01*
X163483534Y-70686443D01*
X163327009Y-70602778D01*
X163291271Y-70573448D01*
X163189814Y-70490186D01*
X163106552Y-70388729D01*
X163077222Y-70352991D01*
X162993557Y-70196466D01*
X162942037Y-70026627D01*
X162924641Y-69850000D01*
X162942037Y-69673373D01*
X162993557Y-69503534D01*
X163077222Y-69347009D01*
X163106552Y-69311271D01*
X163189814Y-69209814D01*
X163291271Y-69126552D01*
X163327009Y-69097222D01*
X163483534Y-69013557D01*
X163653373Y-68962037D01*
X163719557Y-68955519D01*
X163785740Y-68949000D01*
X163874260Y-68949000D01*
X163940443Y-68955519D01*
X163940443Y-68955519D01*
G37*
G36*
X199500443Y-68955519D02*
G01*
X199566627Y-68962037D01*
X199736466Y-69013557D01*
X199892991Y-69097222D01*
X199928729Y-69126552D01*
X200030186Y-69209814D01*
X200113448Y-69311271D01*
X200142778Y-69347009D01*
X200226443Y-69503534D01*
X200277963Y-69673373D01*
X200295359Y-69850000D01*
X200277963Y-70026627D01*
X200226443Y-70196466D01*
X200142778Y-70352991D01*
X200113448Y-70388729D01*
X200030186Y-70490186D01*
X199928729Y-70573448D01*
X199892991Y-70602778D01*
X199736466Y-70686443D01*
X199566627Y-70737963D01*
X199500443Y-70744481D01*
X199434260Y-70751000D01*
X199345740Y-70751000D01*
X199279557Y-70744481D01*
X199213373Y-70737963D01*
X199043534Y-70686443D01*
X198887009Y-70602778D01*
X198851271Y-70573448D01*
X198749814Y-70490186D01*
X198666552Y-70388729D01*
X198637222Y-70352991D01*
X198553557Y-70196466D01*
X198502037Y-70026627D01*
X198484641Y-69850000D01*
X198502037Y-69673373D01*
X198553557Y-69503534D01*
X198637222Y-69347009D01*
X198666552Y-69311271D01*
X198749814Y-69209814D01*
X198851271Y-69126552D01*
X198887009Y-69097222D01*
X199043534Y-69013557D01*
X199213373Y-68962037D01*
X199279557Y-68955519D01*
X199345740Y-68949000D01*
X199434260Y-68949000D01*
X199500443Y-68955519D01*
X199500443Y-68955519D01*
G37*
G36*
X202040443Y-68955519D02*
G01*
X202106627Y-68962037D01*
X202276466Y-69013557D01*
X202432991Y-69097222D01*
X202468729Y-69126552D01*
X202570186Y-69209814D01*
X202653448Y-69311271D01*
X202682778Y-69347009D01*
X202766443Y-69503534D01*
X202817963Y-69673373D01*
X202835359Y-69850000D01*
X202817963Y-70026627D01*
X202766443Y-70196466D01*
X202682778Y-70352991D01*
X202653448Y-70388729D01*
X202570186Y-70490186D01*
X202468729Y-70573448D01*
X202432991Y-70602778D01*
X202276466Y-70686443D01*
X202106627Y-70737963D01*
X202040443Y-70744481D01*
X201974260Y-70751000D01*
X201885740Y-70751000D01*
X201819557Y-70744481D01*
X201753373Y-70737963D01*
X201583534Y-70686443D01*
X201427009Y-70602778D01*
X201391271Y-70573448D01*
X201289814Y-70490186D01*
X201206552Y-70388729D01*
X201177222Y-70352991D01*
X201093557Y-70196466D01*
X201042037Y-70026627D01*
X201024641Y-69850000D01*
X201042037Y-69673373D01*
X201093557Y-69503534D01*
X201177222Y-69347009D01*
X201206552Y-69311271D01*
X201289814Y-69209814D01*
X201391271Y-69126552D01*
X201427009Y-69097222D01*
X201583534Y-69013557D01*
X201753373Y-68962037D01*
X201819557Y-68955519D01*
X201885740Y-68949000D01*
X201974260Y-68949000D01*
X202040443Y-68955519D01*
X202040443Y-68955519D01*
G37*
G36*
X204580443Y-68955519D02*
G01*
X204646627Y-68962037D01*
X204816466Y-69013557D01*
X204972991Y-69097222D01*
X205008729Y-69126552D01*
X205110186Y-69209814D01*
X205193448Y-69311271D01*
X205222778Y-69347009D01*
X205306443Y-69503534D01*
X205357963Y-69673373D01*
X205375359Y-69850000D01*
X205357963Y-70026627D01*
X205306443Y-70196466D01*
X205222778Y-70352991D01*
X205193448Y-70388729D01*
X205110186Y-70490186D01*
X205008729Y-70573448D01*
X204972991Y-70602778D01*
X204816466Y-70686443D01*
X204646627Y-70737963D01*
X204580443Y-70744481D01*
X204514260Y-70751000D01*
X204425740Y-70751000D01*
X204359557Y-70744481D01*
X204293373Y-70737963D01*
X204123534Y-70686443D01*
X203967009Y-70602778D01*
X203931271Y-70573448D01*
X203829814Y-70490186D01*
X203746552Y-70388729D01*
X203717222Y-70352991D01*
X203633557Y-70196466D01*
X203582037Y-70026627D01*
X203564641Y-69850000D01*
X203582037Y-69673373D01*
X203633557Y-69503534D01*
X203717222Y-69347009D01*
X203746552Y-69311271D01*
X203829814Y-69209814D01*
X203931271Y-69126552D01*
X203967009Y-69097222D01*
X204123534Y-69013557D01*
X204293373Y-68962037D01*
X204359557Y-68955519D01*
X204425740Y-68949000D01*
X204514260Y-68949000D01*
X204580443Y-68955519D01*
X204580443Y-68955519D01*
G37*
G36*
X207120443Y-68955519D02*
G01*
X207186627Y-68962037D01*
X207356466Y-69013557D01*
X207512991Y-69097222D01*
X207548729Y-69126552D01*
X207650186Y-69209814D01*
X207733448Y-69311271D01*
X207762778Y-69347009D01*
X207846443Y-69503534D01*
X207897963Y-69673373D01*
X207915359Y-69850000D01*
X207897963Y-70026627D01*
X207846443Y-70196466D01*
X207762778Y-70352991D01*
X207733448Y-70388729D01*
X207650186Y-70490186D01*
X207548729Y-70573448D01*
X207512991Y-70602778D01*
X207356466Y-70686443D01*
X207186627Y-70737963D01*
X207120443Y-70744481D01*
X207054260Y-70751000D01*
X206965740Y-70751000D01*
X206899557Y-70744481D01*
X206833373Y-70737963D01*
X206663534Y-70686443D01*
X206507009Y-70602778D01*
X206471271Y-70573448D01*
X206369814Y-70490186D01*
X206286552Y-70388729D01*
X206257222Y-70352991D01*
X206173557Y-70196466D01*
X206122037Y-70026627D01*
X206104641Y-69850000D01*
X206122037Y-69673373D01*
X206173557Y-69503534D01*
X206257222Y-69347009D01*
X206286552Y-69311271D01*
X206369814Y-69209814D01*
X206471271Y-69126552D01*
X206507009Y-69097222D01*
X206663534Y-69013557D01*
X206833373Y-68962037D01*
X206899557Y-68955519D01*
X206965740Y-68949000D01*
X207054260Y-68949000D01*
X207120443Y-68955519D01*
X207120443Y-68955519D01*
G37*
G36*
X209660443Y-68955519D02*
G01*
X209726627Y-68962037D01*
X209896466Y-69013557D01*
X210052991Y-69097222D01*
X210088729Y-69126552D01*
X210190186Y-69209814D01*
X210273448Y-69311271D01*
X210302778Y-69347009D01*
X210386443Y-69503534D01*
X210437963Y-69673373D01*
X210455359Y-69850000D01*
X210437963Y-70026627D01*
X210386443Y-70196466D01*
X210302778Y-70352991D01*
X210273448Y-70388729D01*
X210190186Y-70490186D01*
X210088729Y-70573448D01*
X210052991Y-70602778D01*
X209896466Y-70686443D01*
X209726627Y-70737963D01*
X209660443Y-70744481D01*
X209594260Y-70751000D01*
X209505740Y-70751000D01*
X209439557Y-70744481D01*
X209373373Y-70737963D01*
X209203534Y-70686443D01*
X209047009Y-70602778D01*
X209011271Y-70573448D01*
X208909814Y-70490186D01*
X208826552Y-70388729D01*
X208797222Y-70352991D01*
X208713557Y-70196466D01*
X208662037Y-70026627D01*
X208644641Y-69850000D01*
X208662037Y-69673373D01*
X208713557Y-69503534D01*
X208797222Y-69347009D01*
X208826552Y-69311271D01*
X208909814Y-69209814D01*
X209011271Y-69126552D01*
X209047009Y-69097222D01*
X209203534Y-69013557D01*
X209373373Y-68962037D01*
X209439557Y-68955519D01*
X209505740Y-68949000D01*
X209594260Y-68949000D01*
X209660443Y-68955519D01*
X209660443Y-68955519D01*
G37*
G36*
X212200443Y-68955519D02*
G01*
X212266627Y-68962037D01*
X212436466Y-69013557D01*
X212592991Y-69097222D01*
X212628729Y-69126552D01*
X212730186Y-69209814D01*
X212813448Y-69311271D01*
X212842778Y-69347009D01*
X212926443Y-69503534D01*
X212977963Y-69673373D01*
X212995359Y-69850000D01*
X212977963Y-70026627D01*
X212926443Y-70196466D01*
X212842778Y-70352991D01*
X212813448Y-70388729D01*
X212730186Y-70490186D01*
X212628729Y-70573448D01*
X212592991Y-70602778D01*
X212436466Y-70686443D01*
X212266627Y-70737963D01*
X212200443Y-70744481D01*
X212134260Y-70751000D01*
X212045740Y-70751000D01*
X211979557Y-70744481D01*
X211913373Y-70737963D01*
X211743534Y-70686443D01*
X211587009Y-70602778D01*
X211551271Y-70573448D01*
X211449814Y-70490186D01*
X211366552Y-70388729D01*
X211337222Y-70352991D01*
X211253557Y-70196466D01*
X211202037Y-70026627D01*
X211184641Y-69850000D01*
X211202037Y-69673373D01*
X211253557Y-69503534D01*
X211337222Y-69347009D01*
X211366552Y-69311271D01*
X211449814Y-69209814D01*
X211551271Y-69126552D01*
X211587009Y-69097222D01*
X211743534Y-69013557D01*
X211913373Y-68962037D01*
X211979557Y-68955519D01*
X212045740Y-68949000D01*
X212134260Y-68949000D01*
X212200443Y-68955519D01*
X212200443Y-68955519D01*
G37*
G36*
X214740443Y-68955519D02*
G01*
X214806627Y-68962037D01*
X214976466Y-69013557D01*
X215132991Y-69097222D01*
X215168729Y-69126552D01*
X215270186Y-69209814D01*
X215353448Y-69311271D01*
X215382778Y-69347009D01*
X215466443Y-69503534D01*
X215517963Y-69673373D01*
X215535359Y-69850000D01*
X215517963Y-70026627D01*
X215466443Y-70196466D01*
X215382778Y-70352991D01*
X215353448Y-70388729D01*
X215270186Y-70490186D01*
X215168729Y-70573448D01*
X215132991Y-70602778D01*
X214976466Y-70686443D01*
X214806627Y-70737963D01*
X214740443Y-70744481D01*
X214674260Y-70751000D01*
X214585740Y-70751000D01*
X214519557Y-70744481D01*
X214453373Y-70737963D01*
X214283534Y-70686443D01*
X214127009Y-70602778D01*
X214091271Y-70573448D01*
X213989814Y-70490186D01*
X213906552Y-70388729D01*
X213877222Y-70352991D01*
X213793557Y-70196466D01*
X213742037Y-70026627D01*
X213724641Y-69850000D01*
X213742037Y-69673373D01*
X213793557Y-69503534D01*
X213877222Y-69347009D01*
X213906552Y-69311271D01*
X213989814Y-69209814D01*
X214091271Y-69126552D01*
X214127009Y-69097222D01*
X214283534Y-69013557D01*
X214453373Y-68962037D01*
X214519557Y-68955519D01*
X214585740Y-68949000D01*
X214674260Y-68949000D01*
X214740443Y-68955519D01*
X214740443Y-68955519D01*
G37*
G36*
X217280443Y-68955519D02*
G01*
X217346627Y-68962037D01*
X217516466Y-69013557D01*
X217672991Y-69097222D01*
X217708729Y-69126552D01*
X217810186Y-69209814D01*
X217893448Y-69311271D01*
X217922778Y-69347009D01*
X218006443Y-69503534D01*
X218057963Y-69673373D01*
X218075359Y-69850000D01*
X218057963Y-70026627D01*
X218006443Y-70196466D01*
X217922778Y-70352991D01*
X217893448Y-70388729D01*
X217810186Y-70490186D01*
X217708729Y-70573448D01*
X217672991Y-70602778D01*
X217516466Y-70686443D01*
X217346627Y-70737963D01*
X217280443Y-70744481D01*
X217214260Y-70751000D01*
X217125740Y-70751000D01*
X217059557Y-70744481D01*
X216993373Y-70737963D01*
X216823534Y-70686443D01*
X216667009Y-70602778D01*
X216631271Y-70573448D01*
X216529814Y-70490186D01*
X216446552Y-70388729D01*
X216417222Y-70352991D01*
X216333557Y-70196466D01*
X216282037Y-70026627D01*
X216264641Y-69850000D01*
X216282037Y-69673373D01*
X216333557Y-69503534D01*
X216417222Y-69347009D01*
X216446552Y-69311271D01*
X216529814Y-69209814D01*
X216631271Y-69126552D01*
X216667009Y-69097222D01*
X216823534Y-69013557D01*
X216993373Y-68962037D01*
X217059557Y-68955519D01*
X217125740Y-68949000D01*
X217214260Y-68949000D01*
X217280443Y-68955519D01*
X217280443Y-68955519D01*
G37*
G36*
X219820443Y-68955519D02*
G01*
X219886627Y-68962037D01*
X220056466Y-69013557D01*
X220212991Y-69097222D01*
X220248729Y-69126552D01*
X220350186Y-69209814D01*
X220433448Y-69311271D01*
X220462778Y-69347009D01*
X220546443Y-69503534D01*
X220597963Y-69673373D01*
X220615359Y-69850000D01*
X220597963Y-70026627D01*
X220546443Y-70196466D01*
X220462778Y-70352991D01*
X220433448Y-70388729D01*
X220350186Y-70490186D01*
X220248729Y-70573448D01*
X220212991Y-70602778D01*
X220056466Y-70686443D01*
X219886627Y-70737963D01*
X219820443Y-70744481D01*
X219754260Y-70751000D01*
X219665740Y-70751000D01*
X219599557Y-70744481D01*
X219533373Y-70737963D01*
X219363534Y-70686443D01*
X219207009Y-70602778D01*
X219171271Y-70573448D01*
X219069814Y-70490186D01*
X218986552Y-70388729D01*
X218957222Y-70352991D01*
X218873557Y-70196466D01*
X218822037Y-70026627D01*
X218804641Y-69850000D01*
X218822037Y-69673373D01*
X218873557Y-69503534D01*
X218957222Y-69347009D01*
X218986552Y-69311271D01*
X219069814Y-69209814D01*
X219171271Y-69126552D01*
X219207009Y-69097222D01*
X219363534Y-69013557D01*
X219533373Y-68962037D01*
X219599557Y-68955519D01*
X219665740Y-68949000D01*
X219754260Y-68949000D01*
X219820443Y-68955519D01*
X219820443Y-68955519D01*
G37*
G36*
X223151000Y-70751000D02*
G01*
X221349000Y-70751000D01*
X221349000Y-68949000D01*
X223151000Y-68949000D01*
X223151000Y-70751000D01*
X223151000Y-70751000D01*
G37*
G36*
X83901000Y-66121000D02*
G01*
X81199000Y-66121000D01*
X81199000Y-63419000D01*
X83901000Y-63419000D01*
X83901000Y-66121000D01*
X83901000Y-66121000D01*
G37*
G36*
X78244072Y-60470918D02*
G01*
X78489939Y-60572759D01*
X78711212Y-60720610D01*
X78899390Y-60908788D01*
X79047241Y-61130061D01*
X79149082Y-61375928D01*
X79201000Y-61636938D01*
X79201000Y-61903062D01*
X79149082Y-62164072D01*
X79047241Y-62409939D01*
X78899390Y-62631212D01*
X78711212Y-62819390D01*
X78489939Y-62967241D01*
X78489938Y-62967242D01*
X78489937Y-62967242D01*
X78244072Y-63069082D01*
X77983063Y-63121000D01*
X77716937Y-63121000D01*
X77455928Y-63069082D01*
X77210063Y-62967242D01*
X77210062Y-62967242D01*
X77210061Y-62967241D01*
X76988788Y-62819390D01*
X76800610Y-62631212D01*
X76652759Y-62409939D01*
X76550918Y-62164072D01*
X76499000Y-61903062D01*
X76499000Y-61636938D01*
X76550918Y-61375928D01*
X76652759Y-61130061D01*
X76800610Y-60908788D01*
X76988788Y-60720610D01*
X77210061Y-60572759D01*
X77455928Y-60470918D01*
X77716937Y-60419000D01*
X77983063Y-60419000D01*
X78244072Y-60470918D01*
X78244072Y-60470918D01*
G37*
G36*
X82944072Y-57470918D02*
G01*
X83189939Y-57572759D01*
X83411212Y-57720610D01*
X83599390Y-57908788D01*
X83747241Y-58130061D01*
X83849082Y-58375928D01*
X83901000Y-58636938D01*
X83901000Y-58903062D01*
X83849082Y-59164072D01*
X83747241Y-59409939D01*
X83599390Y-59631212D01*
X83411212Y-59819390D01*
X83189939Y-59967241D01*
X83189938Y-59967242D01*
X83189937Y-59967242D01*
X82944072Y-60069082D01*
X82683063Y-60121000D01*
X82416937Y-60121000D01*
X82155928Y-60069082D01*
X81910063Y-59967242D01*
X81910062Y-59967242D01*
X81910061Y-59967241D01*
X81688788Y-59819390D01*
X81500610Y-59631212D01*
X81352759Y-59409939D01*
X81250918Y-59164072D01*
X81199000Y-58903062D01*
X81199000Y-58636938D01*
X81250918Y-58375928D01*
X81352759Y-58130061D01*
X81500610Y-57908788D01*
X81688788Y-57720610D01*
X81910061Y-57572759D01*
X82155928Y-57470918D01*
X82416937Y-57419000D01*
X82683063Y-57419000D01*
X82944072Y-57470918D01*
X82944072Y-57470918D01*
G37*
G36*
X222360442Y-53715518D02*
G01*
X222426627Y-53722037D01*
X222596466Y-53773557D01*
X222752991Y-53857222D01*
X222788729Y-53886552D01*
X222890186Y-53969814D01*
X222973448Y-54071271D01*
X223002778Y-54107009D01*
X223086443Y-54263534D01*
X223137963Y-54433373D01*
X223155359Y-54610000D01*
X223137963Y-54786627D01*
X223086443Y-54956466D01*
X223002778Y-55112991D01*
X222973448Y-55148729D01*
X222890186Y-55250186D01*
X222788729Y-55333448D01*
X222752991Y-55362778D01*
X222596466Y-55446443D01*
X222426627Y-55497963D01*
X222360442Y-55504482D01*
X222294260Y-55511000D01*
X222205740Y-55511000D01*
X222139558Y-55504482D01*
X222073373Y-55497963D01*
X221903534Y-55446443D01*
X221747009Y-55362778D01*
X221711271Y-55333448D01*
X221609814Y-55250186D01*
X221526552Y-55148729D01*
X221497222Y-55112991D01*
X221413557Y-54956466D01*
X221362037Y-54786627D01*
X221344641Y-54610000D01*
X221362037Y-54433373D01*
X221413557Y-54263534D01*
X221497222Y-54107009D01*
X221526552Y-54071271D01*
X221609814Y-53969814D01*
X221711271Y-53886552D01*
X221747009Y-53857222D01*
X221903534Y-53773557D01*
X222073373Y-53722037D01*
X222139558Y-53715518D01*
X222205740Y-53709000D01*
X222294260Y-53709000D01*
X222360442Y-53715518D01*
X222360442Y-53715518D01*
G37*
G36*
X219820442Y-53715518D02*
G01*
X219886627Y-53722037D01*
X220056466Y-53773557D01*
X220212991Y-53857222D01*
X220248729Y-53886552D01*
X220350186Y-53969814D01*
X220433448Y-54071271D01*
X220462778Y-54107009D01*
X220546443Y-54263534D01*
X220597963Y-54433373D01*
X220615359Y-54610000D01*
X220597963Y-54786627D01*
X220546443Y-54956466D01*
X220462778Y-55112991D01*
X220433448Y-55148729D01*
X220350186Y-55250186D01*
X220248729Y-55333448D01*
X220212991Y-55362778D01*
X220056466Y-55446443D01*
X219886627Y-55497963D01*
X219820442Y-55504482D01*
X219754260Y-55511000D01*
X219665740Y-55511000D01*
X219599558Y-55504482D01*
X219533373Y-55497963D01*
X219363534Y-55446443D01*
X219207009Y-55362778D01*
X219171271Y-55333448D01*
X219069814Y-55250186D01*
X218986552Y-55148729D01*
X218957222Y-55112991D01*
X218873557Y-54956466D01*
X218822037Y-54786627D01*
X218804641Y-54610000D01*
X218822037Y-54433373D01*
X218873557Y-54263534D01*
X218957222Y-54107009D01*
X218986552Y-54071271D01*
X219069814Y-53969814D01*
X219171271Y-53886552D01*
X219207009Y-53857222D01*
X219363534Y-53773557D01*
X219533373Y-53722037D01*
X219599558Y-53715518D01*
X219665740Y-53709000D01*
X219754260Y-53709000D01*
X219820442Y-53715518D01*
X219820442Y-53715518D01*
G37*
G36*
X217280442Y-53715518D02*
G01*
X217346627Y-53722037D01*
X217516466Y-53773557D01*
X217672991Y-53857222D01*
X217708729Y-53886552D01*
X217810186Y-53969814D01*
X217893448Y-54071271D01*
X217922778Y-54107009D01*
X218006443Y-54263534D01*
X218057963Y-54433373D01*
X218075359Y-54610000D01*
X218057963Y-54786627D01*
X218006443Y-54956466D01*
X217922778Y-55112991D01*
X217893448Y-55148729D01*
X217810186Y-55250186D01*
X217708729Y-55333448D01*
X217672991Y-55362778D01*
X217516466Y-55446443D01*
X217346627Y-55497963D01*
X217280442Y-55504482D01*
X217214260Y-55511000D01*
X217125740Y-55511000D01*
X217059558Y-55504482D01*
X216993373Y-55497963D01*
X216823534Y-55446443D01*
X216667009Y-55362778D01*
X216631271Y-55333448D01*
X216529814Y-55250186D01*
X216446552Y-55148729D01*
X216417222Y-55112991D01*
X216333557Y-54956466D01*
X216282037Y-54786627D01*
X216264641Y-54610000D01*
X216282037Y-54433373D01*
X216333557Y-54263534D01*
X216417222Y-54107009D01*
X216446552Y-54071271D01*
X216529814Y-53969814D01*
X216631271Y-53886552D01*
X216667009Y-53857222D01*
X216823534Y-53773557D01*
X216993373Y-53722037D01*
X217059558Y-53715518D01*
X217125740Y-53709000D01*
X217214260Y-53709000D01*
X217280442Y-53715518D01*
X217280442Y-53715518D01*
G37*
G36*
X214740442Y-53715518D02*
G01*
X214806627Y-53722037D01*
X214976466Y-53773557D01*
X215132991Y-53857222D01*
X215168729Y-53886552D01*
X215270186Y-53969814D01*
X215353448Y-54071271D01*
X215382778Y-54107009D01*
X215466443Y-54263534D01*
X215517963Y-54433373D01*
X215535359Y-54610000D01*
X215517963Y-54786627D01*
X215466443Y-54956466D01*
X215382778Y-55112991D01*
X215353448Y-55148729D01*
X215270186Y-55250186D01*
X215168729Y-55333448D01*
X215132991Y-55362778D01*
X214976466Y-55446443D01*
X214806627Y-55497963D01*
X214740442Y-55504482D01*
X214674260Y-55511000D01*
X214585740Y-55511000D01*
X214519558Y-55504482D01*
X214453373Y-55497963D01*
X214283534Y-55446443D01*
X214127009Y-55362778D01*
X214091271Y-55333448D01*
X213989814Y-55250186D01*
X213906552Y-55148729D01*
X213877222Y-55112991D01*
X213793557Y-54956466D01*
X213742037Y-54786627D01*
X213724641Y-54610000D01*
X213742037Y-54433373D01*
X213793557Y-54263534D01*
X213877222Y-54107009D01*
X213906552Y-54071271D01*
X213989814Y-53969814D01*
X214091271Y-53886552D01*
X214127009Y-53857222D01*
X214283534Y-53773557D01*
X214453373Y-53722037D01*
X214519558Y-53715518D01*
X214585740Y-53709000D01*
X214674260Y-53709000D01*
X214740442Y-53715518D01*
X214740442Y-53715518D01*
G37*
G36*
X212200442Y-53715518D02*
G01*
X212266627Y-53722037D01*
X212436466Y-53773557D01*
X212592991Y-53857222D01*
X212628729Y-53886552D01*
X212730186Y-53969814D01*
X212813448Y-54071271D01*
X212842778Y-54107009D01*
X212926443Y-54263534D01*
X212977963Y-54433373D01*
X212995359Y-54610000D01*
X212977963Y-54786627D01*
X212926443Y-54956466D01*
X212842778Y-55112991D01*
X212813448Y-55148729D01*
X212730186Y-55250186D01*
X212628729Y-55333448D01*
X212592991Y-55362778D01*
X212436466Y-55446443D01*
X212266627Y-55497963D01*
X212200442Y-55504482D01*
X212134260Y-55511000D01*
X212045740Y-55511000D01*
X211979558Y-55504482D01*
X211913373Y-55497963D01*
X211743534Y-55446443D01*
X211587009Y-55362778D01*
X211551271Y-55333448D01*
X211449814Y-55250186D01*
X211366552Y-55148729D01*
X211337222Y-55112991D01*
X211253557Y-54956466D01*
X211202037Y-54786627D01*
X211184641Y-54610000D01*
X211202037Y-54433373D01*
X211253557Y-54263534D01*
X211337222Y-54107009D01*
X211366552Y-54071271D01*
X211449814Y-53969814D01*
X211551271Y-53886552D01*
X211587009Y-53857222D01*
X211743534Y-53773557D01*
X211913373Y-53722037D01*
X211979558Y-53715518D01*
X212045740Y-53709000D01*
X212134260Y-53709000D01*
X212200442Y-53715518D01*
X212200442Y-53715518D01*
G37*
G36*
X209660442Y-53715518D02*
G01*
X209726627Y-53722037D01*
X209896466Y-53773557D01*
X210052991Y-53857222D01*
X210088729Y-53886552D01*
X210190186Y-53969814D01*
X210273448Y-54071271D01*
X210302778Y-54107009D01*
X210386443Y-54263534D01*
X210437963Y-54433373D01*
X210455359Y-54610000D01*
X210437963Y-54786627D01*
X210386443Y-54956466D01*
X210302778Y-55112991D01*
X210273448Y-55148729D01*
X210190186Y-55250186D01*
X210088729Y-55333448D01*
X210052991Y-55362778D01*
X209896466Y-55446443D01*
X209726627Y-55497963D01*
X209660442Y-55504482D01*
X209594260Y-55511000D01*
X209505740Y-55511000D01*
X209439558Y-55504482D01*
X209373373Y-55497963D01*
X209203534Y-55446443D01*
X209047009Y-55362778D01*
X209011271Y-55333448D01*
X208909814Y-55250186D01*
X208826552Y-55148729D01*
X208797222Y-55112991D01*
X208713557Y-54956466D01*
X208662037Y-54786627D01*
X208644641Y-54610000D01*
X208662037Y-54433373D01*
X208713557Y-54263534D01*
X208797222Y-54107009D01*
X208826552Y-54071271D01*
X208909814Y-53969814D01*
X209011271Y-53886552D01*
X209047009Y-53857222D01*
X209203534Y-53773557D01*
X209373373Y-53722037D01*
X209439558Y-53715518D01*
X209505740Y-53709000D01*
X209594260Y-53709000D01*
X209660442Y-53715518D01*
X209660442Y-53715518D01*
G37*
G36*
X207120442Y-53715518D02*
G01*
X207186627Y-53722037D01*
X207356466Y-53773557D01*
X207512991Y-53857222D01*
X207548729Y-53886552D01*
X207650186Y-53969814D01*
X207733448Y-54071271D01*
X207762778Y-54107009D01*
X207846443Y-54263534D01*
X207897963Y-54433373D01*
X207915359Y-54610000D01*
X207897963Y-54786627D01*
X207846443Y-54956466D01*
X207762778Y-55112991D01*
X207733448Y-55148729D01*
X207650186Y-55250186D01*
X207548729Y-55333448D01*
X207512991Y-55362778D01*
X207356466Y-55446443D01*
X207186627Y-55497963D01*
X207120442Y-55504482D01*
X207054260Y-55511000D01*
X206965740Y-55511000D01*
X206899558Y-55504482D01*
X206833373Y-55497963D01*
X206663534Y-55446443D01*
X206507009Y-55362778D01*
X206471271Y-55333448D01*
X206369814Y-55250186D01*
X206286552Y-55148729D01*
X206257222Y-55112991D01*
X206173557Y-54956466D01*
X206122037Y-54786627D01*
X206104641Y-54610000D01*
X206122037Y-54433373D01*
X206173557Y-54263534D01*
X206257222Y-54107009D01*
X206286552Y-54071271D01*
X206369814Y-53969814D01*
X206471271Y-53886552D01*
X206507009Y-53857222D01*
X206663534Y-53773557D01*
X206833373Y-53722037D01*
X206899558Y-53715518D01*
X206965740Y-53709000D01*
X207054260Y-53709000D01*
X207120442Y-53715518D01*
X207120442Y-53715518D01*
G37*
G36*
X204580442Y-53715518D02*
G01*
X204646627Y-53722037D01*
X204816466Y-53773557D01*
X204972991Y-53857222D01*
X205008729Y-53886552D01*
X205110186Y-53969814D01*
X205193448Y-54071271D01*
X205222778Y-54107009D01*
X205306443Y-54263534D01*
X205357963Y-54433373D01*
X205375359Y-54610000D01*
X205357963Y-54786627D01*
X205306443Y-54956466D01*
X205222778Y-55112991D01*
X205193448Y-55148729D01*
X205110186Y-55250186D01*
X205008729Y-55333448D01*
X204972991Y-55362778D01*
X204816466Y-55446443D01*
X204646627Y-55497963D01*
X204580442Y-55504482D01*
X204514260Y-55511000D01*
X204425740Y-55511000D01*
X204359558Y-55504482D01*
X204293373Y-55497963D01*
X204123534Y-55446443D01*
X203967009Y-55362778D01*
X203931271Y-55333448D01*
X203829814Y-55250186D01*
X203746552Y-55148729D01*
X203717222Y-55112991D01*
X203633557Y-54956466D01*
X203582037Y-54786627D01*
X203564641Y-54610000D01*
X203582037Y-54433373D01*
X203633557Y-54263534D01*
X203717222Y-54107009D01*
X203746552Y-54071271D01*
X203829814Y-53969814D01*
X203931271Y-53886552D01*
X203967009Y-53857222D01*
X204123534Y-53773557D01*
X204293373Y-53722037D01*
X204359558Y-53715518D01*
X204425740Y-53709000D01*
X204514260Y-53709000D01*
X204580442Y-53715518D01*
X204580442Y-53715518D01*
G37*
G36*
X202040442Y-53715518D02*
G01*
X202106627Y-53722037D01*
X202276466Y-53773557D01*
X202432991Y-53857222D01*
X202468729Y-53886552D01*
X202570186Y-53969814D01*
X202653448Y-54071271D01*
X202682778Y-54107009D01*
X202766443Y-54263534D01*
X202817963Y-54433373D01*
X202835359Y-54610000D01*
X202817963Y-54786627D01*
X202766443Y-54956466D01*
X202682778Y-55112991D01*
X202653448Y-55148729D01*
X202570186Y-55250186D01*
X202468729Y-55333448D01*
X202432991Y-55362778D01*
X202276466Y-55446443D01*
X202106627Y-55497963D01*
X202040442Y-55504482D01*
X201974260Y-55511000D01*
X201885740Y-55511000D01*
X201819558Y-55504482D01*
X201753373Y-55497963D01*
X201583534Y-55446443D01*
X201427009Y-55362778D01*
X201391271Y-55333448D01*
X201289814Y-55250186D01*
X201206552Y-55148729D01*
X201177222Y-55112991D01*
X201093557Y-54956466D01*
X201042037Y-54786627D01*
X201024641Y-54610000D01*
X201042037Y-54433373D01*
X201093557Y-54263534D01*
X201177222Y-54107009D01*
X201206552Y-54071271D01*
X201289814Y-53969814D01*
X201391271Y-53886552D01*
X201427009Y-53857222D01*
X201583534Y-53773557D01*
X201753373Y-53722037D01*
X201819558Y-53715518D01*
X201885740Y-53709000D01*
X201974260Y-53709000D01*
X202040442Y-53715518D01*
X202040442Y-53715518D01*
G37*
G36*
X199500442Y-53715518D02*
G01*
X199566627Y-53722037D01*
X199736466Y-53773557D01*
X199892991Y-53857222D01*
X199928729Y-53886552D01*
X200030186Y-53969814D01*
X200113448Y-54071271D01*
X200142778Y-54107009D01*
X200226443Y-54263534D01*
X200277963Y-54433373D01*
X200295359Y-54610000D01*
X200277963Y-54786627D01*
X200226443Y-54956466D01*
X200142778Y-55112991D01*
X200113448Y-55148729D01*
X200030186Y-55250186D01*
X199928729Y-55333448D01*
X199892991Y-55362778D01*
X199736466Y-55446443D01*
X199566627Y-55497963D01*
X199500442Y-55504482D01*
X199434260Y-55511000D01*
X199345740Y-55511000D01*
X199279558Y-55504482D01*
X199213373Y-55497963D01*
X199043534Y-55446443D01*
X198887009Y-55362778D01*
X198851271Y-55333448D01*
X198749814Y-55250186D01*
X198666552Y-55148729D01*
X198637222Y-55112991D01*
X198553557Y-54956466D01*
X198502037Y-54786627D01*
X198484641Y-54610000D01*
X198502037Y-54433373D01*
X198553557Y-54263534D01*
X198637222Y-54107009D01*
X198666552Y-54071271D01*
X198749814Y-53969814D01*
X198851271Y-53886552D01*
X198887009Y-53857222D01*
X199043534Y-53773557D01*
X199213373Y-53722037D01*
X199279558Y-53715518D01*
X199345740Y-53709000D01*
X199434260Y-53709000D01*
X199500442Y-53715518D01*
X199500442Y-53715518D01*
G37*
G36*
X196960442Y-53715518D02*
G01*
X197026627Y-53722037D01*
X197196466Y-53773557D01*
X197352991Y-53857222D01*
X197388729Y-53886552D01*
X197490186Y-53969814D01*
X197573448Y-54071271D01*
X197602778Y-54107009D01*
X197686443Y-54263534D01*
X197737963Y-54433373D01*
X197755359Y-54610000D01*
X197737963Y-54786627D01*
X197686443Y-54956466D01*
X197602778Y-55112991D01*
X197573448Y-55148729D01*
X197490186Y-55250186D01*
X197388729Y-55333448D01*
X197352991Y-55362778D01*
X197196466Y-55446443D01*
X197026627Y-55497963D01*
X196960442Y-55504482D01*
X196894260Y-55511000D01*
X196805740Y-55511000D01*
X196739558Y-55504482D01*
X196673373Y-55497963D01*
X196503534Y-55446443D01*
X196347009Y-55362778D01*
X196311271Y-55333448D01*
X196209814Y-55250186D01*
X196126552Y-55148729D01*
X196097222Y-55112991D01*
X196013557Y-54956466D01*
X195962037Y-54786627D01*
X195944641Y-54610000D01*
X195962037Y-54433373D01*
X196013557Y-54263534D01*
X196097222Y-54107009D01*
X196126552Y-54071271D01*
X196209814Y-53969814D01*
X196311271Y-53886552D01*
X196347009Y-53857222D01*
X196503534Y-53773557D01*
X196673373Y-53722037D01*
X196739558Y-53715518D01*
X196805740Y-53709000D01*
X196894260Y-53709000D01*
X196960442Y-53715518D01*
X196960442Y-53715518D01*
G37*
G36*
X194420442Y-53715518D02*
G01*
X194486627Y-53722037D01*
X194656466Y-53773557D01*
X194812991Y-53857222D01*
X194848729Y-53886552D01*
X194950186Y-53969814D01*
X195033448Y-54071271D01*
X195062778Y-54107009D01*
X195146443Y-54263534D01*
X195197963Y-54433373D01*
X195215359Y-54610000D01*
X195197963Y-54786627D01*
X195146443Y-54956466D01*
X195062778Y-55112991D01*
X195033448Y-55148729D01*
X194950186Y-55250186D01*
X194848729Y-55333448D01*
X194812991Y-55362778D01*
X194656466Y-55446443D01*
X194486627Y-55497963D01*
X194420442Y-55504482D01*
X194354260Y-55511000D01*
X194265740Y-55511000D01*
X194199558Y-55504482D01*
X194133373Y-55497963D01*
X193963534Y-55446443D01*
X193807009Y-55362778D01*
X193771271Y-55333448D01*
X193669814Y-55250186D01*
X193586552Y-55148729D01*
X193557222Y-55112991D01*
X193473557Y-54956466D01*
X193422037Y-54786627D01*
X193404641Y-54610000D01*
X193422037Y-54433373D01*
X193473557Y-54263534D01*
X193557222Y-54107009D01*
X193586552Y-54071271D01*
X193669814Y-53969814D01*
X193771271Y-53886552D01*
X193807009Y-53857222D01*
X193963534Y-53773557D01*
X194133373Y-53722037D01*
X194199558Y-53715518D01*
X194265740Y-53709000D01*
X194354260Y-53709000D01*
X194420442Y-53715518D01*
X194420442Y-53715518D01*
G37*
G36*
X191880442Y-53715518D02*
G01*
X191946627Y-53722037D01*
X192116466Y-53773557D01*
X192272991Y-53857222D01*
X192308729Y-53886552D01*
X192410186Y-53969814D01*
X192493448Y-54071271D01*
X192522778Y-54107009D01*
X192606443Y-54263534D01*
X192657963Y-54433373D01*
X192675359Y-54610000D01*
X192657963Y-54786627D01*
X192606443Y-54956466D01*
X192522778Y-55112991D01*
X192493448Y-55148729D01*
X192410186Y-55250186D01*
X192308729Y-55333448D01*
X192272991Y-55362778D01*
X192116466Y-55446443D01*
X191946627Y-55497963D01*
X191880442Y-55504482D01*
X191814260Y-55511000D01*
X191725740Y-55511000D01*
X191659558Y-55504482D01*
X191593373Y-55497963D01*
X191423534Y-55446443D01*
X191267009Y-55362778D01*
X191231271Y-55333448D01*
X191129814Y-55250186D01*
X191046552Y-55148729D01*
X191017222Y-55112991D01*
X190933557Y-54956466D01*
X190882037Y-54786627D01*
X190864641Y-54610000D01*
X190882037Y-54433373D01*
X190933557Y-54263534D01*
X191017222Y-54107009D01*
X191046552Y-54071271D01*
X191129814Y-53969814D01*
X191231271Y-53886552D01*
X191267009Y-53857222D01*
X191423534Y-53773557D01*
X191593373Y-53722037D01*
X191659558Y-53715518D01*
X191725740Y-53709000D01*
X191814260Y-53709000D01*
X191880442Y-53715518D01*
X191880442Y-53715518D01*
G37*
G36*
X189340442Y-53715518D02*
G01*
X189406627Y-53722037D01*
X189576466Y-53773557D01*
X189732991Y-53857222D01*
X189768729Y-53886552D01*
X189870186Y-53969814D01*
X189953448Y-54071271D01*
X189982778Y-54107009D01*
X190066443Y-54263534D01*
X190117963Y-54433373D01*
X190135359Y-54610000D01*
X190117963Y-54786627D01*
X190066443Y-54956466D01*
X189982778Y-55112991D01*
X189953448Y-55148729D01*
X189870186Y-55250186D01*
X189768729Y-55333448D01*
X189732991Y-55362778D01*
X189576466Y-55446443D01*
X189406627Y-55497963D01*
X189340442Y-55504482D01*
X189274260Y-55511000D01*
X189185740Y-55511000D01*
X189119558Y-55504482D01*
X189053373Y-55497963D01*
X188883534Y-55446443D01*
X188727009Y-55362778D01*
X188691271Y-55333448D01*
X188589814Y-55250186D01*
X188506552Y-55148729D01*
X188477222Y-55112991D01*
X188393557Y-54956466D01*
X188342037Y-54786627D01*
X188324641Y-54610000D01*
X188342037Y-54433373D01*
X188393557Y-54263534D01*
X188477222Y-54107009D01*
X188506552Y-54071271D01*
X188589814Y-53969814D01*
X188691271Y-53886552D01*
X188727009Y-53857222D01*
X188883534Y-53773557D01*
X189053373Y-53722037D01*
X189119558Y-53715518D01*
X189185740Y-53709000D01*
X189274260Y-53709000D01*
X189340442Y-53715518D01*
X189340442Y-53715518D01*
G37*
G36*
X186800442Y-53715518D02*
G01*
X186866627Y-53722037D01*
X187036466Y-53773557D01*
X187192991Y-53857222D01*
X187228729Y-53886552D01*
X187330186Y-53969814D01*
X187413448Y-54071271D01*
X187442778Y-54107009D01*
X187526443Y-54263534D01*
X187577963Y-54433373D01*
X187595359Y-54610000D01*
X187577963Y-54786627D01*
X187526443Y-54956466D01*
X187442778Y-55112991D01*
X187413448Y-55148729D01*
X187330186Y-55250186D01*
X187228729Y-55333448D01*
X187192991Y-55362778D01*
X187036466Y-55446443D01*
X186866627Y-55497963D01*
X186800442Y-55504482D01*
X186734260Y-55511000D01*
X186645740Y-55511000D01*
X186579558Y-55504482D01*
X186513373Y-55497963D01*
X186343534Y-55446443D01*
X186187009Y-55362778D01*
X186151271Y-55333448D01*
X186049814Y-55250186D01*
X185966552Y-55148729D01*
X185937222Y-55112991D01*
X185853557Y-54956466D01*
X185802037Y-54786627D01*
X185784641Y-54610000D01*
X185802037Y-54433373D01*
X185853557Y-54263534D01*
X185937222Y-54107009D01*
X185966552Y-54071271D01*
X186049814Y-53969814D01*
X186151271Y-53886552D01*
X186187009Y-53857222D01*
X186343534Y-53773557D01*
X186513373Y-53722037D01*
X186579558Y-53715518D01*
X186645740Y-53709000D01*
X186734260Y-53709000D01*
X186800442Y-53715518D01*
X186800442Y-53715518D01*
G37*
G36*
X184260442Y-53715518D02*
G01*
X184326627Y-53722037D01*
X184496466Y-53773557D01*
X184652991Y-53857222D01*
X184688729Y-53886552D01*
X184790186Y-53969814D01*
X184873448Y-54071271D01*
X184902778Y-54107009D01*
X184986443Y-54263534D01*
X185037963Y-54433373D01*
X185055359Y-54610000D01*
X185037963Y-54786627D01*
X184986443Y-54956466D01*
X184902778Y-55112991D01*
X184873448Y-55148729D01*
X184790186Y-55250186D01*
X184688729Y-55333448D01*
X184652991Y-55362778D01*
X184496466Y-55446443D01*
X184326627Y-55497963D01*
X184260442Y-55504482D01*
X184194260Y-55511000D01*
X184105740Y-55511000D01*
X184039558Y-55504482D01*
X183973373Y-55497963D01*
X183803534Y-55446443D01*
X183647009Y-55362778D01*
X183611271Y-55333448D01*
X183509814Y-55250186D01*
X183426552Y-55148729D01*
X183397222Y-55112991D01*
X183313557Y-54956466D01*
X183262037Y-54786627D01*
X183244641Y-54610000D01*
X183262037Y-54433373D01*
X183313557Y-54263534D01*
X183397222Y-54107009D01*
X183426552Y-54071271D01*
X183509814Y-53969814D01*
X183611271Y-53886552D01*
X183647009Y-53857222D01*
X183803534Y-53773557D01*
X183973373Y-53722037D01*
X184039558Y-53715518D01*
X184105740Y-53709000D01*
X184194260Y-53709000D01*
X184260442Y-53715518D01*
X184260442Y-53715518D01*
G37*
G36*
X181720442Y-53715518D02*
G01*
X181786627Y-53722037D01*
X181956466Y-53773557D01*
X182112991Y-53857222D01*
X182148729Y-53886552D01*
X182250186Y-53969814D01*
X182333448Y-54071271D01*
X182362778Y-54107009D01*
X182446443Y-54263534D01*
X182497963Y-54433373D01*
X182515359Y-54610000D01*
X182497963Y-54786627D01*
X182446443Y-54956466D01*
X182362778Y-55112991D01*
X182333448Y-55148729D01*
X182250186Y-55250186D01*
X182148729Y-55333448D01*
X182112991Y-55362778D01*
X181956466Y-55446443D01*
X181786627Y-55497963D01*
X181720442Y-55504482D01*
X181654260Y-55511000D01*
X181565740Y-55511000D01*
X181499558Y-55504482D01*
X181433373Y-55497963D01*
X181263534Y-55446443D01*
X181107009Y-55362778D01*
X181071271Y-55333448D01*
X180969814Y-55250186D01*
X180886552Y-55148729D01*
X180857222Y-55112991D01*
X180773557Y-54956466D01*
X180722037Y-54786627D01*
X180704641Y-54610000D01*
X180722037Y-54433373D01*
X180773557Y-54263534D01*
X180857222Y-54107009D01*
X180886552Y-54071271D01*
X180969814Y-53969814D01*
X181071271Y-53886552D01*
X181107009Y-53857222D01*
X181263534Y-53773557D01*
X181433373Y-53722037D01*
X181499558Y-53715518D01*
X181565740Y-53709000D01*
X181654260Y-53709000D01*
X181720442Y-53715518D01*
X181720442Y-53715518D01*
G37*
G36*
X179180442Y-53715518D02*
G01*
X179246627Y-53722037D01*
X179416466Y-53773557D01*
X179572991Y-53857222D01*
X179608729Y-53886552D01*
X179710186Y-53969814D01*
X179793448Y-54071271D01*
X179822778Y-54107009D01*
X179906443Y-54263534D01*
X179957963Y-54433373D01*
X179975359Y-54610000D01*
X179957963Y-54786627D01*
X179906443Y-54956466D01*
X179822778Y-55112991D01*
X179793448Y-55148729D01*
X179710186Y-55250186D01*
X179608729Y-55333448D01*
X179572991Y-55362778D01*
X179416466Y-55446443D01*
X179246627Y-55497963D01*
X179180442Y-55504482D01*
X179114260Y-55511000D01*
X179025740Y-55511000D01*
X178959558Y-55504482D01*
X178893373Y-55497963D01*
X178723534Y-55446443D01*
X178567009Y-55362778D01*
X178531271Y-55333448D01*
X178429814Y-55250186D01*
X178346552Y-55148729D01*
X178317222Y-55112991D01*
X178233557Y-54956466D01*
X178182037Y-54786627D01*
X178164641Y-54610000D01*
X178182037Y-54433373D01*
X178233557Y-54263534D01*
X178317222Y-54107009D01*
X178346552Y-54071271D01*
X178429814Y-53969814D01*
X178531271Y-53886552D01*
X178567009Y-53857222D01*
X178723534Y-53773557D01*
X178893373Y-53722037D01*
X178959558Y-53715518D01*
X179025740Y-53709000D01*
X179114260Y-53709000D01*
X179180442Y-53715518D01*
X179180442Y-53715518D01*
G37*
G36*
X176640442Y-53715518D02*
G01*
X176706627Y-53722037D01*
X176876466Y-53773557D01*
X177032991Y-53857222D01*
X177068729Y-53886552D01*
X177170186Y-53969814D01*
X177253448Y-54071271D01*
X177282778Y-54107009D01*
X177366443Y-54263534D01*
X177417963Y-54433373D01*
X177435359Y-54610000D01*
X177417963Y-54786627D01*
X177366443Y-54956466D01*
X177282778Y-55112991D01*
X177253448Y-55148729D01*
X177170186Y-55250186D01*
X177068729Y-55333448D01*
X177032991Y-55362778D01*
X176876466Y-55446443D01*
X176706627Y-55497963D01*
X176640442Y-55504482D01*
X176574260Y-55511000D01*
X176485740Y-55511000D01*
X176419558Y-55504482D01*
X176353373Y-55497963D01*
X176183534Y-55446443D01*
X176027009Y-55362778D01*
X175991271Y-55333448D01*
X175889814Y-55250186D01*
X175806552Y-55148729D01*
X175777222Y-55112991D01*
X175693557Y-54956466D01*
X175642037Y-54786627D01*
X175624641Y-54610000D01*
X175642037Y-54433373D01*
X175693557Y-54263534D01*
X175777222Y-54107009D01*
X175806552Y-54071271D01*
X175889814Y-53969814D01*
X175991271Y-53886552D01*
X176027009Y-53857222D01*
X176183534Y-53773557D01*
X176353373Y-53722037D01*
X176419558Y-53715518D01*
X176485740Y-53709000D01*
X176574260Y-53709000D01*
X176640442Y-53715518D01*
X176640442Y-53715518D01*
G37*
G36*
X174100442Y-53715518D02*
G01*
X174166627Y-53722037D01*
X174336466Y-53773557D01*
X174492991Y-53857222D01*
X174528729Y-53886552D01*
X174630186Y-53969814D01*
X174713448Y-54071271D01*
X174742778Y-54107009D01*
X174826443Y-54263534D01*
X174877963Y-54433373D01*
X174895359Y-54610000D01*
X174877963Y-54786627D01*
X174826443Y-54956466D01*
X174742778Y-55112991D01*
X174713448Y-55148729D01*
X174630186Y-55250186D01*
X174528729Y-55333448D01*
X174492991Y-55362778D01*
X174336466Y-55446443D01*
X174166627Y-55497963D01*
X174100442Y-55504482D01*
X174034260Y-55511000D01*
X173945740Y-55511000D01*
X173879558Y-55504482D01*
X173813373Y-55497963D01*
X173643534Y-55446443D01*
X173487009Y-55362778D01*
X173451271Y-55333448D01*
X173349814Y-55250186D01*
X173266552Y-55148729D01*
X173237222Y-55112991D01*
X173153557Y-54956466D01*
X173102037Y-54786627D01*
X173084641Y-54610000D01*
X173102037Y-54433373D01*
X173153557Y-54263534D01*
X173237222Y-54107009D01*
X173266552Y-54071271D01*
X173349814Y-53969814D01*
X173451271Y-53886552D01*
X173487009Y-53857222D01*
X173643534Y-53773557D01*
X173813373Y-53722037D01*
X173879558Y-53715518D01*
X173945740Y-53709000D01*
X174034260Y-53709000D01*
X174100442Y-53715518D01*
X174100442Y-53715518D01*
G37*
G36*
X171560442Y-53715518D02*
G01*
X171626627Y-53722037D01*
X171796466Y-53773557D01*
X171952991Y-53857222D01*
X171988729Y-53886552D01*
X172090186Y-53969814D01*
X172173448Y-54071271D01*
X172202778Y-54107009D01*
X172286443Y-54263534D01*
X172337963Y-54433373D01*
X172355359Y-54610000D01*
X172337963Y-54786627D01*
X172286443Y-54956466D01*
X172202778Y-55112991D01*
X172173448Y-55148729D01*
X172090186Y-55250186D01*
X171988729Y-55333448D01*
X171952991Y-55362778D01*
X171796466Y-55446443D01*
X171626627Y-55497963D01*
X171560442Y-55504482D01*
X171494260Y-55511000D01*
X171405740Y-55511000D01*
X171339558Y-55504482D01*
X171273373Y-55497963D01*
X171103534Y-55446443D01*
X170947009Y-55362778D01*
X170911271Y-55333448D01*
X170809814Y-55250186D01*
X170726552Y-55148729D01*
X170697222Y-55112991D01*
X170613557Y-54956466D01*
X170562037Y-54786627D01*
X170544641Y-54610000D01*
X170562037Y-54433373D01*
X170613557Y-54263534D01*
X170697222Y-54107009D01*
X170726552Y-54071271D01*
X170809814Y-53969814D01*
X170911271Y-53886552D01*
X170947009Y-53857222D01*
X171103534Y-53773557D01*
X171273373Y-53722037D01*
X171339558Y-53715518D01*
X171405740Y-53709000D01*
X171494260Y-53709000D01*
X171560442Y-53715518D01*
X171560442Y-53715518D01*
G37*
G36*
X164731000Y-55511000D02*
G01*
X162929000Y-55511000D01*
X162929000Y-53709000D01*
X164731000Y-53709000D01*
X164731000Y-55511000D01*
X164731000Y-55511000D01*
G37*
G36*
X166480442Y-53715518D02*
G01*
X166546627Y-53722037D01*
X166716466Y-53773557D01*
X166872991Y-53857222D01*
X166908729Y-53886552D01*
X167010186Y-53969814D01*
X167093448Y-54071271D01*
X167122778Y-54107009D01*
X167206443Y-54263534D01*
X167257963Y-54433373D01*
X167275359Y-54610000D01*
X167257963Y-54786627D01*
X167206443Y-54956466D01*
X167122778Y-55112991D01*
X167093448Y-55148729D01*
X167010186Y-55250186D01*
X166908729Y-55333448D01*
X166872991Y-55362778D01*
X166716466Y-55446443D01*
X166546627Y-55497963D01*
X166480442Y-55504482D01*
X166414260Y-55511000D01*
X166325740Y-55511000D01*
X166259558Y-55504482D01*
X166193373Y-55497963D01*
X166023534Y-55446443D01*
X165867009Y-55362778D01*
X165831271Y-55333448D01*
X165729814Y-55250186D01*
X165646552Y-55148729D01*
X165617222Y-55112991D01*
X165533557Y-54956466D01*
X165482037Y-54786627D01*
X165464641Y-54610000D01*
X165482037Y-54433373D01*
X165533557Y-54263534D01*
X165617222Y-54107009D01*
X165646552Y-54071271D01*
X165729814Y-53969814D01*
X165831271Y-53886552D01*
X165867009Y-53857222D01*
X166023534Y-53773557D01*
X166193373Y-53722037D01*
X166259558Y-53715518D01*
X166325740Y-53709000D01*
X166414260Y-53709000D01*
X166480442Y-53715518D01*
X166480442Y-53715518D01*
G37*
G36*
X169020442Y-53715518D02*
G01*
X169086627Y-53722037D01*
X169256466Y-53773557D01*
X169412991Y-53857222D01*
X169448729Y-53886552D01*
X169550186Y-53969814D01*
X169633448Y-54071271D01*
X169662778Y-54107009D01*
X169746443Y-54263534D01*
X169797963Y-54433373D01*
X169815359Y-54610000D01*
X169797963Y-54786627D01*
X169746443Y-54956466D01*
X169662778Y-55112991D01*
X169633448Y-55148729D01*
X169550186Y-55250186D01*
X169448729Y-55333448D01*
X169412991Y-55362778D01*
X169256466Y-55446443D01*
X169086627Y-55497963D01*
X169020442Y-55504482D01*
X168954260Y-55511000D01*
X168865740Y-55511000D01*
X168799558Y-55504482D01*
X168733373Y-55497963D01*
X168563534Y-55446443D01*
X168407009Y-55362778D01*
X168371271Y-55333448D01*
X168269814Y-55250186D01*
X168186552Y-55148729D01*
X168157222Y-55112991D01*
X168073557Y-54956466D01*
X168022037Y-54786627D01*
X168004641Y-54610000D01*
X168022037Y-54433373D01*
X168073557Y-54263534D01*
X168157222Y-54107009D01*
X168186552Y-54071271D01*
X168269814Y-53969814D01*
X168371271Y-53886552D01*
X168407009Y-53857222D01*
X168563534Y-53773557D01*
X168733373Y-53722037D01*
X168799558Y-53715518D01*
X168865740Y-53709000D01*
X168954260Y-53709000D01*
X169020442Y-53715518D01*
X169020442Y-53715518D01*
G37*
M02*
