M48
; DRILL file {KiCad (5.1.2-1)-1} date Tuesday, May 07, 2019 at 11:39:05 PM
; FORMAT={-:-/ absolute / inch / decimal}
; #@! TF.CreationDate,2019-05-07T23:39:05-07:00
; #@! TF.GenerationSoftware,Kicad,Pcbnew,(5.1.2-1)-1
; #@! TF.FileFunction,Plated,1,2,PTH
FMAT,2
INCH
T1C0.0157
T2C0.0354
T3C0.0394
T4C0.0630
%
G90
G05
T1
X4.15Y-2.4
X4.5Y-2.0
X5.15Y-2.65
X7.05Y-2.5
X7.35Y-2.25
X7.4Y-2.6
X7.45Y-2.25
X7.55Y-2.25
X7.65Y-2.25
X7.75Y-2.25
T2
X7.85Y-4.35
X7.95Y-4.35
X4.85Y-4.35
X4.95Y-4.35
X6.85Y-4.35
X6.95Y-4.35
X3.85Y-4.35
X3.95Y-4.35
X5.85Y-4.35
X5.95Y-4.35
T3
X6.45Y-2.15
X6.55Y-2.15
X6.65Y-2.15
X6.75Y-2.15
X6.85Y-2.15
X6.95Y-2.15
X7.05Y-2.15
X7.15Y-2.15
X7.25Y-2.15
X7.35Y-2.15
X7.45Y-2.15
X7.55Y-2.15
X7.65Y-2.15
X7.75Y-2.15
X7.85Y-2.15
X7.95Y-2.15
X8.05Y-2.15
X8.15Y-2.15
X8.25Y-2.15
X8.35Y-2.15
X8.45Y-2.15
X8.55Y-2.15
X8.65Y-2.15
X8.75Y-2.15
X6.45Y-2.75
X6.55Y-2.75
X6.65Y-2.75
X6.75Y-2.75
X6.85Y-2.75
X6.95Y-2.75
X7.05Y-2.75
X7.15Y-2.75
X7.25Y-2.75
X7.35Y-2.75
X7.45Y-2.75
X7.55Y-2.75
X7.65Y-2.75
X7.75Y-2.75
X7.85Y-2.75
X7.95Y-2.75
X8.05Y-2.75
X8.15Y-2.75
X8.25Y-2.75
X8.35Y-2.75
X8.45Y-2.75
X8.55Y-2.75
X8.65Y-2.75
X8.75Y-2.75
T4
X3.065Y-2.4319
X3.25Y-2.3138
X3.25Y-2.55
T0
M30
