G04 #@! TF.GenerationSoftware,KiCad,Pcbnew,(5.1.2-1)-1*
G04 #@! TF.CreationDate,2019-05-07T23:35:31-07:00*
G04 #@! TF.ProjectId,control_board,636f6e74-726f-46c5-9f62-6f6172642e6b,rev?*
G04 #@! TF.SameCoordinates,Original*
G04 #@! TF.FileFunction,Legend,Bot*
G04 #@! TF.FilePolarity,Positive*
%FSLAX46Y46*%
G04 Gerber Fmt 4.6, Leading zero omitted, Abs format (unit mm)*
G04 Created by KiCad (PCBNEW (5.1.2-1)-1) date 2019-05-07 23:35:31*
%MOMM*%
%LPD*%
G04 APERTURE LIST*
%ADD10C,0.150000*%
%ADD11C,0.120000*%
G04 APERTURE END LIST*
D10*
X223900952Y-67381428D02*
X223139047Y-67381428D01*
X223900952Y-57221428D02*
X223139047Y-57221428D01*
X223520000Y-57602380D02*
X223520000Y-56840476D01*
D11*
X162500000Y-54610000D02*
X162500000Y-55940000D01*
X162500000Y-55940000D02*
X163830000Y-55940000D01*
X165100000Y-55940000D02*
X223580000Y-55940000D01*
X223580000Y-53280000D02*
X223580000Y-55940000D01*
X165100000Y-53280000D02*
X223580000Y-53280000D01*
X165100000Y-53280000D02*
X165100000Y-55940000D01*
X220980000Y-71180000D02*
X220980000Y-68520000D01*
X220980000Y-71180000D02*
X162500000Y-71180000D01*
X162500000Y-71180000D02*
X162500000Y-68520000D01*
X220980000Y-68520000D02*
X162500000Y-68520000D01*
X223580000Y-68520000D02*
X222250000Y-68520000D01*
X223580000Y-69850000D02*
X223580000Y-68520000D01*
D10*
X224242380Y-54276666D02*
X224956666Y-54276666D01*
X225099523Y-54229047D01*
X225194761Y-54133809D01*
X225242380Y-53990952D01*
X225242380Y-53895714D01*
X224337619Y-54705238D02*
X224290000Y-54752857D01*
X224242380Y-54848095D01*
X224242380Y-55086190D01*
X224290000Y-55181428D01*
X224337619Y-55229047D01*
X224432857Y-55276666D01*
X224528095Y-55276666D01*
X224670952Y-55229047D01*
X225242380Y-54657619D01*
X225242380Y-55276666D01*
X224472380Y-69516666D02*
X225186666Y-69516666D01*
X225329523Y-69469047D01*
X225424761Y-69373809D01*
X225472380Y-69230952D01*
X225472380Y-69135714D01*
X224472380Y-69897619D02*
X224472380Y-70516666D01*
X224853333Y-70183333D01*
X224853333Y-70326190D01*
X224900952Y-70421428D01*
X224948571Y-70469047D01*
X225043809Y-70516666D01*
X225281904Y-70516666D01*
X225377142Y-70469047D01*
X225424761Y-70421428D01*
X225472380Y-70326190D01*
X225472380Y-70040476D01*
X225424761Y-69945238D01*
X225377142Y-69897619D01*
M02*
