G04 #@! TF.GenerationSoftware,KiCad,Pcbnew,(5.1.2-1)-1*
G04 #@! TF.CreationDate,2019-05-07T23:35:31-07:00*
G04 #@! TF.ProjectId,control_board,636f6e74-726f-46c5-9f62-6f6172642e6b,rev?*
G04 #@! TF.SameCoordinates,Original*
G04 #@! TF.FileFunction,Paste,Top*
G04 #@! TF.FilePolarity,Positive*
%FSLAX46Y46*%
G04 Gerber Fmt 4.6, Leading zero omitted, Abs format (unit mm)*
G04 Created by KiCad (PCBNEW (5.1.2-1)-1) date 2019-05-07 23:35:31*
%MOMM*%
%LPD*%
G04 APERTURE LIST*
%ADD10C,0.100000*%
%ADD11C,1.150000*%
%ADD12C,0.600000*%
%ADD13R,0.838200X1.600200*%
%ADD14R,3.048000X1.600200*%
G04 APERTURE END LIST*
D10*
G36*
X93184505Y-60141204D02*
G01*
X93208773Y-60144804D01*
X93232572Y-60150765D01*
X93255671Y-60159030D01*
X93277850Y-60169520D01*
X93298893Y-60182132D01*
X93318599Y-60196747D01*
X93336777Y-60213223D01*
X93353253Y-60231401D01*
X93367868Y-60251107D01*
X93380480Y-60272150D01*
X93390970Y-60294329D01*
X93399235Y-60317428D01*
X93405196Y-60341227D01*
X93408796Y-60365495D01*
X93410000Y-60389999D01*
X93410000Y-61040001D01*
X93408796Y-61064505D01*
X93405196Y-61088773D01*
X93399235Y-61112572D01*
X93390970Y-61135671D01*
X93380480Y-61157850D01*
X93367868Y-61178893D01*
X93353253Y-61198599D01*
X93336777Y-61216777D01*
X93318599Y-61233253D01*
X93298893Y-61247868D01*
X93277850Y-61260480D01*
X93255671Y-61270970D01*
X93232572Y-61279235D01*
X93208773Y-61285196D01*
X93184505Y-61288796D01*
X93160001Y-61290000D01*
X92259999Y-61290000D01*
X92235495Y-61288796D01*
X92211227Y-61285196D01*
X92187428Y-61279235D01*
X92164329Y-61270970D01*
X92142150Y-61260480D01*
X92121107Y-61247868D01*
X92101401Y-61233253D01*
X92083223Y-61216777D01*
X92066747Y-61198599D01*
X92052132Y-61178893D01*
X92039520Y-61157850D01*
X92029030Y-61135671D01*
X92020765Y-61112572D01*
X92014804Y-61088773D01*
X92011204Y-61064505D01*
X92010000Y-61040001D01*
X92010000Y-60389999D01*
X92011204Y-60365495D01*
X92014804Y-60341227D01*
X92020765Y-60317428D01*
X92029030Y-60294329D01*
X92039520Y-60272150D01*
X92052132Y-60251107D01*
X92066747Y-60231401D01*
X92083223Y-60213223D01*
X92101401Y-60196747D01*
X92121107Y-60182132D01*
X92142150Y-60169520D01*
X92164329Y-60159030D01*
X92187428Y-60150765D01*
X92211227Y-60144804D01*
X92235495Y-60141204D01*
X92259999Y-60140000D01*
X93160001Y-60140000D01*
X93184505Y-60141204D01*
X93184505Y-60141204D01*
G37*
D11*
X92710000Y-60715000D03*
D10*
G36*
X93184505Y-58091204D02*
G01*
X93208773Y-58094804D01*
X93232572Y-58100765D01*
X93255671Y-58109030D01*
X93277850Y-58119520D01*
X93298893Y-58132132D01*
X93318599Y-58146747D01*
X93336777Y-58163223D01*
X93353253Y-58181401D01*
X93367868Y-58201107D01*
X93380480Y-58222150D01*
X93390970Y-58244329D01*
X93399235Y-58267428D01*
X93405196Y-58291227D01*
X93408796Y-58315495D01*
X93410000Y-58339999D01*
X93410000Y-58990001D01*
X93408796Y-59014505D01*
X93405196Y-59038773D01*
X93399235Y-59062572D01*
X93390970Y-59085671D01*
X93380480Y-59107850D01*
X93367868Y-59128893D01*
X93353253Y-59148599D01*
X93336777Y-59166777D01*
X93318599Y-59183253D01*
X93298893Y-59197868D01*
X93277850Y-59210480D01*
X93255671Y-59220970D01*
X93232572Y-59229235D01*
X93208773Y-59235196D01*
X93184505Y-59238796D01*
X93160001Y-59240000D01*
X92259999Y-59240000D01*
X92235495Y-59238796D01*
X92211227Y-59235196D01*
X92187428Y-59229235D01*
X92164329Y-59220970D01*
X92142150Y-59210480D01*
X92121107Y-59197868D01*
X92101401Y-59183253D01*
X92083223Y-59166777D01*
X92066747Y-59148599D01*
X92052132Y-59128893D01*
X92039520Y-59107850D01*
X92029030Y-59085671D01*
X92020765Y-59062572D01*
X92014804Y-59038773D01*
X92011204Y-59014505D01*
X92010000Y-58990001D01*
X92010000Y-58339999D01*
X92011204Y-58315495D01*
X92014804Y-58291227D01*
X92020765Y-58267428D01*
X92029030Y-58244329D01*
X92039520Y-58222150D01*
X92052132Y-58201107D01*
X92066747Y-58181401D01*
X92083223Y-58163223D01*
X92101401Y-58146747D01*
X92121107Y-58132132D01*
X92142150Y-58119520D01*
X92164329Y-58109030D01*
X92187428Y-58100765D01*
X92211227Y-58094804D01*
X92235495Y-58091204D01*
X92259999Y-58090000D01*
X93160001Y-58090000D01*
X93184505Y-58091204D01*
X93184505Y-58091204D01*
G37*
D11*
X92710000Y-58665000D03*
D10*
G36*
X108424505Y-58091204D02*
G01*
X108448773Y-58094804D01*
X108472572Y-58100765D01*
X108495671Y-58109030D01*
X108517850Y-58119520D01*
X108538893Y-58132132D01*
X108558599Y-58146747D01*
X108576777Y-58163223D01*
X108593253Y-58181401D01*
X108607868Y-58201107D01*
X108620480Y-58222150D01*
X108630970Y-58244329D01*
X108639235Y-58267428D01*
X108645196Y-58291227D01*
X108648796Y-58315495D01*
X108650000Y-58339999D01*
X108650000Y-58990001D01*
X108648796Y-59014505D01*
X108645196Y-59038773D01*
X108639235Y-59062572D01*
X108630970Y-59085671D01*
X108620480Y-59107850D01*
X108607868Y-59128893D01*
X108593253Y-59148599D01*
X108576777Y-59166777D01*
X108558599Y-59183253D01*
X108538893Y-59197868D01*
X108517850Y-59210480D01*
X108495671Y-59220970D01*
X108472572Y-59229235D01*
X108448773Y-59235196D01*
X108424505Y-59238796D01*
X108400001Y-59240000D01*
X107499999Y-59240000D01*
X107475495Y-59238796D01*
X107451227Y-59235196D01*
X107427428Y-59229235D01*
X107404329Y-59220970D01*
X107382150Y-59210480D01*
X107361107Y-59197868D01*
X107341401Y-59183253D01*
X107323223Y-59166777D01*
X107306747Y-59148599D01*
X107292132Y-59128893D01*
X107279520Y-59107850D01*
X107269030Y-59085671D01*
X107260765Y-59062572D01*
X107254804Y-59038773D01*
X107251204Y-59014505D01*
X107250000Y-58990001D01*
X107250000Y-58339999D01*
X107251204Y-58315495D01*
X107254804Y-58291227D01*
X107260765Y-58267428D01*
X107269030Y-58244329D01*
X107279520Y-58222150D01*
X107292132Y-58201107D01*
X107306747Y-58181401D01*
X107323223Y-58163223D01*
X107341401Y-58146747D01*
X107361107Y-58132132D01*
X107382150Y-58119520D01*
X107404329Y-58109030D01*
X107427428Y-58100765D01*
X107451227Y-58094804D01*
X107475495Y-58091204D01*
X107499999Y-58090000D01*
X108400001Y-58090000D01*
X108424505Y-58091204D01*
X108424505Y-58091204D01*
G37*
D11*
X107950000Y-58665000D03*
D10*
G36*
X108424505Y-60141204D02*
G01*
X108448773Y-60144804D01*
X108472572Y-60150765D01*
X108495671Y-60159030D01*
X108517850Y-60169520D01*
X108538893Y-60182132D01*
X108558599Y-60196747D01*
X108576777Y-60213223D01*
X108593253Y-60231401D01*
X108607868Y-60251107D01*
X108620480Y-60272150D01*
X108630970Y-60294329D01*
X108639235Y-60317428D01*
X108645196Y-60341227D01*
X108648796Y-60365495D01*
X108650000Y-60389999D01*
X108650000Y-61040001D01*
X108648796Y-61064505D01*
X108645196Y-61088773D01*
X108639235Y-61112572D01*
X108630970Y-61135671D01*
X108620480Y-61157850D01*
X108607868Y-61178893D01*
X108593253Y-61198599D01*
X108576777Y-61216777D01*
X108558599Y-61233253D01*
X108538893Y-61247868D01*
X108517850Y-61260480D01*
X108495671Y-61270970D01*
X108472572Y-61279235D01*
X108448773Y-61285196D01*
X108424505Y-61288796D01*
X108400001Y-61290000D01*
X107499999Y-61290000D01*
X107475495Y-61288796D01*
X107451227Y-61285196D01*
X107427428Y-61279235D01*
X107404329Y-61270970D01*
X107382150Y-61260480D01*
X107361107Y-61247868D01*
X107341401Y-61233253D01*
X107323223Y-61216777D01*
X107306747Y-61198599D01*
X107292132Y-61178893D01*
X107279520Y-61157850D01*
X107269030Y-61135671D01*
X107260765Y-61112572D01*
X107254804Y-61088773D01*
X107251204Y-61064505D01*
X107250000Y-61040001D01*
X107250000Y-60389999D01*
X107251204Y-60365495D01*
X107254804Y-60341227D01*
X107260765Y-60317428D01*
X107269030Y-60294329D01*
X107279520Y-60272150D01*
X107292132Y-60251107D01*
X107306747Y-60231401D01*
X107323223Y-60213223D01*
X107341401Y-60196747D01*
X107361107Y-60182132D01*
X107382150Y-60169520D01*
X107404329Y-60159030D01*
X107427428Y-60150765D01*
X107451227Y-60144804D01*
X107475495Y-60141204D01*
X107499999Y-60140000D01*
X108400001Y-60140000D01*
X108424505Y-60141204D01*
X108424505Y-60141204D01*
G37*
D11*
X107950000Y-60715000D03*
D10*
G36*
X127474505Y-66491204D02*
G01*
X127498773Y-66494804D01*
X127522572Y-66500765D01*
X127545671Y-66509030D01*
X127567850Y-66519520D01*
X127588893Y-66532132D01*
X127608599Y-66546747D01*
X127626777Y-66563223D01*
X127643253Y-66581401D01*
X127657868Y-66601107D01*
X127670480Y-66622150D01*
X127680970Y-66644329D01*
X127689235Y-66667428D01*
X127695196Y-66691227D01*
X127698796Y-66715495D01*
X127700000Y-66739999D01*
X127700000Y-67390001D01*
X127698796Y-67414505D01*
X127695196Y-67438773D01*
X127689235Y-67462572D01*
X127680970Y-67485671D01*
X127670480Y-67507850D01*
X127657868Y-67528893D01*
X127643253Y-67548599D01*
X127626777Y-67566777D01*
X127608599Y-67583253D01*
X127588893Y-67597868D01*
X127567850Y-67610480D01*
X127545671Y-67620970D01*
X127522572Y-67629235D01*
X127498773Y-67635196D01*
X127474505Y-67638796D01*
X127450001Y-67640000D01*
X126549999Y-67640000D01*
X126525495Y-67638796D01*
X126501227Y-67635196D01*
X126477428Y-67629235D01*
X126454329Y-67620970D01*
X126432150Y-67610480D01*
X126411107Y-67597868D01*
X126391401Y-67583253D01*
X126373223Y-67566777D01*
X126356747Y-67548599D01*
X126342132Y-67528893D01*
X126329520Y-67507850D01*
X126319030Y-67485671D01*
X126310765Y-67462572D01*
X126304804Y-67438773D01*
X126301204Y-67414505D01*
X126300000Y-67390001D01*
X126300000Y-66739999D01*
X126301204Y-66715495D01*
X126304804Y-66691227D01*
X126310765Y-66667428D01*
X126319030Y-66644329D01*
X126329520Y-66622150D01*
X126342132Y-66601107D01*
X126356747Y-66581401D01*
X126373223Y-66563223D01*
X126391401Y-66546747D01*
X126411107Y-66532132D01*
X126432150Y-66519520D01*
X126454329Y-66509030D01*
X126477428Y-66500765D01*
X126501227Y-66494804D01*
X126525495Y-66491204D01*
X126549999Y-66490000D01*
X127450001Y-66490000D01*
X127474505Y-66491204D01*
X127474505Y-66491204D01*
G37*
D11*
X127000000Y-67065000D03*
D10*
G36*
X127474505Y-64441204D02*
G01*
X127498773Y-64444804D01*
X127522572Y-64450765D01*
X127545671Y-64459030D01*
X127567850Y-64469520D01*
X127588893Y-64482132D01*
X127608599Y-64496747D01*
X127626777Y-64513223D01*
X127643253Y-64531401D01*
X127657868Y-64551107D01*
X127670480Y-64572150D01*
X127680970Y-64594329D01*
X127689235Y-64617428D01*
X127695196Y-64641227D01*
X127698796Y-64665495D01*
X127700000Y-64689999D01*
X127700000Y-65340001D01*
X127698796Y-65364505D01*
X127695196Y-65388773D01*
X127689235Y-65412572D01*
X127680970Y-65435671D01*
X127670480Y-65457850D01*
X127657868Y-65478893D01*
X127643253Y-65498599D01*
X127626777Y-65516777D01*
X127608599Y-65533253D01*
X127588893Y-65547868D01*
X127567850Y-65560480D01*
X127545671Y-65570970D01*
X127522572Y-65579235D01*
X127498773Y-65585196D01*
X127474505Y-65588796D01*
X127450001Y-65590000D01*
X126549999Y-65590000D01*
X126525495Y-65588796D01*
X126501227Y-65585196D01*
X126477428Y-65579235D01*
X126454329Y-65570970D01*
X126432150Y-65560480D01*
X126411107Y-65547868D01*
X126391401Y-65533253D01*
X126373223Y-65516777D01*
X126356747Y-65498599D01*
X126342132Y-65478893D01*
X126329520Y-65457850D01*
X126319030Y-65435671D01*
X126310765Y-65412572D01*
X126304804Y-65388773D01*
X126301204Y-65364505D01*
X126300000Y-65340001D01*
X126300000Y-64689999D01*
X126301204Y-64665495D01*
X126304804Y-64641227D01*
X126310765Y-64617428D01*
X126319030Y-64594329D01*
X126329520Y-64572150D01*
X126342132Y-64551107D01*
X126356747Y-64531401D01*
X126373223Y-64513223D01*
X126391401Y-64496747D01*
X126411107Y-64482132D01*
X126432150Y-64469520D01*
X126454329Y-64459030D01*
X126477428Y-64450765D01*
X126501227Y-64444804D01*
X126525495Y-64441204D01*
X126549999Y-64440000D01*
X127450001Y-64440000D01*
X127474505Y-64441204D01*
X127474505Y-64441204D01*
G37*
D11*
X127000000Y-65015000D03*
D10*
G36*
X197324505Y-60141204D02*
G01*
X197348773Y-60144804D01*
X197372572Y-60150765D01*
X197395671Y-60159030D01*
X197417850Y-60169520D01*
X197438893Y-60182132D01*
X197458599Y-60196747D01*
X197476777Y-60213223D01*
X197493253Y-60231401D01*
X197507868Y-60251107D01*
X197520480Y-60272150D01*
X197530970Y-60294329D01*
X197539235Y-60317428D01*
X197545196Y-60341227D01*
X197548796Y-60365495D01*
X197550000Y-60389999D01*
X197550000Y-61040001D01*
X197548796Y-61064505D01*
X197545196Y-61088773D01*
X197539235Y-61112572D01*
X197530970Y-61135671D01*
X197520480Y-61157850D01*
X197507868Y-61178893D01*
X197493253Y-61198599D01*
X197476777Y-61216777D01*
X197458599Y-61233253D01*
X197438893Y-61247868D01*
X197417850Y-61260480D01*
X197395671Y-61270970D01*
X197372572Y-61279235D01*
X197348773Y-61285196D01*
X197324505Y-61288796D01*
X197300001Y-61290000D01*
X196399999Y-61290000D01*
X196375495Y-61288796D01*
X196351227Y-61285196D01*
X196327428Y-61279235D01*
X196304329Y-61270970D01*
X196282150Y-61260480D01*
X196261107Y-61247868D01*
X196241401Y-61233253D01*
X196223223Y-61216777D01*
X196206747Y-61198599D01*
X196192132Y-61178893D01*
X196179520Y-61157850D01*
X196169030Y-61135671D01*
X196160765Y-61112572D01*
X196154804Y-61088773D01*
X196151204Y-61064505D01*
X196150000Y-61040001D01*
X196150000Y-60389999D01*
X196151204Y-60365495D01*
X196154804Y-60341227D01*
X196160765Y-60317428D01*
X196169030Y-60294329D01*
X196179520Y-60272150D01*
X196192132Y-60251107D01*
X196206747Y-60231401D01*
X196223223Y-60213223D01*
X196241401Y-60196747D01*
X196261107Y-60182132D01*
X196282150Y-60169520D01*
X196304329Y-60159030D01*
X196327428Y-60150765D01*
X196351227Y-60144804D01*
X196375495Y-60141204D01*
X196399999Y-60140000D01*
X197300001Y-60140000D01*
X197324505Y-60141204D01*
X197324505Y-60141204D01*
G37*
D11*
X196850000Y-60715000D03*
D10*
G36*
X197324505Y-58091204D02*
G01*
X197348773Y-58094804D01*
X197372572Y-58100765D01*
X197395671Y-58109030D01*
X197417850Y-58119520D01*
X197438893Y-58132132D01*
X197458599Y-58146747D01*
X197476777Y-58163223D01*
X197493253Y-58181401D01*
X197507868Y-58201107D01*
X197520480Y-58222150D01*
X197530970Y-58244329D01*
X197539235Y-58267428D01*
X197545196Y-58291227D01*
X197548796Y-58315495D01*
X197550000Y-58339999D01*
X197550000Y-58990001D01*
X197548796Y-59014505D01*
X197545196Y-59038773D01*
X197539235Y-59062572D01*
X197530970Y-59085671D01*
X197520480Y-59107850D01*
X197507868Y-59128893D01*
X197493253Y-59148599D01*
X197476777Y-59166777D01*
X197458599Y-59183253D01*
X197438893Y-59197868D01*
X197417850Y-59210480D01*
X197395671Y-59220970D01*
X197372572Y-59229235D01*
X197348773Y-59235196D01*
X197324505Y-59238796D01*
X197300001Y-59240000D01*
X196399999Y-59240000D01*
X196375495Y-59238796D01*
X196351227Y-59235196D01*
X196327428Y-59229235D01*
X196304329Y-59220970D01*
X196282150Y-59210480D01*
X196261107Y-59197868D01*
X196241401Y-59183253D01*
X196223223Y-59166777D01*
X196206747Y-59148599D01*
X196192132Y-59128893D01*
X196179520Y-59107850D01*
X196169030Y-59085671D01*
X196160765Y-59062572D01*
X196154804Y-59038773D01*
X196151204Y-59014505D01*
X196150000Y-58990001D01*
X196150000Y-58339999D01*
X196151204Y-58315495D01*
X196154804Y-58291227D01*
X196160765Y-58267428D01*
X196169030Y-58244329D01*
X196179520Y-58222150D01*
X196192132Y-58201107D01*
X196206747Y-58181401D01*
X196223223Y-58163223D01*
X196241401Y-58146747D01*
X196261107Y-58132132D01*
X196282150Y-58119520D01*
X196304329Y-58109030D01*
X196327428Y-58100765D01*
X196351227Y-58094804D01*
X196375495Y-58091204D01*
X196399999Y-58090000D01*
X197300001Y-58090000D01*
X197324505Y-58091204D01*
X197324505Y-58091204D01*
G37*
D11*
X196850000Y-58665000D03*
D10*
G36*
X194784505Y-110161204D02*
G01*
X194808773Y-110164804D01*
X194832572Y-110170765D01*
X194855671Y-110179030D01*
X194877850Y-110189520D01*
X194898893Y-110202132D01*
X194918599Y-110216747D01*
X194936777Y-110233223D01*
X194953253Y-110251401D01*
X194967868Y-110271107D01*
X194980480Y-110292150D01*
X194990970Y-110314329D01*
X194999235Y-110337428D01*
X195005196Y-110361227D01*
X195008796Y-110385495D01*
X195010000Y-110409999D01*
X195010000Y-111060001D01*
X195008796Y-111084505D01*
X195005196Y-111108773D01*
X194999235Y-111132572D01*
X194990970Y-111155671D01*
X194980480Y-111177850D01*
X194967868Y-111198893D01*
X194953253Y-111218599D01*
X194936777Y-111236777D01*
X194918599Y-111253253D01*
X194898893Y-111267868D01*
X194877850Y-111280480D01*
X194855671Y-111290970D01*
X194832572Y-111299235D01*
X194808773Y-111305196D01*
X194784505Y-111308796D01*
X194760001Y-111310000D01*
X193859999Y-111310000D01*
X193835495Y-111308796D01*
X193811227Y-111305196D01*
X193787428Y-111299235D01*
X193764329Y-111290970D01*
X193742150Y-111280480D01*
X193721107Y-111267868D01*
X193701401Y-111253253D01*
X193683223Y-111236777D01*
X193666747Y-111218599D01*
X193652132Y-111198893D01*
X193639520Y-111177850D01*
X193629030Y-111155671D01*
X193620765Y-111132572D01*
X193614804Y-111108773D01*
X193611204Y-111084505D01*
X193610000Y-111060001D01*
X193610000Y-110409999D01*
X193611204Y-110385495D01*
X193614804Y-110361227D01*
X193620765Y-110337428D01*
X193629030Y-110314329D01*
X193639520Y-110292150D01*
X193652132Y-110271107D01*
X193666747Y-110251401D01*
X193683223Y-110233223D01*
X193701401Y-110216747D01*
X193721107Y-110202132D01*
X193742150Y-110189520D01*
X193764329Y-110179030D01*
X193787428Y-110170765D01*
X193811227Y-110164804D01*
X193835495Y-110161204D01*
X193859999Y-110160000D01*
X194760001Y-110160000D01*
X194784505Y-110161204D01*
X194784505Y-110161204D01*
G37*
D11*
X194310000Y-110735000D03*
D10*
G36*
X194784505Y-112211204D02*
G01*
X194808773Y-112214804D01*
X194832572Y-112220765D01*
X194855671Y-112229030D01*
X194877850Y-112239520D01*
X194898893Y-112252132D01*
X194918599Y-112266747D01*
X194936777Y-112283223D01*
X194953253Y-112301401D01*
X194967868Y-112321107D01*
X194980480Y-112342150D01*
X194990970Y-112364329D01*
X194999235Y-112387428D01*
X195005196Y-112411227D01*
X195008796Y-112435495D01*
X195010000Y-112459999D01*
X195010000Y-113110001D01*
X195008796Y-113134505D01*
X195005196Y-113158773D01*
X194999235Y-113182572D01*
X194990970Y-113205671D01*
X194980480Y-113227850D01*
X194967868Y-113248893D01*
X194953253Y-113268599D01*
X194936777Y-113286777D01*
X194918599Y-113303253D01*
X194898893Y-113317868D01*
X194877850Y-113330480D01*
X194855671Y-113340970D01*
X194832572Y-113349235D01*
X194808773Y-113355196D01*
X194784505Y-113358796D01*
X194760001Y-113360000D01*
X193859999Y-113360000D01*
X193835495Y-113358796D01*
X193811227Y-113355196D01*
X193787428Y-113349235D01*
X193764329Y-113340970D01*
X193742150Y-113330480D01*
X193721107Y-113317868D01*
X193701401Y-113303253D01*
X193683223Y-113286777D01*
X193666747Y-113268599D01*
X193652132Y-113248893D01*
X193639520Y-113227850D01*
X193629030Y-113205671D01*
X193620765Y-113182572D01*
X193614804Y-113158773D01*
X193611204Y-113134505D01*
X193610000Y-113110001D01*
X193610000Y-112459999D01*
X193611204Y-112435495D01*
X193614804Y-112411227D01*
X193620765Y-112387428D01*
X193629030Y-112364329D01*
X193639520Y-112342150D01*
X193652132Y-112321107D01*
X193666747Y-112301401D01*
X193683223Y-112283223D01*
X193701401Y-112266747D01*
X193721107Y-112252132D01*
X193742150Y-112239520D01*
X193764329Y-112229030D01*
X193787428Y-112220765D01*
X193811227Y-112214804D01*
X193835495Y-112211204D01*
X193859999Y-112210000D01*
X194760001Y-112210000D01*
X194784505Y-112211204D01*
X194784505Y-112211204D01*
G37*
D11*
X194310000Y-112785000D03*
D10*
G36*
X194784505Y-60141204D02*
G01*
X194808773Y-60144804D01*
X194832572Y-60150765D01*
X194855671Y-60159030D01*
X194877850Y-60169520D01*
X194898893Y-60182132D01*
X194918599Y-60196747D01*
X194936777Y-60213223D01*
X194953253Y-60231401D01*
X194967868Y-60251107D01*
X194980480Y-60272150D01*
X194990970Y-60294329D01*
X194999235Y-60317428D01*
X195005196Y-60341227D01*
X195008796Y-60365495D01*
X195010000Y-60389999D01*
X195010000Y-61040001D01*
X195008796Y-61064505D01*
X195005196Y-61088773D01*
X194999235Y-61112572D01*
X194990970Y-61135671D01*
X194980480Y-61157850D01*
X194967868Y-61178893D01*
X194953253Y-61198599D01*
X194936777Y-61216777D01*
X194918599Y-61233253D01*
X194898893Y-61247868D01*
X194877850Y-61260480D01*
X194855671Y-61270970D01*
X194832572Y-61279235D01*
X194808773Y-61285196D01*
X194784505Y-61288796D01*
X194760001Y-61290000D01*
X193859999Y-61290000D01*
X193835495Y-61288796D01*
X193811227Y-61285196D01*
X193787428Y-61279235D01*
X193764329Y-61270970D01*
X193742150Y-61260480D01*
X193721107Y-61247868D01*
X193701401Y-61233253D01*
X193683223Y-61216777D01*
X193666747Y-61198599D01*
X193652132Y-61178893D01*
X193639520Y-61157850D01*
X193629030Y-61135671D01*
X193620765Y-61112572D01*
X193614804Y-61088773D01*
X193611204Y-61064505D01*
X193610000Y-61040001D01*
X193610000Y-60389999D01*
X193611204Y-60365495D01*
X193614804Y-60341227D01*
X193620765Y-60317428D01*
X193629030Y-60294329D01*
X193639520Y-60272150D01*
X193652132Y-60251107D01*
X193666747Y-60231401D01*
X193683223Y-60213223D01*
X193701401Y-60196747D01*
X193721107Y-60182132D01*
X193742150Y-60169520D01*
X193764329Y-60159030D01*
X193787428Y-60150765D01*
X193811227Y-60144804D01*
X193835495Y-60141204D01*
X193859999Y-60140000D01*
X194760001Y-60140000D01*
X194784505Y-60141204D01*
X194784505Y-60141204D01*
G37*
D11*
X194310000Y-60715000D03*
D10*
G36*
X194784505Y-58091204D02*
G01*
X194808773Y-58094804D01*
X194832572Y-58100765D01*
X194855671Y-58109030D01*
X194877850Y-58119520D01*
X194898893Y-58132132D01*
X194918599Y-58146747D01*
X194936777Y-58163223D01*
X194953253Y-58181401D01*
X194967868Y-58201107D01*
X194980480Y-58222150D01*
X194990970Y-58244329D01*
X194999235Y-58267428D01*
X195005196Y-58291227D01*
X195008796Y-58315495D01*
X195010000Y-58339999D01*
X195010000Y-58990001D01*
X195008796Y-59014505D01*
X195005196Y-59038773D01*
X194999235Y-59062572D01*
X194990970Y-59085671D01*
X194980480Y-59107850D01*
X194967868Y-59128893D01*
X194953253Y-59148599D01*
X194936777Y-59166777D01*
X194918599Y-59183253D01*
X194898893Y-59197868D01*
X194877850Y-59210480D01*
X194855671Y-59220970D01*
X194832572Y-59229235D01*
X194808773Y-59235196D01*
X194784505Y-59238796D01*
X194760001Y-59240000D01*
X193859999Y-59240000D01*
X193835495Y-59238796D01*
X193811227Y-59235196D01*
X193787428Y-59229235D01*
X193764329Y-59220970D01*
X193742150Y-59210480D01*
X193721107Y-59197868D01*
X193701401Y-59183253D01*
X193683223Y-59166777D01*
X193666747Y-59148599D01*
X193652132Y-59128893D01*
X193639520Y-59107850D01*
X193629030Y-59085671D01*
X193620765Y-59062572D01*
X193614804Y-59038773D01*
X193611204Y-59014505D01*
X193610000Y-58990001D01*
X193610000Y-58339999D01*
X193611204Y-58315495D01*
X193614804Y-58291227D01*
X193620765Y-58267428D01*
X193629030Y-58244329D01*
X193639520Y-58222150D01*
X193652132Y-58201107D01*
X193666747Y-58181401D01*
X193683223Y-58163223D01*
X193701401Y-58146747D01*
X193721107Y-58132132D01*
X193742150Y-58119520D01*
X193764329Y-58109030D01*
X193787428Y-58100765D01*
X193811227Y-58094804D01*
X193835495Y-58091204D01*
X193859999Y-58090000D01*
X194760001Y-58090000D01*
X194784505Y-58091204D01*
X194784505Y-58091204D01*
G37*
D11*
X194310000Y-58665000D03*
D10*
G36*
X169384505Y-110161204D02*
G01*
X169408773Y-110164804D01*
X169432572Y-110170765D01*
X169455671Y-110179030D01*
X169477850Y-110189520D01*
X169498893Y-110202132D01*
X169518599Y-110216747D01*
X169536777Y-110233223D01*
X169553253Y-110251401D01*
X169567868Y-110271107D01*
X169580480Y-110292150D01*
X169590970Y-110314329D01*
X169599235Y-110337428D01*
X169605196Y-110361227D01*
X169608796Y-110385495D01*
X169610000Y-110409999D01*
X169610000Y-111060001D01*
X169608796Y-111084505D01*
X169605196Y-111108773D01*
X169599235Y-111132572D01*
X169590970Y-111155671D01*
X169580480Y-111177850D01*
X169567868Y-111198893D01*
X169553253Y-111218599D01*
X169536777Y-111236777D01*
X169518599Y-111253253D01*
X169498893Y-111267868D01*
X169477850Y-111280480D01*
X169455671Y-111290970D01*
X169432572Y-111299235D01*
X169408773Y-111305196D01*
X169384505Y-111308796D01*
X169360001Y-111310000D01*
X168459999Y-111310000D01*
X168435495Y-111308796D01*
X168411227Y-111305196D01*
X168387428Y-111299235D01*
X168364329Y-111290970D01*
X168342150Y-111280480D01*
X168321107Y-111267868D01*
X168301401Y-111253253D01*
X168283223Y-111236777D01*
X168266747Y-111218599D01*
X168252132Y-111198893D01*
X168239520Y-111177850D01*
X168229030Y-111155671D01*
X168220765Y-111132572D01*
X168214804Y-111108773D01*
X168211204Y-111084505D01*
X168210000Y-111060001D01*
X168210000Y-110409999D01*
X168211204Y-110385495D01*
X168214804Y-110361227D01*
X168220765Y-110337428D01*
X168229030Y-110314329D01*
X168239520Y-110292150D01*
X168252132Y-110271107D01*
X168266747Y-110251401D01*
X168283223Y-110233223D01*
X168301401Y-110216747D01*
X168321107Y-110202132D01*
X168342150Y-110189520D01*
X168364329Y-110179030D01*
X168387428Y-110170765D01*
X168411227Y-110164804D01*
X168435495Y-110161204D01*
X168459999Y-110160000D01*
X169360001Y-110160000D01*
X169384505Y-110161204D01*
X169384505Y-110161204D01*
G37*
D11*
X168910000Y-110735000D03*
D10*
G36*
X169384505Y-112211204D02*
G01*
X169408773Y-112214804D01*
X169432572Y-112220765D01*
X169455671Y-112229030D01*
X169477850Y-112239520D01*
X169498893Y-112252132D01*
X169518599Y-112266747D01*
X169536777Y-112283223D01*
X169553253Y-112301401D01*
X169567868Y-112321107D01*
X169580480Y-112342150D01*
X169590970Y-112364329D01*
X169599235Y-112387428D01*
X169605196Y-112411227D01*
X169608796Y-112435495D01*
X169610000Y-112459999D01*
X169610000Y-113110001D01*
X169608796Y-113134505D01*
X169605196Y-113158773D01*
X169599235Y-113182572D01*
X169590970Y-113205671D01*
X169580480Y-113227850D01*
X169567868Y-113248893D01*
X169553253Y-113268599D01*
X169536777Y-113286777D01*
X169518599Y-113303253D01*
X169498893Y-113317868D01*
X169477850Y-113330480D01*
X169455671Y-113340970D01*
X169432572Y-113349235D01*
X169408773Y-113355196D01*
X169384505Y-113358796D01*
X169360001Y-113360000D01*
X168459999Y-113360000D01*
X168435495Y-113358796D01*
X168411227Y-113355196D01*
X168387428Y-113349235D01*
X168364329Y-113340970D01*
X168342150Y-113330480D01*
X168321107Y-113317868D01*
X168301401Y-113303253D01*
X168283223Y-113286777D01*
X168266747Y-113268599D01*
X168252132Y-113248893D01*
X168239520Y-113227850D01*
X168229030Y-113205671D01*
X168220765Y-113182572D01*
X168214804Y-113158773D01*
X168211204Y-113134505D01*
X168210000Y-113110001D01*
X168210000Y-112459999D01*
X168211204Y-112435495D01*
X168214804Y-112411227D01*
X168220765Y-112387428D01*
X168229030Y-112364329D01*
X168239520Y-112342150D01*
X168252132Y-112321107D01*
X168266747Y-112301401D01*
X168283223Y-112283223D01*
X168301401Y-112266747D01*
X168321107Y-112252132D01*
X168342150Y-112239520D01*
X168364329Y-112229030D01*
X168387428Y-112220765D01*
X168411227Y-112214804D01*
X168435495Y-112211204D01*
X168459999Y-112210000D01*
X169360001Y-112210000D01*
X169384505Y-112211204D01*
X169384505Y-112211204D01*
G37*
D11*
X168910000Y-112785000D03*
D10*
G36*
X192244505Y-60141204D02*
G01*
X192268773Y-60144804D01*
X192292572Y-60150765D01*
X192315671Y-60159030D01*
X192337850Y-60169520D01*
X192358893Y-60182132D01*
X192378599Y-60196747D01*
X192396777Y-60213223D01*
X192413253Y-60231401D01*
X192427868Y-60251107D01*
X192440480Y-60272150D01*
X192450970Y-60294329D01*
X192459235Y-60317428D01*
X192465196Y-60341227D01*
X192468796Y-60365495D01*
X192470000Y-60389999D01*
X192470000Y-61040001D01*
X192468796Y-61064505D01*
X192465196Y-61088773D01*
X192459235Y-61112572D01*
X192450970Y-61135671D01*
X192440480Y-61157850D01*
X192427868Y-61178893D01*
X192413253Y-61198599D01*
X192396777Y-61216777D01*
X192378599Y-61233253D01*
X192358893Y-61247868D01*
X192337850Y-61260480D01*
X192315671Y-61270970D01*
X192292572Y-61279235D01*
X192268773Y-61285196D01*
X192244505Y-61288796D01*
X192220001Y-61290000D01*
X191319999Y-61290000D01*
X191295495Y-61288796D01*
X191271227Y-61285196D01*
X191247428Y-61279235D01*
X191224329Y-61270970D01*
X191202150Y-61260480D01*
X191181107Y-61247868D01*
X191161401Y-61233253D01*
X191143223Y-61216777D01*
X191126747Y-61198599D01*
X191112132Y-61178893D01*
X191099520Y-61157850D01*
X191089030Y-61135671D01*
X191080765Y-61112572D01*
X191074804Y-61088773D01*
X191071204Y-61064505D01*
X191070000Y-61040001D01*
X191070000Y-60389999D01*
X191071204Y-60365495D01*
X191074804Y-60341227D01*
X191080765Y-60317428D01*
X191089030Y-60294329D01*
X191099520Y-60272150D01*
X191112132Y-60251107D01*
X191126747Y-60231401D01*
X191143223Y-60213223D01*
X191161401Y-60196747D01*
X191181107Y-60182132D01*
X191202150Y-60169520D01*
X191224329Y-60159030D01*
X191247428Y-60150765D01*
X191271227Y-60144804D01*
X191295495Y-60141204D01*
X191319999Y-60140000D01*
X192220001Y-60140000D01*
X192244505Y-60141204D01*
X192244505Y-60141204D01*
G37*
D11*
X191770000Y-60715000D03*
D10*
G36*
X192244505Y-58091204D02*
G01*
X192268773Y-58094804D01*
X192292572Y-58100765D01*
X192315671Y-58109030D01*
X192337850Y-58119520D01*
X192358893Y-58132132D01*
X192378599Y-58146747D01*
X192396777Y-58163223D01*
X192413253Y-58181401D01*
X192427868Y-58201107D01*
X192440480Y-58222150D01*
X192450970Y-58244329D01*
X192459235Y-58267428D01*
X192465196Y-58291227D01*
X192468796Y-58315495D01*
X192470000Y-58339999D01*
X192470000Y-58990001D01*
X192468796Y-59014505D01*
X192465196Y-59038773D01*
X192459235Y-59062572D01*
X192450970Y-59085671D01*
X192440480Y-59107850D01*
X192427868Y-59128893D01*
X192413253Y-59148599D01*
X192396777Y-59166777D01*
X192378599Y-59183253D01*
X192358893Y-59197868D01*
X192337850Y-59210480D01*
X192315671Y-59220970D01*
X192292572Y-59229235D01*
X192268773Y-59235196D01*
X192244505Y-59238796D01*
X192220001Y-59240000D01*
X191319999Y-59240000D01*
X191295495Y-59238796D01*
X191271227Y-59235196D01*
X191247428Y-59229235D01*
X191224329Y-59220970D01*
X191202150Y-59210480D01*
X191181107Y-59197868D01*
X191161401Y-59183253D01*
X191143223Y-59166777D01*
X191126747Y-59148599D01*
X191112132Y-59128893D01*
X191099520Y-59107850D01*
X191089030Y-59085671D01*
X191080765Y-59062572D01*
X191074804Y-59038773D01*
X191071204Y-59014505D01*
X191070000Y-58990001D01*
X191070000Y-58339999D01*
X191071204Y-58315495D01*
X191074804Y-58291227D01*
X191080765Y-58267428D01*
X191089030Y-58244329D01*
X191099520Y-58222150D01*
X191112132Y-58201107D01*
X191126747Y-58181401D01*
X191143223Y-58163223D01*
X191161401Y-58146747D01*
X191181107Y-58132132D01*
X191202150Y-58119520D01*
X191224329Y-58109030D01*
X191247428Y-58100765D01*
X191271227Y-58094804D01*
X191295495Y-58091204D01*
X191319999Y-58090000D01*
X192220001Y-58090000D01*
X192244505Y-58091204D01*
X192244505Y-58091204D01*
G37*
D11*
X191770000Y-58665000D03*
D10*
G36*
X143984505Y-110161204D02*
G01*
X144008773Y-110164804D01*
X144032572Y-110170765D01*
X144055671Y-110179030D01*
X144077850Y-110189520D01*
X144098893Y-110202132D01*
X144118599Y-110216747D01*
X144136777Y-110233223D01*
X144153253Y-110251401D01*
X144167868Y-110271107D01*
X144180480Y-110292150D01*
X144190970Y-110314329D01*
X144199235Y-110337428D01*
X144205196Y-110361227D01*
X144208796Y-110385495D01*
X144210000Y-110409999D01*
X144210000Y-111060001D01*
X144208796Y-111084505D01*
X144205196Y-111108773D01*
X144199235Y-111132572D01*
X144190970Y-111155671D01*
X144180480Y-111177850D01*
X144167868Y-111198893D01*
X144153253Y-111218599D01*
X144136777Y-111236777D01*
X144118599Y-111253253D01*
X144098893Y-111267868D01*
X144077850Y-111280480D01*
X144055671Y-111290970D01*
X144032572Y-111299235D01*
X144008773Y-111305196D01*
X143984505Y-111308796D01*
X143960001Y-111310000D01*
X143059999Y-111310000D01*
X143035495Y-111308796D01*
X143011227Y-111305196D01*
X142987428Y-111299235D01*
X142964329Y-111290970D01*
X142942150Y-111280480D01*
X142921107Y-111267868D01*
X142901401Y-111253253D01*
X142883223Y-111236777D01*
X142866747Y-111218599D01*
X142852132Y-111198893D01*
X142839520Y-111177850D01*
X142829030Y-111155671D01*
X142820765Y-111132572D01*
X142814804Y-111108773D01*
X142811204Y-111084505D01*
X142810000Y-111060001D01*
X142810000Y-110409999D01*
X142811204Y-110385495D01*
X142814804Y-110361227D01*
X142820765Y-110337428D01*
X142829030Y-110314329D01*
X142839520Y-110292150D01*
X142852132Y-110271107D01*
X142866747Y-110251401D01*
X142883223Y-110233223D01*
X142901401Y-110216747D01*
X142921107Y-110202132D01*
X142942150Y-110189520D01*
X142964329Y-110179030D01*
X142987428Y-110170765D01*
X143011227Y-110164804D01*
X143035495Y-110161204D01*
X143059999Y-110160000D01*
X143960001Y-110160000D01*
X143984505Y-110161204D01*
X143984505Y-110161204D01*
G37*
D11*
X143510000Y-110735000D03*
D10*
G36*
X143984505Y-112211204D02*
G01*
X144008773Y-112214804D01*
X144032572Y-112220765D01*
X144055671Y-112229030D01*
X144077850Y-112239520D01*
X144098893Y-112252132D01*
X144118599Y-112266747D01*
X144136777Y-112283223D01*
X144153253Y-112301401D01*
X144167868Y-112321107D01*
X144180480Y-112342150D01*
X144190970Y-112364329D01*
X144199235Y-112387428D01*
X144205196Y-112411227D01*
X144208796Y-112435495D01*
X144210000Y-112459999D01*
X144210000Y-113110001D01*
X144208796Y-113134505D01*
X144205196Y-113158773D01*
X144199235Y-113182572D01*
X144190970Y-113205671D01*
X144180480Y-113227850D01*
X144167868Y-113248893D01*
X144153253Y-113268599D01*
X144136777Y-113286777D01*
X144118599Y-113303253D01*
X144098893Y-113317868D01*
X144077850Y-113330480D01*
X144055671Y-113340970D01*
X144032572Y-113349235D01*
X144008773Y-113355196D01*
X143984505Y-113358796D01*
X143960001Y-113360000D01*
X143059999Y-113360000D01*
X143035495Y-113358796D01*
X143011227Y-113355196D01*
X142987428Y-113349235D01*
X142964329Y-113340970D01*
X142942150Y-113330480D01*
X142921107Y-113317868D01*
X142901401Y-113303253D01*
X142883223Y-113286777D01*
X142866747Y-113268599D01*
X142852132Y-113248893D01*
X142839520Y-113227850D01*
X142829030Y-113205671D01*
X142820765Y-113182572D01*
X142814804Y-113158773D01*
X142811204Y-113134505D01*
X142810000Y-113110001D01*
X142810000Y-112459999D01*
X142811204Y-112435495D01*
X142814804Y-112411227D01*
X142820765Y-112387428D01*
X142829030Y-112364329D01*
X142839520Y-112342150D01*
X142852132Y-112321107D01*
X142866747Y-112301401D01*
X142883223Y-112283223D01*
X142901401Y-112266747D01*
X142921107Y-112252132D01*
X142942150Y-112239520D01*
X142964329Y-112229030D01*
X142987428Y-112220765D01*
X143011227Y-112214804D01*
X143035495Y-112211204D01*
X143059999Y-112210000D01*
X143960001Y-112210000D01*
X143984505Y-112211204D01*
X143984505Y-112211204D01*
G37*
D11*
X143510000Y-112785000D03*
D10*
G36*
X189704505Y-58091204D02*
G01*
X189728773Y-58094804D01*
X189752572Y-58100765D01*
X189775671Y-58109030D01*
X189797850Y-58119520D01*
X189818893Y-58132132D01*
X189838599Y-58146747D01*
X189856777Y-58163223D01*
X189873253Y-58181401D01*
X189887868Y-58201107D01*
X189900480Y-58222150D01*
X189910970Y-58244329D01*
X189919235Y-58267428D01*
X189925196Y-58291227D01*
X189928796Y-58315495D01*
X189930000Y-58339999D01*
X189930000Y-58990001D01*
X189928796Y-59014505D01*
X189925196Y-59038773D01*
X189919235Y-59062572D01*
X189910970Y-59085671D01*
X189900480Y-59107850D01*
X189887868Y-59128893D01*
X189873253Y-59148599D01*
X189856777Y-59166777D01*
X189838599Y-59183253D01*
X189818893Y-59197868D01*
X189797850Y-59210480D01*
X189775671Y-59220970D01*
X189752572Y-59229235D01*
X189728773Y-59235196D01*
X189704505Y-59238796D01*
X189680001Y-59240000D01*
X188779999Y-59240000D01*
X188755495Y-59238796D01*
X188731227Y-59235196D01*
X188707428Y-59229235D01*
X188684329Y-59220970D01*
X188662150Y-59210480D01*
X188641107Y-59197868D01*
X188621401Y-59183253D01*
X188603223Y-59166777D01*
X188586747Y-59148599D01*
X188572132Y-59128893D01*
X188559520Y-59107850D01*
X188549030Y-59085671D01*
X188540765Y-59062572D01*
X188534804Y-59038773D01*
X188531204Y-59014505D01*
X188530000Y-58990001D01*
X188530000Y-58339999D01*
X188531204Y-58315495D01*
X188534804Y-58291227D01*
X188540765Y-58267428D01*
X188549030Y-58244329D01*
X188559520Y-58222150D01*
X188572132Y-58201107D01*
X188586747Y-58181401D01*
X188603223Y-58163223D01*
X188621401Y-58146747D01*
X188641107Y-58132132D01*
X188662150Y-58119520D01*
X188684329Y-58109030D01*
X188707428Y-58100765D01*
X188731227Y-58094804D01*
X188755495Y-58091204D01*
X188779999Y-58090000D01*
X189680001Y-58090000D01*
X189704505Y-58091204D01*
X189704505Y-58091204D01*
G37*
D11*
X189230000Y-58665000D03*
D10*
G36*
X189704505Y-60141204D02*
G01*
X189728773Y-60144804D01*
X189752572Y-60150765D01*
X189775671Y-60159030D01*
X189797850Y-60169520D01*
X189818893Y-60182132D01*
X189838599Y-60196747D01*
X189856777Y-60213223D01*
X189873253Y-60231401D01*
X189887868Y-60251107D01*
X189900480Y-60272150D01*
X189910970Y-60294329D01*
X189919235Y-60317428D01*
X189925196Y-60341227D01*
X189928796Y-60365495D01*
X189930000Y-60389999D01*
X189930000Y-61040001D01*
X189928796Y-61064505D01*
X189925196Y-61088773D01*
X189919235Y-61112572D01*
X189910970Y-61135671D01*
X189900480Y-61157850D01*
X189887868Y-61178893D01*
X189873253Y-61198599D01*
X189856777Y-61216777D01*
X189838599Y-61233253D01*
X189818893Y-61247868D01*
X189797850Y-61260480D01*
X189775671Y-61270970D01*
X189752572Y-61279235D01*
X189728773Y-61285196D01*
X189704505Y-61288796D01*
X189680001Y-61290000D01*
X188779999Y-61290000D01*
X188755495Y-61288796D01*
X188731227Y-61285196D01*
X188707428Y-61279235D01*
X188684329Y-61270970D01*
X188662150Y-61260480D01*
X188641107Y-61247868D01*
X188621401Y-61233253D01*
X188603223Y-61216777D01*
X188586747Y-61198599D01*
X188572132Y-61178893D01*
X188559520Y-61157850D01*
X188549030Y-61135671D01*
X188540765Y-61112572D01*
X188534804Y-61088773D01*
X188531204Y-61064505D01*
X188530000Y-61040001D01*
X188530000Y-60389999D01*
X188531204Y-60365495D01*
X188534804Y-60341227D01*
X188540765Y-60317428D01*
X188549030Y-60294329D01*
X188559520Y-60272150D01*
X188572132Y-60251107D01*
X188586747Y-60231401D01*
X188603223Y-60213223D01*
X188621401Y-60196747D01*
X188641107Y-60182132D01*
X188662150Y-60169520D01*
X188684329Y-60159030D01*
X188707428Y-60150765D01*
X188731227Y-60144804D01*
X188755495Y-60141204D01*
X188779999Y-60140000D01*
X189680001Y-60140000D01*
X189704505Y-60141204D01*
X189704505Y-60141204D01*
G37*
D11*
X189230000Y-60715000D03*
D10*
G36*
X118584505Y-110161204D02*
G01*
X118608773Y-110164804D01*
X118632572Y-110170765D01*
X118655671Y-110179030D01*
X118677850Y-110189520D01*
X118698893Y-110202132D01*
X118718599Y-110216747D01*
X118736777Y-110233223D01*
X118753253Y-110251401D01*
X118767868Y-110271107D01*
X118780480Y-110292150D01*
X118790970Y-110314329D01*
X118799235Y-110337428D01*
X118805196Y-110361227D01*
X118808796Y-110385495D01*
X118810000Y-110409999D01*
X118810000Y-111060001D01*
X118808796Y-111084505D01*
X118805196Y-111108773D01*
X118799235Y-111132572D01*
X118790970Y-111155671D01*
X118780480Y-111177850D01*
X118767868Y-111198893D01*
X118753253Y-111218599D01*
X118736777Y-111236777D01*
X118718599Y-111253253D01*
X118698893Y-111267868D01*
X118677850Y-111280480D01*
X118655671Y-111290970D01*
X118632572Y-111299235D01*
X118608773Y-111305196D01*
X118584505Y-111308796D01*
X118560001Y-111310000D01*
X117659999Y-111310000D01*
X117635495Y-111308796D01*
X117611227Y-111305196D01*
X117587428Y-111299235D01*
X117564329Y-111290970D01*
X117542150Y-111280480D01*
X117521107Y-111267868D01*
X117501401Y-111253253D01*
X117483223Y-111236777D01*
X117466747Y-111218599D01*
X117452132Y-111198893D01*
X117439520Y-111177850D01*
X117429030Y-111155671D01*
X117420765Y-111132572D01*
X117414804Y-111108773D01*
X117411204Y-111084505D01*
X117410000Y-111060001D01*
X117410000Y-110409999D01*
X117411204Y-110385495D01*
X117414804Y-110361227D01*
X117420765Y-110337428D01*
X117429030Y-110314329D01*
X117439520Y-110292150D01*
X117452132Y-110271107D01*
X117466747Y-110251401D01*
X117483223Y-110233223D01*
X117501401Y-110216747D01*
X117521107Y-110202132D01*
X117542150Y-110189520D01*
X117564329Y-110179030D01*
X117587428Y-110170765D01*
X117611227Y-110164804D01*
X117635495Y-110161204D01*
X117659999Y-110160000D01*
X118560001Y-110160000D01*
X118584505Y-110161204D01*
X118584505Y-110161204D01*
G37*
D11*
X118110000Y-110735000D03*
D10*
G36*
X118584505Y-112211204D02*
G01*
X118608773Y-112214804D01*
X118632572Y-112220765D01*
X118655671Y-112229030D01*
X118677850Y-112239520D01*
X118698893Y-112252132D01*
X118718599Y-112266747D01*
X118736777Y-112283223D01*
X118753253Y-112301401D01*
X118767868Y-112321107D01*
X118780480Y-112342150D01*
X118790970Y-112364329D01*
X118799235Y-112387428D01*
X118805196Y-112411227D01*
X118808796Y-112435495D01*
X118810000Y-112459999D01*
X118810000Y-113110001D01*
X118808796Y-113134505D01*
X118805196Y-113158773D01*
X118799235Y-113182572D01*
X118790970Y-113205671D01*
X118780480Y-113227850D01*
X118767868Y-113248893D01*
X118753253Y-113268599D01*
X118736777Y-113286777D01*
X118718599Y-113303253D01*
X118698893Y-113317868D01*
X118677850Y-113330480D01*
X118655671Y-113340970D01*
X118632572Y-113349235D01*
X118608773Y-113355196D01*
X118584505Y-113358796D01*
X118560001Y-113360000D01*
X117659999Y-113360000D01*
X117635495Y-113358796D01*
X117611227Y-113355196D01*
X117587428Y-113349235D01*
X117564329Y-113340970D01*
X117542150Y-113330480D01*
X117521107Y-113317868D01*
X117501401Y-113303253D01*
X117483223Y-113286777D01*
X117466747Y-113268599D01*
X117452132Y-113248893D01*
X117439520Y-113227850D01*
X117429030Y-113205671D01*
X117420765Y-113182572D01*
X117414804Y-113158773D01*
X117411204Y-113134505D01*
X117410000Y-113110001D01*
X117410000Y-112459999D01*
X117411204Y-112435495D01*
X117414804Y-112411227D01*
X117420765Y-112387428D01*
X117429030Y-112364329D01*
X117439520Y-112342150D01*
X117452132Y-112321107D01*
X117466747Y-112301401D01*
X117483223Y-112283223D01*
X117501401Y-112266747D01*
X117521107Y-112252132D01*
X117542150Y-112239520D01*
X117564329Y-112229030D01*
X117587428Y-112220765D01*
X117611227Y-112214804D01*
X117635495Y-112211204D01*
X117659999Y-112210000D01*
X118560001Y-112210000D01*
X118584505Y-112211204D01*
X118584505Y-112211204D01*
G37*
D11*
X118110000Y-112785000D03*
D10*
G36*
X187164505Y-60141204D02*
G01*
X187188773Y-60144804D01*
X187212572Y-60150765D01*
X187235671Y-60159030D01*
X187257850Y-60169520D01*
X187278893Y-60182132D01*
X187298599Y-60196747D01*
X187316777Y-60213223D01*
X187333253Y-60231401D01*
X187347868Y-60251107D01*
X187360480Y-60272150D01*
X187370970Y-60294329D01*
X187379235Y-60317428D01*
X187385196Y-60341227D01*
X187388796Y-60365495D01*
X187390000Y-60389999D01*
X187390000Y-61040001D01*
X187388796Y-61064505D01*
X187385196Y-61088773D01*
X187379235Y-61112572D01*
X187370970Y-61135671D01*
X187360480Y-61157850D01*
X187347868Y-61178893D01*
X187333253Y-61198599D01*
X187316777Y-61216777D01*
X187298599Y-61233253D01*
X187278893Y-61247868D01*
X187257850Y-61260480D01*
X187235671Y-61270970D01*
X187212572Y-61279235D01*
X187188773Y-61285196D01*
X187164505Y-61288796D01*
X187140001Y-61290000D01*
X186239999Y-61290000D01*
X186215495Y-61288796D01*
X186191227Y-61285196D01*
X186167428Y-61279235D01*
X186144329Y-61270970D01*
X186122150Y-61260480D01*
X186101107Y-61247868D01*
X186081401Y-61233253D01*
X186063223Y-61216777D01*
X186046747Y-61198599D01*
X186032132Y-61178893D01*
X186019520Y-61157850D01*
X186009030Y-61135671D01*
X186000765Y-61112572D01*
X185994804Y-61088773D01*
X185991204Y-61064505D01*
X185990000Y-61040001D01*
X185990000Y-60389999D01*
X185991204Y-60365495D01*
X185994804Y-60341227D01*
X186000765Y-60317428D01*
X186009030Y-60294329D01*
X186019520Y-60272150D01*
X186032132Y-60251107D01*
X186046747Y-60231401D01*
X186063223Y-60213223D01*
X186081401Y-60196747D01*
X186101107Y-60182132D01*
X186122150Y-60169520D01*
X186144329Y-60159030D01*
X186167428Y-60150765D01*
X186191227Y-60144804D01*
X186215495Y-60141204D01*
X186239999Y-60140000D01*
X187140001Y-60140000D01*
X187164505Y-60141204D01*
X187164505Y-60141204D01*
G37*
D11*
X186690000Y-60715000D03*
D10*
G36*
X187164505Y-58091204D02*
G01*
X187188773Y-58094804D01*
X187212572Y-58100765D01*
X187235671Y-58109030D01*
X187257850Y-58119520D01*
X187278893Y-58132132D01*
X187298599Y-58146747D01*
X187316777Y-58163223D01*
X187333253Y-58181401D01*
X187347868Y-58201107D01*
X187360480Y-58222150D01*
X187370970Y-58244329D01*
X187379235Y-58267428D01*
X187385196Y-58291227D01*
X187388796Y-58315495D01*
X187390000Y-58339999D01*
X187390000Y-58990001D01*
X187388796Y-59014505D01*
X187385196Y-59038773D01*
X187379235Y-59062572D01*
X187370970Y-59085671D01*
X187360480Y-59107850D01*
X187347868Y-59128893D01*
X187333253Y-59148599D01*
X187316777Y-59166777D01*
X187298599Y-59183253D01*
X187278893Y-59197868D01*
X187257850Y-59210480D01*
X187235671Y-59220970D01*
X187212572Y-59229235D01*
X187188773Y-59235196D01*
X187164505Y-59238796D01*
X187140001Y-59240000D01*
X186239999Y-59240000D01*
X186215495Y-59238796D01*
X186191227Y-59235196D01*
X186167428Y-59229235D01*
X186144329Y-59220970D01*
X186122150Y-59210480D01*
X186101107Y-59197868D01*
X186081401Y-59183253D01*
X186063223Y-59166777D01*
X186046747Y-59148599D01*
X186032132Y-59128893D01*
X186019520Y-59107850D01*
X186009030Y-59085671D01*
X186000765Y-59062572D01*
X185994804Y-59038773D01*
X185991204Y-59014505D01*
X185990000Y-58990001D01*
X185990000Y-58339999D01*
X185991204Y-58315495D01*
X185994804Y-58291227D01*
X186000765Y-58267428D01*
X186009030Y-58244329D01*
X186019520Y-58222150D01*
X186032132Y-58201107D01*
X186046747Y-58181401D01*
X186063223Y-58163223D01*
X186081401Y-58146747D01*
X186101107Y-58132132D01*
X186122150Y-58119520D01*
X186144329Y-58109030D01*
X186167428Y-58100765D01*
X186191227Y-58094804D01*
X186215495Y-58091204D01*
X186239999Y-58090000D01*
X187140001Y-58090000D01*
X187164505Y-58091204D01*
X187164505Y-58091204D01*
G37*
D11*
X186690000Y-58665000D03*
D10*
G36*
X93184505Y-110161204D02*
G01*
X93208773Y-110164804D01*
X93232572Y-110170765D01*
X93255671Y-110179030D01*
X93277850Y-110189520D01*
X93298893Y-110202132D01*
X93318599Y-110216747D01*
X93336777Y-110233223D01*
X93353253Y-110251401D01*
X93367868Y-110271107D01*
X93380480Y-110292150D01*
X93390970Y-110314329D01*
X93399235Y-110337428D01*
X93405196Y-110361227D01*
X93408796Y-110385495D01*
X93410000Y-110409999D01*
X93410000Y-111060001D01*
X93408796Y-111084505D01*
X93405196Y-111108773D01*
X93399235Y-111132572D01*
X93390970Y-111155671D01*
X93380480Y-111177850D01*
X93367868Y-111198893D01*
X93353253Y-111218599D01*
X93336777Y-111236777D01*
X93318599Y-111253253D01*
X93298893Y-111267868D01*
X93277850Y-111280480D01*
X93255671Y-111290970D01*
X93232572Y-111299235D01*
X93208773Y-111305196D01*
X93184505Y-111308796D01*
X93160001Y-111310000D01*
X92259999Y-111310000D01*
X92235495Y-111308796D01*
X92211227Y-111305196D01*
X92187428Y-111299235D01*
X92164329Y-111290970D01*
X92142150Y-111280480D01*
X92121107Y-111267868D01*
X92101401Y-111253253D01*
X92083223Y-111236777D01*
X92066747Y-111218599D01*
X92052132Y-111198893D01*
X92039520Y-111177850D01*
X92029030Y-111155671D01*
X92020765Y-111132572D01*
X92014804Y-111108773D01*
X92011204Y-111084505D01*
X92010000Y-111060001D01*
X92010000Y-110409999D01*
X92011204Y-110385495D01*
X92014804Y-110361227D01*
X92020765Y-110337428D01*
X92029030Y-110314329D01*
X92039520Y-110292150D01*
X92052132Y-110271107D01*
X92066747Y-110251401D01*
X92083223Y-110233223D01*
X92101401Y-110216747D01*
X92121107Y-110202132D01*
X92142150Y-110189520D01*
X92164329Y-110179030D01*
X92187428Y-110170765D01*
X92211227Y-110164804D01*
X92235495Y-110161204D01*
X92259999Y-110160000D01*
X93160001Y-110160000D01*
X93184505Y-110161204D01*
X93184505Y-110161204D01*
G37*
D11*
X92710000Y-110735000D03*
D10*
G36*
X93184505Y-112211204D02*
G01*
X93208773Y-112214804D01*
X93232572Y-112220765D01*
X93255671Y-112229030D01*
X93277850Y-112239520D01*
X93298893Y-112252132D01*
X93318599Y-112266747D01*
X93336777Y-112283223D01*
X93353253Y-112301401D01*
X93367868Y-112321107D01*
X93380480Y-112342150D01*
X93390970Y-112364329D01*
X93399235Y-112387428D01*
X93405196Y-112411227D01*
X93408796Y-112435495D01*
X93410000Y-112459999D01*
X93410000Y-113110001D01*
X93408796Y-113134505D01*
X93405196Y-113158773D01*
X93399235Y-113182572D01*
X93390970Y-113205671D01*
X93380480Y-113227850D01*
X93367868Y-113248893D01*
X93353253Y-113268599D01*
X93336777Y-113286777D01*
X93318599Y-113303253D01*
X93298893Y-113317868D01*
X93277850Y-113330480D01*
X93255671Y-113340970D01*
X93232572Y-113349235D01*
X93208773Y-113355196D01*
X93184505Y-113358796D01*
X93160001Y-113360000D01*
X92259999Y-113360000D01*
X92235495Y-113358796D01*
X92211227Y-113355196D01*
X92187428Y-113349235D01*
X92164329Y-113340970D01*
X92142150Y-113330480D01*
X92121107Y-113317868D01*
X92101401Y-113303253D01*
X92083223Y-113286777D01*
X92066747Y-113268599D01*
X92052132Y-113248893D01*
X92039520Y-113227850D01*
X92029030Y-113205671D01*
X92020765Y-113182572D01*
X92014804Y-113158773D01*
X92011204Y-113134505D01*
X92010000Y-113110001D01*
X92010000Y-112459999D01*
X92011204Y-112435495D01*
X92014804Y-112411227D01*
X92020765Y-112387428D01*
X92029030Y-112364329D01*
X92039520Y-112342150D01*
X92052132Y-112321107D01*
X92066747Y-112301401D01*
X92083223Y-112283223D01*
X92101401Y-112266747D01*
X92121107Y-112252132D01*
X92142150Y-112239520D01*
X92164329Y-112229030D01*
X92187428Y-112220765D01*
X92211227Y-112214804D01*
X92235495Y-112211204D01*
X92259999Y-112210000D01*
X93160001Y-112210000D01*
X93184505Y-112211204D01*
X93184505Y-112211204D01*
G37*
D11*
X92710000Y-112785000D03*
D10*
G36*
X117314505Y-66491204D02*
G01*
X117338773Y-66494804D01*
X117362572Y-66500765D01*
X117385671Y-66509030D01*
X117407850Y-66519520D01*
X117428893Y-66532132D01*
X117448599Y-66546747D01*
X117466777Y-66563223D01*
X117483253Y-66581401D01*
X117497868Y-66601107D01*
X117510480Y-66622150D01*
X117520970Y-66644329D01*
X117529235Y-66667428D01*
X117535196Y-66691227D01*
X117538796Y-66715495D01*
X117540000Y-66739999D01*
X117540000Y-67390001D01*
X117538796Y-67414505D01*
X117535196Y-67438773D01*
X117529235Y-67462572D01*
X117520970Y-67485671D01*
X117510480Y-67507850D01*
X117497868Y-67528893D01*
X117483253Y-67548599D01*
X117466777Y-67566777D01*
X117448599Y-67583253D01*
X117428893Y-67597868D01*
X117407850Y-67610480D01*
X117385671Y-67620970D01*
X117362572Y-67629235D01*
X117338773Y-67635196D01*
X117314505Y-67638796D01*
X117290001Y-67640000D01*
X116389999Y-67640000D01*
X116365495Y-67638796D01*
X116341227Y-67635196D01*
X116317428Y-67629235D01*
X116294329Y-67620970D01*
X116272150Y-67610480D01*
X116251107Y-67597868D01*
X116231401Y-67583253D01*
X116213223Y-67566777D01*
X116196747Y-67548599D01*
X116182132Y-67528893D01*
X116169520Y-67507850D01*
X116159030Y-67485671D01*
X116150765Y-67462572D01*
X116144804Y-67438773D01*
X116141204Y-67414505D01*
X116140000Y-67390001D01*
X116140000Y-66739999D01*
X116141204Y-66715495D01*
X116144804Y-66691227D01*
X116150765Y-66667428D01*
X116159030Y-66644329D01*
X116169520Y-66622150D01*
X116182132Y-66601107D01*
X116196747Y-66581401D01*
X116213223Y-66563223D01*
X116231401Y-66546747D01*
X116251107Y-66532132D01*
X116272150Y-66519520D01*
X116294329Y-66509030D01*
X116317428Y-66500765D01*
X116341227Y-66494804D01*
X116365495Y-66491204D01*
X116389999Y-66490000D01*
X117290001Y-66490000D01*
X117314505Y-66491204D01*
X117314505Y-66491204D01*
G37*
D11*
X116840000Y-67065000D03*
D10*
G36*
X117314505Y-64441204D02*
G01*
X117338773Y-64444804D01*
X117362572Y-64450765D01*
X117385671Y-64459030D01*
X117407850Y-64469520D01*
X117428893Y-64482132D01*
X117448599Y-64496747D01*
X117466777Y-64513223D01*
X117483253Y-64531401D01*
X117497868Y-64551107D01*
X117510480Y-64572150D01*
X117520970Y-64594329D01*
X117529235Y-64617428D01*
X117535196Y-64641227D01*
X117538796Y-64665495D01*
X117540000Y-64689999D01*
X117540000Y-65340001D01*
X117538796Y-65364505D01*
X117535196Y-65388773D01*
X117529235Y-65412572D01*
X117520970Y-65435671D01*
X117510480Y-65457850D01*
X117497868Y-65478893D01*
X117483253Y-65498599D01*
X117466777Y-65516777D01*
X117448599Y-65533253D01*
X117428893Y-65547868D01*
X117407850Y-65560480D01*
X117385671Y-65570970D01*
X117362572Y-65579235D01*
X117338773Y-65585196D01*
X117314505Y-65588796D01*
X117290001Y-65590000D01*
X116389999Y-65590000D01*
X116365495Y-65588796D01*
X116341227Y-65585196D01*
X116317428Y-65579235D01*
X116294329Y-65570970D01*
X116272150Y-65560480D01*
X116251107Y-65547868D01*
X116231401Y-65533253D01*
X116213223Y-65516777D01*
X116196747Y-65498599D01*
X116182132Y-65478893D01*
X116169520Y-65457850D01*
X116159030Y-65435671D01*
X116150765Y-65412572D01*
X116144804Y-65388773D01*
X116141204Y-65364505D01*
X116140000Y-65340001D01*
X116140000Y-64689999D01*
X116141204Y-64665495D01*
X116144804Y-64641227D01*
X116150765Y-64617428D01*
X116159030Y-64594329D01*
X116169520Y-64572150D01*
X116182132Y-64551107D01*
X116196747Y-64531401D01*
X116213223Y-64513223D01*
X116231401Y-64496747D01*
X116251107Y-64482132D01*
X116272150Y-64469520D01*
X116294329Y-64459030D01*
X116317428Y-64450765D01*
X116341227Y-64444804D01*
X116365495Y-64441204D01*
X116389999Y-64440000D01*
X117290001Y-64440000D01*
X117314505Y-64441204D01*
X117314505Y-64441204D01*
G37*
D11*
X116840000Y-65015000D03*
D10*
G36*
X115099703Y-60775722D02*
G01*
X115114264Y-60777882D01*
X115128543Y-60781459D01*
X115142403Y-60786418D01*
X115155710Y-60792712D01*
X115168336Y-60800280D01*
X115180159Y-60809048D01*
X115191066Y-60818934D01*
X115200952Y-60829841D01*
X115209720Y-60841664D01*
X115217288Y-60854290D01*
X115223582Y-60867597D01*
X115228541Y-60881457D01*
X115232118Y-60895736D01*
X115234278Y-60910297D01*
X115235000Y-60925000D01*
X115235000Y-62675000D01*
X115234278Y-62689703D01*
X115232118Y-62704264D01*
X115228541Y-62718543D01*
X115223582Y-62732403D01*
X115217288Y-62745710D01*
X115209720Y-62758336D01*
X115200952Y-62770159D01*
X115191066Y-62781066D01*
X115180159Y-62790952D01*
X115168336Y-62799720D01*
X115155710Y-62807288D01*
X115142403Y-62813582D01*
X115128543Y-62818541D01*
X115114264Y-62822118D01*
X115099703Y-62824278D01*
X115085000Y-62825000D01*
X114785000Y-62825000D01*
X114770297Y-62824278D01*
X114755736Y-62822118D01*
X114741457Y-62818541D01*
X114727597Y-62813582D01*
X114714290Y-62807288D01*
X114701664Y-62799720D01*
X114689841Y-62790952D01*
X114678934Y-62781066D01*
X114669048Y-62770159D01*
X114660280Y-62758336D01*
X114652712Y-62745710D01*
X114646418Y-62732403D01*
X114641459Y-62718543D01*
X114637882Y-62704264D01*
X114635722Y-62689703D01*
X114635000Y-62675000D01*
X114635000Y-60925000D01*
X114635722Y-60910297D01*
X114637882Y-60895736D01*
X114641459Y-60881457D01*
X114646418Y-60867597D01*
X114652712Y-60854290D01*
X114660280Y-60841664D01*
X114669048Y-60829841D01*
X114678934Y-60818934D01*
X114689841Y-60809048D01*
X114701664Y-60800280D01*
X114714290Y-60792712D01*
X114727597Y-60786418D01*
X114741457Y-60781459D01*
X114755736Y-60777882D01*
X114770297Y-60775722D01*
X114785000Y-60775000D01*
X115085000Y-60775000D01*
X115099703Y-60775722D01*
X115099703Y-60775722D01*
G37*
D12*
X114935000Y-61800000D03*
D10*
G36*
X116369703Y-60775722D02*
G01*
X116384264Y-60777882D01*
X116398543Y-60781459D01*
X116412403Y-60786418D01*
X116425710Y-60792712D01*
X116438336Y-60800280D01*
X116450159Y-60809048D01*
X116461066Y-60818934D01*
X116470952Y-60829841D01*
X116479720Y-60841664D01*
X116487288Y-60854290D01*
X116493582Y-60867597D01*
X116498541Y-60881457D01*
X116502118Y-60895736D01*
X116504278Y-60910297D01*
X116505000Y-60925000D01*
X116505000Y-62675000D01*
X116504278Y-62689703D01*
X116502118Y-62704264D01*
X116498541Y-62718543D01*
X116493582Y-62732403D01*
X116487288Y-62745710D01*
X116479720Y-62758336D01*
X116470952Y-62770159D01*
X116461066Y-62781066D01*
X116450159Y-62790952D01*
X116438336Y-62799720D01*
X116425710Y-62807288D01*
X116412403Y-62813582D01*
X116398543Y-62818541D01*
X116384264Y-62822118D01*
X116369703Y-62824278D01*
X116355000Y-62825000D01*
X116055000Y-62825000D01*
X116040297Y-62824278D01*
X116025736Y-62822118D01*
X116011457Y-62818541D01*
X115997597Y-62813582D01*
X115984290Y-62807288D01*
X115971664Y-62799720D01*
X115959841Y-62790952D01*
X115948934Y-62781066D01*
X115939048Y-62770159D01*
X115930280Y-62758336D01*
X115922712Y-62745710D01*
X115916418Y-62732403D01*
X115911459Y-62718543D01*
X115907882Y-62704264D01*
X115905722Y-62689703D01*
X115905000Y-62675000D01*
X115905000Y-60925000D01*
X115905722Y-60910297D01*
X115907882Y-60895736D01*
X115911459Y-60881457D01*
X115916418Y-60867597D01*
X115922712Y-60854290D01*
X115930280Y-60841664D01*
X115939048Y-60829841D01*
X115948934Y-60818934D01*
X115959841Y-60809048D01*
X115971664Y-60800280D01*
X115984290Y-60792712D01*
X115997597Y-60786418D01*
X116011457Y-60781459D01*
X116025736Y-60777882D01*
X116040297Y-60775722D01*
X116055000Y-60775000D01*
X116355000Y-60775000D01*
X116369703Y-60775722D01*
X116369703Y-60775722D01*
G37*
D12*
X116205000Y-61800000D03*
D10*
G36*
X117639703Y-60775722D02*
G01*
X117654264Y-60777882D01*
X117668543Y-60781459D01*
X117682403Y-60786418D01*
X117695710Y-60792712D01*
X117708336Y-60800280D01*
X117720159Y-60809048D01*
X117731066Y-60818934D01*
X117740952Y-60829841D01*
X117749720Y-60841664D01*
X117757288Y-60854290D01*
X117763582Y-60867597D01*
X117768541Y-60881457D01*
X117772118Y-60895736D01*
X117774278Y-60910297D01*
X117775000Y-60925000D01*
X117775000Y-62675000D01*
X117774278Y-62689703D01*
X117772118Y-62704264D01*
X117768541Y-62718543D01*
X117763582Y-62732403D01*
X117757288Y-62745710D01*
X117749720Y-62758336D01*
X117740952Y-62770159D01*
X117731066Y-62781066D01*
X117720159Y-62790952D01*
X117708336Y-62799720D01*
X117695710Y-62807288D01*
X117682403Y-62813582D01*
X117668543Y-62818541D01*
X117654264Y-62822118D01*
X117639703Y-62824278D01*
X117625000Y-62825000D01*
X117325000Y-62825000D01*
X117310297Y-62824278D01*
X117295736Y-62822118D01*
X117281457Y-62818541D01*
X117267597Y-62813582D01*
X117254290Y-62807288D01*
X117241664Y-62799720D01*
X117229841Y-62790952D01*
X117218934Y-62781066D01*
X117209048Y-62770159D01*
X117200280Y-62758336D01*
X117192712Y-62745710D01*
X117186418Y-62732403D01*
X117181459Y-62718543D01*
X117177882Y-62704264D01*
X117175722Y-62689703D01*
X117175000Y-62675000D01*
X117175000Y-60925000D01*
X117175722Y-60910297D01*
X117177882Y-60895736D01*
X117181459Y-60881457D01*
X117186418Y-60867597D01*
X117192712Y-60854290D01*
X117200280Y-60841664D01*
X117209048Y-60829841D01*
X117218934Y-60818934D01*
X117229841Y-60809048D01*
X117241664Y-60800280D01*
X117254290Y-60792712D01*
X117267597Y-60786418D01*
X117281457Y-60781459D01*
X117295736Y-60777882D01*
X117310297Y-60775722D01*
X117325000Y-60775000D01*
X117625000Y-60775000D01*
X117639703Y-60775722D01*
X117639703Y-60775722D01*
G37*
D12*
X117475000Y-61800000D03*
D10*
G36*
X118909703Y-60775722D02*
G01*
X118924264Y-60777882D01*
X118938543Y-60781459D01*
X118952403Y-60786418D01*
X118965710Y-60792712D01*
X118978336Y-60800280D01*
X118990159Y-60809048D01*
X119001066Y-60818934D01*
X119010952Y-60829841D01*
X119019720Y-60841664D01*
X119027288Y-60854290D01*
X119033582Y-60867597D01*
X119038541Y-60881457D01*
X119042118Y-60895736D01*
X119044278Y-60910297D01*
X119045000Y-60925000D01*
X119045000Y-62675000D01*
X119044278Y-62689703D01*
X119042118Y-62704264D01*
X119038541Y-62718543D01*
X119033582Y-62732403D01*
X119027288Y-62745710D01*
X119019720Y-62758336D01*
X119010952Y-62770159D01*
X119001066Y-62781066D01*
X118990159Y-62790952D01*
X118978336Y-62799720D01*
X118965710Y-62807288D01*
X118952403Y-62813582D01*
X118938543Y-62818541D01*
X118924264Y-62822118D01*
X118909703Y-62824278D01*
X118895000Y-62825000D01*
X118595000Y-62825000D01*
X118580297Y-62824278D01*
X118565736Y-62822118D01*
X118551457Y-62818541D01*
X118537597Y-62813582D01*
X118524290Y-62807288D01*
X118511664Y-62799720D01*
X118499841Y-62790952D01*
X118488934Y-62781066D01*
X118479048Y-62770159D01*
X118470280Y-62758336D01*
X118462712Y-62745710D01*
X118456418Y-62732403D01*
X118451459Y-62718543D01*
X118447882Y-62704264D01*
X118445722Y-62689703D01*
X118445000Y-62675000D01*
X118445000Y-60925000D01*
X118445722Y-60910297D01*
X118447882Y-60895736D01*
X118451459Y-60881457D01*
X118456418Y-60867597D01*
X118462712Y-60854290D01*
X118470280Y-60841664D01*
X118479048Y-60829841D01*
X118488934Y-60818934D01*
X118499841Y-60809048D01*
X118511664Y-60800280D01*
X118524290Y-60792712D01*
X118537597Y-60786418D01*
X118551457Y-60781459D01*
X118565736Y-60777882D01*
X118580297Y-60775722D01*
X118595000Y-60775000D01*
X118895000Y-60775000D01*
X118909703Y-60775722D01*
X118909703Y-60775722D01*
G37*
D12*
X118745000Y-61800000D03*
D10*
G36*
X120179703Y-60775722D02*
G01*
X120194264Y-60777882D01*
X120208543Y-60781459D01*
X120222403Y-60786418D01*
X120235710Y-60792712D01*
X120248336Y-60800280D01*
X120260159Y-60809048D01*
X120271066Y-60818934D01*
X120280952Y-60829841D01*
X120289720Y-60841664D01*
X120297288Y-60854290D01*
X120303582Y-60867597D01*
X120308541Y-60881457D01*
X120312118Y-60895736D01*
X120314278Y-60910297D01*
X120315000Y-60925000D01*
X120315000Y-62675000D01*
X120314278Y-62689703D01*
X120312118Y-62704264D01*
X120308541Y-62718543D01*
X120303582Y-62732403D01*
X120297288Y-62745710D01*
X120289720Y-62758336D01*
X120280952Y-62770159D01*
X120271066Y-62781066D01*
X120260159Y-62790952D01*
X120248336Y-62799720D01*
X120235710Y-62807288D01*
X120222403Y-62813582D01*
X120208543Y-62818541D01*
X120194264Y-62822118D01*
X120179703Y-62824278D01*
X120165000Y-62825000D01*
X119865000Y-62825000D01*
X119850297Y-62824278D01*
X119835736Y-62822118D01*
X119821457Y-62818541D01*
X119807597Y-62813582D01*
X119794290Y-62807288D01*
X119781664Y-62799720D01*
X119769841Y-62790952D01*
X119758934Y-62781066D01*
X119749048Y-62770159D01*
X119740280Y-62758336D01*
X119732712Y-62745710D01*
X119726418Y-62732403D01*
X119721459Y-62718543D01*
X119717882Y-62704264D01*
X119715722Y-62689703D01*
X119715000Y-62675000D01*
X119715000Y-60925000D01*
X119715722Y-60910297D01*
X119717882Y-60895736D01*
X119721459Y-60881457D01*
X119726418Y-60867597D01*
X119732712Y-60854290D01*
X119740280Y-60841664D01*
X119749048Y-60829841D01*
X119758934Y-60818934D01*
X119769841Y-60809048D01*
X119781664Y-60800280D01*
X119794290Y-60792712D01*
X119807597Y-60786418D01*
X119821457Y-60781459D01*
X119835736Y-60777882D01*
X119850297Y-60775722D01*
X119865000Y-60775000D01*
X120165000Y-60775000D01*
X120179703Y-60775722D01*
X120179703Y-60775722D01*
G37*
D12*
X120015000Y-61800000D03*
D10*
G36*
X121449703Y-60775722D02*
G01*
X121464264Y-60777882D01*
X121478543Y-60781459D01*
X121492403Y-60786418D01*
X121505710Y-60792712D01*
X121518336Y-60800280D01*
X121530159Y-60809048D01*
X121541066Y-60818934D01*
X121550952Y-60829841D01*
X121559720Y-60841664D01*
X121567288Y-60854290D01*
X121573582Y-60867597D01*
X121578541Y-60881457D01*
X121582118Y-60895736D01*
X121584278Y-60910297D01*
X121585000Y-60925000D01*
X121585000Y-62675000D01*
X121584278Y-62689703D01*
X121582118Y-62704264D01*
X121578541Y-62718543D01*
X121573582Y-62732403D01*
X121567288Y-62745710D01*
X121559720Y-62758336D01*
X121550952Y-62770159D01*
X121541066Y-62781066D01*
X121530159Y-62790952D01*
X121518336Y-62799720D01*
X121505710Y-62807288D01*
X121492403Y-62813582D01*
X121478543Y-62818541D01*
X121464264Y-62822118D01*
X121449703Y-62824278D01*
X121435000Y-62825000D01*
X121135000Y-62825000D01*
X121120297Y-62824278D01*
X121105736Y-62822118D01*
X121091457Y-62818541D01*
X121077597Y-62813582D01*
X121064290Y-62807288D01*
X121051664Y-62799720D01*
X121039841Y-62790952D01*
X121028934Y-62781066D01*
X121019048Y-62770159D01*
X121010280Y-62758336D01*
X121002712Y-62745710D01*
X120996418Y-62732403D01*
X120991459Y-62718543D01*
X120987882Y-62704264D01*
X120985722Y-62689703D01*
X120985000Y-62675000D01*
X120985000Y-60925000D01*
X120985722Y-60910297D01*
X120987882Y-60895736D01*
X120991459Y-60881457D01*
X120996418Y-60867597D01*
X121002712Y-60854290D01*
X121010280Y-60841664D01*
X121019048Y-60829841D01*
X121028934Y-60818934D01*
X121039841Y-60809048D01*
X121051664Y-60800280D01*
X121064290Y-60792712D01*
X121077597Y-60786418D01*
X121091457Y-60781459D01*
X121105736Y-60777882D01*
X121120297Y-60775722D01*
X121135000Y-60775000D01*
X121435000Y-60775000D01*
X121449703Y-60775722D01*
X121449703Y-60775722D01*
G37*
D12*
X121285000Y-61800000D03*
D10*
G36*
X122719703Y-60775722D02*
G01*
X122734264Y-60777882D01*
X122748543Y-60781459D01*
X122762403Y-60786418D01*
X122775710Y-60792712D01*
X122788336Y-60800280D01*
X122800159Y-60809048D01*
X122811066Y-60818934D01*
X122820952Y-60829841D01*
X122829720Y-60841664D01*
X122837288Y-60854290D01*
X122843582Y-60867597D01*
X122848541Y-60881457D01*
X122852118Y-60895736D01*
X122854278Y-60910297D01*
X122855000Y-60925000D01*
X122855000Y-62675000D01*
X122854278Y-62689703D01*
X122852118Y-62704264D01*
X122848541Y-62718543D01*
X122843582Y-62732403D01*
X122837288Y-62745710D01*
X122829720Y-62758336D01*
X122820952Y-62770159D01*
X122811066Y-62781066D01*
X122800159Y-62790952D01*
X122788336Y-62799720D01*
X122775710Y-62807288D01*
X122762403Y-62813582D01*
X122748543Y-62818541D01*
X122734264Y-62822118D01*
X122719703Y-62824278D01*
X122705000Y-62825000D01*
X122405000Y-62825000D01*
X122390297Y-62824278D01*
X122375736Y-62822118D01*
X122361457Y-62818541D01*
X122347597Y-62813582D01*
X122334290Y-62807288D01*
X122321664Y-62799720D01*
X122309841Y-62790952D01*
X122298934Y-62781066D01*
X122289048Y-62770159D01*
X122280280Y-62758336D01*
X122272712Y-62745710D01*
X122266418Y-62732403D01*
X122261459Y-62718543D01*
X122257882Y-62704264D01*
X122255722Y-62689703D01*
X122255000Y-62675000D01*
X122255000Y-60925000D01*
X122255722Y-60910297D01*
X122257882Y-60895736D01*
X122261459Y-60881457D01*
X122266418Y-60867597D01*
X122272712Y-60854290D01*
X122280280Y-60841664D01*
X122289048Y-60829841D01*
X122298934Y-60818934D01*
X122309841Y-60809048D01*
X122321664Y-60800280D01*
X122334290Y-60792712D01*
X122347597Y-60786418D01*
X122361457Y-60781459D01*
X122375736Y-60777882D01*
X122390297Y-60775722D01*
X122405000Y-60775000D01*
X122705000Y-60775000D01*
X122719703Y-60775722D01*
X122719703Y-60775722D01*
G37*
D12*
X122555000Y-61800000D03*
D10*
G36*
X123989703Y-60775722D02*
G01*
X124004264Y-60777882D01*
X124018543Y-60781459D01*
X124032403Y-60786418D01*
X124045710Y-60792712D01*
X124058336Y-60800280D01*
X124070159Y-60809048D01*
X124081066Y-60818934D01*
X124090952Y-60829841D01*
X124099720Y-60841664D01*
X124107288Y-60854290D01*
X124113582Y-60867597D01*
X124118541Y-60881457D01*
X124122118Y-60895736D01*
X124124278Y-60910297D01*
X124125000Y-60925000D01*
X124125000Y-62675000D01*
X124124278Y-62689703D01*
X124122118Y-62704264D01*
X124118541Y-62718543D01*
X124113582Y-62732403D01*
X124107288Y-62745710D01*
X124099720Y-62758336D01*
X124090952Y-62770159D01*
X124081066Y-62781066D01*
X124070159Y-62790952D01*
X124058336Y-62799720D01*
X124045710Y-62807288D01*
X124032403Y-62813582D01*
X124018543Y-62818541D01*
X124004264Y-62822118D01*
X123989703Y-62824278D01*
X123975000Y-62825000D01*
X123675000Y-62825000D01*
X123660297Y-62824278D01*
X123645736Y-62822118D01*
X123631457Y-62818541D01*
X123617597Y-62813582D01*
X123604290Y-62807288D01*
X123591664Y-62799720D01*
X123579841Y-62790952D01*
X123568934Y-62781066D01*
X123559048Y-62770159D01*
X123550280Y-62758336D01*
X123542712Y-62745710D01*
X123536418Y-62732403D01*
X123531459Y-62718543D01*
X123527882Y-62704264D01*
X123525722Y-62689703D01*
X123525000Y-62675000D01*
X123525000Y-60925000D01*
X123525722Y-60910297D01*
X123527882Y-60895736D01*
X123531459Y-60881457D01*
X123536418Y-60867597D01*
X123542712Y-60854290D01*
X123550280Y-60841664D01*
X123559048Y-60829841D01*
X123568934Y-60818934D01*
X123579841Y-60809048D01*
X123591664Y-60800280D01*
X123604290Y-60792712D01*
X123617597Y-60786418D01*
X123631457Y-60781459D01*
X123645736Y-60777882D01*
X123660297Y-60775722D01*
X123675000Y-60775000D01*
X123975000Y-60775000D01*
X123989703Y-60775722D01*
X123989703Y-60775722D01*
G37*
D12*
X123825000Y-61800000D03*
D10*
G36*
X125259703Y-60775722D02*
G01*
X125274264Y-60777882D01*
X125288543Y-60781459D01*
X125302403Y-60786418D01*
X125315710Y-60792712D01*
X125328336Y-60800280D01*
X125340159Y-60809048D01*
X125351066Y-60818934D01*
X125360952Y-60829841D01*
X125369720Y-60841664D01*
X125377288Y-60854290D01*
X125383582Y-60867597D01*
X125388541Y-60881457D01*
X125392118Y-60895736D01*
X125394278Y-60910297D01*
X125395000Y-60925000D01*
X125395000Y-62675000D01*
X125394278Y-62689703D01*
X125392118Y-62704264D01*
X125388541Y-62718543D01*
X125383582Y-62732403D01*
X125377288Y-62745710D01*
X125369720Y-62758336D01*
X125360952Y-62770159D01*
X125351066Y-62781066D01*
X125340159Y-62790952D01*
X125328336Y-62799720D01*
X125315710Y-62807288D01*
X125302403Y-62813582D01*
X125288543Y-62818541D01*
X125274264Y-62822118D01*
X125259703Y-62824278D01*
X125245000Y-62825000D01*
X124945000Y-62825000D01*
X124930297Y-62824278D01*
X124915736Y-62822118D01*
X124901457Y-62818541D01*
X124887597Y-62813582D01*
X124874290Y-62807288D01*
X124861664Y-62799720D01*
X124849841Y-62790952D01*
X124838934Y-62781066D01*
X124829048Y-62770159D01*
X124820280Y-62758336D01*
X124812712Y-62745710D01*
X124806418Y-62732403D01*
X124801459Y-62718543D01*
X124797882Y-62704264D01*
X124795722Y-62689703D01*
X124795000Y-62675000D01*
X124795000Y-60925000D01*
X124795722Y-60910297D01*
X124797882Y-60895736D01*
X124801459Y-60881457D01*
X124806418Y-60867597D01*
X124812712Y-60854290D01*
X124820280Y-60841664D01*
X124829048Y-60829841D01*
X124838934Y-60818934D01*
X124849841Y-60809048D01*
X124861664Y-60800280D01*
X124874290Y-60792712D01*
X124887597Y-60786418D01*
X124901457Y-60781459D01*
X124915736Y-60777882D01*
X124930297Y-60775722D01*
X124945000Y-60775000D01*
X125245000Y-60775000D01*
X125259703Y-60775722D01*
X125259703Y-60775722D01*
G37*
D12*
X125095000Y-61800000D03*
D10*
G36*
X126529703Y-60775722D02*
G01*
X126544264Y-60777882D01*
X126558543Y-60781459D01*
X126572403Y-60786418D01*
X126585710Y-60792712D01*
X126598336Y-60800280D01*
X126610159Y-60809048D01*
X126621066Y-60818934D01*
X126630952Y-60829841D01*
X126639720Y-60841664D01*
X126647288Y-60854290D01*
X126653582Y-60867597D01*
X126658541Y-60881457D01*
X126662118Y-60895736D01*
X126664278Y-60910297D01*
X126665000Y-60925000D01*
X126665000Y-62675000D01*
X126664278Y-62689703D01*
X126662118Y-62704264D01*
X126658541Y-62718543D01*
X126653582Y-62732403D01*
X126647288Y-62745710D01*
X126639720Y-62758336D01*
X126630952Y-62770159D01*
X126621066Y-62781066D01*
X126610159Y-62790952D01*
X126598336Y-62799720D01*
X126585710Y-62807288D01*
X126572403Y-62813582D01*
X126558543Y-62818541D01*
X126544264Y-62822118D01*
X126529703Y-62824278D01*
X126515000Y-62825000D01*
X126215000Y-62825000D01*
X126200297Y-62824278D01*
X126185736Y-62822118D01*
X126171457Y-62818541D01*
X126157597Y-62813582D01*
X126144290Y-62807288D01*
X126131664Y-62799720D01*
X126119841Y-62790952D01*
X126108934Y-62781066D01*
X126099048Y-62770159D01*
X126090280Y-62758336D01*
X126082712Y-62745710D01*
X126076418Y-62732403D01*
X126071459Y-62718543D01*
X126067882Y-62704264D01*
X126065722Y-62689703D01*
X126065000Y-62675000D01*
X126065000Y-60925000D01*
X126065722Y-60910297D01*
X126067882Y-60895736D01*
X126071459Y-60881457D01*
X126076418Y-60867597D01*
X126082712Y-60854290D01*
X126090280Y-60841664D01*
X126099048Y-60829841D01*
X126108934Y-60818934D01*
X126119841Y-60809048D01*
X126131664Y-60800280D01*
X126144290Y-60792712D01*
X126157597Y-60786418D01*
X126171457Y-60781459D01*
X126185736Y-60777882D01*
X126200297Y-60775722D01*
X126215000Y-60775000D01*
X126515000Y-60775000D01*
X126529703Y-60775722D01*
X126529703Y-60775722D01*
G37*
D12*
X126365000Y-61800000D03*
D10*
G36*
X127799703Y-60775722D02*
G01*
X127814264Y-60777882D01*
X127828543Y-60781459D01*
X127842403Y-60786418D01*
X127855710Y-60792712D01*
X127868336Y-60800280D01*
X127880159Y-60809048D01*
X127891066Y-60818934D01*
X127900952Y-60829841D01*
X127909720Y-60841664D01*
X127917288Y-60854290D01*
X127923582Y-60867597D01*
X127928541Y-60881457D01*
X127932118Y-60895736D01*
X127934278Y-60910297D01*
X127935000Y-60925000D01*
X127935000Y-62675000D01*
X127934278Y-62689703D01*
X127932118Y-62704264D01*
X127928541Y-62718543D01*
X127923582Y-62732403D01*
X127917288Y-62745710D01*
X127909720Y-62758336D01*
X127900952Y-62770159D01*
X127891066Y-62781066D01*
X127880159Y-62790952D01*
X127868336Y-62799720D01*
X127855710Y-62807288D01*
X127842403Y-62813582D01*
X127828543Y-62818541D01*
X127814264Y-62822118D01*
X127799703Y-62824278D01*
X127785000Y-62825000D01*
X127485000Y-62825000D01*
X127470297Y-62824278D01*
X127455736Y-62822118D01*
X127441457Y-62818541D01*
X127427597Y-62813582D01*
X127414290Y-62807288D01*
X127401664Y-62799720D01*
X127389841Y-62790952D01*
X127378934Y-62781066D01*
X127369048Y-62770159D01*
X127360280Y-62758336D01*
X127352712Y-62745710D01*
X127346418Y-62732403D01*
X127341459Y-62718543D01*
X127337882Y-62704264D01*
X127335722Y-62689703D01*
X127335000Y-62675000D01*
X127335000Y-60925000D01*
X127335722Y-60910297D01*
X127337882Y-60895736D01*
X127341459Y-60881457D01*
X127346418Y-60867597D01*
X127352712Y-60854290D01*
X127360280Y-60841664D01*
X127369048Y-60829841D01*
X127378934Y-60818934D01*
X127389841Y-60809048D01*
X127401664Y-60800280D01*
X127414290Y-60792712D01*
X127427597Y-60786418D01*
X127441457Y-60781459D01*
X127455736Y-60777882D01*
X127470297Y-60775722D01*
X127485000Y-60775000D01*
X127785000Y-60775000D01*
X127799703Y-60775722D01*
X127799703Y-60775722D01*
G37*
D12*
X127635000Y-61800000D03*
D10*
G36*
X129069703Y-60775722D02*
G01*
X129084264Y-60777882D01*
X129098543Y-60781459D01*
X129112403Y-60786418D01*
X129125710Y-60792712D01*
X129138336Y-60800280D01*
X129150159Y-60809048D01*
X129161066Y-60818934D01*
X129170952Y-60829841D01*
X129179720Y-60841664D01*
X129187288Y-60854290D01*
X129193582Y-60867597D01*
X129198541Y-60881457D01*
X129202118Y-60895736D01*
X129204278Y-60910297D01*
X129205000Y-60925000D01*
X129205000Y-62675000D01*
X129204278Y-62689703D01*
X129202118Y-62704264D01*
X129198541Y-62718543D01*
X129193582Y-62732403D01*
X129187288Y-62745710D01*
X129179720Y-62758336D01*
X129170952Y-62770159D01*
X129161066Y-62781066D01*
X129150159Y-62790952D01*
X129138336Y-62799720D01*
X129125710Y-62807288D01*
X129112403Y-62813582D01*
X129098543Y-62818541D01*
X129084264Y-62822118D01*
X129069703Y-62824278D01*
X129055000Y-62825000D01*
X128755000Y-62825000D01*
X128740297Y-62824278D01*
X128725736Y-62822118D01*
X128711457Y-62818541D01*
X128697597Y-62813582D01*
X128684290Y-62807288D01*
X128671664Y-62799720D01*
X128659841Y-62790952D01*
X128648934Y-62781066D01*
X128639048Y-62770159D01*
X128630280Y-62758336D01*
X128622712Y-62745710D01*
X128616418Y-62732403D01*
X128611459Y-62718543D01*
X128607882Y-62704264D01*
X128605722Y-62689703D01*
X128605000Y-62675000D01*
X128605000Y-60925000D01*
X128605722Y-60910297D01*
X128607882Y-60895736D01*
X128611459Y-60881457D01*
X128616418Y-60867597D01*
X128622712Y-60854290D01*
X128630280Y-60841664D01*
X128639048Y-60829841D01*
X128648934Y-60818934D01*
X128659841Y-60809048D01*
X128671664Y-60800280D01*
X128684290Y-60792712D01*
X128697597Y-60786418D01*
X128711457Y-60781459D01*
X128725736Y-60777882D01*
X128740297Y-60775722D01*
X128755000Y-60775000D01*
X129055000Y-60775000D01*
X129069703Y-60775722D01*
X129069703Y-60775722D01*
G37*
D12*
X128905000Y-61800000D03*
D10*
G36*
X129069703Y-51475722D02*
G01*
X129084264Y-51477882D01*
X129098543Y-51481459D01*
X129112403Y-51486418D01*
X129125710Y-51492712D01*
X129138336Y-51500280D01*
X129150159Y-51509048D01*
X129161066Y-51518934D01*
X129170952Y-51529841D01*
X129179720Y-51541664D01*
X129187288Y-51554290D01*
X129193582Y-51567597D01*
X129198541Y-51581457D01*
X129202118Y-51595736D01*
X129204278Y-51610297D01*
X129205000Y-51625000D01*
X129205000Y-53375000D01*
X129204278Y-53389703D01*
X129202118Y-53404264D01*
X129198541Y-53418543D01*
X129193582Y-53432403D01*
X129187288Y-53445710D01*
X129179720Y-53458336D01*
X129170952Y-53470159D01*
X129161066Y-53481066D01*
X129150159Y-53490952D01*
X129138336Y-53499720D01*
X129125710Y-53507288D01*
X129112403Y-53513582D01*
X129098543Y-53518541D01*
X129084264Y-53522118D01*
X129069703Y-53524278D01*
X129055000Y-53525000D01*
X128755000Y-53525000D01*
X128740297Y-53524278D01*
X128725736Y-53522118D01*
X128711457Y-53518541D01*
X128697597Y-53513582D01*
X128684290Y-53507288D01*
X128671664Y-53499720D01*
X128659841Y-53490952D01*
X128648934Y-53481066D01*
X128639048Y-53470159D01*
X128630280Y-53458336D01*
X128622712Y-53445710D01*
X128616418Y-53432403D01*
X128611459Y-53418543D01*
X128607882Y-53404264D01*
X128605722Y-53389703D01*
X128605000Y-53375000D01*
X128605000Y-51625000D01*
X128605722Y-51610297D01*
X128607882Y-51595736D01*
X128611459Y-51581457D01*
X128616418Y-51567597D01*
X128622712Y-51554290D01*
X128630280Y-51541664D01*
X128639048Y-51529841D01*
X128648934Y-51518934D01*
X128659841Y-51509048D01*
X128671664Y-51500280D01*
X128684290Y-51492712D01*
X128697597Y-51486418D01*
X128711457Y-51481459D01*
X128725736Y-51477882D01*
X128740297Y-51475722D01*
X128755000Y-51475000D01*
X129055000Y-51475000D01*
X129069703Y-51475722D01*
X129069703Y-51475722D01*
G37*
D12*
X128905000Y-52500000D03*
D10*
G36*
X127799703Y-51475722D02*
G01*
X127814264Y-51477882D01*
X127828543Y-51481459D01*
X127842403Y-51486418D01*
X127855710Y-51492712D01*
X127868336Y-51500280D01*
X127880159Y-51509048D01*
X127891066Y-51518934D01*
X127900952Y-51529841D01*
X127909720Y-51541664D01*
X127917288Y-51554290D01*
X127923582Y-51567597D01*
X127928541Y-51581457D01*
X127932118Y-51595736D01*
X127934278Y-51610297D01*
X127935000Y-51625000D01*
X127935000Y-53375000D01*
X127934278Y-53389703D01*
X127932118Y-53404264D01*
X127928541Y-53418543D01*
X127923582Y-53432403D01*
X127917288Y-53445710D01*
X127909720Y-53458336D01*
X127900952Y-53470159D01*
X127891066Y-53481066D01*
X127880159Y-53490952D01*
X127868336Y-53499720D01*
X127855710Y-53507288D01*
X127842403Y-53513582D01*
X127828543Y-53518541D01*
X127814264Y-53522118D01*
X127799703Y-53524278D01*
X127785000Y-53525000D01*
X127485000Y-53525000D01*
X127470297Y-53524278D01*
X127455736Y-53522118D01*
X127441457Y-53518541D01*
X127427597Y-53513582D01*
X127414290Y-53507288D01*
X127401664Y-53499720D01*
X127389841Y-53490952D01*
X127378934Y-53481066D01*
X127369048Y-53470159D01*
X127360280Y-53458336D01*
X127352712Y-53445710D01*
X127346418Y-53432403D01*
X127341459Y-53418543D01*
X127337882Y-53404264D01*
X127335722Y-53389703D01*
X127335000Y-53375000D01*
X127335000Y-51625000D01*
X127335722Y-51610297D01*
X127337882Y-51595736D01*
X127341459Y-51581457D01*
X127346418Y-51567597D01*
X127352712Y-51554290D01*
X127360280Y-51541664D01*
X127369048Y-51529841D01*
X127378934Y-51518934D01*
X127389841Y-51509048D01*
X127401664Y-51500280D01*
X127414290Y-51492712D01*
X127427597Y-51486418D01*
X127441457Y-51481459D01*
X127455736Y-51477882D01*
X127470297Y-51475722D01*
X127485000Y-51475000D01*
X127785000Y-51475000D01*
X127799703Y-51475722D01*
X127799703Y-51475722D01*
G37*
D12*
X127635000Y-52500000D03*
D10*
G36*
X126529703Y-51475722D02*
G01*
X126544264Y-51477882D01*
X126558543Y-51481459D01*
X126572403Y-51486418D01*
X126585710Y-51492712D01*
X126598336Y-51500280D01*
X126610159Y-51509048D01*
X126621066Y-51518934D01*
X126630952Y-51529841D01*
X126639720Y-51541664D01*
X126647288Y-51554290D01*
X126653582Y-51567597D01*
X126658541Y-51581457D01*
X126662118Y-51595736D01*
X126664278Y-51610297D01*
X126665000Y-51625000D01*
X126665000Y-53375000D01*
X126664278Y-53389703D01*
X126662118Y-53404264D01*
X126658541Y-53418543D01*
X126653582Y-53432403D01*
X126647288Y-53445710D01*
X126639720Y-53458336D01*
X126630952Y-53470159D01*
X126621066Y-53481066D01*
X126610159Y-53490952D01*
X126598336Y-53499720D01*
X126585710Y-53507288D01*
X126572403Y-53513582D01*
X126558543Y-53518541D01*
X126544264Y-53522118D01*
X126529703Y-53524278D01*
X126515000Y-53525000D01*
X126215000Y-53525000D01*
X126200297Y-53524278D01*
X126185736Y-53522118D01*
X126171457Y-53518541D01*
X126157597Y-53513582D01*
X126144290Y-53507288D01*
X126131664Y-53499720D01*
X126119841Y-53490952D01*
X126108934Y-53481066D01*
X126099048Y-53470159D01*
X126090280Y-53458336D01*
X126082712Y-53445710D01*
X126076418Y-53432403D01*
X126071459Y-53418543D01*
X126067882Y-53404264D01*
X126065722Y-53389703D01*
X126065000Y-53375000D01*
X126065000Y-51625000D01*
X126065722Y-51610297D01*
X126067882Y-51595736D01*
X126071459Y-51581457D01*
X126076418Y-51567597D01*
X126082712Y-51554290D01*
X126090280Y-51541664D01*
X126099048Y-51529841D01*
X126108934Y-51518934D01*
X126119841Y-51509048D01*
X126131664Y-51500280D01*
X126144290Y-51492712D01*
X126157597Y-51486418D01*
X126171457Y-51481459D01*
X126185736Y-51477882D01*
X126200297Y-51475722D01*
X126215000Y-51475000D01*
X126515000Y-51475000D01*
X126529703Y-51475722D01*
X126529703Y-51475722D01*
G37*
D12*
X126365000Y-52500000D03*
D10*
G36*
X125259703Y-51475722D02*
G01*
X125274264Y-51477882D01*
X125288543Y-51481459D01*
X125302403Y-51486418D01*
X125315710Y-51492712D01*
X125328336Y-51500280D01*
X125340159Y-51509048D01*
X125351066Y-51518934D01*
X125360952Y-51529841D01*
X125369720Y-51541664D01*
X125377288Y-51554290D01*
X125383582Y-51567597D01*
X125388541Y-51581457D01*
X125392118Y-51595736D01*
X125394278Y-51610297D01*
X125395000Y-51625000D01*
X125395000Y-53375000D01*
X125394278Y-53389703D01*
X125392118Y-53404264D01*
X125388541Y-53418543D01*
X125383582Y-53432403D01*
X125377288Y-53445710D01*
X125369720Y-53458336D01*
X125360952Y-53470159D01*
X125351066Y-53481066D01*
X125340159Y-53490952D01*
X125328336Y-53499720D01*
X125315710Y-53507288D01*
X125302403Y-53513582D01*
X125288543Y-53518541D01*
X125274264Y-53522118D01*
X125259703Y-53524278D01*
X125245000Y-53525000D01*
X124945000Y-53525000D01*
X124930297Y-53524278D01*
X124915736Y-53522118D01*
X124901457Y-53518541D01*
X124887597Y-53513582D01*
X124874290Y-53507288D01*
X124861664Y-53499720D01*
X124849841Y-53490952D01*
X124838934Y-53481066D01*
X124829048Y-53470159D01*
X124820280Y-53458336D01*
X124812712Y-53445710D01*
X124806418Y-53432403D01*
X124801459Y-53418543D01*
X124797882Y-53404264D01*
X124795722Y-53389703D01*
X124795000Y-53375000D01*
X124795000Y-51625000D01*
X124795722Y-51610297D01*
X124797882Y-51595736D01*
X124801459Y-51581457D01*
X124806418Y-51567597D01*
X124812712Y-51554290D01*
X124820280Y-51541664D01*
X124829048Y-51529841D01*
X124838934Y-51518934D01*
X124849841Y-51509048D01*
X124861664Y-51500280D01*
X124874290Y-51492712D01*
X124887597Y-51486418D01*
X124901457Y-51481459D01*
X124915736Y-51477882D01*
X124930297Y-51475722D01*
X124945000Y-51475000D01*
X125245000Y-51475000D01*
X125259703Y-51475722D01*
X125259703Y-51475722D01*
G37*
D12*
X125095000Y-52500000D03*
D10*
G36*
X123989703Y-51475722D02*
G01*
X124004264Y-51477882D01*
X124018543Y-51481459D01*
X124032403Y-51486418D01*
X124045710Y-51492712D01*
X124058336Y-51500280D01*
X124070159Y-51509048D01*
X124081066Y-51518934D01*
X124090952Y-51529841D01*
X124099720Y-51541664D01*
X124107288Y-51554290D01*
X124113582Y-51567597D01*
X124118541Y-51581457D01*
X124122118Y-51595736D01*
X124124278Y-51610297D01*
X124125000Y-51625000D01*
X124125000Y-53375000D01*
X124124278Y-53389703D01*
X124122118Y-53404264D01*
X124118541Y-53418543D01*
X124113582Y-53432403D01*
X124107288Y-53445710D01*
X124099720Y-53458336D01*
X124090952Y-53470159D01*
X124081066Y-53481066D01*
X124070159Y-53490952D01*
X124058336Y-53499720D01*
X124045710Y-53507288D01*
X124032403Y-53513582D01*
X124018543Y-53518541D01*
X124004264Y-53522118D01*
X123989703Y-53524278D01*
X123975000Y-53525000D01*
X123675000Y-53525000D01*
X123660297Y-53524278D01*
X123645736Y-53522118D01*
X123631457Y-53518541D01*
X123617597Y-53513582D01*
X123604290Y-53507288D01*
X123591664Y-53499720D01*
X123579841Y-53490952D01*
X123568934Y-53481066D01*
X123559048Y-53470159D01*
X123550280Y-53458336D01*
X123542712Y-53445710D01*
X123536418Y-53432403D01*
X123531459Y-53418543D01*
X123527882Y-53404264D01*
X123525722Y-53389703D01*
X123525000Y-53375000D01*
X123525000Y-51625000D01*
X123525722Y-51610297D01*
X123527882Y-51595736D01*
X123531459Y-51581457D01*
X123536418Y-51567597D01*
X123542712Y-51554290D01*
X123550280Y-51541664D01*
X123559048Y-51529841D01*
X123568934Y-51518934D01*
X123579841Y-51509048D01*
X123591664Y-51500280D01*
X123604290Y-51492712D01*
X123617597Y-51486418D01*
X123631457Y-51481459D01*
X123645736Y-51477882D01*
X123660297Y-51475722D01*
X123675000Y-51475000D01*
X123975000Y-51475000D01*
X123989703Y-51475722D01*
X123989703Y-51475722D01*
G37*
D12*
X123825000Y-52500000D03*
D10*
G36*
X122719703Y-51475722D02*
G01*
X122734264Y-51477882D01*
X122748543Y-51481459D01*
X122762403Y-51486418D01*
X122775710Y-51492712D01*
X122788336Y-51500280D01*
X122800159Y-51509048D01*
X122811066Y-51518934D01*
X122820952Y-51529841D01*
X122829720Y-51541664D01*
X122837288Y-51554290D01*
X122843582Y-51567597D01*
X122848541Y-51581457D01*
X122852118Y-51595736D01*
X122854278Y-51610297D01*
X122855000Y-51625000D01*
X122855000Y-53375000D01*
X122854278Y-53389703D01*
X122852118Y-53404264D01*
X122848541Y-53418543D01*
X122843582Y-53432403D01*
X122837288Y-53445710D01*
X122829720Y-53458336D01*
X122820952Y-53470159D01*
X122811066Y-53481066D01*
X122800159Y-53490952D01*
X122788336Y-53499720D01*
X122775710Y-53507288D01*
X122762403Y-53513582D01*
X122748543Y-53518541D01*
X122734264Y-53522118D01*
X122719703Y-53524278D01*
X122705000Y-53525000D01*
X122405000Y-53525000D01*
X122390297Y-53524278D01*
X122375736Y-53522118D01*
X122361457Y-53518541D01*
X122347597Y-53513582D01*
X122334290Y-53507288D01*
X122321664Y-53499720D01*
X122309841Y-53490952D01*
X122298934Y-53481066D01*
X122289048Y-53470159D01*
X122280280Y-53458336D01*
X122272712Y-53445710D01*
X122266418Y-53432403D01*
X122261459Y-53418543D01*
X122257882Y-53404264D01*
X122255722Y-53389703D01*
X122255000Y-53375000D01*
X122255000Y-51625000D01*
X122255722Y-51610297D01*
X122257882Y-51595736D01*
X122261459Y-51581457D01*
X122266418Y-51567597D01*
X122272712Y-51554290D01*
X122280280Y-51541664D01*
X122289048Y-51529841D01*
X122298934Y-51518934D01*
X122309841Y-51509048D01*
X122321664Y-51500280D01*
X122334290Y-51492712D01*
X122347597Y-51486418D01*
X122361457Y-51481459D01*
X122375736Y-51477882D01*
X122390297Y-51475722D01*
X122405000Y-51475000D01*
X122705000Y-51475000D01*
X122719703Y-51475722D01*
X122719703Y-51475722D01*
G37*
D12*
X122555000Y-52500000D03*
D10*
G36*
X121449703Y-51475722D02*
G01*
X121464264Y-51477882D01*
X121478543Y-51481459D01*
X121492403Y-51486418D01*
X121505710Y-51492712D01*
X121518336Y-51500280D01*
X121530159Y-51509048D01*
X121541066Y-51518934D01*
X121550952Y-51529841D01*
X121559720Y-51541664D01*
X121567288Y-51554290D01*
X121573582Y-51567597D01*
X121578541Y-51581457D01*
X121582118Y-51595736D01*
X121584278Y-51610297D01*
X121585000Y-51625000D01*
X121585000Y-53375000D01*
X121584278Y-53389703D01*
X121582118Y-53404264D01*
X121578541Y-53418543D01*
X121573582Y-53432403D01*
X121567288Y-53445710D01*
X121559720Y-53458336D01*
X121550952Y-53470159D01*
X121541066Y-53481066D01*
X121530159Y-53490952D01*
X121518336Y-53499720D01*
X121505710Y-53507288D01*
X121492403Y-53513582D01*
X121478543Y-53518541D01*
X121464264Y-53522118D01*
X121449703Y-53524278D01*
X121435000Y-53525000D01*
X121135000Y-53525000D01*
X121120297Y-53524278D01*
X121105736Y-53522118D01*
X121091457Y-53518541D01*
X121077597Y-53513582D01*
X121064290Y-53507288D01*
X121051664Y-53499720D01*
X121039841Y-53490952D01*
X121028934Y-53481066D01*
X121019048Y-53470159D01*
X121010280Y-53458336D01*
X121002712Y-53445710D01*
X120996418Y-53432403D01*
X120991459Y-53418543D01*
X120987882Y-53404264D01*
X120985722Y-53389703D01*
X120985000Y-53375000D01*
X120985000Y-51625000D01*
X120985722Y-51610297D01*
X120987882Y-51595736D01*
X120991459Y-51581457D01*
X120996418Y-51567597D01*
X121002712Y-51554290D01*
X121010280Y-51541664D01*
X121019048Y-51529841D01*
X121028934Y-51518934D01*
X121039841Y-51509048D01*
X121051664Y-51500280D01*
X121064290Y-51492712D01*
X121077597Y-51486418D01*
X121091457Y-51481459D01*
X121105736Y-51477882D01*
X121120297Y-51475722D01*
X121135000Y-51475000D01*
X121435000Y-51475000D01*
X121449703Y-51475722D01*
X121449703Y-51475722D01*
G37*
D12*
X121285000Y-52500000D03*
D10*
G36*
X120179703Y-51475722D02*
G01*
X120194264Y-51477882D01*
X120208543Y-51481459D01*
X120222403Y-51486418D01*
X120235710Y-51492712D01*
X120248336Y-51500280D01*
X120260159Y-51509048D01*
X120271066Y-51518934D01*
X120280952Y-51529841D01*
X120289720Y-51541664D01*
X120297288Y-51554290D01*
X120303582Y-51567597D01*
X120308541Y-51581457D01*
X120312118Y-51595736D01*
X120314278Y-51610297D01*
X120315000Y-51625000D01*
X120315000Y-53375000D01*
X120314278Y-53389703D01*
X120312118Y-53404264D01*
X120308541Y-53418543D01*
X120303582Y-53432403D01*
X120297288Y-53445710D01*
X120289720Y-53458336D01*
X120280952Y-53470159D01*
X120271066Y-53481066D01*
X120260159Y-53490952D01*
X120248336Y-53499720D01*
X120235710Y-53507288D01*
X120222403Y-53513582D01*
X120208543Y-53518541D01*
X120194264Y-53522118D01*
X120179703Y-53524278D01*
X120165000Y-53525000D01*
X119865000Y-53525000D01*
X119850297Y-53524278D01*
X119835736Y-53522118D01*
X119821457Y-53518541D01*
X119807597Y-53513582D01*
X119794290Y-53507288D01*
X119781664Y-53499720D01*
X119769841Y-53490952D01*
X119758934Y-53481066D01*
X119749048Y-53470159D01*
X119740280Y-53458336D01*
X119732712Y-53445710D01*
X119726418Y-53432403D01*
X119721459Y-53418543D01*
X119717882Y-53404264D01*
X119715722Y-53389703D01*
X119715000Y-53375000D01*
X119715000Y-51625000D01*
X119715722Y-51610297D01*
X119717882Y-51595736D01*
X119721459Y-51581457D01*
X119726418Y-51567597D01*
X119732712Y-51554290D01*
X119740280Y-51541664D01*
X119749048Y-51529841D01*
X119758934Y-51518934D01*
X119769841Y-51509048D01*
X119781664Y-51500280D01*
X119794290Y-51492712D01*
X119807597Y-51486418D01*
X119821457Y-51481459D01*
X119835736Y-51477882D01*
X119850297Y-51475722D01*
X119865000Y-51475000D01*
X120165000Y-51475000D01*
X120179703Y-51475722D01*
X120179703Y-51475722D01*
G37*
D12*
X120015000Y-52500000D03*
D10*
G36*
X118909703Y-51475722D02*
G01*
X118924264Y-51477882D01*
X118938543Y-51481459D01*
X118952403Y-51486418D01*
X118965710Y-51492712D01*
X118978336Y-51500280D01*
X118990159Y-51509048D01*
X119001066Y-51518934D01*
X119010952Y-51529841D01*
X119019720Y-51541664D01*
X119027288Y-51554290D01*
X119033582Y-51567597D01*
X119038541Y-51581457D01*
X119042118Y-51595736D01*
X119044278Y-51610297D01*
X119045000Y-51625000D01*
X119045000Y-53375000D01*
X119044278Y-53389703D01*
X119042118Y-53404264D01*
X119038541Y-53418543D01*
X119033582Y-53432403D01*
X119027288Y-53445710D01*
X119019720Y-53458336D01*
X119010952Y-53470159D01*
X119001066Y-53481066D01*
X118990159Y-53490952D01*
X118978336Y-53499720D01*
X118965710Y-53507288D01*
X118952403Y-53513582D01*
X118938543Y-53518541D01*
X118924264Y-53522118D01*
X118909703Y-53524278D01*
X118895000Y-53525000D01*
X118595000Y-53525000D01*
X118580297Y-53524278D01*
X118565736Y-53522118D01*
X118551457Y-53518541D01*
X118537597Y-53513582D01*
X118524290Y-53507288D01*
X118511664Y-53499720D01*
X118499841Y-53490952D01*
X118488934Y-53481066D01*
X118479048Y-53470159D01*
X118470280Y-53458336D01*
X118462712Y-53445710D01*
X118456418Y-53432403D01*
X118451459Y-53418543D01*
X118447882Y-53404264D01*
X118445722Y-53389703D01*
X118445000Y-53375000D01*
X118445000Y-51625000D01*
X118445722Y-51610297D01*
X118447882Y-51595736D01*
X118451459Y-51581457D01*
X118456418Y-51567597D01*
X118462712Y-51554290D01*
X118470280Y-51541664D01*
X118479048Y-51529841D01*
X118488934Y-51518934D01*
X118499841Y-51509048D01*
X118511664Y-51500280D01*
X118524290Y-51492712D01*
X118537597Y-51486418D01*
X118551457Y-51481459D01*
X118565736Y-51477882D01*
X118580297Y-51475722D01*
X118595000Y-51475000D01*
X118895000Y-51475000D01*
X118909703Y-51475722D01*
X118909703Y-51475722D01*
G37*
D12*
X118745000Y-52500000D03*
D10*
G36*
X117639703Y-51475722D02*
G01*
X117654264Y-51477882D01*
X117668543Y-51481459D01*
X117682403Y-51486418D01*
X117695710Y-51492712D01*
X117708336Y-51500280D01*
X117720159Y-51509048D01*
X117731066Y-51518934D01*
X117740952Y-51529841D01*
X117749720Y-51541664D01*
X117757288Y-51554290D01*
X117763582Y-51567597D01*
X117768541Y-51581457D01*
X117772118Y-51595736D01*
X117774278Y-51610297D01*
X117775000Y-51625000D01*
X117775000Y-53375000D01*
X117774278Y-53389703D01*
X117772118Y-53404264D01*
X117768541Y-53418543D01*
X117763582Y-53432403D01*
X117757288Y-53445710D01*
X117749720Y-53458336D01*
X117740952Y-53470159D01*
X117731066Y-53481066D01*
X117720159Y-53490952D01*
X117708336Y-53499720D01*
X117695710Y-53507288D01*
X117682403Y-53513582D01*
X117668543Y-53518541D01*
X117654264Y-53522118D01*
X117639703Y-53524278D01*
X117625000Y-53525000D01*
X117325000Y-53525000D01*
X117310297Y-53524278D01*
X117295736Y-53522118D01*
X117281457Y-53518541D01*
X117267597Y-53513582D01*
X117254290Y-53507288D01*
X117241664Y-53499720D01*
X117229841Y-53490952D01*
X117218934Y-53481066D01*
X117209048Y-53470159D01*
X117200280Y-53458336D01*
X117192712Y-53445710D01*
X117186418Y-53432403D01*
X117181459Y-53418543D01*
X117177882Y-53404264D01*
X117175722Y-53389703D01*
X117175000Y-53375000D01*
X117175000Y-51625000D01*
X117175722Y-51610297D01*
X117177882Y-51595736D01*
X117181459Y-51581457D01*
X117186418Y-51567597D01*
X117192712Y-51554290D01*
X117200280Y-51541664D01*
X117209048Y-51529841D01*
X117218934Y-51518934D01*
X117229841Y-51509048D01*
X117241664Y-51500280D01*
X117254290Y-51492712D01*
X117267597Y-51486418D01*
X117281457Y-51481459D01*
X117295736Y-51477882D01*
X117310297Y-51475722D01*
X117325000Y-51475000D01*
X117625000Y-51475000D01*
X117639703Y-51475722D01*
X117639703Y-51475722D01*
G37*
D12*
X117475000Y-52500000D03*
D10*
G36*
X116369703Y-51475722D02*
G01*
X116384264Y-51477882D01*
X116398543Y-51481459D01*
X116412403Y-51486418D01*
X116425710Y-51492712D01*
X116438336Y-51500280D01*
X116450159Y-51509048D01*
X116461066Y-51518934D01*
X116470952Y-51529841D01*
X116479720Y-51541664D01*
X116487288Y-51554290D01*
X116493582Y-51567597D01*
X116498541Y-51581457D01*
X116502118Y-51595736D01*
X116504278Y-51610297D01*
X116505000Y-51625000D01*
X116505000Y-53375000D01*
X116504278Y-53389703D01*
X116502118Y-53404264D01*
X116498541Y-53418543D01*
X116493582Y-53432403D01*
X116487288Y-53445710D01*
X116479720Y-53458336D01*
X116470952Y-53470159D01*
X116461066Y-53481066D01*
X116450159Y-53490952D01*
X116438336Y-53499720D01*
X116425710Y-53507288D01*
X116412403Y-53513582D01*
X116398543Y-53518541D01*
X116384264Y-53522118D01*
X116369703Y-53524278D01*
X116355000Y-53525000D01*
X116055000Y-53525000D01*
X116040297Y-53524278D01*
X116025736Y-53522118D01*
X116011457Y-53518541D01*
X115997597Y-53513582D01*
X115984290Y-53507288D01*
X115971664Y-53499720D01*
X115959841Y-53490952D01*
X115948934Y-53481066D01*
X115939048Y-53470159D01*
X115930280Y-53458336D01*
X115922712Y-53445710D01*
X115916418Y-53432403D01*
X115911459Y-53418543D01*
X115907882Y-53404264D01*
X115905722Y-53389703D01*
X115905000Y-53375000D01*
X115905000Y-51625000D01*
X115905722Y-51610297D01*
X115907882Y-51595736D01*
X115911459Y-51581457D01*
X115916418Y-51567597D01*
X115922712Y-51554290D01*
X115930280Y-51541664D01*
X115939048Y-51529841D01*
X115948934Y-51518934D01*
X115959841Y-51509048D01*
X115971664Y-51500280D01*
X115984290Y-51492712D01*
X115997597Y-51486418D01*
X116011457Y-51481459D01*
X116025736Y-51477882D01*
X116040297Y-51475722D01*
X116055000Y-51475000D01*
X116355000Y-51475000D01*
X116369703Y-51475722D01*
X116369703Y-51475722D01*
G37*
D12*
X116205000Y-52500000D03*
D10*
G36*
X115099703Y-51475722D02*
G01*
X115114264Y-51477882D01*
X115128543Y-51481459D01*
X115142403Y-51486418D01*
X115155710Y-51492712D01*
X115168336Y-51500280D01*
X115180159Y-51509048D01*
X115191066Y-51518934D01*
X115200952Y-51529841D01*
X115209720Y-51541664D01*
X115217288Y-51554290D01*
X115223582Y-51567597D01*
X115228541Y-51581457D01*
X115232118Y-51595736D01*
X115234278Y-51610297D01*
X115235000Y-51625000D01*
X115235000Y-53375000D01*
X115234278Y-53389703D01*
X115232118Y-53404264D01*
X115228541Y-53418543D01*
X115223582Y-53432403D01*
X115217288Y-53445710D01*
X115209720Y-53458336D01*
X115200952Y-53470159D01*
X115191066Y-53481066D01*
X115180159Y-53490952D01*
X115168336Y-53499720D01*
X115155710Y-53507288D01*
X115142403Y-53513582D01*
X115128543Y-53518541D01*
X115114264Y-53522118D01*
X115099703Y-53524278D01*
X115085000Y-53525000D01*
X114785000Y-53525000D01*
X114770297Y-53524278D01*
X114755736Y-53522118D01*
X114741457Y-53518541D01*
X114727597Y-53513582D01*
X114714290Y-53507288D01*
X114701664Y-53499720D01*
X114689841Y-53490952D01*
X114678934Y-53481066D01*
X114669048Y-53470159D01*
X114660280Y-53458336D01*
X114652712Y-53445710D01*
X114646418Y-53432403D01*
X114641459Y-53418543D01*
X114637882Y-53404264D01*
X114635722Y-53389703D01*
X114635000Y-53375000D01*
X114635000Y-51625000D01*
X114635722Y-51610297D01*
X114637882Y-51595736D01*
X114641459Y-51581457D01*
X114646418Y-51567597D01*
X114652712Y-51554290D01*
X114660280Y-51541664D01*
X114669048Y-51529841D01*
X114678934Y-51518934D01*
X114689841Y-51509048D01*
X114701664Y-51500280D01*
X114714290Y-51492712D01*
X114727597Y-51486418D01*
X114741457Y-51481459D01*
X114755736Y-51477882D01*
X114770297Y-51475722D01*
X114785000Y-51475000D01*
X115085000Y-51475000D01*
X115099703Y-51475722D01*
X115099703Y-51475722D01*
G37*
D12*
X114935000Y-52500000D03*
D13*
X98030000Y-60350400D03*
X100330000Y-60350400D03*
X102630000Y-60350400D03*
D14*
X100330000Y-53949600D03*
M02*
