M48
; DRILL file {KiCad (5.1.2-1)-1} date Thursday, May 09, 2019 at 05:27:29 PM
; FORMAT={-:-/ absolute / inch / decimal}
; #@! TF.CreationDate,2019-05-09T17:27:29-07:00
; #@! TF.GenerationSoftware,Kicad,Pcbnew,(5.1.2-1)-1
; #@! TF.FileFunction,Plated,1,2,PTH
FMAT,2
INCH
T1C0.0157
T2C0.0354
T3C0.0394
T4C0.0512
T5C0.0630
T6C0.0984
T7C0.0984
%
G90
G05
T1
X5.15Y-2.25
X5.3Y-2.45
X5.3Y-5.1
X5.35Y-2.3
X5.4Y-2.2
X5.575Y-2.1
X5.725Y-2.725
X5.825Y-2.725
X6.35Y-5.15
X7.25Y-2.25
X7.3Y-1.9
X7.4Y-1.9
X7.4Y-5.2
X7.45Y-2.25
X7.5Y-1.9
X7.6Y-1.9
X7.7Y-1.9
X7.8346Y-1.9
X8.5Y-4.4
X8.575Y-2.5
X8.575Y-2.55
X8.75Y-2.5
T2
X7.85Y-4.4
X7.95Y-4.4
X6.85Y-4.4
X6.95Y-4.4
X5.85Y-4.4
X5.95Y-4.4
X4.85Y-4.4
X4.95Y-4.4
X3.85Y-4.4
X3.95Y-4.4
X4.45Y-1.95
X4.45Y-2.05
T3
X6.4Y-2.38
X6.5Y-2.38
X6.6Y-2.38
X6.7Y-2.38
X6.8Y-2.38
X6.9Y-2.38
X7.0Y-2.38
X7.1Y-2.38
X7.2Y-2.38
X7.3Y-2.38
X7.4Y-2.38
X7.5Y-2.38
X7.6Y-2.38
X7.7Y-2.38
X7.8Y-2.38
X7.9Y-2.38
X8.0Y-2.38
X8.1Y-2.38
X8.2Y-2.38
X8.3Y-2.38
X8.4Y-2.38
X8.5Y-2.38
X8.6Y-2.38
X8.7Y-2.38
X6.4Y-1.7682
X6.5Y-1.7682
X6.6Y-1.7682
X6.7Y-1.7682
X6.8Y-1.7682
X6.9Y-1.7682
X7.0Y-1.7682
X7.1Y-1.7682
X7.2Y-1.7682
X7.3Y-1.7682
X7.4Y-1.7682
X7.5Y-1.7682
X7.6Y-1.7682
X7.7Y-1.7682
X7.8Y-1.7682
X7.9Y-1.7682
X8.0Y-1.7682
X8.1Y-1.7682
X8.2Y-1.7682
X8.3Y-1.7682
X8.4Y-1.7682
X8.5Y-1.7682
X8.6Y-1.7682
X8.7Y-1.7682
X8.625Y-2.65
X8.625Y-2.75
X8.625Y-2.85
X8.625Y-2.95
X8.625Y-3.05
X8.625Y-3.15
X8.725Y-2.65
X8.725Y-2.75
X8.725Y-2.85
X8.725Y-2.95
X8.725Y-3.05
X8.725Y-3.15
T4
X4.7063Y-3.3
X4.9031Y-3.3
X5.1Y-3.3
X3.7063Y-4.2
X3.9031Y-4.2
X4.1Y-4.2
X3.7063Y-3.3
X3.9031Y-3.3
X4.1Y-3.3
X7.7063Y-4.2
X7.9031Y-4.2
X8.1Y-4.2
X7.7063Y-3.3
X7.9031Y-3.3
X8.1Y-3.3
X6.7063Y-4.2
X6.9031Y-4.2
X7.1Y-4.2
X6.7063Y-3.3
X6.9031Y-3.3
X7.1Y-3.3
X5.7063Y-4.2
X5.9031Y-4.2
X6.1Y-4.2
X5.7063Y-3.3
X5.9031Y-3.3
X6.1Y-3.3
X4.7063Y-4.2
X4.9031Y-4.2
X5.1Y-4.2
T5
X3.815Y-2.0819
X4.0Y-1.9638
X4.0Y-2.2
T6
X7.75Y-4.85
X8.05Y-4.85
X6.75Y-4.85
X7.05Y-4.85
X5.75Y-4.85
X6.05Y-4.85
X4.75Y-4.85
X5.05Y-4.85
X3.75Y-4.85
X4.05Y-4.85
X4.45Y-2.25
X4.75Y-2.25
T7
X8.7Y-3.6
X3.1Y-5.2
X3.1Y-3.6
X8.7Y-5.2
T0
M30
