G04 #@! TF.GenerationSoftware,KiCad,Pcbnew,(5.1.2-1)-1*
G04 #@! TF.CreationDate,2019-05-09T17:27:37-07:00*
G04 #@! TF.ProjectId,control_board,636f6e74-726f-46c5-9f62-6f6172642e6b,rev?*
G04 #@! TF.SameCoordinates,Original*
G04 #@! TF.FileFunction,Legend,Bot*
G04 #@! TF.FilePolarity,Positive*
%FSLAX46Y46*%
G04 Gerber Fmt 4.6, Leading zero omitted, Abs format (unit mm)*
G04 Created by KiCad (PCBNEW (5.1.2-1)-1) date 2019-05-09 17:27:37*
%MOMM*%
%LPD*%
G04 APERTURE LIST*
%ADD10C,0.120000*%
%ADD11C,0.150000*%
G04 APERTURE END LIST*
D10*
X222945000Y-65980000D02*
X221615000Y-65980000D01*
X222945000Y-67310000D02*
X222945000Y-65980000D01*
X220345000Y-65980000D02*
X217745000Y-65980000D01*
X220345000Y-68580000D02*
X220345000Y-65980000D01*
X222945000Y-68580000D02*
X220345000Y-68580000D01*
X217745000Y-65980000D02*
X217745000Y-81340000D01*
X222945000Y-68580000D02*
X222945000Y-81340000D01*
X222945000Y-81340000D02*
X217745000Y-81340000D01*
X219710000Y-61782000D02*
X219710000Y-59122000D01*
X219710000Y-61782000D02*
X161230000Y-61782000D01*
X161230000Y-61782000D02*
X161230000Y-59122000D01*
X219710000Y-59122000D02*
X161230000Y-59122000D01*
X222310000Y-59122000D02*
X220980000Y-59122000D01*
X222310000Y-60452000D02*
X222310000Y-59122000D01*
X161230000Y-44912000D02*
X161230000Y-46242000D01*
X161230000Y-46242000D02*
X162560000Y-46242000D01*
X163830000Y-46242000D02*
X222310000Y-46242000D01*
X222310000Y-43582000D02*
X222310000Y-46242000D01*
X163830000Y-43582000D02*
X222310000Y-43582000D01*
X163830000Y-43582000D02*
X163830000Y-46242000D01*
D11*
X220678333Y-64432380D02*
X220678333Y-65146666D01*
X220725952Y-65289523D01*
X220821190Y-65384761D01*
X220964047Y-65432380D01*
X221059285Y-65432380D01*
X219773571Y-64765714D02*
X219773571Y-65432380D01*
X220011666Y-64384761D02*
X220249761Y-65099047D01*
X219630714Y-65099047D01*
X223202380Y-60118666D02*
X223916666Y-60118666D01*
X224059523Y-60071047D01*
X224154761Y-59975809D01*
X224202380Y-59832952D01*
X224202380Y-59737714D01*
X223202380Y-60499619D02*
X223202380Y-61118666D01*
X223583333Y-60785333D01*
X223583333Y-60928190D01*
X223630952Y-61023428D01*
X223678571Y-61071047D01*
X223773809Y-61118666D01*
X224011904Y-61118666D01*
X224107142Y-61071047D01*
X224154761Y-61023428D01*
X224202380Y-60928190D01*
X224202380Y-60642476D01*
X224154761Y-60547238D01*
X224107142Y-60499619D01*
X159242380Y-44578666D02*
X159956666Y-44578666D01*
X160099523Y-44531047D01*
X160194761Y-44435809D01*
X160242380Y-44292952D01*
X160242380Y-44197714D01*
X159337619Y-45007238D02*
X159290000Y-45054857D01*
X159242380Y-45150095D01*
X159242380Y-45388190D01*
X159290000Y-45483428D01*
X159337619Y-45531047D01*
X159432857Y-45578666D01*
X159528095Y-45578666D01*
X159670952Y-45531047D01*
X160242380Y-44959619D01*
X160242380Y-45578666D01*
M02*
