G04 #@! TF.GenerationSoftware,KiCad,Pcbnew,(5.1.2-1)-1*
G04 #@! TF.CreationDate,2019-05-15T17:13:11-07:00*
G04 #@! TF.ProjectId,control_board,636f6e74-726f-46c5-9f62-6f6172642e6b,rev?*
G04 #@! TF.SameCoordinates,Original*
G04 #@! TF.FileFunction,Soldermask,Top*
G04 #@! TF.FilePolarity,Negative*
%FSLAX46Y46*%
G04 Gerber Fmt 4.6, Leading zero omitted, Abs format (unit mm)*
G04 Created by KiCad (PCBNEW (5.1.2-1)-1) date 2019-05-15 17:13:11*
%MOMM*%
%LPD*%
G04 APERTURE LIST*
%ADD10C,0.100000*%
G04 APERTURE END LIST*
D10*
G36*
X221724098Y-129627033D02*
G01*
X222188350Y-129819332D01*
X222188352Y-129819333D01*
X222606168Y-130098509D01*
X222961491Y-130453832D01*
X223240667Y-130871648D01*
X223240668Y-130871650D01*
X223432967Y-131335902D01*
X223531000Y-131828747D01*
X223531000Y-132331253D01*
X223432967Y-132824098D01*
X223240668Y-133288350D01*
X223240667Y-133288352D01*
X222961491Y-133706168D01*
X222606168Y-134061491D01*
X222188352Y-134340667D01*
X222188351Y-134340668D01*
X222188350Y-134340668D01*
X221724098Y-134532967D01*
X221231253Y-134631000D01*
X220728747Y-134631000D01*
X220235902Y-134532967D01*
X219771650Y-134340668D01*
X219771649Y-134340668D01*
X219771648Y-134340667D01*
X219353832Y-134061491D01*
X218998509Y-133706168D01*
X218719333Y-133288352D01*
X218719332Y-133288350D01*
X218527033Y-132824098D01*
X218429000Y-132331253D01*
X218429000Y-131828747D01*
X218527033Y-131335902D01*
X218719332Y-130871650D01*
X218719333Y-130871648D01*
X218998509Y-130453832D01*
X219353832Y-130098509D01*
X219771648Y-129819333D01*
X219771650Y-129819332D01*
X220235902Y-129627033D01*
X220728747Y-129529000D01*
X221231253Y-129529000D01*
X221724098Y-129627033D01*
X221724098Y-129627033D01*
G37*
G36*
X79484098Y-129627033D02*
G01*
X79948350Y-129819332D01*
X79948352Y-129819333D01*
X80366168Y-130098509D01*
X80721491Y-130453832D01*
X81000667Y-130871648D01*
X81000668Y-130871650D01*
X81192967Y-131335902D01*
X81291000Y-131828747D01*
X81291000Y-132331253D01*
X81192967Y-132824098D01*
X81000668Y-133288350D01*
X81000667Y-133288352D01*
X80721491Y-133706168D01*
X80366168Y-134061491D01*
X79948352Y-134340667D01*
X79948351Y-134340668D01*
X79948350Y-134340668D01*
X79484098Y-134532967D01*
X78991253Y-134631000D01*
X78488747Y-134631000D01*
X77995902Y-134532967D01*
X77531650Y-134340668D01*
X77531649Y-134340668D01*
X77531648Y-134340667D01*
X77113832Y-134061491D01*
X76758509Y-133706168D01*
X76479333Y-133288352D01*
X76479332Y-133288350D01*
X76287033Y-132824098D01*
X76189000Y-132331253D01*
X76189000Y-131828747D01*
X76287033Y-131335902D01*
X76479332Y-130871650D01*
X76479333Y-130871648D01*
X76758509Y-130453832D01*
X77113832Y-130098509D01*
X77531648Y-129819333D01*
X77531650Y-129819332D01*
X77995902Y-129627033D01*
X78488747Y-129529000D01*
X78991253Y-129529000D01*
X79484098Y-129627033D01*
X79484098Y-129627033D01*
G37*
G36*
X176640442Y-118993518D02*
G01*
X176706627Y-119000037D01*
X176876466Y-119051557D01*
X177032991Y-119135222D01*
X177068729Y-119164552D01*
X177170186Y-119247814D01*
X177253448Y-119349271D01*
X177282778Y-119385009D01*
X177366443Y-119541534D01*
X177417963Y-119711373D01*
X177435359Y-119888000D01*
X177417963Y-120064627D01*
X177366443Y-120234466D01*
X177282778Y-120390991D01*
X177253448Y-120426729D01*
X177170186Y-120528186D01*
X177068729Y-120611448D01*
X177032991Y-120640778D01*
X176876466Y-120724443D01*
X176706627Y-120775963D01*
X176640442Y-120782482D01*
X176574260Y-120789000D01*
X176485740Y-120789000D01*
X176419558Y-120782482D01*
X176353373Y-120775963D01*
X176183534Y-120724443D01*
X176027009Y-120640778D01*
X175991271Y-120611448D01*
X175889814Y-120528186D01*
X175806552Y-120426729D01*
X175777222Y-120390991D01*
X175693557Y-120234466D01*
X175642037Y-120064627D01*
X175624641Y-119888000D01*
X175642037Y-119711373D01*
X175693557Y-119541534D01*
X175777222Y-119385009D01*
X175806552Y-119349271D01*
X175889814Y-119247814D01*
X175991271Y-119164552D01*
X176027009Y-119135222D01*
X176183534Y-119051557D01*
X176353373Y-119000037D01*
X176419558Y-118993518D01*
X176485740Y-118987000D01*
X176574260Y-118987000D01*
X176640442Y-118993518D01*
X176640442Y-118993518D01*
G37*
G36*
X174891000Y-120789000D02*
G01*
X173089000Y-120789000D01*
X173089000Y-118987000D01*
X174891000Y-118987000D01*
X174891000Y-120789000D01*
X174891000Y-120789000D01*
G37*
G36*
X151240442Y-118993518D02*
G01*
X151306627Y-119000037D01*
X151476466Y-119051557D01*
X151632991Y-119135222D01*
X151668729Y-119164552D01*
X151770186Y-119247814D01*
X151853448Y-119349271D01*
X151882778Y-119385009D01*
X151966443Y-119541534D01*
X152017963Y-119711373D01*
X152035359Y-119888000D01*
X152017963Y-120064627D01*
X151966443Y-120234466D01*
X151882778Y-120390991D01*
X151853448Y-120426729D01*
X151770186Y-120528186D01*
X151668729Y-120611448D01*
X151632991Y-120640778D01*
X151476466Y-120724443D01*
X151306627Y-120775963D01*
X151240442Y-120782482D01*
X151174260Y-120789000D01*
X151085740Y-120789000D01*
X151019558Y-120782482D01*
X150953373Y-120775963D01*
X150783534Y-120724443D01*
X150627009Y-120640778D01*
X150591271Y-120611448D01*
X150489814Y-120528186D01*
X150406552Y-120426729D01*
X150377222Y-120390991D01*
X150293557Y-120234466D01*
X150242037Y-120064627D01*
X150224641Y-119888000D01*
X150242037Y-119711373D01*
X150293557Y-119541534D01*
X150377222Y-119385009D01*
X150406552Y-119349271D01*
X150489814Y-119247814D01*
X150591271Y-119164552D01*
X150627009Y-119135222D01*
X150783534Y-119051557D01*
X150953373Y-119000037D01*
X151019558Y-118993518D01*
X151085740Y-118987000D01*
X151174260Y-118987000D01*
X151240442Y-118993518D01*
X151240442Y-118993518D01*
G37*
G36*
X149491000Y-120789000D02*
G01*
X147689000Y-120789000D01*
X147689000Y-118987000D01*
X149491000Y-118987000D01*
X149491000Y-120789000D01*
X149491000Y-120789000D01*
G37*
G36*
X125840442Y-118993518D02*
G01*
X125906627Y-119000037D01*
X126076466Y-119051557D01*
X126232991Y-119135222D01*
X126268729Y-119164552D01*
X126370186Y-119247814D01*
X126453448Y-119349271D01*
X126482778Y-119385009D01*
X126566443Y-119541534D01*
X126617963Y-119711373D01*
X126635359Y-119888000D01*
X126617963Y-120064627D01*
X126566443Y-120234466D01*
X126482778Y-120390991D01*
X126453448Y-120426729D01*
X126370186Y-120528186D01*
X126268729Y-120611448D01*
X126232991Y-120640778D01*
X126076466Y-120724443D01*
X125906627Y-120775963D01*
X125840442Y-120782482D01*
X125774260Y-120789000D01*
X125685740Y-120789000D01*
X125619558Y-120782482D01*
X125553373Y-120775963D01*
X125383534Y-120724443D01*
X125227009Y-120640778D01*
X125191271Y-120611448D01*
X125089814Y-120528186D01*
X125006552Y-120426729D01*
X124977222Y-120390991D01*
X124893557Y-120234466D01*
X124842037Y-120064627D01*
X124824641Y-119888000D01*
X124842037Y-119711373D01*
X124893557Y-119541534D01*
X124977222Y-119385009D01*
X125006552Y-119349271D01*
X125089814Y-119247814D01*
X125191271Y-119164552D01*
X125227009Y-119135222D01*
X125383534Y-119051557D01*
X125553373Y-119000037D01*
X125619558Y-118993518D01*
X125685740Y-118987000D01*
X125774260Y-118987000D01*
X125840442Y-118993518D01*
X125840442Y-118993518D01*
G37*
G36*
X124091000Y-120789000D02*
G01*
X122289000Y-120789000D01*
X122289000Y-118987000D01*
X124091000Y-118987000D01*
X124091000Y-120789000D01*
X124091000Y-120789000D01*
G37*
G36*
X100440442Y-118993518D02*
G01*
X100506627Y-119000037D01*
X100676466Y-119051557D01*
X100832991Y-119135222D01*
X100868729Y-119164552D01*
X100970186Y-119247814D01*
X101053448Y-119349271D01*
X101082778Y-119385009D01*
X101166443Y-119541534D01*
X101217963Y-119711373D01*
X101235359Y-119888000D01*
X101217963Y-120064627D01*
X101166443Y-120234466D01*
X101082778Y-120390991D01*
X101053448Y-120426729D01*
X100970186Y-120528186D01*
X100868729Y-120611448D01*
X100832991Y-120640778D01*
X100676466Y-120724443D01*
X100506627Y-120775963D01*
X100440442Y-120782482D01*
X100374260Y-120789000D01*
X100285740Y-120789000D01*
X100219558Y-120782482D01*
X100153373Y-120775963D01*
X99983534Y-120724443D01*
X99827009Y-120640778D01*
X99791271Y-120611448D01*
X99689814Y-120528186D01*
X99606552Y-120426729D01*
X99577222Y-120390991D01*
X99493557Y-120234466D01*
X99442037Y-120064627D01*
X99424641Y-119888000D01*
X99442037Y-119711373D01*
X99493557Y-119541534D01*
X99577222Y-119385009D01*
X99606552Y-119349271D01*
X99689814Y-119247814D01*
X99791271Y-119164552D01*
X99827009Y-119135222D01*
X99983534Y-119051557D01*
X100153373Y-119000037D01*
X100219558Y-118993518D01*
X100285740Y-118987000D01*
X100374260Y-118987000D01*
X100440442Y-118993518D01*
X100440442Y-118993518D01*
G37*
G36*
X98691000Y-120789000D02*
G01*
X96889000Y-120789000D01*
X96889000Y-118987000D01*
X98691000Y-118987000D01*
X98691000Y-120789000D01*
X98691000Y-120789000D01*
G37*
G36*
X202040442Y-118993518D02*
G01*
X202106627Y-119000037D01*
X202276466Y-119051557D01*
X202432991Y-119135222D01*
X202468729Y-119164552D01*
X202570186Y-119247814D01*
X202653448Y-119349271D01*
X202682778Y-119385009D01*
X202766443Y-119541534D01*
X202817963Y-119711373D01*
X202835359Y-119888000D01*
X202817963Y-120064627D01*
X202766443Y-120234466D01*
X202682778Y-120390991D01*
X202653448Y-120426729D01*
X202570186Y-120528186D01*
X202468729Y-120611448D01*
X202432991Y-120640778D01*
X202276466Y-120724443D01*
X202106627Y-120775963D01*
X202040442Y-120782482D01*
X201974260Y-120789000D01*
X201885740Y-120789000D01*
X201819558Y-120782482D01*
X201753373Y-120775963D01*
X201583534Y-120724443D01*
X201427009Y-120640778D01*
X201391271Y-120611448D01*
X201289814Y-120528186D01*
X201206552Y-120426729D01*
X201177222Y-120390991D01*
X201093557Y-120234466D01*
X201042037Y-120064627D01*
X201024641Y-119888000D01*
X201042037Y-119711373D01*
X201093557Y-119541534D01*
X201177222Y-119385009D01*
X201206552Y-119349271D01*
X201289814Y-119247814D01*
X201391271Y-119164552D01*
X201427009Y-119135222D01*
X201583534Y-119051557D01*
X201753373Y-119000037D01*
X201819558Y-118993518D01*
X201885740Y-118987000D01*
X201974260Y-118987000D01*
X202040442Y-118993518D01*
X202040442Y-118993518D01*
G37*
G36*
X200291000Y-120789000D02*
G01*
X198489000Y-120789000D01*
X198489000Y-118987000D01*
X200291000Y-118987000D01*
X200291000Y-120789000D01*
X200291000Y-120789000D01*
G37*
G36*
X194898674Y-112163465D02*
G01*
X194936367Y-112174899D01*
X194971103Y-112193466D01*
X195001548Y-112218452D01*
X195026534Y-112248897D01*
X195045101Y-112283633D01*
X195056535Y-112321326D01*
X195061000Y-112366661D01*
X195061000Y-113203339D01*
X195056535Y-113248674D01*
X195045101Y-113286367D01*
X195026534Y-113321103D01*
X195001548Y-113351548D01*
X194971103Y-113376534D01*
X194936367Y-113395101D01*
X194898674Y-113406535D01*
X194853339Y-113411000D01*
X193766661Y-113411000D01*
X193721326Y-113406535D01*
X193683633Y-113395101D01*
X193648897Y-113376534D01*
X193618452Y-113351548D01*
X193593466Y-113321103D01*
X193574899Y-113286367D01*
X193563465Y-113248674D01*
X193559000Y-113203339D01*
X193559000Y-112366661D01*
X193563465Y-112321326D01*
X193574899Y-112283633D01*
X193593466Y-112248897D01*
X193618452Y-112218452D01*
X193648897Y-112193466D01*
X193683633Y-112174899D01*
X193721326Y-112163465D01*
X193766661Y-112159000D01*
X194853339Y-112159000D01*
X194898674Y-112163465D01*
X194898674Y-112163465D01*
G37*
G36*
X93298674Y-112163465D02*
G01*
X93336367Y-112174899D01*
X93371103Y-112193466D01*
X93401548Y-112218452D01*
X93426534Y-112248897D01*
X93445101Y-112283633D01*
X93456535Y-112321326D01*
X93461000Y-112366661D01*
X93461000Y-113203339D01*
X93456535Y-113248674D01*
X93445101Y-113286367D01*
X93426534Y-113321103D01*
X93401548Y-113351548D01*
X93371103Y-113376534D01*
X93336367Y-113395101D01*
X93298674Y-113406535D01*
X93253339Y-113411000D01*
X92166661Y-113411000D01*
X92121326Y-113406535D01*
X92083633Y-113395101D01*
X92048897Y-113376534D01*
X92018452Y-113351548D01*
X91993466Y-113321103D01*
X91974899Y-113286367D01*
X91963465Y-113248674D01*
X91959000Y-113203339D01*
X91959000Y-112366661D01*
X91963465Y-112321326D01*
X91974899Y-112283633D01*
X91993466Y-112248897D01*
X92018452Y-112218452D01*
X92048897Y-112193466D01*
X92083633Y-112174899D01*
X92121326Y-112163465D01*
X92166661Y-112159000D01*
X93253339Y-112159000D01*
X93298674Y-112163465D01*
X93298674Y-112163465D01*
G37*
G36*
X118698674Y-112163465D02*
G01*
X118736367Y-112174899D01*
X118771103Y-112193466D01*
X118801548Y-112218452D01*
X118826534Y-112248897D01*
X118845101Y-112283633D01*
X118856535Y-112321326D01*
X118861000Y-112366661D01*
X118861000Y-113203339D01*
X118856535Y-113248674D01*
X118845101Y-113286367D01*
X118826534Y-113321103D01*
X118801548Y-113351548D01*
X118771103Y-113376534D01*
X118736367Y-113395101D01*
X118698674Y-113406535D01*
X118653339Y-113411000D01*
X117566661Y-113411000D01*
X117521326Y-113406535D01*
X117483633Y-113395101D01*
X117448897Y-113376534D01*
X117418452Y-113351548D01*
X117393466Y-113321103D01*
X117374899Y-113286367D01*
X117363465Y-113248674D01*
X117359000Y-113203339D01*
X117359000Y-112366661D01*
X117363465Y-112321326D01*
X117374899Y-112283633D01*
X117393466Y-112248897D01*
X117418452Y-112218452D01*
X117448897Y-112193466D01*
X117483633Y-112174899D01*
X117521326Y-112163465D01*
X117566661Y-112159000D01*
X118653339Y-112159000D01*
X118698674Y-112163465D01*
X118698674Y-112163465D01*
G37*
G36*
X144098674Y-112163465D02*
G01*
X144136367Y-112174899D01*
X144171103Y-112193466D01*
X144201548Y-112218452D01*
X144226534Y-112248897D01*
X144245101Y-112283633D01*
X144256535Y-112321326D01*
X144261000Y-112366661D01*
X144261000Y-113203339D01*
X144256535Y-113248674D01*
X144245101Y-113286367D01*
X144226534Y-113321103D01*
X144201548Y-113351548D01*
X144171103Y-113376534D01*
X144136367Y-113395101D01*
X144098674Y-113406535D01*
X144053339Y-113411000D01*
X142966661Y-113411000D01*
X142921326Y-113406535D01*
X142883633Y-113395101D01*
X142848897Y-113376534D01*
X142818452Y-113351548D01*
X142793466Y-113321103D01*
X142774899Y-113286367D01*
X142763465Y-113248674D01*
X142759000Y-113203339D01*
X142759000Y-112366661D01*
X142763465Y-112321326D01*
X142774899Y-112283633D01*
X142793466Y-112248897D01*
X142818452Y-112218452D01*
X142848897Y-112193466D01*
X142883633Y-112174899D01*
X142921326Y-112163465D01*
X142966661Y-112159000D01*
X144053339Y-112159000D01*
X144098674Y-112163465D01*
X144098674Y-112163465D01*
G37*
G36*
X169498674Y-112163465D02*
G01*
X169536367Y-112174899D01*
X169571103Y-112193466D01*
X169601548Y-112218452D01*
X169626534Y-112248897D01*
X169645101Y-112283633D01*
X169656535Y-112321326D01*
X169661000Y-112366661D01*
X169661000Y-113203339D01*
X169656535Y-113248674D01*
X169645101Y-113286367D01*
X169626534Y-113321103D01*
X169601548Y-113351548D01*
X169571103Y-113376534D01*
X169536367Y-113395101D01*
X169498674Y-113406535D01*
X169453339Y-113411000D01*
X168366661Y-113411000D01*
X168321326Y-113406535D01*
X168283633Y-113395101D01*
X168248897Y-113376534D01*
X168218452Y-113351548D01*
X168193466Y-113321103D01*
X168174899Y-113286367D01*
X168163465Y-113248674D01*
X168159000Y-113203339D01*
X168159000Y-112366661D01*
X168163465Y-112321326D01*
X168174899Y-112283633D01*
X168193466Y-112248897D01*
X168218452Y-112218452D01*
X168248897Y-112193466D01*
X168283633Y-112174899D01*
X168321326Y-112163465D01*
X168366661Y-112159000D01*
X169453339Y-112159000D01*
X169498674Y-112163465D01*
X169498674Y-112163465D01*
G37*
G36*
X124141000Y-112711000D02*
G01*
X122239000Y-112711000D01*
X122239000Y-110809000D01*
X124141000Y-110809000D01*
X124141000Y-112711000D01*
X124141000Y-112711000D01*
G37*
G36*
X202207395Y-110845546D02*
G01*
X202380466Y-110917234D01*
X202380467Y-110917235D01*
X202536227Y-111021310D01*
X202668690Y-111153773D01*
X202668691Y-111153775D01*
X202772766Y-111309534D01*
X202844454Y-111482605D01*
X202881000Y-111666333D01*
X202881000Y-111853667D01*
X202844454Y-112037395D01*
X202772766Y-112210466D01*
X202747087Y-112248897D01*
X202668690Y-112366227D01*
X202536227Y-112498690D01*
X202457818Y-112551081D01*
X202380466Y-112602766D01*
X202207395Y-112674454D01*
X202023667Y-112711000D01*
X201836333Y-112711000D01*
X201652605Y-112674454D01*
X201479534Y-112602766D01*
X201402182Y-112551081D01*
X201323773Y-112498690D01*
X201191310Y-112366227D01*
X201112913Y-112248897D01*
X201087234Y-112210466D01*
X201015546Y-112037395D01*
X200979000Y-111853667D01*
X200979000Y-111666333D01*
X201015546Y-111482605D01*
X201087234Y-111309534D01*
X201191309Y-111153775D01*
X201191310Y-111153773D01*
X201323773Y-111021310D01*
X201479533Y-110917235D01*
X201479534Y-110917234D01*
X201652605Y-110845546D01*
X201836333Y-110809000D01*
X202023667Y-110809000D01*
X202207395Y-110845546D01*
X202207395Y-110845546D01*
G37*
G36*
X100607395Y-110845546D02*
G01*
X100780466Y-110917234D01*
X100780467Y-110917235D01*
X100936227Y-111021310D01*
X101068690Y-111153773D01*
X101068691Y-111153775D01*
X101172766Y-111309534D01*
X101244454Y-111482605D01*
X101281000Y-111666333D01*
X101281000Y-111853667D01*
X101244454Y-112037395D01*
X101172766Y-112210466D01*
X101147087Y-112248897D01*
X101068690Y-112366227D01*
X100936227Y-112498690D01*
X100857818Y-112551081D01*
X100780466Y-112602766D01*
X100607395Y-112674454D01*
X100423667Y-112711000D01*
X100236333Y-112711000D01*
X100052605Y-112674454D01*
X99879534Y-112602766D01*
X99802182Y-112551081D01*
X99723773Y-112498690D01*
X99591310Y-112366227D01*
X99512913Y-112248897D01*
X99487234Y-112210466D01*
X99415546Y-112037395D01*
X99379000Y-111853667D01*
X99379000Y-111666333D01*
X99415546Y-111482605D01*
X99487234Y-111309534D01*
X99591309Y-111153775D01*
X99591310Y-111153773D01*
X99723773Y-111021310D01*
X99879533Y-110917235D01*
X99879534Y-110917234D01*
X100052605Y-110845546D01*
X100236333Y-110809000D01*
X100423667Y-110809000D01*
X100607395Y-110845546D01*
X100607395Y-110845546D01*
G37*
G36*
X98741000Y-112711000D02*
G01*
X96839000Y-112711000D01*
X96839000Y-110809000D01*
X98741000Y-110809000D01*
X98741000Y-112711000D01*
X98741000Y-112711000D01*
G37*
G36*
X126007395Y-110845546D02*
G01*
X126180466Y-110917234D01*
X126180467Y-110917235D01*
X126336227Y-111021310D01*
X126468690Y-111153773D01*
X126468691Y-111153775D01*
X126572766Y-111309534D01*
X126644454Y-111482605D01*
X126681000Y-111666333D01*
X126681000Y-111853667D01*
X126644454Y-112037395D01*
X126572766Y-112210466D01*
X126547087Y-112248897D01*
X126468690Y-112366227D01*
X126336227Y-112498690D01*
X126257818Y-112551081D01*
X126180466Y-112602766D01*
X126007395Y-112674454D01*
X125823667Y-112711000D01*
X125636333Y-112711000D01*
X125452605Y-112674454D01*
X125279534Y-112602766D01*
X125202182Y-112551081D01*
X125123773Y-112498690D01*
X124991310Y-112366227D01*
X124912913Y-112248897D01*
X124887234Y-112210466D01*
X124815546Y-112037395D01*
X124779000Y-111853667D01*
X124779000Y-111666333D01*
X124815546Y-111482605D01*
X124887234Y-111309534D01*
X124991309Y-111153775D01*
X124991310Y-111153773D01*
X125123773Y-111021310D01*
X125279533Y-110917235D01*
X125279534Y-110917234D01*
X125452605Y-110845546D01*
X125636333Y-110809000D01*
X125823667Y-110809000D01*
X126007395Y-110845546D01*
X126007395Y-110845546D01*
G37*
G36*
X149541000Y-112711000D02*
G01*
X147639000Y-112711000D01*
X147639000Y-110809000D01*
X149541000Y-110809000D01*
X149541000Y-112711000D01*
X149541000Y-112711000D01*
G37*
G36*
X151407395Y-110845546D02*
G01*
X151580466Y-110917234D01*
X151580467Y-110917235D01*
X151736227Y-111021310D01*
X151868690Y-111153773D01*
X151868691Y-111153775D01*
X151972766Y-111309534D01*
X152044454Y-111482605D01*
X152081000Y-111666333D01*
X152081000Y-111853667D01*
X152044454Y-112037395D01*
X151972766Y-112210466D01*
X151947087Y-112248897D01*
X151868690Y-112366227D01*
X151736227Y-112498690D01*
X151657818Y-112551081D01*
X151580466Y-112602766D01*
X151407395Y-112674454D01*
X151223667Y-112711000D01*
X151036333Y-112711000D01*
X150852605Y-112674454D01*
X150679534Y-112602766D01*
X150602182Y-112551081D01*
X150523773Y-112498690D01*
X150391310Y-112366227D01*
X150312913Y-112248897D01*
X150287234Y-112210466D01*
X150215546Y-112037395D01*
X150179000Y-111853667D01*
X150179000Y-111666333D01*
X150215546Y-111482605D01*
X150287234Y-111309534D01*
X150391309Y-111153775D01*
X150391310Y-111153773D01*
X150523773Y-111021310D01*
X150679533Y-110917235D01*
X150679534Y-110917234D01*
X150852605Y-110845546D01*
X151036333Y-110809000D01*
X151223667Y-110809000D01*
X151407395Y-110845546D01*
X151407395Y-110845546D01*
G37*
G36*
X174941000Y-112711000D02*
G01*
X173039000Y-112711000D01*
X173039000Y-110809000D01*
X174941000Y-110809000D01*
X174941000Y-112711000D01*
X174941000Y-112711000D01*
G37*
G36*
X176807395Y-110845546D02*
G01*
X176980466Y-110917234D01*
X176980467Y-110917235D01*
X177136227Y-111021310D01*
X177268690Y-111153773D01*
X177268691Y-111153775D01*
X177372766Y-111309534D01*
X177444454Y-111482605D01*
X177481000Y-111666333D01*
X177481000Y-111853667D01*
X177444454Y-112037395D01*
X177372766Y-112210466D01*
X177347087Y-112248897D01*
X177268690Y-112366227D01*
X177136227Y-112498690D01*
X177057818Y-112551081D01*
X176980466Y-112602766D01*
X176807395Y-112674454D01*
X176623667Y-112711000D01*
X176436333Y-112711000D01*
X176252605Y-112674454D01*
X176079534Y-112602766D01*
X176002182Y-112551081D01*
X175923773Y-112498690D01*
X175791310Y-112366227D01*
X175712913Y-112248897D01*
X175687234Y-112210466D01*
X175615546Y-112037395D01*
X175579000Y-111853667D01*
X175579000Y-111666333D01*
X175615546Y-111482605D01*
X175687234Y-111309534D01*
X175791309Y-111153775D01*
X175791310Y-111153773D01*
X175923773Y-111021310D01*
X176079533Y-110917235D01*
X176079534Y-110917234D01*
X176252605Y-110845546D01*
X176436333Y-110809000D01*
X176623667Y-110809000D01*
X176807395Y-110845546D01*
X176807395Y-110845546D01*
G37*
G36*
X200341000Y-112711000D02*
G01*
X198439000Y-112711000D01*
X198439000Y-110809000D01*
X200341000Y-110809000D01*
X200341000Y-112711000D01*
X200341000Y-112711000D01*
G37*
G36*
X93298674Y-110113465D02*
G01*
X93336367Y-110124899D01*
X93371103Y-110143466D01*
X93401548Y-110168452D01*
X93426534Y-110198897D01*
X93445101Y-110233633D01*
X93456535Y-110271326D01*
X93461000Y-110316661D01*
X93461000Y-111153339D01*
X93456535Y-111198674D01*
X93445101Y-111236367D01*
X93426534Y-111271103D01*
X93401548Y-111301548D01*
X93371103Y-111326534D01*
X93336367Y-111345101D01*
X93298674Y-111356535D01*
X93253339Y-111361000D01*
X92166661Y-111361000D01*
X92121326Y-111356535D01*
X92083633Y-111345101D01*
X92048897Y-111326534D01*
X92018452Y-111301548D01*
X91993466Y-111271103D01*
X91974899Y-111236367D01*
X91963465Y-111198674D01*
X91959000Y-111153339D01*
X91959000Y-110316661D01*
X91963465Y-110271326D01*
X91974899Y-110233633D01*
X91993466Y-110198897D01*
X92018452Y-110168452D01*
X92048897Y-110143466D01*
X92083633Y-110124899D01*
X92121326Y-110113465D01*
X92166661Y-110109000D01*
X93253339Y-110109000D01*
X93298674Y-110113465D01*
X93298674Y-110113465D01*
G37*
G36*
X118698674Y-110113465D02*
G01*
X118736367Y-110124899D01*
X118771103Y-110143466D01*
X118801548Y-110168452D01*
X118826534Y-110198897D01*
X118845101Y-110233633D01*
X118856535Y-110271326D01*
X118861000Y-110316661D01*
X118861000Y-111153339D01*
X118856535Y-111198674D01*
X118845101Y-111236367D01*
X118826534Y-111271103D01*
X118801548Y-111301548D01*
X118771103Y-111326534D01*
X118736367Y-111345101D01*
X118698674Y-111356535D01*
X118653339Y-111361000D01*
X117566661Y-111361000D01*
X117521326Y-111356535D01*
X117483633Y-111345101D01*
X117448897Y-111326534D01*
X117418452Y-111301548D01*
X117393466Y-111271103D01*
X117374899Y-111236367D01*
X117363465Y-111198674D01*
X117359000Y-111153339D01*
X117359000Y-110316661D01*
X117363465Y-110271326D01*
X117374899Y-110233633D01*
X117393466Y-110198897D01*
X117418452Y-110168452D01*
X117448897Y-110143466D01*
X117483633Y-110124899D01*
X117521326Y-110113465D01*
X117566661Y-110109000D01*
X118653339Y-110109000D01*
X118698674Y-110113465D01*
X118698674Y-110113465D01*
G37*
G36*
X144098674Y-110113465D02*
G01*
X144136367Y-110124899D01*
X144171103Y-110143466D01*
X144201548Y-110168452D01*
X144226534Y-110198897D01*
X144245101Y-110233633D01*
X144256535Y-110271326D01*
X144261000Y-110316661D01*
X144261000Y-111153339D01*
X144256535Y-111198674D01*
X144245101Y-111236367D01*
X144226534Y-111271103D01*
X144201548Y-111301548D01*
X144171103Y-111326534D01*
X144136367Y-111345101D01*
X144098674Y-111356535D01*
X144053339Y-111361000D01*
X142966661Y-111361000D01*
X142921326Y-111356535D01*
X142883633Y-111345101D01*
X142848897Y-111326534D01*
X142818452Y-111301548D01*
X142793466Y-111271103D01*
X142774899Y-111236367D01*
X142763465Y-111198674D01*
X142759000Y-111153339D01*
X142759000Y-110316661D01*
X142763465Y-110271326D01*
X142774899Y-110233633D01*
X142793466Y-110198897D01*
X142818452Y-110168452D01*
X142848897Y-110143466D01*
X142883633Y-110124899D01*
X142921326Y-110113465D01*
X142966661Y-110109000D01*
X144053339Y-110109000D01*
X144098674Y-110113465D01*
X144098674Y-110113465D01*
G37*
G36*
X194898674Y-110113465D02*
G01*
X194936367Y-110124899D01*
X194971103Y-110143466D01*
X195001548Y-110168452D01*
X195026534Y-110198897D01*
X195045101Y-110233633D01*
X195056535Y-110271326D01*
X195061000Y-110316661D01*
X195061000Y-111153339D01*
X195056535Y-111198674D01*
X195045101Y-111236367D01*
X195026534Y-111271103D01*
X195001548Y-111301548D01*
X194971103Y-111326534D01*
X194936367Y-111345101D01*
X194898674Y-111356535D01*
X194853339Y-111361000D01*
X193766661Y-111361000D01*
X193721326Y-111356535D01*
X193683633Y-111345101D01*
X193648897Y-111326534D01*
X193618452Y-111301548D01*
X193593466Y-111271103D01*
X193574899Y-111236367D01*
X193563465Y-111198674D01*
X193559000Y-111153339D01*
X193559000Y-110316661D01*
X193563465Y-110271326D01*
X193574899Y-110233633D01*
X193593466Y-110198897D01*
X193618452Y-110168452D01*
X193648897Y-110143466D01*
X193683633Y-110124899D01*
X193721326Y-110113465D01*
X193766661Y-110109000D01*
X194853339Y-110109000D01*
X194898674Y-110113465D01*
X194898674Y-110113465D01*
G37*
G36*
X169498674Y-110113465D02*
G01*
X169536367Y-110124899D01*
X169571103Y-110143466D01*
X169601548Y-110168452D01*
X169626534Y-110198897D01*
X169645101Y-110233633D01*
X169656535Y-110271326D01*
X169661000Y-110316661D01*
X169661000Y-111153339D01*
X169656535Y-111198674D01*
X169645101Y-111236367D01*
X169626534Y-111271103D01*
X169601548Y-111301548D01*
X169571103Y-111326534D01*
X169536367Y-111345101D01*
X169498674Y-111356535D01*
X169453339Y-111361000D01*
X168366661Y-111361000D01*
X168321326Y-111356535D01*
X168283633Y-111345101D01*
X168248897Y-111326534D01*
X168218452Y-111301548D01*
X168193466Y-111271103D01*
X168174899Y-111236367D01*
X168163465Y-111198674D01*
X168159000Y-111153339D01*
X168159000Y-110316661D01*
X168163465Y-110271326D01*
X168174899Y-110233633D01*
X168193466Y-110198897D01*
X168218452Y-110168452D01*
X168248897Y-110143466D01*
X168283633Y-110124899D01*
X168321326Y-110113465D01*
X168366661Y-110109000D01*
X169453339Y-110109000D01*
X169498674Y-110113465D01*
X169498674Y-110113465D01*
G37*
G36*
X175696153Y-105505922D02*
G01*
X175788194Y-105544047D01*
X175918359Y-105597963D01*
X176118342Y-105731587D01*
X176288413Y-105901658D01*
X176422037Y-106101641D01*
X176514078Y-106323848D01*
X176561000Y-106559741D01*
X176561000Y-106800259D01*
X176514078Y-107036152D01*
X176422037Y-107258359D01*
X176288413Y-107458342D01*
X176118342Y-107628413D01*
X175918359Y-107762037D01*
X175788194Y-107815953D01*
X175696153Y-107854078D01*
X175578205Y-107877539D01*
X175460259Y-107901000D01*
X175219741Y-107901000D01*
X175101795Y-107877539D01*
X174983847Y-107854078D01*
X174891806Y-107815953D01*
X174761641Y-107762037D01*
X174561658Y-107628413D01*
X174391587Y-107458342D01*
X174257963Y-107258359D01*
X174165922Y-107036152D01*
X174119000Y-106800259D01*
X174119000Y-106559741D01*
X174165922Y-106323848D01*
X174257963Y-106101641D01*
X174391587Y-105901658D01*
X174561658Y-105731587D01*
X174761641Y-105597963D01*
X174891806Y-105544047D01*
X174983847Y-105505922D01*
X175219741Y-105459000D01*
X175460259Y-105459000D01*
X175696153Y-105505922D01*
X175696153Y-105505922D01*
G37*
G36*
X170696153Y-105505922D02*
G01*
X170788194Y-105544047D01*
X170918359Y-105597963D01*
X171118342Y-105731587D01*
X171288413Y-105901658D01*
X171422037Y-106101641D01*
X171514078Y-106323848D01*
X171561000Y-106559741D01*
X171561000Y-106800259D01*
X171514078Y-107036152D01*
X171422037Y-107258359D01*
X171288413Y-107458342D01*
X171118342Y-107628413D01*
X170918359Y-107762037D01*
X170788194Y-107815953D01*
X170696153Y-107854078D01*
X170578205Y-107877539D01*
X170460259Y-107901000D01*
X170219741Y-107901000D01*
X170101795Y-107877539D01*
X169983847Y-107854078D01*
X169891806Y-107815953D01*
X169761641Y-107762037D01*
X169561658Y-107628413D01*
X169391587Y-107458342D01*
X169257963Y-107258359D01*
X169165922Y-107036152D01*
X169119000Y-106800259D01*
X169119000Y-106559741D01*
X169165922Y-106323848D01*
X169257963Y-106101641D01*
X169391587Y-105901658D01*
X169561658Y-105731587D01*
X169761641Y-105597963D01*
X169891806Y-105544047D01*
X169983847Y-105505922D01*
X170219741Y-105459000D01*
X170460259Y-105459000D01*
X170696153Y-105505922D01*
X170696153Y-105505922D01*
G37*
G36*
X180696153Y-105505922D02*
G01*
X180788194Y-105544047D01*
X180918359Y-105597963D01*
X181118342Y-105731587D01*
X181288413Y-105901658D01*
X181422037Y-106101641D01*
X181514078Y-106323848D01*
X181561000Y-106559741D01*
X181561000Y-106800259D01*
X181514078Y-107036152D01*
X181422037Y-107258359D01*
X181288413Y-107458342D01*
X181118342Y-107628413D01*
X180918359Y-107762037D01*
X180788194Y-107815953D01*
X180696153Y-107854078D01*
X180578205Y-107877539D01*
X180460259Y-107901000D01*
X180219741Y-107901000D01*
X180101795Y-107877539D01*
X179983847Y-107854078D01*
X179891806Y-107815953D01*
X179761641Y-107762037D01*
X179561658Y-107628413D01*
X179391587Y-107458342D01*
X179257963Y-107258359D01*
X179165922Y-107036152D01*
X179119000Y-106800259D01*
X179119000Y-106559741D01*
X179165922Y-106323848D01*
X179257963Y-106101641D01*
X179391587Y-105901658D01*
X179561658Y-105731587D01*
X179761641Y-105597963D01*
X179891806Y-105544047D01*
X179983847Y-105505922D01*
X180219741Y-105459000D01*
X180460259Y-105459000D01*
X180696153Y-105505922D01*
X180696153Y-105505922D01*
G37*
G36*
X94496153Y-105505922D02*
G01*
X94588194Y-105544047D01*
X94718359Y-105597963D01*
X94918342Y-105731587D01*
X95088413Y-105901658D01*
X95222037Y-106101641D01*
X95314078Y-106323848D01*
X95361000Y-106559741D01*
X95361000Y-106800259D01*
X95314078Y-107036152D01*
X95222037Y-107258359D01*
X95088413Y-107458342D01*
X94918342Y-107628413D01*
X94718359Y-107762037D01*
X94588194Y-107815953D01*
X94496153Y-107854078D01*
X94378205Y-107877539D01*
X94260259Y-107901000D01*
X94019741Y-107901000D01*
X93901795Y-107877539D01*
X93783847Y-107854078D01*
X93691806Y-107815953D01*
X93561641Y-107762037D01*
X93361658Y-107628413D01*
X93191587Y-107458342D01*
X93057963Y-107258359D01*
X92965922Y-107036152D01*
X92919000Y-106800259D01*
X92919000Y-106559741D01*
X92965922Y-106323848D01*
X93057963Y-106101641D01*
X93191587Y-105901658D01*
X93361658Y-105731587D01*
X93561641Y-105597963D01*
X93691806Y-105544047D01*
X93783847Y-105505922D01*
X94019741Y-105459000D01*
X94260259Y-105459000D01*
X94496153Y-105505922D01*
X94496153Y-105505922D01*
G37*
G36*
X196096153Y-105505922D02*
G01*
X196188194Y-105544047D01*
X196318359Y-105597963D01*
X196518342Y-105731587D01*
X196688413Y-105901658D01*
X196822037Y-106101641D01*
X196914078Y-106323848D01*
X196961000Y-106559741D01*
X196961000Y-106800259D01*
X196914078Y-107036152D01*
X196822037Y-107258359D01*
X196688413Y-107458342D01*
X196518342Y-107628413D01*
X196318359Y-107762037D01*
X196188194Y-107815953D01*
X196096153Y-107854078D01*
X195978205Y-107877539D01*
X195860259Y-107901000D01*
X195619741Y-107901000D01*
X195501795Y-107877539D01*
X195383847Y-107854078D01*
X195291806Y-107815953D01*
X195161641Y-107762037D01*
X194961658Y-107628413D01*
X194791587Y-107458342D01*
X194657963Y-107258359D01*
X194565922Y-107036152D01*
X194519000Y-106800259D01*
X194519000Y-106559741D01*
X194565922Y-106323848D01*
X194657963Y-106101641D01*
X194791587Y-105901658D01*
X194961658Y-105731587D01*
X195161641Y-105597963D01*
X195291806Y-105544047D01*
X195383847Y-105505922D01*
X195619741Y-105459000D01*
X195860259Y-105459000D01*
X196096153Y-105505922D01*
X196096153Y-105505922D01*
G37*
G36*
X99496153Y-105505922D02*
G01*
X99588194Y-105544047D01*
X99718359Y-105597963D01*
X99918342Y-105731587D01*
X100088413Y-105901658D01*
X100222037Y-106101641D01*
X100314078Y-106323848D01*
X100361000Y-106559741D01*
X100361000Y-106800259D01*
X100314078Y-107036152D01*
X100222037Y-107258359D01*
X100088413Y-107458342D01*
X99918342Y-107628413D01*
X99718359Y-107762037D01*
X99588194Y-107815953D01*
X99496153Y-107854078D01*
X99378205Y-107877539D01*
X99260259Y-107901000D01*
X99019741Y-107901000D01*
X98901795Y-107877539D01*
X98783847Y-107854078D01*
X98691806Y-107815953D01*
X98561641Y-107762037D01*
X98361658Y-107628413D01*
X98191587Y-107458342D01*
X98057963Y-107258359D01*
X97965922Y-107036152D01*
X97919000Y-106800259D01*
X97919000Y-106559741D01*
X97965922Y-106323848D01*
X98057963Y-106101641D01*
X98191587Y-105901658D01*
X98361658Y-105731587D01*
X98561641Y-105597963D01*
X98691806Y-105544047D01*
X98783847Y-105505922D01*
X99019741Y-105459000D01*
X99260259Y-105459000D01*
X99496153Y-105505922D01*
X99496153Y-105505922D01*
G37*
G36*
X206096153Y-105505922D02*
G01*
X206188194Y-105544047D01*
X206318359Y-105597963D01*
X206518342Y-105731587D01*
X206688413Y-105901658D01*
X206822037Y-106101641D01*
X206914078Y-106323848D01*
X206961000Y-106559741D01*
X206961000Y-106800259D01*
X206914078Y-107036152D01*
X206822037Y-107258359D01*
X206688413Y-107458342D01*
X206518342Y-107628413D01*
X206318359Y-107762037D01*
X206188194Y-107815953D01*
X206096153Y-107854078D01*
X205978205Y-107877539D01*
X205860259Y-107901000D01*
X205619741Y-107901000D01*
X205501795Y-107877539D01*
X205383847Y-107854078D01*
X205291806Y-107815953D01*
X205161641Y-107762037D01*
X204961658Y-107628413D01*
X204791587Y-107458342D01*
X204657963Y-107258359D01*
X204565922Y-107036152D01*
X204519000Y-106800259D01*
X204519000Y-106559741D01*
X204565922Y-106323848D01*
X204657963Y-106101641D01*
X204791587Y-105901658D01*
X204961658Y-105731587D01*
X205161641Y-105597963D01*
X205291806Y-105544047D01*
X205383847Y-105505922D01*
X205619741Y-105459000D01*
X205860259Y-105459000D01*
X206096153Y-105505922D01*
X206096153Y-105505922D01*
G37*
G36*
X201096153Y-105505922D02*
G01*
X201188194Y-105544047D01*
X201318359Y-105597963D01*
X201518342Y-105731587D01*
X201688413Y-105901658D01*
X201822037Y-106101641D01*
X201914078Y-106323848D01*
X201961000Y-106559741D01*
X201961000Y-106800259D01*
X201914078Y-107036152D01*
X201822037Y-107258359D01*
X201688413Y-107458342D01*
X201518342Y-107628413D01*
X201318359Y-107762037D01*
X201188194Y-107815953D01*
X201096153Y-107854078D01*
X200978205Y-107877539D01*
X200860259Y-107901000D01*
X200619741Y-107901000D01*
X200501795Y-107877539D01*
X200383847Y-107854078D01*
X200291806Y-107815953D01*
X200161641Y-107762037D01*
X199961658Y-107628413D01*
X199791587Y-107458342D01*
X199657963Y-107258359D01*
X199565922Y-107036152D01*
X199519000Y-106800259D01*
X199519000Y-106559741D01*
X199565922Y-106323848D01*
X199657963Y-106101641D01*
X199791587Y-105901658D01*
X199961658Y-105731587D01*
X200161641Y-105597963D01*
X200291806Y-105544047D01*
X200383847Y-105505922D01*
X200619741Y-105459000D01*
X200860259Y-105459000D01*
X201096153Y-105505922D01*
X201096153Y-105505922D01*
G37*
G36*
X104496153Y-105505922D02*
G01*
X104588194Y-105544047D01*
X104718359Y-105597963D01*
X104918342Y-105731587D01*
X105088413Y-105901658D01*
X105222037Y-106101641D01*
X105314078Y-106323848D01*
X105361000Y-106559741D01*
X105361000Y-106800259D01*
X105314078Y-107036152D01*
X105222037Y-107258359D01*
X105088413Y-107458342D01*
X104918342Y-107628413D01*
X104718359Y-107762037D01*
X104588194Y-107815953D01*
X104496153Y-107854078D01*
X104378205Y-107877539D01*
X104260259Y-107901000D01*
X104019741Y-107901000D01*
X103901795Y-107877539D01*
X103783847Y-107854078D01*
X103691806Y-107815953D01*
X103561641Y-107762037D01*
X103361658Y-107628413D01*
X103191587Y-107458342D01*
X103057963Y-107258359D01*
X102965922Y-107036152D01*
X102919000Y-106800259D01*
X102919000Y-106559741D01*
X102965922Y-106323848D01*
X103057963Y-106101641D01*
X103191587Y-105901658D01*
X103361658Y-105731587D01*
X103561641Y-105597963D01*
X103691806Y-105544047D01*
X103783847Y-105505922D01*
X104019741Y-105459000D01*
X104260259Y-105459000D01*
X104496153Y-105505922D01*
X104496153Y-105505922D01*
G37*
G36*
X119896153Y-105505922D02*
G01*
X119988194Y-105544047D01*
X120118359Y-105597963D01*
X120318342Y-105731587D01*
X120488413Y-105901658D01*
X120622037Y-106101641D01*
X120714078Y-106323848D01*
X120761000Y-106559741D01*
X120761000Y-106800259D01*
X120714078Y-107036152D01*
X120622037Y-107258359D01*
X120488413Y-107458342D01*
X120318342Y-107628413D01*
X120118359Y-107762037D01*
X119988194Y-107815953D01*
X119896153Y-107854078D01*
X119778205Y-107877539D01*
X119660259Y-107901000D01*
X119419741Y-107901000D01*
X119301795Y-107877539D01*
X119183847Y-107854078D01*
X119091806Y-107815953D01*
X118961641Y-107762037D01*
X118761658Y-107628413D01*
X118591587Y-107458342D01*
X118457963Y-107258359D01*
X118365922Y-107036152D01*
X118319000Y-106800259D01*
X118319000Y-106559741D01*
X118365922Y-106323848D01*
X118457963Y-106101641D01*
X118591587Y-105901658D01*
X118761658Y-105731587D01*
X118961641Y-105597963D01*
X119091806Y-105544047D01*
X119183847Y-105505922D01*
X119419741Y-105459000D01*
X119660259Y-105459000D01*
X119896153Y-105505922D01*
X119896153Y-105505922D01*
G37*
G36*
X124896153Y-105505922D02*
G01*
X124988194Y-105544047D01*
X125118359Y-105597963D01*
X125318342Y-105731587D01*
X125488413Y-105901658D01*
X125622037Y-106101641D01*
X125714078Y-106323848D01*
X125761000Y-106559741D01*
X125761000Y-106800259D01*
X125714078Y-107036152D01*
X125622037Y-107258359D01*
X125488413Y-107458342D01*
X125318342Y-107628413D01*
X125118359Y-107762037D01*
X124988194Y-107815953D01*
X124896153Y-107854078D01*
X124778205Y-107877539D01*
X124660259Y-107901000D01*
X124419741Y-107901000D01*
X124301795Y-107877539D01*
X124183847Y-107854078D01*
X124091806Y-107815953D01*
X123961641Y-107762037D01*
X123761658Y-107628413D01*
X123591587Y-107458342D01*
X123457963Y-107258359D01*
X123365922Y-107036152D01*
X123319000Y-106800259D01*
X123319000Y-106559741D01*
X123365922Y-106323848D01*
X123457963Y-106101641D01*
X123591587Y-105901658D01*
X123761658Y-105731587D01*
X123961641Y-105597963D01*
X124091806Y-105544047D01*
X124183847Y-105505922D01*
X124419741Y-105459000D01*
X124660259Y-105459000D01*
X124896153Y-105505922D01*
X124896153Y-105505922D01*
G37*
G36*
X129896153Y-105505922D02*
G01*
X129988194Y-105544047D01*
X130118359Y-105597963D01*
X130318342Y-105731587D01*
X130488413Y-105901658D01*
X130622037Y-106101641D01*
X130714078Y-106323848D01*
X130761000Y-106559741D01*
X130761000Y-106800259D01*
X130714078Y-107036152D01*
X130622037Y-107258359D01*
X130488413Y-107458342D01*
X130318342Y-107628413D01*
X130118359Y-107762037D01*
X129988194Y-107815953D01*
X129896153Y-107854078D01*
X129778205Y-107877539D01*
X129660259Y-107901000D01*
X129419741Y-107901000D01*
X129301795Y-107877539D01*
X129183847Y-107854078D01*
X129091806Y-107815953D01*
X128961641Y-107762037D01*
X128761658Y-107628413D01*
X128591587Y-107458342D01*
X128457963Y-107258359D01*
X128365922Y-107036152D01*
X128319000Y-106800259D01*
X128319000Y-106559741D01*
X128365922Y-106323848D01*
X128457963Y-106101641D01*
X128591587Y-105901658D01*
X128761658Y-105731587D01*
X128961641Y-105597963D01*
X129091806Y-105544047D01*
X129183847Y-105505922D01*
X129419741Y-105459000D01*
X129660259Y-105459000D01*
X129896153Y-105505922D01*
X129896153Y-105505922D01*
G37*
G36*
X145296153Y-105505922D02*
G01*
X145388194Y-105544047D01*
X145518359Y-105597963D01*
X145718342Y-105731587D01*
X145888413Y-105901658D01*
X146022037Y-106101641D01*
X146114078Y-106323848D01*
X146161000Y-106559741D01*
X146161000Y-106800259D01*
X146114078Y-107036152D01*
X146022037Y-107258359D01*
X145888413Y-107458342D01*
X145718342Y-107628413D01*
X145518359Y-107762037D01*
X145388194Y-107815953D01*
X145296153Y-107854078D01*
X145178205Y-107877539D01*
X145060259Y-107901000D01*
X144819741Y-107901000D01*
X144701795Y-107877539D01*
X144583847Y-107854078D01*
X144491806Y-107815953D01*
X144361641Y-107762037D01*
X144161658Y-107628413D01*
X143991587Y-107458342D01*
X143857963Y-107258359D01*
X143765922Y-107036152D01*
X143719000Y-106800259D01*
X143719000Y-106559741D01*
X143765922Y-106323848D01*
X143857963Y-106101641D01*
X143991587Y-105901658D01*
X144161658Y-105731587D01*
X144361641Y-105597963D01*
X144491806Y-105544047D01*
X144583847Y-105505922D01*
X144819741Y-105459000D01*
X145060259Y-105459000D01*
X145296153Y-105505922D01*
X145296153Y-105505922D01*
G37*
G36*
X150296153Y-105505922D02*
G01*
X150388194Y-105544047D01*
X150518359Y-105597963D01*
X150718342Y-105731587D01*
X150888413Y-105901658D01*
X151022037Y-106101641D01*
X151114078Y-106323848D01*
X151161000Y-106559741D01*
X151161000Y-106800259D01*
X151114078Y-107036152D01*
X151022037Y-107258359D01*
X150888413Y-107458342D01*
X150718342Y-107628413D01*
X150518359Y-107762037D01*
X150388194Y-107815953D01*
X150296153Y-107854078D01*
X150178205Y-107877539D01*
X150060259Y-107901000D01*
X149819741Y-107901000D01*
X149701795Y-107877539D01*
X149583847Y-107854078D01*
X149491806Y-107815953D01*
X149361641Y-107762037D01*
X149161658Y-107628413D01*
X148991587Y-107458342D01*
X148857963Y-107258359D01*
X148765922Y-107036152D01*
X148719000Y-106800259D01*
X148719000Y-106559741D01*
X148765922Y-106323848D01*
X148857963Y-106101641D01*
X148991587Y-105901658D01*
X149161658Y-105731587D01*
X149361641Y-105597963D01*
X149491806Y-105544047D01*
X149583847Y-105505922D01*
X149819741Y-105459000D01*
X150060259Y-105459000D01*
X150296153Y-105505922D01*
X150296153Y-105505922D01*
G37*
G36*
X155296153Y-105505922D02*
G01*
X155388194Y-105544047D01*
X155518359Y-105597963D01*
X155718342Y-105731587D01*
X155888413Y-105901658D01*
X156022037Y-106101641D01*
X156114078Y-106323848D01*
X156161000Y-106559741D01*
X156161000Y-106800259D01*
X156114078Y-107036152D01*
X156022037Y-107258359D01*
X155888413Y-107458342D01*
X155718342Y-107628413D01*
X155518359Y-107762037D01*
X155388194Y-107815953D01*
X155296153Y-107854078D01*
X155178205Y-107877539D01*
X155060259Y-107901000D01*
X154819741Y-107901000D01*
X154701795Y-107877539D01*
X154583847Y-107854078D01*
X154491806Y-107815953D01*
X154361641Y-107762037D01*
X154161658Y-107628413D01*
X153991587Y-107458342D01*
X153857963Y-107258359D01*
X153765922Y-107036152D01*
X153719000Y-106800259D01*
X153719000Y-106559741D01*
X153765922Y-106323848D01*
X153857963Y-106101641D01*
X153991587Y-105901658D01*
X154161658Y-105731587D01*
X154361641Y-105597963D01*
X154491806Y-105544047D01*
X154583847Y-105505922D01*
X154819741Y-105459000D01*
X155060259Y-105459000D01*
X155296153Y-105505922D01*
X155296153Y-105505922D01*
G37*
G36*
X221724098Y-88987033D02*
G01*
X222188350Y-89179332D01*
X222188352Y-89179333D01*
X222606168Y-89458509D01*
X222961491Y-89813832D01*
X223240667Y-90231648D01*
X223240668Y-90231650D01*
X223432967Y-90695902D01*
X223531000Y-91188747D01*
X223531000Y-91691253D01*
X223432967Y-92184098D01*
X223240668Y-92648350D01*
X223240667Y-92648352D01*
X222961491Y-93066168D01*
X222606168Y-93421491D01*
X222188352Y-93700667D01*
X222188351Y-93700668D01*
X222188350Y-93700668D01*
X221724098Y-93892967D01*
X221231253Y-93991000D01*
X220728747Y-93991000D01*
X220235902Y-93892967D01*
X219771650Y-93700668D01*
X219771649Y-93700668D01*
X219771648Y-93700667D01*
X219353832Y-93421491D01*
X218998509Y-93066168D01*
X218719333Y-92648352D01*
X218719332Y-92648350D01*
X218527033Y-92184098D01*
X218429000Y-91691253D01*
X218429000Y-91188747D01*
X218527033Y-90695902D01*
X218719332Y-90231650D01*
X218719333Y-90231648D01*
X218998509Y-89813832D01*
X219353832Y-89458509D01*
X219771648Y-89179333D01*
X219771650Y-89179332D01*
X220235902Y-88987033D01*
X220728747Y-88889000D01*
X221231253Y-88889000D01*
X221724098Y-88987033D01*
X221724098Y-88987033D01*
G37*
G36*
X79484098Y-88987033D02*
G01*
X79948350Y-89179332D01*
X79948352Y-89179333D01*
X80366168Y-89458509D01*
X80721491Y-89813832D01*
X81000667Y-90231648D01*
X81000668Y-90231650D01*
X81192967Y-90695902D01*
X81291000Y-91188747D01*
X81291000Y-91691253D01*
X81192967Y-92184098D01*
X81000668Y-92648350D01*
X81000667Y-92648352D01*
X80721491Y-93066168D01*
X80366168Y-93421491D01*
X79948352Y-93700667D01*
X79948351Y-93700668D01*
X79948350Y-93700668D01*
X79484098Y-93892967D01*
X78991253Y-93991000D01*
X78488747Y-93991000D01*
X77995902Y-93892967D01*
X77531650Y-93700668D01*
X77531649Y-93700668D01*
X77531648Y-93700667D01*
X77113832Y-93421491D01*
X76758509Y-93066168D01*
X76479333Y-92648352D01*
X76479332Y-92648350D01*
X76287033Y-92184098D01*
X76189000Y-91691253D01*
X76189000Y-91188747D01*
X76287033Y-90695902D01*
X76479332Y-90231650D01*
X76479333Y-90231648D01*
X76758509Y-89813832D01*
X77113832Y-89458509D01*
X77531648Y-89179333D01*
X77531650Y-89179332D01*
X77995902Y-88987033D01*
X78488747Y-88889000D01*
X78991253Y-88889000D01*
X79484098Y-88987033D01*
X79484098Y-88987033D01*
G37*
G36*
X104378205Y-82622461D02*
G01*
X104496153Y-82645922D01*
X104588194Y-82684047D01*
X104718359Y-82737963D01*
X104918342Y-82871587D01*
X105088413Y-83041658D01*
X105222037Y-83241641D01*
X105314078Y-83463848D01*
X105361000Y-83699741D01*
X105361000Y-83940259D01*
X105314078Y-84176152D01*
X105222037Y-84398359D01*
X105088413Y-84598342D01*
X104918342Y-84768413D01*
X104718359Y-84902037D01*
X104588194Y-84955953D01*
X104496153Y-84994078D01*
X104378205Y-85017539D01*
X104260259Y-85041000D01*
X104019741Y-85041000D01*
X103901795Y-85017539D01*
X103783847Y-84994078D01*
X103691806Y-84955953D01*
X103561641Y-84902037D01*
X103361658Y-84768413D01*
X103191587Y-84598342D01*
X103057963Y-84398359D01*
X102965922Y-84176152D01*
X102919000Y-83940259D01*
X102919000Y-83699741D01*
X102965922Y-83463848D01*
X103057963Y-83241641D01*
X103191587Y-83041658D01*
X103361658Y-82871587D01*
X103561641Y-82737963D01*
X103691806Y-82684047D01*
X103783847Y-82645922D01*
X103901795Y-82622461D01*
X104019741Y-82599000D01*
X104260259Y-82599000D01*
X104378205Y-82622461D01*
X104378205Y-82622461D01*
G37*
G36*
X94378205Y-82622461D02*
G01*
X94496153Y-82645922D01*
X94588194Y-82684047D01*
X94718359Y-82737963D01*
X94918342Y-82871587D01*
X95088413Y-83041658D01*
X95222037Y-83241641D01*
X95314078Y-83463848D01*
X95361000Y-83699741D01*
X95361000Y-83940259D01*
X95314078Y-84176152D01*
X95222037Y-84398359D01*
X95088413Y-84598342D01*
X94918342Y-84768413D01*
X94718359Y-84902037D01*
X94588194Y-84955953D01*
X94496153Y-84994078D01*
X94378205Y-85017539D01*
X94260259Y-85041000D01*
X94019741Y-85041000D01*
X93901795Y-85017539D01*
X93783847Y-84994078D01*
X93691806Y-84955953D01*
X93561641Y-84902037D01*
X93361658Y-84768413D01*
X93191587Y-84598342D01*
X93057963Y-84398359D01*
X92965922Y-84176152D01*
X92919000Y-83940259D01*
X92919000Y-83699741D01*
X92965922Y-83463848D01*
X93057963Y-83241641D01*
X93191587Y-83041658D01*
X93361658Y-82871587D01*
X93561641Y-82737963D01*
X93691806Y-82684047D01*
X93783847Y-82645922D01*
X93901795Y-82622461D01*
X94019741Y-82599000D01*
X94260259Y-82599000D01*
X94378205Y-82622461D01*
X94378205Y-82622461D01*
G37*
G36*
X205978205Y-82622461D02*
G01*
X206096153Y-82645922D01*
X206188194Y-82684047D01*
X206318359Y-82737963D01*
X206518342Y-82871587D01*
X206688413Y-83041658D01*
X206822037Y-83241641D01*
X206914078Y-83463848D01*
X206961000Y-83699741D01*
X206961000Y-83940259D01*
X206914078Y-84176152D01*
X206822037Y-84398359D01*
X206688413Y-84598342D01*
X206518342Y-84768413D01*
X206318359Y-84902037D01*
X206188194Y-84955953D01*
X206096153Y-84994078D01*
X205978205Y-85017539D01*
X205860259Y-85041000D01*
X205619741Y-85041000D01*
X205501795Y-85017539D01*
X205383847Y-84994078D01*
X205291806Y-84955953D01*
X205161641Y-84902037D01*
X204961658Y-84768413D01*
X204791587Y-84598342D01*
X204657963Y-84398359D01*
X204565922Y-84176152D01*
X204519000Y-83940259D01*
X204519000Y-83699741D01*
X204565922Y-83463848D01*
X204657963Y-83241641D01*
X204791587Y-83041658D01*
X204961658Y-82871587D01*
X205161641Y-82737963D01*
X205291806Y-82684047D01*
X205383847Y-82645922D01*
X205619741Y-82599000D01*
X205860259Y-82599000D01*
X205978205Y-82622461D01*
X205978205Y-82622461D01*
G37*
G36*
X99378205Y-82622461D02*
G01*
X99496153Y-82645922D01*
X99588194Y-82684047D01*
X99718359Y-82737963D01*
X99918342Y-82871587D01*
X100088413Y-83041658D01*
X100222037Y-83241641D01*
X100314078Y-83463848D01*
X100361000Y-83699741D01*
X100361000Y-83940259D01*
X100314078Y-84176152D01*
X100222037Y-84398359D01*
X100088413Y-84598342D01*
X99918342Y-84768413D01*
X99718359Y-84902037D01*
X99588194Y-84955953D01*
X99496153Y-84994078D01*
X99378205Y-85017539D01*
X99260259Y-85041000D01*
X99019741Y-85041000D01*
X98901795Y-85017539D01*
X98783847Y-84994078D01*
X98691806Y-84955953D01*
X98561641Y-84902037D01*
X98361658Y-84768413D01*
X98191587Y-84598342D01*
X98057963Y-84398359D01*
X97965922Y-84176152D01*
X97919000Y-83940259D01*
X97919000Y-83699741D01*
X97965922Y-83463848D01*
X98057963Y-83241641D01*
X98191587Y-83041658D01*
X98361658Y-82871587D01*
X98561641Y-82737963D01*
X98691806Y-82684047D01*
X98783847Y-82645922D01*
X98901795Y-82622461D01*
X99019741Y-82599000D01*
X99260259Y-82599000D01*
X99378205Y-82622461D01*
X99378205Y-82622461D01*
G37*
G36*
X200978205Y-82622461D02*
G01*
X201096153Y-82645922D01*
X201188194Y-82684047D01*
X201318359Y-82737963D01*
X201518342Y-82871587D01*
X201688413Y-83041658D01*
X201822037Y-83241641D01*
X201914078Y-83463848D01*
X201961000Y-83699741D01*
X201961000Y-83940259D01*
X201914078Y-84176152D01*
X201822037Y-84398359D01*
X201688413Y-84598342D01*
X201518342Y-84768413D01*
X201318359Y-84902037D01*
X201188194Y-84955953D01*
X201096153Y-84994078D01*
X200978205Y-85017539D01*
X200860259Y-85041000D01*
X200619741Y-85041000D01*
X200501795Y-85017539D01*
X200383847Y-84994078D01*
X200291806Y-84955953D01*
X200161641Y-84902037D01*
X199961658Y-84768413D01*
X199791587Y-84598342D01*
X199657963Y-84398359D01*
X199565922Y-84176152D01*
X199519000Y-83940259D01*
X199519000Y-83699741D01*
X199565922Y-83463848D01*
X199657963Y-83241641D01*
X199791587Y-83041658D01*
X199961658Y-82871587D01*
X200161641Y-82737963D01*
X200291806Y-82684047D01*
X200383847Y-82645922D01*
X200619741Y-82599000D01*
X200860259Y-82599000D01*
X200978205Y-82622461D01*
X200978205Y-82622461D01*
G37*
G36*
X195978205Y-82622461D02*
G01*
X196096153Y-82645922D01*
X196188194Y-82684047D01*
X196318359Y-82737963D01*
X196518342Y-82871587D01*
X196688413Y-83041658D01*
X196822037Y-83241641D01*
X196914078Y-83463848D01*
X196961000Y-83699741D01*
X196961000Y-83940259D01*
X196914078Y-84176152D01*
X196822037Y-84398359D01*
X196688413Y-84598342D01*
X196518342Y-84768413D01*
X196318359Y-84902037D01*
X196188194Y-84955953D01*
X196096153Y-84994078D01*
X195978205Y-85017539D01*
X195860259Y-85041000D01*
X195619741Y-85041000D01*
X195501795Y-85017539D01*
X195383847Y-84994078D01*
X195291806Y-84955953D01*
X195161641Y-84902037D01*
X194961658Y-84768413D01*
X194791587Y-84598342D01*
X194657963Y-84398359D01*
X194565922Y-84176152D01*
X194519000Y-83940259D01*
X194519000Y-83699741D01*
X194565922Y-83463848D01*
X194657963Y-83241641D01*
X194791587Y-83041658D01*
X194961658Y-82871587D01*
X195161641Y-82737963D01*
X195291806Y-82684047D01*
X195383847Y-82645922D01*
X195619741Y-82599000D01*
X195860259Y-82599000D01*
X195978205Y-82622461D01*
X195978205Y-82622461D01*
G37*
G36*
X180578205Y-82622461D02*
G01*
X180696153Y-82645922D01*
X180788194Y-82684047D01*
X180918359Y-82737963D01*
X181118342Y-82871587D01*
X181288413Y-83041658D01*
X181422037Y-83241641D01*
X181514078Y-83463848D01*
X181561000Y-83699741D01*
X181561000Y-83940259D01*
X181514078Y-84176152D01*
X181422037Y-84398359D01*
X181288413Y-84598342D01*
X181118342Y-84768413D01*
X180918359Y-84902037D01*
X180788194Y-84955953D01*
X180696153Y-84994078D01*
X180578205Y-85017539D01*
X180460259Y-85041000D01*
X180219741Y-85041000D01*
X180101795Y-85017539D01*
X179983847Y-84994078D01*
X179891806Y-84955953D01*
X179761641Y-84902037D01*
X179561658Y-84768413D01*
X179391587Y-84598342D01*
X179257963Y-84398359D01*
X179165922Y-84176152D01*
X179119000Y-83940259D01*
X179119000Y-83699741D01*
X179165922Y-83463848D01*
X179257963Y-83241641D01*
X179391587Y-83041658D01*
X179561658Y-82871587D01*
X179761641Y-82737963D01*
X179891806Y-82684047D01*
X179983847Y-82645922D01*
X180219741Y-82599000D01*
X180460259Y-82599000D01*
X180578205Y-82622461D01*
X180578205Y-82622461D01*
G37*
G36*
X129778205Y-82622461D02*
G01*
X129896153Y-82645922D01*
X129988194Y-82684047D01*
X130118359Y-82737963D01*
X130318342Y-82871587D01*
X130488413Y-83041658D01*
X130622037Y-83241641D01*
X130714078Y-83463848D01*
X130761000Y-83699741D01*
X130761000Y-83940259D01*
X130714078Y-84176152D01*
X130622037Y-84398359D01*
X130488413Y-84598342D01*
X130318342Y-84768413D01*
X130118359Y-84902037D01*
X129988194Y-84955953D01*
X129896153Y-84994078D01*
X129778205Y-85017539D01*
X129660259Y-85041000D01*
X129419741Y-85041000D01*
X129301795Y-85017539D01*
X129183847Y-84994078D01*
X129091806Y-84955953D01*
X128961641Y-84902037D01*
X128761658Y-84768413D01*
X128591587Y-84598342D01*
X128457963Y-84398359D01*
X128365922Y-84176152D01*
X128319000Y-83940259D01*
X128319000Y-83699741D01*
X128365922Y-83463848D01*
X128457963Y-83241641D01*
X128591587Y-83041658D01*
X128761658Y-82871587D01*
X128961641Y-82737963D01*
X129091806Y-82684047D01*
X129183847Y-82645922D01*
X129419741Y-82599000D01*
X129660259Y-82599000D01*
X129778205Y-82622461D01*
X129778205Y-82622461D01*
G37*
G36*
X124778205Y-82622461D02*
G01*
X124896153Y-82645922D01*
X124988194Y-82684047D01*
X125118359Y-82737963D01*
X125318342Y-82871587D01*
X125488413Y-83041658D01*
X125622037Y-83241641D01*
X125714078Y-83463848D01*
X125761000Y-83699741D01*
X125761000Y-83940259D01*
X125714078Y-84176152D01*
X125622037Y-84398359D01*
X125488413Y-84598342D01*
X125318342Y-84768413D01*
X125118359Y-84902037D01*
X124988194Y-84955953D01*
X124896153Y-84994078D01*
X124778205Y-85017539D01*
X124660259Y-85041000D01*
X124419741Y-85041000D01*
X124301795Y-85017539D01*
X124183847Y-84994078D01*
X124091806Y-84955953D01*
X123961641Y-84902037D01*
X123761658Y-84768413D01*
X123591587Y-84598342D01*
X123457963Y-84398359D01*
X123365922Y-84176152D01*
X123319000Y-83940259D01*
X123319000Y-83699741D01*
X123365922Y-83463848D01*
X123457963Y-83241641D01*
X123591587Y-83041658D01*
X123761658Y-82871587D01*
X123961641Y-82737963D01*
X124091806Y-82684047D01*
X124183847Y-82645922D01*
X124419741Y-82599000D01*
X124660259Y-82599000D01*
X124778205Y-82622461D01*
X124778205Y-82622461D01*
G37*
G36*
X119778205Y-82622461D02*
G01*
X119896153Y-82645922D01*
X119988194Y-82684047D01*
X120118359Y-82737963D01*
X120318342Y-82871587D01*
X120488413Y-83041658D01*
X120622037Y-83241641D01*
X120714078Y-83463848D01*
X120761000Y-83699741D01*
X120761000Y-83940259D01*
X120714078Y-84176152D01*
X120622037Y-84398359D01*
X120488413Y-84598342D01*
X120318342Y-84768413D01*
X120118359Y-84902037D01*
X119988194Y-84955953D01*
X119896153Y-84994078D01*
X119778205Y-85017539D01*
X119660259Y-85041000D01*
X119419741Y-85041000D01*
X119301795Y-85017539D01*
X119183847Y-84994078D01*
X119091806Y-84955953D01*
X118961641Y-84902037D01*
X118761658Y-84768413D01*
X118591587Y-84598342D01*
X118457963Y-84398359D01*
X118365922Y-84176152D01*
X118319000Y-83940259D01*
X118319000Y-83699741D01*
X118365922Y-83463848D01*
X118457963Y-83241641D01*
X118591587Y-83041658D01*
X118761658Y-82871587D01*
X118961641Y-82737963D01*
X119091806Y-82684047D01*
X119183847Y-82645922D01*
X119301795Y-82622461D01*
X119419741Y-82599000D01*
X119660259Y-82599000D01*
X119778205Y-82622461D01*
X119778205Y-82622461D01*
G37*
G36*
X175578205Y-82622461D02*
G01*
X175696153Y-82645922D01*
X175788194Y-82684047D01*
X175918359Y-82737963D01*
X176118342Y-82871587D01*
X176288413Y-83041658D01*
X176422037Y-83241641D01*
X176514078Y-83463848D01*
X176561000Y-83699741D01*
X176561000Y-83940259D01*
X176514078Y-84176152D01*
X176422037Y-84398359D01*
X176288413Y-84598342D01*
X176118342Y-84768413D01*
X175918359Y-84902037D01*
X175788194Y-84955953D01*
X175696153Y-84994078D01*
X175578205Y-85017539D01*
X175460259Y-85041000D01*
X175219741Y-85041000D01*
X175101795Y-85017539D01*
X174983847Y-84994078D01*
X174891806Y-84955953D01*
X174761641Y-84902037D01*
X174561658Y-84768413D01*
X174391587Y-84598342D01*
X174257963Y-84398359D01*
X174165922Y-84176152D01*
X174119000Y-83940259D01*
X174119000Y-83699741D01*
X174165922Y-83463848D01*
X174257963Y-83241641D01*
X174391587Y-83041658D01*
X174561658Y-82871587D01*
X174761641Y-82737963D01*
X174891806Y-82684047D01*
X174983847Y-82645922D01*
X175219741Y-82599000D01*
X175460259Y-82599000D01*
X175578205Y-82622461D01*
X175578205Y-82622461D01*
G37*
G36*
X170578205Y-82622461D02*
G01*
X170696153Y-82645922D01*
X170788194Y-82684047D01*
X170918359Y-82737963D01*
X171118342Y-82871587D01*
X171288413Y-83041658D01*
X171422037Y-83241641D01*
X171514078Y-83463848D01*
X171561000Y-83699741D01*
X171561000Y-83940259D01*
X171514078Y-84176152D01*
X171422037Y-84398359D01*
X171288413Y-84598342D01*
X171118342Y-84768413D01*
X170918359Y-84902037D01*
X170788194Y-84955953D01*
X170696153Y-84994078D01*
X170578205Y-85017539D01*
X170460259Y-85041000D01*
X170219741Y-85041000D01*
X170101795Y-85017539D01*
X169983847Y-84994078D01*
X169891806Y-84955953D01*
X169761641Y-84902037D01*
X169561658Y-84768413D01*
X169391587Y-84598342D01*
X169257963Y-84398359D01*
X169165922Y-84176152D01*
X169119000Y-83940259D01*
X169119000Y-83699741D01*
X169165922Y-83463848D01*
X169257963Y-83241641D01*
X169391587Y-83041658D01*
X169561658Y-82871587D01*
X169761641Y-82737963D01*
X169891806Y-82684047D01*
X169983847Y-82645922D01*
X170219741Y-82599000D01*
X170460259Y-82599000D01*
X170578205Y-82622461D01*
X170578205Y-82622461D01*
G37*
G36*
X155178205Y-82622461D02*
G01*
X155296153Y-82645922D01*
X155388194Y-82684047D01*
X155518359Y-82737963D01*
X155718342Y-82871587D01*
X155888413Y-83041658D01*
X156022037Y-83241641D01*
X156114078Y-83463848D01*
X156161000Y-83699741D01*
X156161000Y-83940259D01*
X156114078Y-84176152D01*
X156022037Y-84398359D01*
X155888413Y-84598342D01*
X155718342Y-84768413D01*
X155518359Y-84902037D01*
X155388194Y-84955953D01*
X155296153Y-84994078D01*
X155178205Y-85017539D01*
X155060259Y-85041000D01*
X154819741Y-85041000D01*
X154701795Y-85017539D01*
X154583847Y-84994078D01*
X154491806Y-84955953D01*
X154361641Y-84902037D01*
X154161658Y-84768413D01*
X153991587Y-84598342D01*
X153857963Y-84398359D01*
X153765922Y-84176152D01*
X153719000Y-83940259D01*
X153719000Y-83699741D01*
X153765922Y-83463848D01*
X153857963Y-83241641D01*
X153991587Y-83041658D01*
X154161658Y-82871587D01*
X154361641Y-82737963D01*
X154491806Y-82684047D01*
X154583847Y-82645922D01*
X154819741Y-82599000D01*
X155060259Y-82599000D01*
X155178205Y-82622461D01*
X155178205Y-82622461D01*
G37*
G36*
X150178205Y-82622461D02*
G01*
X150296153Y-82645922D01*
X150388194Y-82684047D01*
X150518359Y-82737963D01*
X150718342Y-82871587D01*
X150888413Y-83041658D01*
X151022037Y-83241641D01*
X151114078Y-83463848D01*
X151161000Y-83699741D01*
X151161000Y-83940259D01*
X151114078Y-84176152D01*
X151022037Y-84398359D01*
X150888413Y-84598342D01*
X150718342Y-84768413D01*
X150518359Y-84902037D01*
X150388194Y-84955953D01*
X150296153Y-84994078D01*
X150178205Y-85017539D01*
X150060259Y-85041000D01*
X149819741Y-85041000D01*
X149701795Y-85017539D01*
X149583847Y-84994078D01*
X149491806Y-84955953D01*
X149361641Y-84902037D01*
X149161658Y-84768413D01*
X148991587Y-84598342D01*
X148857963Y-84398359D01*
X148765922Y-84176152D01*
X148719000Y-83940259D01*
X148719000Y-83699741D01*
X148765922Y-83463848D01*
X148857963Y-83241641D01*
X148991587Y-83041658D01*
X149161658Y-82871587D01*
X149361641Y-82737963D01*
X149491806Y-82684047D01*
X149583847Y-82645922D01*
X149819741Y-82599000D01*
X150060259Y-82599000D01*
X150178205Y-82622461D01*
X150178205Y-82622461D01*
G37*
G36*
X145178205Y-82622461D02*
G01*
X145296153Y-82645922D01*
X145388194Y-82684047D01*
X145518359Y-82737963D01*
X145718342Y-82871587D01*
X145888413Y-83041658D01*
X146022037Y-83241641D01*
X146114078Y-83463848D01*
X146161000Y-83699741D01*
X146161000Y-83940259D01*
X146114078Y-84176152D01*
X146022037Y-84398359D01*
X145888413Y-84598342D01*
X145718342Y-84768413D01*
X145518359Y-84902037D01*
X145388194Y-84955953D01*
X145296153Y-84994078D01*
X145178205Y-85017539D01*
X145060259Y-85041000D01*
X144819741Y-85041000D01*
X144701795Y-85017539D01*
X144583847Y-84994078D01*
X144491806Y-84955953D01*
X144361641Y-84902037D01*
X144161658Y-84768413D01*
X143991587Y-84598342D01*
X143857963Y-84398359D01*
X143765922Y-84176152D01*
X143719000Y-83940259D01*
X143719000Y-83699741D01*
X143765922Y-83463848D01*
X143857963Y-83241641D01*
X143991587Y-83041658D01*
X144161658Y-82871587D01*
X144361641Y-82737963D01*
X144491806Y-82684047D01*
X144583847Y-82645922D01*
X144819741Y-82599000D01*
X145060259Y-82599000D01*
X145178205Y-82622461D01*
X145178205Y-82622461D01*
G37*
G36*
X219976000Y-80911000D02*
G01*
X218174000Y-80911000D01*
X218174000Y-79109000D01*
X219976000Y-79109000D01*
X219976000Y-80911000D01*
X219976000Y-80911000D01*
G37*
G36*
X222516000Y-80911000D02*
G01*
X220714000Y-80911000D01*
X220714000Y-79109000D01*
X222516000Y-79109000D01*
X222516000Y-80911000D01*
X222516000Y-80911000D01*
G37*
G36*
X219976000Y-78371000D02*
G01*
X218174000Y-78371000D01*
X218174000Y-76569000D01*
X219976000Y-76569000D01*
X219976000Y-78371000D01*
X219976000Y-78371000D01*
G37*
G36*
X222516000Y-78371000D02*
G01*
X220714000Y-78371000D01*
X220714000Y-76569000D01*
X222516000Y-76569000D01*
X222516000Y-78371000D01*
X222516000Y-78371000D01*
G37*
G36*
X219185442Y-74035518D02*
G01*
X219251627Y-74042037D01*
X219421466Y-74093557D01*
X219577991Y-74177222D01*
X219613729Y-74206552D01*
X219715186Y-74289814D01*
X219798448Y-74391271D01*
X219827778Y-74427009D01*
X219911443Y-74583534D01*
X219962963Y-74753373D01*
X219980359Y-74930000D01*
X219962963Y-75106627D01*
X219911443Y-75276466D01*
X219827778Y-75432991D01*
X219798448Y-75468729D01*
X219715186Y-75570186D01*
X219613729Y-75653448D01*
X219577991Y-75682778D01*
X219421466Y-75766443D01*
X219251627Y-75817963D01*
X219185442Y-75824482D01*
X219119260Y-75831000D01*
X219030740Y-75831000D01*
X218964558Y-75824482D01*
X218898373Y-75817963D01*
X218728534Y-75766443D01*
X218572009Y-75682778D01*
X218536271Y-75653448D01*
X218434814Y-75570186D01*
X218351552Y-75468729D01*
X218322222Y-75432991D01*
X218238557Y-75276466D01*
X218187037Y-75106627D01*
X218169641Y-74930000D01*
X218187037Y-74753373D01*
X218238557Y-74583534D01*
X218322222Y-74427009D01*
X218351552Y-74391271D01*
X218434814Y-74289814D01*
X218536271Y-74206552D01*
X218572009Y-74177222D01*
X218728534Y-74093557D01*
X218898373Y-74042037D01*
X218964558Y-74035518D01*
X219030740Y-74029000D01*
X219119260Y-74029000D01*
X219185442Y-74035518D01*
X219185442Y-74035518D01*
G37*
G36*
X221725442Y-74035518D02*
G01*
X221791627Y-74042037D01*
X221961466Y-74093557D01*
X222117991Y-74177222D01*
X222153729Y-74206552D01*
X222255186Y-74289814D01*
X222338448Y-74391271D01*
X222367778Y-74427009D01*
X222451443Y-74583534D01*
X222502963Y-74753373D01*
X222520359Y-74930000D01*
X222502963Y-75106627D01*
X222451443Y-75276466D01*
X222367778Y-75432991D01*
X222338448Y-75468729D01*
X222255186Y-75570186D01*
X222153729Y-75653448D01*
X222117991Y-75682778D01*
X221961466Y-75766443D01*
X221791627Y-75817963D01*
X221725442Y-75824482D01*
X221659260Y-75831000D01*
X221570740Y-75831000D01*
X221504558Y-75824482D01*
X221438373Y-75817963D01*
X221268534Y-75766443D01*
X221112009Y-75682778D01*
X221076271Y-75653448D01*
X220974814Y-75570186D01*
X220891552Y-75468729D01*
X220862222Y-75432991D01*
X220778557Y-75276466D01*
X220727037Y-75106627D01*
X220709641Y-74930000D01*
X220727037Y-74753373D01*
X220778557Y-74583534D01*
X220862222Y-74427009D01*
X220891552Y-74391271D01*
X220974814Y-74289814D01*
X221076271Y-74206552D01*
X221112009Y-74177222D01*
X221268534Y-74093557D01*
X221438373Y-74042037D01*
X221504558Y-74035518D01*
X221570740Y-74029000D01*
X221659260Y-74029000D01*
X221725442Y-74035518D01*
X221725442Y-74035518D01*
G37*
G36*
X219185443Y-71495519D02*
G01*
X219251627Y-71502037D01*
X219421466Y-71553557D01*
X219577991Y-71637222D01*
X219613729Y-71666552D01*
X219715186Y-71749814D01*
X219798448Y-71851271D01*
X219827778Y-71887009D01*
X219911443Y-72043534D01*
X219962963Y-72213373D01*
X219980359Y-72390000D01*
X219962963Y-72566627D01*
X219911443Y-72736466D01*
X219827778Y-72892991D01*
X219798448Y-72928729D01*
X219715186Y-73030186D01*
X219613729Y-73113448D01*
X219577991Y-73142778D01*
X219421466Y-73226443D01*
X219251627Y-73277963D01*
X219185443Y-73284481D01*
X219119260Y-73291000D01*
X219030740Y-73291000D01*
X218964557Y-73284481D01*
X218898373Y-73277963D01*
X218728534Y-73226443D01*
X218572009Y-73142778D01*
X218536271Y-73113448D01*
X218434814Y-73030186D01*
X218351552Y-72928729D01*
X218322222Y-72892991D01*
X218238557Y-72736466D01*
X218187037Y-72566627D01*
X218169641Y-72390000D01*
X218187037Y-72213373D01*
X218238557Y-72043534D01*
X218322222Y-71887009D01*
X218351552Y-71851271D01*
X218434814Y-71749814D01*
X218536271Y-71666552D01*
X218572009Y-71637222D01*
X218728534Y-71553557D01*
X218898373Y-71502037D01*
X218964557Y-71495519D01*
X219030740Y-71489000D01*
X219119260Y-71489000D01*
X219185443Y-71495519D01*
X219185443Y-71495519D01*
G37*
G36*
X221725443Y-71495519D02*
G01*
X221791627Y-71502037D01*
X221961466Y-71553557D01*
X222117991Y-71637222D01*
X222153729Y-71666552D01*
X222255186Y-71749814D01*
X222338448Y-71851271D01*
X222367778Y-71887009D01*
X222451443Y-72043534D01*
X222502963Y-72213373D01*
X222520359Y-72390000D01*
X222502963Y-72566627D01*
X222451443Y-72736466D01*
X222367778Y-72892991D01*
X222338448Y-72928729D01*
X222255186Y-73030186D01*
X222153729Y-73113448D01*
X222117991Y-73142778D01*
X221961466Y-73226443D01*
X221791627Y-73277963D01*
X221725443Y-73284481D01*
X221659260Y-73291000D01*
X221570740Y-73291000D01*
X221504557Y-73284481D01*
X221438373Y-73277963D01*
X221268534Y-73226443D01*
X221112009Y-73142778D01*
X221076271Y-73113448D01*
X220974814Y-73030186D01*
X220891552Y-72928729D01*
X220862222Y-72892991D01*
X220778557Y-72736466D01*
X220727037Y-72566627D01*
X220709641Y-72390000D01*
X220727037Y-72213373D01*
X220778557Y-72043534D01*
X220862222Y-71887009D01*
X220891552Y-71851271D01*
X220974814Y-71749814D01*
X221076271Y-71666552D01*
X221112009Y-71637222D01*
X221268534Y-71553557D01*
X221438373Y-71502037D01*
X221504557Y-71495519D01*
X221570740Y-71489000D01*
X221659260Y-71489000D01*
X221725443Y-71495519D01*
X221725443Y-71495519D01*
G37*
G36*
X219185443Y-68955519D02*
G01*
X219251627Y-68962037D01*
X219421466Y-69013557D01*
X219577991Y-69097222D01*
X219613729Y-69126552D01*
X219715186Y-69209814D01*
X219798448Y-69311271D01*
X219827778Y-69347009D01*
X219911443Y-69503534D01*
X219962963Y-69673373D01*
X219980359Y-69850000D01*
X219962963Y-70026627D01*
X219911443Y-70196466D01*
X219827778Y-70352991D01*
X219798448Y-70388729D01*
X219715186Y-70490186D01*
X219613729Y-70573448D01*
X219577991Y-70602778D01*
X219421466Y-70686443D01*
X219251627Y-70737963D01*
X219185443Y-70744481D01*
X219119260Y-70751000D01*
X219030740Y-70751000D01*
X218964557Y-70744481D01*
X218898373Y-70737963D01*
X218728534Y-70686443D01*
X218572009Y-70602778D01*
X218536271Y-70573448D01*
X218434814Y-70490186D01*
X218351552Y-70388729D01*
X218322222Y-70352991D01*
X218238557Y-70196466D01*
X218187037Y-70026627D01*
X218169641Y-69850000D01*
X218187037Y-69673373D01*
X218238557Y-69503534D01*
X218322222Y-69347009D01*
X218351552Y-69311271D01*
X218434814Y-69209814D01*
X218536271Y-69126552D01*
X218572009Y-69097222D01*
X218728534Y-69013557D01*
X218898373Y-68962037D01*
X218964557Y-68955519D01*
X219030740Y-68949000D01*
X219119260Y-68949000D01*
X219185443Y-68955519D01*
X219185443Y-68955519D01*
G37*
G36*
X221725443Y-68955519D02*
G01*
X221791627Y-68962037D01*
X221961466Y-69013557D01*
X222117991Y-69097222D01*
X222153729Y-69126552D01*
X222255186Y-69209814D01*
X222338448Y-69311271D01*
X222367778Y-69347009D01*
X222451443Y-69503534D01*
X222502963Y-69673373D01*
X222520359Y-69850000D01*
X222502963Y-70026627D01*
X222451443Y-70196466D01*
X222367778Y-70352991D01*
X222338448Y-70388729D01*
X222255186Y-70490186D01*
X222153729Y-70573448D01*
X222117991Y-70602778D01*
X221961466Y-70686443D01*
X221791627Y-70737963D01*
X221725443Y-70744481D01*
X221659260Y-70751000D01*
X221570740Y-70751000D01*
X221504557Y-70744481D01*
X221438373Y-70737963D01*
X221268534Y-70686443D01*
X221112009Y-70602778D01*
X221076271Y-70573448D01*
X220974814Y-70490186D01*
X220891552Y-70388729D01*
X220862222Y-70352991D01*
X220778557Y-70196466D01*
X220727037Y-70026627D01*
X220709641Y-69850000D01*
X220727037Y-69673373D01*
X220778557Y-69503534D01*
X220862222Y-69347009D01*
X220891552Y-69311271D01*
X220974814Y-69209814D01*
X221076271Y-69126552D01*
X221112009Y-69097222D01*
X221268534Y-69013557D01*
X221438373Y-68962037D01*
X221504557Y-68955519D01*
X221570740Y-68949000D01*
X221659260Y-68949000D01*
X221725443Y-68955519D01*
X221725443Y-68955519D01*
G37*
G36*
X219185443Y-66415519D02*
G01*
X219251627Y-66422037D01*
X219421466Y-66473557D01*
X219577991Y-66557222D01*
X219613729Y-66586552D01*
X219715186Y-66669814D01*
X219798448Y-66771271D01*
X219827778Y-66807009D01*
X219911443Y-66963534D01*
X219962963Y-67133373D01*
X219980359Y-67310000D01*
X219962963Y-67486627D01*
X219911443Y-67656466D01*
X219827778Y-67812991D01*
X219798448Y-67848729D01*
X219715186Y-67950186D01*
X219613729Y-68033448D01*
X219577991Y-68062778D01*
X219421466Y-68146443D01*
X219251627Y-68197963D01*
X219185443Y-68204481D01*
X219119260Y-68211000D01*
X219030740Y-68211000D01*
X218964557Y-68204481D01*
X218898373Y-68197963D01*
X218728534Y-68146443D01*
X218572009Y-68062778D01*
X218536271Y-68033448D01*
X218434814Y-67950186D01*
X218351552Y-67848729D01*
X218322222Y-67812991D01*
X218238557Y-67656466D01*
X218187037Y-67486627D01*
X218169641Y-67310000D01*
X218187037Y-67133373D01*
X218238557Y-66963534D01*
X218322222Y-66807009D01*
X218351552Y-66771271D01*
X218434814Y-66669814D01*
X218536271Y-66586552D01*
X218572009Y-66557222D01*
X218728534Y-66473557D01*
X218898373Y-66422037D01*
X218964557Y-66415519D01*
X219030740Y-66409000D01*
X219119260Y-66409000D01*
X219185443Y-66415519D01*
X219185443Y-66415519D01*
G37*
G36*
X221725443Y-66415519D02*
G01*
X221791627Y-66422037D01*
X221961466Y-66473557D01*
X222117991Y-66557222D01*
X222153729Y-66586552D01*
X222255186Y-66669814D01*
X222338448Y-66771271D01*
X222367778Y-66807009D01*
X222451443Y-66963534D01*
X222502963Y-67133373D01*
X222520359Y-67310000D01*
X222502963Y-67486627D01*
X222451443Y-67656466D01*
X222367778Y-67812991D01*
X222338448Y-67848729D01*
X222255186Y-67950186D01*
X222153729Y-68033448D01*
X222117991Y-68062778D01*
X221961466Y-68146443D01*
X221791627Y-68197963D01*
X221725443Y-68204481D01*
X221659260Y-68211000D01*
X221570740Y-68211000D01*
X221504557Y-68204481D01*
X221438373Y-68197963D01*
X221268534Y-68146443D01*
X221112009Y-68062778D01*
X221076271Y-68033448D01*
X220974814Y-67950186D01*
X220891552Y-67848729D01*
X220862222Y-67812991D01*
X220778557Y-67656466D01*
X220727037Y-67486627D01*
X220709641Y-67310000D01*
X220727037Y-67133373D01*
X220778557Y-66963534D01*
X220862222Y-66807009D01*
X220891552Y-66771271D01*
X220974814Y-66669814D01*
X221076271Y-66586552D01*
X221112009Y-66557222D01*
X221268534Y-66473557D01*
X221438373Y-66422037D01*
X221504557Y-66415519D01*
X221570740Y-66409000D01*
X221659260Y-66409000D01*
X221725443Y-66415519D01*
X221725443Y-66415519D01*
G37*
G36*
X162670442Y-59257518D02*
G01*
X162736627Y-59264037D01*
X162906466Y-59315557D01*
X163062991Y-59399222D01*
X163098729Y-59428552D01*
X163200186Y-59511814D01*
X163283448Y-59613271D01*
X163312778Y-59649009D01*
X163396443Y-59805534D01*
X163447963Y-59975373D01*
X163465359Y-60152000D01*
X163447963Y-60328627D01*
X163396443Y-60498466D01*
X163312778Y-60654991D01*
X163283448Y-60690729D01*
X163200186Y-60792186D01*
X163098729Y-60875448D01*
X163062991Y-60904778D01*
X162906466Y-60988443D01*
X162736627Y-61039963D01*
X162670442Y-61046482D01*
X162604260Y-61053000D01*
X162515740Y-61053000D01*
X162449558Y-61046482D01*
X162383373Y-61039963D01*
X162213534Y-60988443D01*
X162057009Y-60904778D01*
X162021271Y-60875448D01*
X161919814Y-60792186D01*
X161836552Y-60690729D01*
X161807222Y-60654991D01*
X161723557Y-60498466D01*
X161672037Y-60328627D01*
X161654641Y-60152000D01*
X161672037Y-59975373D01*
X161723557Y-59805534D01*
X161807222Y-59649009D01*
X161836552Y-59613271D01*
X161919814Y-59511814D01*
X162021271Y-59428552D01*
X162057009Y-59399222D01*
X162213534Y-59315557D01*
X162383373Y-59264037D01*
X162449558Y-59257518D01*
X162515740Y-59251000D01*
X162604260Y-59251000D01*
X162670442Y-59257518D01*
X162670442Y-59257518D01*
G37*
G36*
X221881000Y-61053000D02*
G01*
X220079000Y-61053000D01*
X220079000Y-59251000D01*
X221881000Y-59251000D01*
X221881000Y-61053000D01*
X221881000Y-61053000D01*
G37*
G36*
X218550442Y-59257518D02*
G01*
X218616627Y-59264037D01*
X218786466Y-59315557D01*
X218942991Y-59399222D01*
X218978729Y-59428552D01*
X219080186Y-59511814D01*
X219163448Y-59613271D01*
X219192778Y-59649009D01*
X219276443Y-59805534D01*
X219327963Y-59975373D01*
X219345359Y-60152000D01*
X219327963Y-60328627D01*
X219276443Y-60498466D01*
X219192778Y-60654991D01*
X219163448Y-60690729D01*
X219080186Y-60792186D01*
X218978729Y-60875448D01*
X218942991Y-60904778D01*
X218786466Y-60988443D01*
X218616627Y-61039963D01*
X218550442Y-61046482D01*
X218484260Y-61053000D01*
X218395740Y-61053000D01*
X218329558Y-61046482D01*
X218263373Y-61039963D01*
X218093534Y-60988443D01*
X217937009Y-60904778D01*
X217901271Y-60875448D01*
X217799814Y-60792186D01*
X217716552Y-60690729D01*
X217687222Y-60654991D01*
X217603557Y-60498466D01*
X217552037Y-60328627D01*
X217534641Y-60152000D01*
X217552037Y-59975373D01*
X217603557Y-59805534D01*
X217687222Y-59649009D01*
X217716552Y-59613271D01*
X217799814Y-59511814D01*
X217901271Y-59428552D01*
X217937009Y-59399222D01*
X218093534Y-59315557D01*
X218263373Y-59264037D01*
X218329558Y-59257518D01*
X218395740Y-59251000D01*
X218484260Y-59251000D01*
X218550442Y-59257518D01*
X218550442Y-59257518D01*
G37*
G36*
X216010442Y-59257518D02*
G01*
X216076627Y-59264037D01*
X216246466Y-59315557D01*
X216402991Y-59399222D01*
X216438729Y-59428552D01*
X216540186Y-59511814D01*
X216623448Y-59613271D01*
X216652778Y-59649009D01*
X216736443Y-59805534D01*
X216787963Y-59975373D01*
X216805359Y-60152000D01*
X216787963Y-60328627D01*
X216736443Y-60498466D01*
X216652778Y-60654991D01*
X216623448Y-60690729D01*
X216540186Y-60792186D01*
X216438729Y-60875448D01*
X216402991Y-60904778D01*
X216246466Y-60988443D01*
X216076627Y-61039963D01*
X216010442Y-61046482D01*
X215944260Y-61053000D01*
X215855740Y-61053000D01*
X215789558Y-61046482D01*
X215723373Y-61039963D01*
X215553534Y-60988443D01*
X215397009Y-60904778D01*
X215361271Y-60875448D01*
X215259814Y-60792186D01*
X215176552Y-60690729D01*
X215147222Y-60654991D01*
X215063557Y-60498466D01*
X215012037Y-60328627D01*
X214994641Y-60152000D01*
X215012037Y-59975373D01*
X215063557Y-59805534D01*
X215147222Y-59649009D01*
X215176552Y-59613271D01*
X215259814Y-59511814D01*
X215361271Y-59428552D01*
X215397009Y-59399222D01*
X215553534Y-59315557D01*
X215723373Y-59264037D01*
X215789558Y-59257518D01*
X215855740Y-59251000D01*
X215944260Y-59251000D01*
X216010442Y-59257518D01*
X216010442Y-59257518D01*
G37*
G36*
X213470442Y-59257518D02*
G01*
X213536627Y-59264037D01*
X213706466Y-59315557D01*
X213862991Y-59399222D01*
X213898729Y-59428552D01*
X214000186Y-59511814D01*
X214083448Y-59613271D01*
X214112778Y-59649009D01*
X214196443Y-59805534D01*
X214247963Y-59975373D01*
X214265359Y-60152000D01*
X214247963Y-60328627D01*
X214196443Y-60498466D01*
X214112778Y-60654991D01*
X214083448Y-60690729D01*
X214000186Y-60792186D01*
X213898729Y-60875448D01*
X213862991Y-60904778D01*
X213706466Y-60988443D01*
X213536627Y-61039963D01*
X213470442Y-61046482D01*
X213404260Y-61053000D01*
X213315740Y-61053000D01*
X213249558Y-61046482D01*
X213183373Y-61039963D01*
X213013534Y-60988443D01*
X212857009Y-60904778D01*
X212821271Y-60875448D01*
X212719814Y-60792186D01*
X212636552Y-60690729D01*
X212607222Y-60654991D01*
X212523557Y-60498466D01*
X212472037Y-60328627D01*
X212454641Y-60152000D01*
X212472037Y-59975373D01*
X212523557Y-59805534D01*
X212607222Y-59649009D01*
X212636552Y-59613271D01*
X212719814Y-59511814D01*
X212821271Y-59428552D01*
X212857009Y-59399222D01*
X213013534Y-59315557D01*
X213183373Y-59264037D01*
X213249558Y-59257518D01*
X213315740Y-59251000D01*
X213404260Y-59251000D01*
X213470442Y-59257518D01*
X213470442Y-59257518D01*
G37*
G36*
X210930442Y-59257518D02*
G01*
X210996627Y-59264037D01*
X211166466Y-59315557D01*
X211322991Y-59399222D01*
X211358729Y-59428552D01*
X211460186Y-59511814D01*
X211543448Y-59613271D01*
X211572778Y-59649009D01*
X211656443Y-59805534D01*
X211707963Y-59975373D01*
X211725359Y-60152000D01*
X211707963Y-60328627D01*
X211656443Y-60498466D01*
X211572778Y-60654991D01*
X211543448Y-60690729D01*
X211460186Y-60792186D01*
X211358729Y-60875448D01*
X211322991Y-60904778D01*
X211166466Y-60988443D01*
X210996627Y-61039963D01*
X210930442Y-61046482D01*
X210864260Y-61053000D01*
X210775740Y-61053000D01*
X210709558Y-61046482D01*
X210643373Y-61039963D01*
X210473534Y-60988443D01*
X210317009Y-60904778D01*
X210281271Y-60875448D01*
X210179814Y-60792186D01*
X210096552Y-60690729D01*
X210067222Y-60654991D01*
X209983557Y-60498466D01*
X209932037Y-60328627D01*
X209914641Y-60152000D01*
X209932037Y-59975373D01*
X209983557Y-59805534D01*
X210067222Y-59649009D01*
X210096552Y-59613271D01*
X210179814Y-59511814D01*
X210281271Y-59428552D01*
X210317009Y-59399222D01*
X210473534Y-59315557D01*
X210643373Y-59264037D01*
X210709558Y-59257518D01*
X210775740Y-59251000D01*
X210864260Y-59251000D01*
X210930442Y-59257518D01*
X210930442Y-59257518D01*
G37*
G36*
X208390442Y-59257518D02*
G01*
X208456627Y-59264037D01*
X208626466Y-59315557D01*
X208782991Y-59399222D01*
X208818729Y-59428552D01*
X208920186Y-59511814D01*
X209003448Y-59613271D01*
X209032778Y-59649009D01*
X209116443Y-59805534D01*
X209167963Y-59975373D01*
X209185359Y-60152000D01*
X209167963Y-60328627D01*
X209116443Y-60498466D01*
X209032778Y-60654991D01*
X209003448Y-60690729D01*
X208920186Y-60792186D01*
X208818729Y-60875448D01*
X208782991Y-60904778D01*
X208626466Y-60988443D01*
X208456627Y-61039963D01*
X208390442Y-61046482D01*
X208324260Y-61053000D01*
X208235740Y-61053000D01*
X208169558Y-61046482D01*
X208103373Y-61039963D01*
X207933534Y-60988443D01*
X207777009Y-60904778D01*
X207741271Y-60875448D01*
X207639814Y-60792186D01*
X207556552Y-60690729D01*
X207527222Y-60654991D01*
X207443557Y-60498466D01*
X207392037Y-60328627D01*
X207374641Y-60152000D01*
X207392037Y-59975373D01*
X207443557Y-59805534D01*
X207527222Y-59649009D01*
X207556552Y-59613271D01*
X207639814Y-59511814D01*
X207741271Y-59428552D01*
X207777009Y-59399222D01*
X207933534Y-59315557D01*
X208103373Y-59264037D01*
X208169558Y-59257518D01*
X208235740Y-59251000D01*
X208324260Y-59251000D01*
X208390442Y-59257518D01*
X208390442Y-59257518D01*
G37*
G36*
X205850442Y-59257518D02*
G01*
X205916627Y-59264037D01*
X206086466Y-59315557D01*
X206242991Y-59399222D01*
X206278729Y-59428552D01*
X206380186Y-59511814D01*
X206463448Y-59613271D01*
X206492778Y-59649009D01*
X206576443Y-59805534D01*
X206627963Y-59975373D01*
X206645359Y-60152000D01*
X206627963Y-60328627D01*
X206576443Y-60498466D01*
X206492778Y-60654991D01*
X206463448Y-60690729D01*
X206380186Y-60792186D01*
X206278729Y-60875448D01*
X206242991Y-60904778D01*
X206086466Y-60988443D01*
X205916627Y-61039963D01*
X205850442Y-61046482D01*
X205784260Y-61053000D01*
X205695740Y-61053000D01*
X205629558Y-61046482D01*
X205563373Y-61039963D01*
X205393534Y-60988443D01*
X205237009Y-60904778D01*
X205201271Y-60875448D01*
X205099814Y-60792186D01*
X205016552Y-60690729D01*
X204987222Y-60654991D01*
X204903557Y-60498466D01*
X204852037Y-60328627D01*
X204834641Y-60152000D01*
X204852037Y-59975373D01*
X204903557Y-59805534D01*
X204987222Y-59649009D01*
X205016552Y-59613271D01*
X205099814Y-59511814D01*
X205201271Y-59428552D01*
X205237009Y-59399222D01*
X205393534Y-59315557D01*
X205563373Y-59264037D01*
X205629558Y-59257518D01*
X205695740Y-59251000D01*
X205784260Y-59251000D01*
X205850442Y-59257518D01*
X205850442Y-59257518D01*
G37*
G36*
X203310442Y-59257518D02*
G01*
X203376627Y-59264037D01*
X203546466Y-59315557D01*
X203702991Y-59399222D01*
X203738729Y-59428552D01*
X203840186Y-59511814D01*
X203923448Y-59613271D01*
X203952778Y-59649009D01*
X204036443Y-59805534D01*
X204087963Y-59975373D01*
X204105359Y-60152000D01*
X204087963Y-60328627D01*
X204036443Y-60498466D01*
X203952778Y-60654991D01*
X203923448Y-60690729D01*
X203840186Y-60792186D01*
X203738729Y-60875448D01*
X203702991Y-60904778D01*
X203546466Y-60988443D01*
X203376627Y-61039963D01*
X203310442Y-61046482D01*
X203244260Y-61053000D01*
X203155740Y-61053000D01*
X203089558Y-61046482D01*
X203023373Y-61039963D01*
X202853534Y-60988443D01*
X202697009Y-60904778D01*
X202661271Y-60875448D01*
X202559814Y-60792186D01*
X202476552Y-60690729D01*
X202447222Y-60654991D01*
X202363557Y-60498466D01*
X202312037Y-60328627D01*
X202294641Y-60152000D01*
X202312037Y-59975373D01*
X202363557Y-59805534D01*
X202447222Y-59649009D01*
X202476552Y-59613271D01*
X202559814Y-59511814D01*
X202661271Y-59428552D01*
X202697009Y-59399222D01*
X202853534Y-59315557D01*
X203023373Y-59264037D01*
X203089558Y-59257518D01*
X203155740Y-59251000D01*
X203244260Y-59251000D01*
X203310442Y-59257518D01*
X203310442Y-59257518D01*
G37*
G36*
X200770442Y-59257518D02*
G01*
X200836627Y-59264037D01*
X201006466Y-59315557D01*
X201162991Y-59399222D01*
X201198729Y-59428552D01*
X201300186Y-59511814D01*
X201383448Y-59613271D01*
X201412778Y-59649009D01*
X201496443Y-59805534D01*
X201547963Y-59975373D01*
X201565359Y-60152000D01*
X201547963Y-60328627D01*
X201496443Y-60498466D01*
X201412778Y-60654991D01*
X201383448Y-60690729D01*
X201300186Y-60792186D01*
X201198729Y-60875448D01*
X201162991Y-60904778D01*
X201006466Y-60988443D01*
X200836627Y-61039963D01*
X200770442Y-61046482D01*
X200704260Y-61053000D01*
X200615740Y-61053000D01*
X200549558Y-61046482D01*
X200483373Y-61039963D01*
X200313534Y-60988443D01*
X200157009Y-60904778D01*
X200121271Y-60875448D01*
X200019814Y-60792186D01*
X199936552Y-60690729D01*
X199907222Y-60654991D01*
X199823557Y-60498466D01*
X199772037Y-60328627D01*
X199754641Y-60152000D01*
X199772037Y-59975373D01*
X199823557Y-59805534D01*
X199907222Y-59649009D01*
X199936552Y-59613271D01*
X200019814Y-59511814D01*
X200121271Y-59428552D01*
X200157009Y-59399222D01*
X200313534Y-59315557D01*
X200483373Y-59264037D01*
X200549558Y-59257518D01*
X200615740Y-59251000D01*
X200704260Y-59251000D01*
X200770442Y-59257518D01*
X200770442Y-59257518D01*
G37*
G36*
X198230442Y-59257518D02*
G01*
X198296627Y-59264037D01*
X198466466Y-59315557D01*
X198622991Y-59399222D01*
X198658729Y-59428552D01*
X198760186Y-59511814D01*
X198843448Y-59613271D01*
X198872778Y-59649009D01*
X198956443Y-59805534D01*
X199007963Y-59975373D01*
X199025359Y-60152000D01*
X199007963Y-60328627D01*
X198956443Y-60498466D01*
X198872778Y-60654991D01*
X198843448Y-60690729D01*
X198760186Y-60792186D01*
X198658729Y-60875448D01*
X198622991Y-60904778D01*
X198466466Y-60988443D01*
X198296627Y-61039963D01*
X198230442Y-61046482D01*
X198164260Y-61053000D01*
X198075740Y-61053000D01*
X198009558Y-61046482D01*
X197943373Y-61039963D01*
X197773534Y-60988443D01*
X197617009Y-60904778D01*
X197581271Y-60875448D01*
X197479814Y-60792186D01*
X197396552Y-60690729D01*
X197367222Y-60654991D01*
X197283557Y-60498466D01*
X197232037Y-60328627D01*
X197214641Y-60152000D01*
X197232037Y-59975373D01*
X197283557Y-59805534D01*
X197367222Y-59649009D01*
X197396552Y-59613271D01*
X197479814Y-59511814D01*
X197581271Y-59428552D01*
X197617009Y-59399222D01*
X197773534Y-59315557D01*
X197943373Y-59264037D01*
X198009558Y-59257518D01*
X198075740Y-59251000D01*
X198164260Y-59251000D01*
X198230442Y-59257518D01*
X198230442Y-59257518D01*
G37*
G36*
X195690442Y-59257518D02*
G01*
X195756627Y-59264037D01*
X195926466Y-59315557D01*
X196082991Y-59399222D01*
X196118729Y-59428552D01*
X196220186Y-59511814D01*
X196303448Y-59613271D01*
X196332778Y-59649009D01*
X196416443Y-59805534D01*
X196467963Y-59975373D01*
X196485359Y-60152000D01*
X196467963Y-60328627D01*
X196416443Y-60498466D01*
X196332778Y-60654991D01*
X196303448Y-60690729D01*
X196220186Y-60792186D01*
X196118729Y-60875448D01*
X196082991Y-60904778D01*
X195926466Y-60988443D01*
X195756627Y-61039963D01*
X195690442Y-61046482D01*
X195624260Y-61053000D01*
X195535740Y-61053000D01*
X195469558Y-61046482D01*
X195403373Y-61039963D01*
X195233534Y-60988443D01*
X195077009Y-60904778D01*
X195041271Y-60875448D01*
X194939814Y-60792186D01*
X194856552Y-60690729D01*
X194827222Y-60654991D01*
X194743557Y-60498466D01*
X194692037Y-60328627D01*
X194674641Y-60152000D01*
X194692037Y-59975373D01*
X194743557Y-59805534D01*
X194827222Y-59649009D01*
X194856552Y-59613271D01*
X194939814Y-59511814D01*
X195041271Y-59428552D01*
X195077009Y-59399222D01*
X195233534Y-59315557D01*
X195403373Y-59264037D01*
X195469558Y-59257518D01*
X195535740Y-59251000D01*
X195624260Y-59251000D01*
X195690442Y-59257518D01*
X195690442Y-59257518D01*
G37*
G36*
X193150442Y-59257518D02*
G01*
X193216627Y-59264037D01*
X193386466Y-59315557D01*
X193542991Y-59399222D01*
X193578729Y-59428552D01*
X193680186Y-59511814D01*
X193763448Y-59613271D01*
X193792778Y-59649009D01*
X193876443Y-59805534D01*
X193927963Y-59975373D01*
X193945359Y-60152000D01*
X193927963Y-60328627D01*
X193876443Y-60498466D01*
X193792778Y-60654991D01*
X193763448Y-60690729D01*
X193680186Y-60792186D01*
X193578729Y-60875448D01*
X193542991Y-60904778D01*
X193386466Y-60988443D01*
X193216627Y-61039963D01*
X193150442Y-61046482D01*
X193084260Y-61053000D01*
X192995740Y-61053000D01*
X192929558Y-61046482D01*
X192863373Y-61039963D01*
X192693534Y-60988443D01*
X192537009Y-60904778D01*
X192501271Y-60875448D01*
X192399814Y-60792186D01*
X192316552Y-60690729D01*
X192287222Y-60654991D01*
X192203557Y-60498466D01*
X192152037Y-60328627D01*
X192134641Y-60152000D01*
X192152037Y-59975373D01*
X192203557Y-59805534D01*
X192287222Y-59649009D01*
X192316552Y-59613271D01*
X192399814Y-59511814D01*
X192501271Y-59428552D01*
X192537009Y-59399222D01*
X192693534Y-59315557D01*
X192863373Y-59264037D01*
X192929558Y-59257518D01*
X192995740Y-59251000D01*
X193084260Y-59251000D01*
X193150442Y-59257518D01*
X193150442Y-59257518D01*
G37*
G36*
X190610442Y-59257518D02*
G01*
X190676627Y-59264037D01*
X190846466Y-59315557D01*
X191002991Y-59399222D01*
X191038729Y-59428552D01*
X191140186Y-59511814D01*
X191223448Y-59613271D01*
X191252778Y-59649009D01*
X191336443Y-59805534D01*
X191387963Y-59975373D01*
X191405359Y-60152000D01*
X191387963Y-60328627D01*
X191336443Y-60498466D01*
X191252778Y-60654991D01*
X191223448Y-60690729D01*
X191140186Y-60792186D01*
X191038729Y-60875448D01*
X191002991Y-60904778D01*
X190846466Y-60988443D01*
X190676627Y-61039963D01*
X190610442Y-61046482D01*
X190544260Y-61053000D01*
X190455740Y-61053000D01*
X190389558Y-61046482D01*
X190323373Y-61039963D01*
X190153534Y-60988443D01*
X189997009Y-60904778D01*
X189961271Y-60875448D01*
X189859814Y-60792186D01*
X189776552Y-60690729D01*
X189747222Y-60654991D01*
X189663557Y-60498466D01*
X189612037Y-60328627D01*
X189594641Y-60152000D01*
X189612037Y-59975373D01*
X189663557Y-59805534D01*
X189747222Y-59649009D01*
X189776552Y-59613271D01*
X189859814Y-59511814D01*
X189961271Y-59428552D01*
X189997009Y-59399222D01*
X190153534Y-59315557D01*
X190323373Y-59264037D01*
X190389558Y-59257518D01*
X190455740Y-59251000D01*
X190544260Y-59251000D01*
X190610442Y-59257518D01*
X190610442Y-59257518D01*
G37*
G36*
X165210442Y-59257518D02*
G01*
X165276627Y-59264037D01*
X165446466Y-59315557D01*
X165602991Y-59399222D01*
X165638729Y-59428552D01*
X165740186Y-59511814D01*
X165823448Y-59613271D01*
X165852778Y-59649009D01*
X165936443Y-59805534D01*
X165987963Y-59975373D01*
X166005359Y-60152000D01*
X165987963Y-60328627D01*
X165936443Y-60498466D01*
X165852778Y-60654991D01*
X165823448Y-60690729D01*
X165740186Y-60792186D01*
X165638729Y-60875448D01*
X165602991Y-60904778D01*
X165446466Y-60988443D01*
X165276627Y-61039963D01*
X165210442Y-61046482D01*
X165144260Y-61053000D01*
X165055740Y-61053000D01*
X164989558Y-61046482D01*
X164923373Y-61039963D01*
X164753534Y-60988443D01*
X164597009Y-60904778D01*
X164561271Y-60875448D01*
X164459814Y-60792186D01*
X164376552Y-60690729D01*
X164347222Y-60654991D01*
X164263557Y-60498466D01*
X164212037Y-60328627D01*
X164194641Y-60152000D01*
X164212037Y-59975373D01*
X164263557Y-59805534D01*
X164347222Y-59649009D01*
X164376552Y-59613271D01*
X164459814Y-59511814D01*
X164561271Y-59428552D01*
X164597009Y-59399222D01*
X164753534Y-59315557D01*
X164923373Y-59264037D01*
X164989558Y-59257518D01*
X165055740Y-59251000D01*
X165144260Y-59251000D01*
X165210442Y-59257518D01*
X165210442Y-59257518D01*
G37*
G36*
X167750442Y-59257518D02*
G01*
X167816627Y-59264037D01*
X167986466Y-59315557D01*
X168142991Y-59399222D01*
X168178729Y-59428552D01*
X168280186Y-59511814D01*
X168363448Y-59613271D01*
X168392778Y-59649009D01*
X168476443Y-59805534D01*
X168527963Y-59975373D01*
X168545359Y-60152000D01*
X168527963Y-60328627D01*
X168476443Y-60498466D01*
X168392778Y-60654991D01*
X168363448Y-60690729D01*
X168280186Y-60792186D01*
X168178729Y-60875448D01*
X168142991Y-60904778D01*
X167986466Y-60988443D01*
X167816627Y-61039963D01*
X167750442Y-61046482D01*
X167684260Y-61053000D01*
X167595740Y-61053000D01*
X167529558Y-61046482D01*
X167463373Y-61039963D01*
X167293534Y-60988443D01*
X167137009Y-60904778D01*
X167101271Y-60875448D01*
X166999814Y-60792186D01*
X166916552Y-60690729D01*
X166887222Y-60654991D01*
X166803557Y-60498466D01*
X166752037Y-60328627D01*
X166734641Y-60152000D01*
X166752037Y-59975373D01*
X166803557Y-59805534D01*
X166887222Y-59649009D01*
X166916552Y-59613271D01*
X166999814Y-59511814D01*
X167101271Y-59428552D01*
X167137009Y-59399222D01*
X167293534Y-59315557D01*
X167463373Y-59264037D01*
X167529558Y-59257518D01*
X167595740Y-59251000D01*
X167684260Y-59251000D01*
X167750442Y-59257518D01*
X167750442Y-59257518D01*
G37*
G36*
X170290442Y-59257518D02*
G01*
X170356627Y-59264037D01*
X170526466Y-59315557D01*
X170682991Y-59399222D01*
X170718729Y-59428552D01*
X170820186Y-59511814D01*
X170903448Y-59613271D01*
X170932778Y-59649009D01*
X171016443Y-59805534D01*
X171067963Y-59975373D01*
X171085359Y-60152000D01*
X171067963Y-60328627D01*
X171016443Y-60498466D01*
X170932778Y-60654991D01*
X170903448Y-60690729D01*
X170820186Y-60792186D01*
X170718729Y-60875448D01*
X170682991Y-60904778D01*
X170526466Y-60988443D01*
X170356627Y-61039963D01*
X170290442Y-61046482D01*
X170224260Y-61053000D01*
X170135740Y-61053000D01*
X170069558Y-61046482D01*
X170003373Y-61039963D01*
X169833534Y-60988443D01*
X169677009Y-60904778D01*
X169641271Y-60875448D01*
X169539814Y-60792186D01*
X169456552Y-60690729D01*
X169427222Y-60654991D01*
X169343557Y-60498466D01*
X169292037Y-60328627D01*
X169274641Y-60152000D01*
X169292037Y-59975373D01*
X169343557Y-59805534D01*
X169427222Y-59649009D01*
X169456552Y-59613271D01*
X169539814Y-59511814D01*
X169641271Y-59428552D01*
X169677009Y-59399222D01*
X169833534Y-59315557D01*
X170003373Y-59264037D01*
X170069558Y-59257518D01*
X170135740Y-59251000D01*
X170224260Y-59251000D01*
X170290442Y-59257518D01*
X170290442Y-59257518D01*
G37*
G36*
X172830442Y-59257518D02*
G01*
X172896627Y-59264037D01*
X173066466Y-59315557D01*
X173222991Y-59399222D01*
X173258729Y-59428552D01*
X173360186Y-59511814D01*
X173443448Y-59613271D01*
X173472778Y-59649009D01*
X173556443Y-59805534D01*
X173607963Y-59975373D01*
X173625359Y-60152000D01*
X173607963Y-60328627D01*
X173556443Y-60498466D01*
X173472778Y-60654991D01*
X173443448Y-60690729D01*
X173360186Y-60792186D01*
X173258729Y-60875448D01*
X173222991Y-60904778D01*
X173066466Y-60988443D01*
X172896627Y-61039963D01*
X172830442Y-61046482D01*
X172764260Y-61053000D01*
X172675740Y-61053000D01*
X172609558Y-61046482D01*
X172543373Y-61039963D01*
X172373534Y-60988443D01*
X172217009Y-60904778D01*
X172181271Y-60875448D01*
X172079814Y-60792186D01*
X171996552Y-60690729D01*
X171967222Y-60654991D01*
X171883557Y-60498466D01*
X171832037Y-60328627D01*
X171814641Y-60152000D01*
X171832037Y-59975373D01*
X171883557Y-59805534D01*
X171967222Y-59649009D01*
X171996552Y-59613271D01*
X172079814Y-59511814D01*
X172181271Y-59428552D01*
X172217009Y-59399222D01*
X172373534Y-59315557D01*
X172543373Y-59264037D01*
X172609558Y-59257518D01*
X172675740Y-59251000D01*
X172764260Y-59251000D01*
X172830442Y-59257518D01*
X172830442Y-59257518D01*
G37*
G36*
X175370442Y-59257518D02*
G01*
X175436627Y-59264037D01*
X175606466Y-59315557D01*
X175762991Y-59399222D01*
X175798729Y-59428552D01*
X175900186Y-59511814D01*
X175983448Y-59613271D01*
X176012778Y-59649009D01*
X176096443Y-59805534D01*
X176147963Y-59975373D01*
X176165359Y-60152000D01*
X176147963Y-60328627D01*
X176096443Y-60498466D01*
X176012778Y-60654991D01*
X175983448Y-60690729D01*
X175900186Y-60792186D01*
X175798729Y-60875448D01*
X175762991Y-60904778D01*
X175606466Y-60988443D01*
X175436627Y-61039963D01*
X175370442Y-61046482D01*
X175304260Y-61053000D01*
X175215740Y-61053000D01*
X175149558Y-61046482D01*
X175083373Y-61039963D01*
X174913534Y-60988443D01*
X174757009Y-60904778D01*
X174721271Y-60875448D01*
X174619814Y-60792186D01*
X174536552Y-60690729D01*
X174507222Y-60654991D01*
X174423557Y-60498466D01*
X174372037Y-60328627D01*
X174354641Y-60152000D01*
X174372037Y-59975373D01*
X174423557Y-59805534D01*
X174507222Y-59649009D01*
X174536552Y-59613271D01*
X174619814Y-59511814D01*
X174721271Y-59428552D01*
X174757009Y-59399222D01*
X174913534Y-59315557D01*
X175083373Y-59264037D01*
X175149558Y-59257518D01*
X175215740Y-59251000D01*
X175304260Y-59251000D01*
X175370442Y-59257518D01*
X175370442Y-59257518D01*
G37*
G36*
X177910442Y-59257518D02*
G01*
X177976627Y-59264037D01*
X178146466Y-59315557D01*
X178302991Y-59399222D01*
X178338729Y-59428552D01*
X178440186Y-59511814D01*
X178523448Y-59613271D01*
X178552778Y-59649009D01*
X178636443Y-59805534D01*
X178687963Y-59975373D01*
X178705359Y-60152000D01*
X178687963Y-60328627D01*
X178636443Y-60498466D01*
X178552778Y-60654991D01*
X178523448Y-60690729D01*
X178440186Y-60792186D01*
X178338729Y-60875448D01*
X178302991Y-60904778D01*
X178146466Y-60988443D01*
X177976627Y-61039963D01*
X177910442Y-61046482D01*
X177844260Y-61053000D01*
X177755740Y-61053000D01*
X177689558Y-61046482D01*
X177623373Y-61039963D01*
X177453534Y-60988443D01*
X177297009Y-60904778D01*
X177261271Y-60875448D01*
X177159814Y-60792186D01*
X177076552Y-60690729D01*
X177047222Y-60654991D01*
X176963557Y-60498466D01*
X176912037Y-60328627D01*
X176894641Y-60152000D01*
X176912037Y-59975373D01*
X176963557Y-59805534D01*
X177047222Y-59649009D01*
X177076552Y-59613271D01*
X177159814Y-59511814D01*
X177261271Y-59428552D01*
X177297009Y-59399222D01*
X177453534Y-59315557D01*
X177623373Y-59264037D01*
X177689558Y-59257518D01*
X177755740Y-59251000D01*
X177844260Y-59251000D01*
X177910442Y-59257518D01*
X177910442Y-59257518D01*
G37*
G36*
X180450442Y-59257518D02*
G01*
X180516627Y-59264037D01*
X180686466Y-59315557D01*
X180842991Y-59399222D01*
X180878729Y-59428552D01*
X180980186Y-59511814D01*
X181063448Y-59613271D01*
X181092778Y-59649009D01*
X181176443Y-59805534D01*
X181227963Y-59975373D01*
X181245359Y-60152000D01*
X181227963Y-60328627D01*
X181176443Y-60498466D01*
X181092778Y-60654991D01*
X181063448Y-60690729D01*
X180980186Y-60792186D01*
X180878729Y-60875448D01*
X180842991Y-60904778D01*
X180686466Y-60988443D01*
X180516627Y-61039963D01*
X180450442Y-61046482D01*
X180384260Y-61053000D01*
X180295740Y-61053000D01*
X180229558Y-61046482D01*
X180163373Y-61039963D01*
X179993534Y-60988443D01*
X179837009Y-60904778D01*
X179801271Y-60875448D01*
X179699814Y-60792186D01*
X179616552Y-60690729D01*
X179587222Y-60654991D01*
X179503557Y-60498466D01*
X179452037Y-60328627D01*
X179434641Y-60152000D01*
X179452037Y-59975373D01*
X179503557Y-59805534D01*
X179587222Y-59649009D01*
X179616552Y-59613271D01*
X179699814Y-59511814D01*
X179801271Y-59428552D01*
X179837009Y-59399222D01*
X179993534Y-59315557D01*
X180163373Y-59264037D01*
X180229558Y-59257518D01*
X180295740Y-59251000D01*
X180384260Y-59251000D01*
X180450442Y-59257518D01*
X180450442Y-59257518D01*
G37*
G36*
X182990442Y-59257518D02*
G01*
X183056627Y-59264037D01*
X183226466Y-59315557D01*
X183382991Y-59399222D01*
X183418729Y-59428552D01*
X183520186Y-59511814D01*
X183603448Y-59613271D01*
X183632778Y-59649009D01*
X183716443Y-59805534D01*
X183767963Y-59975373D01*
X183785359Y-60152000D01*
X183767963Y-60328627D01*
X183716443Y-60498466D01*
X183632778Y-60654991D01*
X183603448Y-60690729D01*
X183520186Y-60792186D01*
X183418729Y-60875448D01*
X183382991Y-60904778D01*
X183226466Y-60988443D01*
X183056627Y-61039963D01*
X182990442Y-61046482D01*
X182924260Y-61053000D01*
X182835740Y-61053000D01*
X182769558Y-61046482D01*
X182703373Y-61039963D01*
X182533534Y-60988443D01*
X182377009Y-60904778D01*
X182341271Y-60875448D01*
X182239814Y-60792186D01*
X182156552Y-60690729D01*
X182127222Y-60654991D01*
X182043557Y-60498466D01*
X181992037Y-60328627D01*
X181974641Y-60152000D01*
X181992037Y-59975373D01*
X182043557Y-59805534D01*
X182127222Y-59649009D01*
X182156552Y-59613271D01*
X182239814Y-59511814D01*
X182341271Y-59428552D01*
X182377009Y-59399222D01*
X182533534Y-59315557D01*
X182703373Y-59264037D01*
X182769558Y-59257518D01*
X182835740Y-59251000D01*
X182924260Y-59251000D01*
X182990442Y-59257518D01*
X182990442Y-59257518D01*
G37*
G36*
X185530442Y-59257518D02*
G01*
X185596627Y-59264037D01*
X185766466Y-59315557D01*
X185922991Y-59399222D01*
X185958729Y-59428552D01*
X186060186Y-59511814D01*
X186143448Y-59613271D01*
X186172778Y-59649009D01*
X186256443Y-59805534D01*
X186307963Y-59975373D01*
X186325359Y-60152000D01*
X186307963Y-60328627D01*
X186256443Y-60498466D01*
X186172778Y-60654991D01*
X186143448Y-60690729D01*
X186060186Y-60792186D01*
X185958729Y-60875448D01*
X185922991Y-60904778D01*
X185766466Y-60988443D01*
X185596627Y-61039963D01*
X185530442Y-61046482D01*
X185464260Y-61053000D01*
X185375740Y-61053000D01*
X185309558Y-61046482D01*
X185243373Y-61039963D01*
X185073534Y-60988443D01*
X184917009Y-60904778D01*
X184881271Y-60875448D01*
X184779814Y-60792186D01*
X184696552Y-60690729D01*
X184667222Y-60654991D01*
X184583557Y-60498466D01*
X184532037Y-60328627D01*
X184514641Y-60152000D01*
X184532037Y-59975373D01*
X184583557Y-59805534D01*
X184667222Y-59649009D01*
X184696552Y-59613271D01*
X184779814Y-59511814D01*
X184881271Y-59428552D01*
X184917009Y-59399222D01*
X185073534Y-59315557D01*
X185243373Y-59264037D01*
X185309558Y-59257518D01*
X185375740Y-59251000D01*
X185464260Y-59251000D01*
X185530442Y-59257518D01*
X185530442Y-59257518D01*
G37*
G36*
X188070442Y-59257518D02*
G01*
X188136627Y-59264037D01*
X188306466Y-59315557D01*
X188462991Y-59399222D01*
X188498729Y-59428552D01*
X188600186Y-59511814D01*
X188683448Y-59613271D01*
X188712778Y-59649009D01*
X188796443Y-59805534D01*
X188847963Y-59975373D01*
X188865359Y-60152000D01*
X188847963Y-60328627D01*
X188796443Y-60498466D01*
X188712778Y-60654991D01*
X188683448Y-60690729D01*
X188600186Y-60792186D01*
X188498729Y-60875448D01*
X188462991Y-60904778D01*
X188306466Y-60988443D01*
X188136627Y-61039963D01*
X188070442Y-61046482D01*
X188004260Y-61053000D01*
X187915740Y-61053000D01*
X187849558Y-61046482D01*
X187783373Y-61039963D01*
X187613534Y-60988443D01*
X187457009Y-60904778D01*
X187421271Y-60875448D01*
X187319814Y-60792186D01*
X187236552Y-60690729D01*
X187207222Y-60654991D01*
X187123557Y-60498466D01*
X187072037Y-60328627D01*
X187054641Y-60152000D01*
X187072037Y-59975373D01*
X187123557Y-59805534D01*
X187207222Y-59649009D01*
X187236552Y-59613271D01*
X187319814Y-59511814D01*
X187421271Y-59428552D01*
X187457009Y-59399222D01*
X187613534Y-59315557D01*
X187783373Y-59264037D01*
X187849558Y-59257518D01*
X187915740Y-59251000D01*
X188004260Y-59251000D01*
X188070442Y-59257518D01*
X188070442Y-59257518D01*
G37*
G36*
X112661000Y-58051000D02*
G01*
X110859000Y-58051000D01*
X110859000Y-56249000D01*
X112661000Y-56249000D01*
X112661000Y-58051000D01*
X112661000Y-58051000D01*
G37*
G36*
X114410443Y-56255519D02*
G01*
X114476627Y-56262037D01*
X114646466Y-56313557D01*
X114802991Y-56397222D01*
X114838729Y-56426552D01*
X114940186Y-56509814D01*
X115023448Y-56611271D01*
X115052778Y-56647009D01*
X115136443Y-56803534D01*
X115187963Y-56973373D01*
X115205359Y-57150000D01*
X115187963Y-57326627D01*
X115136443Y-57496466D01*
X115052778Y-57652991D01*
X115051344Y-57654738D01*
X114940186Y-57790186D01*
X114838729Y-57873448D01*
X114802991Y-57902778D01*
X114646466Y-57986443D01*
X114476627Y-58037963D01*
X114410442Y-58044482D01*
X114344260Y-58051000D01*
X114255740Y-58051000D01*
X114189558Y-58044482D01*
X114123373Y-58037963D01*
X113953534Y-57986443D01*
X113797009Y-57902778D01*
X113761271Y-57873448D01*
X113659814Y-57790186D01*
X113548656Y-57654738D01*
X113547222Y-57652991D01*
X113463557Y-57496466D01*
X113412037Y-57326627D01*
X113394641Y-57150000D01*
X113412037Y-56973373D01*
X113463557Y-56803534D01*
X113547222Y-56647009D01*
X113576552Y-56611271D01*
X113659814Y-56509814D01*
X113761271Y-56426552D01*
X113797009Y-56397222D01*
X113953534Y-56313557D01*
X114123373Y-56262037D01*
X114189557Y-56255519D01*
X114255740Y-56249000D01*
X114344260Y-56249000D01*
X114410443Y-56255519D01*
X114410443Y-56255519D01*
G37*
G36*
X153294928Y-55646764D02*
G01*
X153316009Y-55653160D01*
X153335445Y-55663548D01*
X153352476Y-55677524D01*
X153366452Y-55694555D01*
X153376840Y-55713991D01*
X153383236Y-55735072D01*
X153386000Y-55763140D01*
X153386000Y-57676860D01*
X153383236Y-57704928D01*
X153376840Y-57726009D01*
X153366452Y-57745445D01*
X153352476Y-57762476D01*
X153335445Y-57776452D01*
X153316009Y-57786840D01*
X153294928Y-57793236D01*
X153266860Y-57796000D01*
X152803140Y-57796000D01*
X152775072Y-57793236D01*
X152753991Y-57786840D01*
X152734555Y-57776452D01*
X152717524Y-57762476D01*
X152703548Y-57745445D01*
X152693160Y-57726009D01*
X152686764Y-57704928D01*
X152684000Y-57676860D01*
X152684000Y-55763140D01*
X152686764Y-55735072D01*
X152693160Y-55713991D01*
X152703548Y-55694555D01*
X152717524Y-55677524D01*
X152734555Y-55663548D01*
X152753991Y-55653160D01*
X152775072Y-55646764D01*
X152803140Y-55644000D01*
X153266860Y-55644000D01*
X153294928Y-55646764D01*
X153294928Y-55646764D01*
G37*
G36*
X140594928Y-55646764D02*
G01*
X140616009Y-55653160D01*
X140635445Y-55663548D01*
X140652476Y-55677524D01*
X140666452Y-55694555D01*
X140676840Y-55713991D01*
X140683236Y-55735072D01*
X140686000Y-55763140D01*
X140686000Y-57676860D01*
X140683236Y-57704928D01*
X140676840Y-57726009D01*
X140666452Y-57745445D01*
X140652476Y-57762476D01*
X140635445Y-57776452D01*
X140616009Y-57786840D01*
X140594928Y-57793236D01*
X140566860Y-57796000D01*
X140103140Y-57796000D01*
X140075072Y-57793236D01*
X140053991Y-57786840D01*
X140034555Y-57776452D01*
X140017524Y-57762476D01*
X140003548Y-57745445D01*
X139993160Y-57726009D01*
X139986764Y-57704928D01*
X139984000Y-57676860D01*
X139984000Y-55763140D01*
X139986764Y-55735072D01*
X139993160Y-55713991D01*
X140003548Y-55694555D01*
X140017524Y-55677524D01*
X140034555Y-55663548D01*
X140053991Y-55653160D01*
X140075072Y-55646764D01*
X140103140Y-55644000D01*
X140566860Y-55644000D01*
X140594928Y-55646764D01*
X140594928Y-55646764D01*
G37*
G36*
X141864928Y-55646764D02*
G01*
X141886009Y-55653160D01*
X141905445Y-55663548D01*
X141922476Y-55677524D01*
X141936452Y-55694555D01*
X141946840Y-55713991D01*
X141953236Y-55735072D01*
X141956000Y-55763140D01*
X141956000Y-57676860D01*
X141953236Y-57704928D01*
X141946840Y-57726009D01*
X141936452Y-57745445D01*
X141922476Y-57762476D01*
X141905445Y-57776452D01*
X141886009Y-57786840D01*
X141864928Y-57793236D01*
X141836860Y-57796000D01*
X141373140Y-57796000D01*
X141345072Y-57793236D01*
X141323991Y-57786840D01*
X141304555Y-57776452D01*
X141287524Y-57762476D01*
X141273548Y-57745445D01*
X141263160Y-57726009D01*
X141256764Y-57704928D01*
X141254000Y-57676860D01*
X141254000Y-55763140D01*
X141256764Y-55735072D01*
X141263160Y-55713991D01*
X141273548Y-55694555D01*
X141287524Y-55677524D01*
X141304555Y-55663548D01*
X141323991Y-55653160D01*
X141345072Y-55646764D01*
X141373140Y-55644000D01*
X141836860Y-55644000D01*
X141864928Y-55646764D01*
X141864928Y-55646764D01*
G37*
G36*
X143134928Y-55646764D02*
G01*
X143156009Y-55653160D01*
X143175445Y-55663548D01*
X143192476Y-55677524D01*
X143206452Y-55694555D01*
X143216840Y-55713991D01*
X143223236Y-55735072D01*
X143226000Y-55763140D01*
X143226000Y-57676860D01*
X143223236Y-57704928D01*
X143216840Y-57726009D01*
X143206452Y-57745445D01*
X143192476Y-57762476D01*
X143175445Y-57776452D01*
X143156009Y-57786840D01*
X143134928Y-57793236D01*
X143106860Y-57796000D01*
X142643140Y-57796000D01*
X142615072Y-57793236D01*
X142593991Y-57786840D01*
X142574555Y-57776452D01*
X142557524Y-57762476D01*
X142543548Y-57745445D01*
X142533160Y-57726009D01*
X142526764Y-57704928D01*
X142524000Y-57676860D01*
X142524000Y-55763140D01*
X142526764Y-55735072D01*
X142533160Y-55713991D01*
X142543548Y-55694555D01*
X142557524Y-55677524D01*
X142574555Y-55663548D01*
X142593991Y-55653160D01*
X142615072Y-55646764D01*
X142643140Y-55644000D01*
X143106860Y-55644000D01*
X143134928Y-55646764D01*
X143134928Y-55646764D01*
G37*
G36*
X144404928Y-55646764D02*
G01*
X144426009Y-55653160D01*
X144445445Y-55663548D01*
X144462476Y-55677524D01*
X144476452Y-55694555D01*
X144486840Y-55713991D01*
X144493236Y-55735072D01*
X144496000Y-55763140D01*
X144496000Y-57676860D01*
X144493236Y-57704928D01*
X144486840Y-57726009D01*
X144476452Y-57745445D01*
X144462476Y-57762476D01*
X144445445Y-57776452D01*
X144426009Y-57786840D01*
X144404928Y-57793236D01*
X144376860Y-57796000D01*
X143913140Y-57796000D01*
X143885072Y-57793236D01*
X143863991Y-57786840D01*
X143844555Y-57776452D01*
X143827524Y-57762476D01*
X143813548Y-57745445D01*
X143803160Y-57726009D01*
X143796764Y-57704928D01*
X143794000Y-57676860D01*
X143794000Y-55763140D01*
X143796764Y-55735072D01*
X143803160Y-55713991D01*
X143813548Y-55694555D01*
X143827524Y-55677524D01*
X143844555Y-55663548D01*
X143863991Y-55653160D01*
X143885072Y-55646764D01*
X143913140Y-55644000D01*
X144376860Y-55644000D01*
X144404928Y-55646764D01*
X144404928Y-55646764D01*
G37*
G36*
X145674928Y-55646764D02*
G01*
X145696009Y-55653160D01*
X145715445Y-55663548D01*
X145732476Y-55677524D01*
X145746452Y-55694555D01*
X145756840Y-55713991D01*
X145763236Y-55735072D01*
X145766000Y-55763140D01*
X145766000Y-57676860D01*
X145763236Y-57704928D01*
X145756840Y-57726009D01*
X145746452Y-57745445D01*
X145732476Y-57762476D01*
X145715445Y-57776452D01*
X145696009Y-57786840D01*
X145674928Y-57793236D01*
X145646860Y-57796000D01*
X145183140Y-57796000D01*
X145155072Y-57793236D01*
X145133991Y-57786840D01*
X145114555Y-57776452D01*
X145097524Y-57762476D01*
X145083548Y-57745445D01*
X145073160Y-57726009D01*
X145066764Y-57704928D01*
X145064000Y-57676860D01*
X145064000Y-55763140D01*
X145066764Y-55735072D01*
X145073160Y-55713991D01*
X145083548Y-55694555D01*
X145097524Y-55677524D01*
X145114555Y-55663548D01*
X145133991Y-55653160D01*
X145155072Y-55646764D01*
X145183140Y-55644000D01*
X145646860Y-55644000D01*
X145674928Y-55646764D01*
X145674928Y-55646764D01*
G37*
G36*
X146944928Y-55646764D02*
G01*
X146966009Y-55653160D01*
X146985445Y-55663548D01*
X147002476Y-55677524D01*
X147016452Y-55694555D01*
X147026840Y-55713991D01*
X147033236Y-55735072D01*
X147036000Y-55763140D01*
X147036000Y-57676860D01*
X147033236Y-57704928D01*
X147026840Y-57726009D01*
X147016452Y-57745445D01*
X147002476Y-57762476D01*
X146985445Y-57776452D01*
X146966009Y-57786840D01*
X146944928Y-57793236D01*
X146916860Y-57796000D01*
X146453140Y-57796000D01*
X146425072Y-57793236D01*
X146403991Y-57786840D01*
X146384555Y-57776452D01*
X146367524Y-57762476D01*
X146353548Y-57745445D01*
X146343160Y-57726009D01*
X146336764Y-57704928D01*
X146334000Y-57676860D01*
X146334000Y-55763140D01*
X146336764Y-55735072D01*
X146343160Y-55713991D01*
X146353548Y-55694555D01*
X146367524Y-55677524D01*
X146384555Y-55663548D01*
X146403991Y-55653160D01*
X146425072Y-55646764D01*
X146453140Y-55644000D01*
X146916860Y-55644000D01*
X146944928Y-55646764D01*
X146944928Y-55646764D01*
G37*
G36*
X148214928Y-55646764D02*
G01*
X148236009Y-55653160D01*
X148255445Y-55663548D01*
X148272476Y-55677524D01*
X148286452Y-55694555D01*
X148296840Y-55713991D01*
X148303236Y-55735072D01*
X148306000Y-55763140D01*
X148306000Y-57676860D01*
X148303236Y-57704928D01*
X148296840Y-57726009D01*
X148286452Y-57745445D01*
X148272476Y-57762476D01*
X148255445Y-57776452D01*
X148236009Y-57786840D01*
X148214928Y-57793236D01*
X148186860Y-57796000D01*
X147723140Y-57796000D01*
X147695072Y-57793236D01*
X147673991Y-57786840D01*
X147654555Y-57776452D01*
X147637524Y-57762476D01*
X147623548Y-57745445D01*
X147613160Y-57726009D01*
X147606764Y-57704928D01*
X147604000Y-57676860D01*
X147604000Y-55763140D01*
X147606764Y-55735072D01*
X147613160Y-55713991D01*
X147623548Y-55694555D01*
X147637524Y-55677524D01*
X147654555Y-55663548D01*
X147673991Y-55653160D01*
X147695072Y-55646764D01*
X147723140Y-55644000D01*
X148186860Y-55644000D01*
X148214928Y-55646764D01*
X148214928Y-55646764D01*
G37*
G36*
X149484928Y-55646764D02*
G01*
X149506009Y-55653160D01*
X149525445Y-55663548D01*
X149542476Y-55677524D01*
X149556452Y-55694555D01*
X149566840Y-55713991D01*
X149573236Y-55735072D01*
X149576000Y-55763140D01*
X149576000Y-57676860D01*
X149573236Y-57704928D01*
X149566840Y-57726009D01*
X149556452Y-57745445D01*
X149542476Y-57762476D01*
X149525445Y-57776452D01*
X149506009Y-57786840D01*
X149484928Y-57793236D01*
X149456860Y-57796000D01*
X148993140Y-57796000D01*
X148965072Y-57793236D01*
X148943991Y-57786840D01*
X148924555Y-57776452D01*
X148907524Y-57762476D01*
X148893548Y-57745445D01*
X148883160Y-57726009D01*
X148876764Y-57704928D01*
X148874000Y-57676860D01*
X148874000Y-55763140D01*
X148876764Y-55735072D01*
X148883160Y-55713991D01*
X148893548Y-55694555D01*
X148907524Y-55677524D01*
X148924555Y-55663548D01*
X148943991Y-55653160D01*
X148965072Y-55646764D01*
X148993140Y-55644000D01*
X149456860Y-55644000D01*
X149484928Y-55646764D01*
X149484928Y-55646764D01*
G37*
G36*
X150754928Y-55646764D02*
G01*
X150776009Y-55653160D01*
X150795445Y-55663548D01*
X150812476Y-55677524D01*
X150826452Y-55694555D01*
X150836840Y-55713991D01*
X150843236Y-55735072D01*
X150846000Y-55763140D01*
X150846000Y-57676860D01*
X150843236Y-57704928D01*
X150836840Y-57726009D01*
X150826452Y-57745445D01*
X150812476Y-57762476D01*
X150795445Y-57776452D01*
X150776009Y-57786840D01*
X150754928Y-57793236D01*
X150726860Y-57796000D01*
X150263140Y-57796000D01*
X150235072Y-57793236D01*
X150213991Y-57786840D01*
X150194555Y-57776452D01*
X150177524Y-57762476D01*
X150163548Y-57745445D01*
X150153160Y-57726009D01*
X150146764Y-57704928D01*
X150144000Y-57676860D01*
X150144000Y-55763140D01*
X150146764Y-55735072D01*
X150153160Y-55713991D01*
X150163548Y-55694555D01*
X150177524Y-55677524D01*
X150194555Y-55663548D01*
X150213991Y-55653160D01*
X150235072Y-55646764D01*
X150263140Y-55644000D01*
X150726860Y-55644000D01*
X150754928Y-55646764D01*
X150754928Y-55646764D01*
G37*
G36*
X152024928Y-55646764D02*
G01*
X152046009Y-55653160D01*
X152065445Y-55663548D01*
X152082476Y-55677524D01*
X152096452Y-55694555D01*
X152106840Y-55713991D01*
X152113236Y-55735072D01*
X152116000Y-55763140D01*
X152116000Y-57676860D01*
X152113236Y-57704928D01*
X152106840Y-57726009D01*
X152096452Y-57745445D01*
X152082476Y-57762476D01*
X152065445Y-57776452D01*
X152046009Y-57786840D01*
X152024928Y-57793236D01*
X151996860Y-57796000D01*
X151533140Y-57796000D01*
X151505072Y-57793236D01*
X151483991Y-57786840D01*
X151464555Y-57776452D01*
X151447524Y-57762476D01*
X151433548Y-57745445D01*
X151423160Y-57726009D01*
X151416764Y-57704928D01*
X151414000Y-57676860D01*
X151414000Y-55763140D01*
X151416764Y-55735072D01*
X151423160Y-55713991D01*
X151433548Y-55694555D01*
X151447524Y-55677524D01*
X151464555Y-55663548D01*
X151483991Y-55653160D01*
X151505072Y-55646764D01*
X151533140Y-55644000D01*
X151996860Y-55644000D01*
X152024928Y-55646764D01*
X152024928Y-55646764D01*
G37*
G36*
X154564928Y-55646764D02*
G01*
X154586009Y-55653160D01*
X154605445Y-55663548D01*
X154622476Y-55677524D01*
X154636452Y-55694555D01*
X154646840Y-55713991D01*
X154653236Y-55735072D01*
X154656000Y-55763140D01*
X154656000Y-57676860D01*
X154653236Y-57704928D01*
X154646840Y-57726009D01*
X154636452Y-57745445D01*
X154622476Y-57762476D01*
X154605445Y-57776452D01*
X154586009Y-57786840D01*
X154564928Y-57793236D01*
X154536860Y-57796000D01*
X154073140Y-57796000D01*
X154045072Y-57793236D01*
X154023991Y-57786840D01*
X154004555Y-57776452D01*
X153987524Y-57762476D01*
X153973548Y-57745445D01*
X153963160Y-57726009D01*
X153956764Y-57704928D01*
X153954000Y-57676860D01*
X153954000Y-55763140D01*
X153956764Y-55735072D01*
X153963160Y-55713991D01*
X153973548Y-55694555D01*
X153987524Y-55677524D01*
X154004555Y-55663548D01*
X154023991Y-55653160D01*
X154045072Y-55646764D01*
X154073140Y-55644000D01*
X154536860Y-55644000D01*
X154564928Y-55646764D01*
X154564928Y-55646764D01*
G37*
G36*
X102951000Y-57231000D02*
G01*
X100249000Y-57231000D01*
X100249000Y-54529000D01*
X102951000Y-54529000D01*
X102951000Y-57231000D01*
X102951000Y-57231000D01*
G37*
G36*
X208353674Y-54498465D02*
G01*
X208391367Y-54509899D01*
X208426103Y-54528466D01*
X208456548Y-54553452D01*
X208481534Y-54583897D01*
X208500101Y-54618633D01*
X208511535Y-54656326D01*
X208516000Y-54701661D01*
X208516000Y-55788339D01*
X208511535Y-55833674D01*
X208500101Y-55871367D01*
X208481534Y-55906103D01*
X208456548Y-55936548D01*
X208426103Y-55961534D01*
X208391367Y-55980101D01*
X208353674Y-55991535D01*
X208308339Y-55996000D01*
X207471661Y-55996000D01*
X207426326Y-55991535D01*
X207388633Y-55980101D01*
X207353897Y-55961534D01*
X207323452Y-55936548D01*
X207298466Y-55906103D01*
X207279899Y-55871367D01*
X207268465Y-55833674D01*
X207264000Y-55788339D01*
X207264000Y-54701661D01*
X207268465Y-54656326D01*
X207279899Y-54618633D01*
X207298466Y-54583897D01*
X207323452Y-54553452D01*
X207353897Y-54528466D01*
X207388633Y-54509899D01*
X207426326Y-54498465D01*
X207471661Y-54494000D01*
X208308339Y-54494000D01*
X208353674Y-54498465D01*
X208353674Y-54498465D01*
G37*
G36*
X210403674Y-54498465D02*
G01*
X210441367Y-54509899D01*
X210476103Y-54528466D01*
X210506548Y-54553452D01*
X210531534Y-54583897D01*
X210550101Y-54618633D01*
X210561535Y-54656326D01*
X210566000Y-54701661D01*
X210566000Y-55788339D01*
X210561535Y-55833674D01*
X210550101Y-55871367D01*
X210531534Y-55906103D01*
X210506548Y-55936548D01*
X210476103Y-55961534D01*
X210441367Y-55980101D01*
X210403674Y-55991535D01*
X210358339Y-55996000D01*
X209521661Y-55996000D01*
X209476326Y-55991535D01*
X209438633Y-55980101D01*
X209403897Y-55961534D01*
X209373452Y-55936548D01*
X209348466Y-55906103D01*
X209329899Y-55871367D01*
X209318465Y-55833674D01*
X209314000Y-55788339D01*
X209314000Y-54701661D01*
X209318465Y-54656326D01*
X209329899Y-54618633D01*
X209348466Y-54583897D01*
X209373452Y-54553452D01*
X209403897Y-54528466D01*
X209438633Y-54509899D01*
X209476326Y-54498465D01*
X209521661Y-54494000D01*
X210358339Y-54494000D01*
X210403674Y-54498465D01*
X210403674Y-54498465D01*
G37*
G36*
X202783674Y-54498465D02*
G01*
X202821367Y-54509899D01*
X202856103Y-54528466D01*
X202886548Y-54553452D01*
X202911534Y-54583897D01*
X202930101Y-54618633D01*
X202941535Y-54656326D01*
X202946000Y-54701661D01*
X202946000Y-55788339D01*
X202941535Y-55833674D01*
X202930101Y-55871367D01*
X202911534Y-55906103D01*
X202886548Y-55936548D01*
X202856103Y-55961534D01*
X202821367Y-55980101D01*
X202783674Y-55991535D01*
X202738339Y-55996000D01*
X201901661Y-55996000D01*
X201856326Y-55991535D01*
X201818633Y-55980101D01*
X201783897Y-55961534D01*
X201753452Y-55936548D01*
X201728466Y-55906103D01*
X201709899Y-55871367D01*
X201698465Y-55833674D01*
X201694000Y-55788339D01*
X201694000Y-54701661D01*
X201698465Y-54656326D01*
X201709899Y-54618633D01*
X201728466Y-54583897D01*
X201753452Y-54553452D01*
X201783897Y-54528466D01*
X201818633Y-54509899D01*
X201856326Y-54498465D01*
X201901661Y-54494000D01*
X202738339Y-54494000D01*
X202783674Y-54498465D01*
X202783674Y-54498465D01*
G37*
G36*
X200733674Y-54498465D02*
G01*
X200771367Y-54509899D01*
X200806103Y-54528466D01*
X200836548Y-54553452D01*
X200861534Y-54583897D01*
X200880101Y-54618633D01*
X200891535Y-54656326D01*
X200896000Y-54701661D01*
X200896000Y-55788339D01*
X200891535Y-55833674D01*
X200880101Y-55871367D01*
X200861534Y-55906103D01*
X200836548Y-55936548D01*
X200806103Y-55961534D01*
X200771367Y-55980101D01*
X200733674Y-55991535D01*
X200688339Y-55996000D01*
X199851661Y-55996000D01*
X199806326Y-55991535D01*
X199768633Y-55980101D01*
X199733897Y-55961534D01*
X199703452Y-55936548D01*
X199678466Y-55906103D01*
X199659899Y-55871367D01*
X199648465Y-55833674D01*
X199644000Y-55788339D01*
X199644000Y-54701661D01*
X199648465Y-54656326D01*
X199659899Y-54618633D01*
X199678466Y-54583897D01*
X199703452Y-54553452D01*
X199733897Y-54528466D01*
X199768633Y-54509899D01*
X199806326Y-54498465D01*
X199851661Y-54494000D01*
X200688339Y-54494000D01*
X200733674Y-54498465D01*
X200733674Y-54498465D01*
G37*
G36*
X97294072Y-51580918D02*
G01*
X97511551Y-51671000D01*
X97539939Y-51682759D01*
X97651328Y-51757187D01*
X97704333Y-51792604D01*
X97761212Y-51830610D01*
X97949390Y-52018788D01*
X98091805Y-52231925D01*
X98097242Y-52240063D01*
X98199082Y-52485928D01*
X98251000Y-52746937D01*
X98251000Y-53013063D01*
X98199082Y-53274072D01*
X98126697Y-53448827D01*
X98097241Y-53519939D01*
X98071359Y-53558674D01*
X97962896Y-53721000D01*
X97949390Y-53741212D01*
X97761212Y-53929390D01*
X97539939Y-54077241D01*
X97539938Y-54077242D01*
X97539937Y-54077242D01*
X97294072Y-54179082D01*
X97033063Y-54231000D01*
X96766937Y-54231000D01*
X96505928Y-54179082D01*
X96260063Y-54077242D01*
X96260062Y-54077242D01*
X96260061Y-54077241D01*
X96038788Y-53929390D01*
X95850610Y-53741212D01*
X95837105Y-53721000D01*
X95728641Y-53558674D01*
X95702759Y-53519939D01*
X95673304Y-53448827D01*
X95600918Y-53274072D01*
X95549000Y-53013063D01*
X95549000Y-52746937D01*
X95600918Y-52485928D01*
X95702758Y-52240063D01*
X95708196Y-52231925D01*
X95850610Y-52018788D01*
X96038788Y-51830610D01*
X96095668Y-51792604D01*
X96148672Y-51757187D01*
X96260061Y-51682759D01*
X96288450Y-51671000D01*
X96505928Y-51580918D01*
X96766937Y-51529000D01*
X97033063Y-51529000D01*
X97294072Y-51580918D01*
X97294072Y-51580918D01*
G37*
G36*
X188548674Y-52473465D02*
G01*
X188586367Y-52484899D01*
X188621103Y-52503466D01*
X188651548Y-52528452D01*
X188676534Y-52558897D01*
X188695101Y-52593633D01*
X188706535Y-52631326D01*
X188711000Y-52676661D01*
X188711000Y-53513339D01*
X188706535Y-53558674D01*
X188695101Y-53596367D01*
X188676534Y-53631103D01*
X188651548Y-53661548D01*
X188621103Y-53686534D01*
X188586367Y-53705101D01*
X188548674Y-53716535D01*
X188503339Y-53721000D01*
X187416661Y-53721000D01*
X187371326Y-53716535D01*
X187333633Y-53705101D01*
X187298897Y-53686534D01*
X187268452Y-53661548D01*
X187243466Y-53631103D01*
X187224899Y-53596367D01*
X187213465Y-53558674D01*
X187209000Y-53513339D01*
X187209000Y-52676661D01*
X187213465Y-52631326D01*
X187224899Y-52593633D01*
X187243466Y-52558897D01*
X187268452Y-52528452D01*
X187298897Y-52503466D01*
X187333633Y-52484899D01*
X187371326Y-52473465D01*
X187416661Y-52469000D01*
X188503339Y-52469000D01*
X188548674Y-52473465D01*
X188548674Y-52473465D01*
G37*
G36*
X186008674Y-52473465D02*
G01*
X186046367Y-52484899D01*
X186081103Y-52503466D01*
X186111548Y-52528452D01*
X186136534Y-52558897D01*
X186155101Y-52593633D01*
X186166535Y-52631326D01*
X186171000Y-52676661D01*
X186171000Y-53513339D01*
X186166535Y-53558674D01*
X186155101Y-53596367D01*
X186136534Y-53631103D01*
X186111548Y-53661548D01*
X186081103Y-53686534D01*
X186046367Y-53705101D01*
X186008674Y-53716535D01*
X185963339Y-53721000D01*
X184876661Y-53721000D01*
X184831326Y-53716535D01*
X184793633Y-53705101D01*
X184758897Y-53686534D01*
X184728452Y-53661548D01*
X184703466Y-53631103D01*
X184684899Y-53596367D01*
X184673465Y-53558674D01*
X184669000Y-53513339D01*
X184669000Y-52676661D01*
X184673465Y-52631326D01*
X184684899Y-52593633D01*
X184703466Y-52558897D01*
X184728452Y-52528452D01*
X184758897Y-52503466D01*
X184793633Y-52484899D01*
X184831326Y-52473465D01*
X184876661Y-52469000D01*
X185963339Y-52469000D01*
X186008674Y-52473465D01*
X186008674Y-52473465D01*
G37*
G36*
X196168674Y-52473465D02*
G01*
X196206367Y-52484899D01*
X196241103Y-52503466D01*
X196271548Y-52528452D01*
X196296534Y-52558897D01*
X196315101Y-52593633D01*
X196326535Y-52631326D01*
X196331000Y-52676661D01*
X196331000Y-53513339D01*
X196326535Y-53558674D01*
X196315101Y-53596367D01*
X196296534Y-53631103D01*
X196271548Y-53661548D01*
X196241103Y-53686534D01*
X196206367Y-53705101D01*
X196168674Y-53716535D01*
X196123339Y-53721000D01*
X195036661Y-53721000D01*
X194991326Y-53716535D01*
X194953633Y-53705101D01*
X194918897Y-53686534D01*
X194888452Y-53661548D01*
X194863466Y-53631103D01*
X194844899Y-53596367D01*
X194833465Y-53558674D01*
X194829000Y-53513339D01*
X194829000Y-52676661D01*
X194833465Y-52631326D01*
X194844899Y-52593633D01*
X194863466Y-52558897D01*
X194888452Y-52528452D01*
X194918897Y-52503466D01*
X194953633Y-52484899D01*
X194991326Y-52473465D01*
X195036661Y-52469000D01*
X196123339Y-52469000D01*
X196168674Y-52473465D01*
X196168674Y-52473465D01*
G37*
G36*
X193628674Y-52473465D02*
G01*
X193666367Y-52484899D01*
X193701103Y-52503466D01*
X193731548Y-52528452D01*
X193756534Y-52558897D01*
X193775101Y-52593633D01*
X193786535Y-52631326D01*
X193791000Y-52676661D01*
X193791000Y-53513339D01*
X193786535Y-53558674D01*
X193775101Y-53596367D01*
X193756534Y-53631103D01*
X193731548Y-53661548D01*
X193701103Y-53686534D01*
X193666367Y-53705101D01*
X193628674Y-53716535D01*
X193583339Y-53721000D01*
X192496661Y-53721000D01*
X192451326Y-53716535D01*
X192413633Y-53705101D01*
X192378897Y-53686534D01*
X192348452Y-53661548D01*
X192323466Y-53631103D01*
X192304899Y-53596367D01*
X192293465Y-53558674D01*
X192289000Y-53513339D01*
X192289000Y-52676661D01*
X192293465Y-52631326D01*
X192304899Y-52593633D01*
X192323466Y-52558897D01*
X192348452Y-52528452D01*
X192378897Y-52503466D01*
X192413633Y-52484899D01*
X192451326Y-52473465D01*
X192496661Y-52469000D01*
X193583339Y-52469000D01*
X193628674Y-52473465D01*
X193628674Y-52473465D01*
G37*
G36*
X191088674Y-52473465D02*
G01*
X191126367Y-52484899D01*
X191161103Y-52503466D01*
X191191548Y-52528452D01*
X191216534Y-52558897D01*
X191235101Y-52593633D01*
X191246535Y-52631326D01*
X191251000Y-52676661D01*
X191251000Y-53513339D01*
X191246535Y-53558674D01*
X191235101Y-53596367D01*
X191216534Y-53631103D01*
X191191548Y-53661548D01*
X191161103Y-53686534D01*
X191126367Y-53705101D01*
X191088674Y-53716535D01*
X191043339Y-53721000D01*
X189956661Y-53721000D01*
X189911326Y-53716535D01*
X189873633Y-53705101D01*
X189838897Y-53686534D01*
X189808452Y-53661548D01*
X189783466Y-53631103D01*
X189764899Y-53596367D01*
X189753465Y-53558674D01*
X189749000Y-53513339D01*
X189749000Y-52676661D01*
X189753465Y-52631326D01*
X189764899Y-52593633D01*
X189783466Y-52558897D01*
X189808452Y-52528452D01*
X189838897Y-52503466D01*
X189873633Y-52484899D01*
X189911326Y-52473465D01*
X189956661Y-52469000D01*
X191043339Y-52469000D01*
X191088674Y-52473465D01*
X191088674Y-52473465D01*
G37*
G36*
X128980100Y-53581500D02*
G01*
X128039900Y-53581500D01*
X128039900Y-51879300D01*
X128980100Y-51879300D01*
X128980100Y-53581500D01*
X128980100Y-53581500D01*
G37*
G36*
X131280100Y-53581500D02*
G01*
X130339900Y-53581500D01*
X130339900Y-51879300D01*
X131280100Y-51879300D01*
X131280100Y-53581500D01*
X131280100Y-53581500D01*
G37*
G36*
X133580100Y-53581500D02*
G01*
X132639900Y-53581500D01*
X132639900Y-51879300D01*
X133580100Y-51879300D01*
X133580100Y-53581500D01*
X133580100Y-53581500D01*
G37*
G36*
X113307395Y-51155546D02*
G01*
X113480466Y-51227234D01*
X113527187Y-51258452D01*
X113636227Y-51331310D01*
X113768690Y-51463773D01*
X113768691Y-51463775D01*
X113872766Y-51619534D01*
X113944454Y-51792605D01*
X113981000Y-51976333D01*
X113981000Y-52163667D01*
X113944454Y-52347395D01*
X113872766Y-52520466D01*
X113847087Y-52558897D01*
X113768690Y-52676227D01*
X113636227Y-52808690D01*
X113557818Y-52861081D01*
X113480466Y-52912766D01*
X113307395Y-52984454D01*
X113123667Y-53021000D01*
X112936333Y-53021000D01*
X112752605Y-52984454D01*
X112579534Y-52912766D01*
X112502182Y-52861081D01*
X112423773Y-52808690D01*
X112291310Y-52676227D01*
X112212913Y-52558897D01*
X112187234Y-52520466D01*
X112115546Y-52347395D01*
X112079000Y-52163667D01*
X112079000Y-51976333D01*
X112115546Y-51792605D01*
X112187234Y-51619534D01*
X112291309Y-51463775D01*
X112291310Y-51463773D01*
X112423773Y-51331310D01*
X112532813Y-51258452D01*
X112579534Y-51227234D01*
X112752605Y-51155546D01*
X112936333Y-51119000D01*
X113123667Y-51119000D01*
X113307395Y-51155546D01*
X113307395Y-51155546D01*
G37*
G36*
X208233674Y-51203465D02*
G01*
X208271367Y-51214899D01*
X208306103Y-51233466D01*
X208336548Y-51258452D01*
X208361534Y-51288897D01*
X208380101Y-51323633D01*
X208391535Y-51361326D01*
X208396000Y-51406661D01*
X208396000Y-52243339D01*
X208391535Y-52288674D01*
X208380101Y-52326367D01*
X208361534Y-52361103D01*
X208336548Y-52391548D01*
X208306103Y-52416534D01*
X208271367Y-52435101D01*
X208233674Y-52446535D01*
X208188339Y-52451000D01*
X207101661Y-52451000D01*
X207056326Y-52446535D01*
X207018633Y-52435101D01*
X206983897Y-52416534D01*
X206953452Y-52391548D01*
X206928466Y-52361103D01*
X206909899Y-52326367D01*
X206898465Y-52288674D01*
X206894000Y-52243339D01*
X206894000Y-51406661D01*
X206898465Y-51361326D01*
X206909899Y-51323633D01*
X206928466Y-51288897D01*
X206953452Y-51258452D01*
X206983897Y-51233466D01*
X207018633Y-51214899D01*
X207056326Y-51203465D01*
X207101661Y-51199000D01*
X208188339Y-51199000D01*
X208233674Y-51203465D01*
X208233674Y-51203465D01*
G37*
G36*
X203153674Y-51203465D02*
G01*
X203191367Y-51214899D01*
X203226103Y-51233466D01*
X203256548Y-51258452D01*
X203281534Y-51288897D01*
X203300101Y-51323633D01*
X203311535Y-51361326D01*
X203316000Y-51406661D01*
X203316000Y-52243339D01*
X203311535Y-52288674D01*
X203300101Y-52326367D01*
X203281534Y-52361103D01*
X203256548Y-52391548D01*
X203226103Y-52416534D01*
X203191367Y-52435101D01*
X203153674Y-52446535D01*
X203108339Y-52451000D01*
X202021661Y-52451000D01*
X201976326Y-52446535D01*
X201938633Y-52435101D01*
X201903897Y-52416534D01*
X201873452Y-52391548D01*
X201848466Y-52361103D01*
X201829899Y-52326367D01*
X201818465Y-52288674D01*
X201814000Y-52243339D01*
X201814000Y-51406661D01*
X201818465Y-51361326D01*
X201829899Y-51323633D01*
X201848466Y-51288897D01*
X201873452Y-51258452D01*
X201903897Y-51233466D01*
X201938633Y-51214899D01*
X201976326Y-51203465D01*
X202021661Y-51199000D01*
X203108339Y-51199000D01*
X203153674Y-51203465D01*
X203153674Y-51203465D01*
G37*
G36*
X186008674Y-50423465D02*
G01*
X186046367Y-50434899D01*
X186081103Y-50453466D01*
X186111548Y-50478452D01*
X186136534Y-50508897D01*
X186155101Y-50543633D01*
X186166535Y-50581326D01*
X186171000Y-50626661D01*
X186171000Y-51463339D01*
X186166535Y-51508674D01*
X186155101Y-51546367D01*
X186136534Y-51581103D01*
X186111548Y-51611548D01*
X186081103Y-51636534D01*
X186046367Y-51655101D01*
X186008674Y-51666535D01*
X185963339Y-51671000D01*
X184876661Y-51671000D01*
X184831326Y-51666535D01*
X184793633Y-51655101D01*
X184758897Y-51636534D01*
X184728452Y-51611548D01*
X184703466Y-51581103D01*
X184684899Y-51546367D01*
X184673465Y-51508674D01*
X184669000Y-51463339D01*
X184669000Y-50626661D01*
X184673465Y-50581326D01*
X184684899Y-50543633D01*
X184703466Y-50508897D01*
X184728452Y-50478452D01*
X184758897Y-50453466D01*
X184793633Y-50434899D01*
X184831326Y-50423465D01*
X184876661Y-50419000D01*
X185963339Y-50419000D01*
X186008674Y-50423465D01*
X186008674Y-50423465D01*
G37*
G36*
X188548674Y-50423465D02*
G01*
X188586367Y-50434899D01*
X188621103Y-50453466D01*
X188651548Y-50478452D01*
X188676534Y-50508897D01*
X188695101Y-50543633D01*
X188706535Y-50581326D01*
X188711000Y-50626661D01*
X188711000Y-51463339D01*
X188706535Y-51508674D01*
X188695101Y-51546367D01*
X188676534Y-51581103D01*
X188651548Y-51611548D01*
X188621103Y-51636534D01*
X188586367Y-51655101D01*
X188548674Y-51666535D01*
X188503339Y-51671000D01*
X187416661Y-51671000D01*
X187371326Y-51666535D01*
X187333633Y-51655101D01*
X187298897Y-51636534D01*
X187268452Y-51611548D01*
X187243466Y-51581103D01*
X187224899Y-51546367D01*
X187213465Y-51508674D01*
X187209000Y-51463339D01*
X187209000Y-50626661D01*
X187213465Y-50581326D01*
X187224899Y-50543633D01*
X187243466Y-50508897D01*
X187268452Y-50478452D01*
X187298897Y-50453466D01*
X187333633Y-50434899D01*
X187371326Y-50423465D01*
X187416661Y-50419000D01*
X188503339Y-50419000D01*
X188548674Y-50423465D01*
X188548674Y-50423465D01*
G37*
G36*
X196168674Y-50423465D02*
G01*
X196206367Y-50434899D01*
X196241103Y-50453466D01*
X196271548Y-50478452D01*
X196296534Y-50508897D01*
X196315101Y-50543633D01*
X196326535Y-50581326D01*
X196331000Y-50626661D01*
X196331000Y-51463339D01*
X196326535Y-51508674D01*
X196315101Y-51546367D01*
X196296534Y-51581103D01*
X196271548Y-51611548D01*
X196241103Y-51636534D01*
X196206367Y-51655101D01*
X196168674Y-51666535D01*
X196123339Y-51671000D01*
X195036661Y-51671000D01*
X194991326Y-51666535D01*
X194953633Y-51655101D01*
X194918897Y-51636534D01*
X194888452Y-51611548D01*
X194863466Y-51581103D01*
X194844899Y-51546367D01*
X194833465Y-51508674D01*
X194829000Y-51463339D01*
X194829000Y-50626661D01*
X194833465Y-50581326D01*
X194844899Y-50543633D01*
X194863466Y-50508897D01*
X194888452Y-50478452D01*
X194918897Y-50453466D01*
X194953633Y-50434899D01*
X194991326Y-50423465D01*
X195036661Y-50419000D01*
X196123339Y-50419000D01*
X196168674Y-50423465D01*
X196168674Y-50423465D01*
G37*
G36*
X193628674Y-50423465D02*
G01*
X193666367Y-50434899D01*
X193701103Y-50453466D01*
X193731548Y-50478452D01*
X193756534Y-50508897D01*
X193775101Y-50543633D01*
X193786535Y-50581326D01*
X193791000Y-50626661D01*
X193791000Y-51463339D01*
X193786535Y-51508674D01*
X193775101Y-51546367D01*
X193756534Y-51581103D01*
X193731548Y-51611548D01*
X193701103Y-51636534D01*
X193666367Y-51655101D01*
X193628674Y-51666535D01*
X193583339Y-51671000D01*
X192496661Y-51671000D01*
X192451326Y-51666535D01*
X192413633Y-51655101D01*
X192378897Y-51636534D01*
X192348452Y-51611548D01*
X192323466Y-51581103D01*
X192304899Y-51546367D01*
X192293465Y-51508674D01*
X192289000Y-51463339D01*
X192289000Y-50626661D01*
X192293465Y-50581326D01*
X192304899Y-50543633D01*
X192323466Y-50508897D01*
X192348452Y-50478452D01*
X192378897Y-50453466D01*
X192413633Y-50434899D01*
X192451326Y-50423465D01*
X192496661Y-50419000D01*
X193583339Y-50419000D01*
X193628674Y-50423465D01*
X193628674Y-50423465D01*
G37*
G36*
X191088674Y-50423465D02*
G01*
X191126367Y-50434899D01*
X191161103Y-50453466D01*
X191191548Y-50478452D01*
X191216534Y-50508897D01*
X191235101Y-50543633D01*
X191246535Y-50581326D01*
X191251000Y-50626661D01*
X191251000Y-51463339D01*
X191246535Y-51508674D01*
X191235101Y-51546367D01*
X191216534Y-51581103D01*
X191191548Y-51611548D01*
X191161103Y-51636534D01*
X191126367Y-51655101D01*
X191088674Y-51666535D01*
X191043339Y-51671000D01*
X189956661Y-51671000D01*
X189911326Y-51666535D01*
X189873633Y-51655101D01*
X189838897Y-51636534D01*
X189808452Y-51611548D01*
X189783466Y-51581103D01*
X189764899Y-51546367D01*
X189753465Y-51508674D01*
X189749000Y-51463339D01*
X189749000Y-50626661D01*
X189753465Y-50581326D01*
X189764899Y-50543633D01*
X189783466Y-50508897D01*
X189808452Y-50478452D01*
X189838897Y-50453466D01*
X189873633Y-50434899D01*
X189911326Y-50423465D01*
X189956661Y-50419000D01*
X191043339Y-50419000D01*
X191088674Y-50423465D01*
X191088674Y-50423465D01*
G37*
G36*
X101984430Y-48579000D02*
G01*
X101994072Y-48580918D01*
X102239939Y-48682759D01*
X102351328Y-48757187D01*
X102461211Y-48830609D01*
X102649391Y-49018789D01*
X102693719Y-49085131D01*
X102789662Y-49228718D01*
X102797242Y-49240063D01*
X102899082Y-49485928D01*
X102951000Y-49746937D01*
X102951000Y-50013063D01*
X102899082Y-50274072D01*
X102814426Y-50478452D01*
X102797241Y-50519939D01*
X102725931Y-50626661D01*
X102649391Y-50741211D01*
X102461211Y-50929391D01*
X102395438Y-50973339D01*
X102239939Y-51077241D01*
X102239938Y-51077242D01*
X102239937Y-51077242D01*
X101994072Y-51179082D01*
X101733063Y-51231000D01*
X101466937Y-51231000D01*
X101205928Y-51179082D01*
X100960063Y-51077242D01*
X100960062Y-51077242D01*
X100960061Y-51077241D01*
X100804562Y-50973339D01*
X100738789Y-50929391D01*
X100550609Y-50741211D01*
X100474069Y-50626661D01*
X100402759Y-50519939D01*
X100385575Y-50478452D01*
X100300918Y-50274072D01*
X100249000Y-50013063D01*
X100249000Y-49746937D01*
X100300918Y-49485928D01*
X100402758Y-49240063D01*
X100410339Y-49228718D01*
X100506281Y-49085131D01*
X100550609Y-49018789D01*
X100738789Y-48830609D01*
X100848672Y-48757187D01*
X100960061Y-48682759D01*
X101205928Y-48580918D01*
X101215570Y-48579000D01*
X101466937Y-48529000D01*
X101733063Y-48529000D01*
X101984430Y-48579000D01*
X101984430Y-48579000D01*
G37*
G36*
X119968674Y-49933465D02*
G01*
X120006367Y-49944899D01*
X120041103Y-49963466D01*
X120071548Y-49988452D01*
X120096534Y-50018897D01*
X120115101Y-50053633D01*
X120126535Y-50091326D01*
X120131000Y-50136661D01*
X120131000Y-50973339D01*
X120126535Y-51018674D01*
X120115101Y-51056367D01*
X120096534Y-51091103D01*
X120071548Y-51121548D01*
X120041103Y-51146534D01*
X120006367Y-51165101D01*
X119968674Y-51176535D01*
X119923339Y-51181000D01*
X118836661Y-51181000D01*
X118791326Y-51176535D01*
X118753633Y-51165101D01*
X118718897Y-51146534D01*
X118688452Y-51121548D01*
X118663466Y-51091103D01*
X118644899Y-51056367D01*
X118633465Y-51018674D01*
X118629000Y-50973339D01*
X118629000Y-50136661D01*
X118633465Y-50091326D01*
X118644899Y-50053633D01*
X118663466Y-50018897D01*
X118688452Y-49988452D01*
X118718897Y-49963466D01*
X118753633Y-49944899D01*
X118791326Y-49933465D01*
X118836661Y-49929000D01*
X119923339Y-49929000D01*
X119968674Y-49933465D01*
X119968674Y-49933465D01*
G37*
G36*
X125048674Y-49933465D02*
G01*
X125086367Y-49944899D01*
X125121103Y-49963466D01*
X125151548Y-49988452D01*
X125176534Y-50018897D01*
X125195101Y-50053633D01*
X125206535Y-50091326D01*
X125211000Y-50136661D01*
X125211000Y-50973339D01*
X125206535Y-51018674D01*
X125195101Y-51056367D01*
X125176534Y-51091103D01*
X125151548Y-51121548D01*
X125121103Y-51146534D01*
X125086367Y-51165101D01*
X125048674Y-51176535D01*
X125003339Y-51181000D01*
X123916661Y-51181000D01*
X123871326Y-51176535D01*
X123833633Y-51165101D01*
X123798897Y-51146534D01*
X123768452Y-51121548D01*
X123743466Y-51091103D01*
X123724899Y-51056367D01*
X123713465Y-51018674D01*
X123709000Y-50973339D01*
X123709000Y-50136661D01*
X123713465Y-50091326D01*
X123724899Y-50053633D01*
X123743466Y-50018897D01*
X123768452Y-49988452D01*
X123798897Y-49963466D01*
X123833633Y-49944899D01*
X123871326Y-49933465D01*
X123916661Y-49929000D01*
X125003339Y-49929000D01*
X125048674Y-49933465D01*
X125048674Y-49933465D01*
G37*
G36*
X113981000Y-50481000D02*
G01*
X112079000Y-50481000D01*
X112079000Y-48579000D01*
X113981000Y-48579000D01*
X113981000Y-50481000D01*
X113981000Y-50481000D01*
G37*
G36*
X203153674Y-49153465D02*
G01*
X203191367Y-49164899D01*
X203226103Y-49183466D01*
X203256548Y-49208452D01*
X203281534Y-49238897D01*
X203300101Y-49273633D01*
X203311535Y-49311326D01*
X203316000Y-49356661D01*
X203316000Y-50193339D01*
X203311535Y-50238674D01*
X203300101Y-50276367D01*
X203281534Y-50311103D01*
X203256548Y-50341548D01*
X203226103Y-50366534D01*
X203191367Y-50385101D01*
X203153674Y-50396535D01*
X203108339Y-50401000D01*
X202021661Y-50401000D01*
X201976326Y-50396535D01*
X201938633Y-50385101D01*
X201903897Y-50366534D01*
X201873452Y-50341548D01*
X201848466Y-50311103D01*
X201829899Y-50276367D01*
X201818465Y-50238674D01*
X201814000Y-50193339D01*
X201814000Y-49356661D01*
X201818465Y-49311326D01*
X201829899Y-49273633D01*
X201848466Y-49238897D01*
X201873452Y-49208452D01*
X201903897Y-49183466D01*
X201938633Y-49164899D01*
X201976326Y-49153465D01*
X202021661Y-49149000D01*
X203108339Y-49149000D01*
X203153674Y-49153465D01*
X203153674Y-49153465D01*
G37*
G36*
X208233674Y-49153465D02*
G01*
X208271367Y-49164899D01*
X208306103Y-49183466D01*
X208336548Y-49208452D01*
X208361534Y-49238897D01*
X208380101Y-49273633D01*
X208391535Y-49311326D01*
X208396000Y-49356661D01*
X208396000Y-50193339D01*
X208391535Y-50238674D01*
X208380101Y-50276367D01*
X208361534Y-50311103D01*
X208336548Y-50341548D01*
X208306103Y-50366534D01*
X208271367Y-50385101D01*
X208233674Y-50396535D01*
X208188339Y-50401000D01*
X207101661Y-50401000D01*
X207056326Y-50396535D01*
X207018633Y-50385101D01*
X206983897Y-50366534D01*
X206953452Y-50341548D01*
X206928466Y-50311103D01*
X206909899Y-50276367D01*
X206898465Y-50238674D01*
X206894000Y-50193339D01*
X206894000Y-49356661D01*
X206898465Y-49311326D01*
X206909899Y-49273633D01*
X206928466Y-49238897D01*
X206953452Y-49208452D01*
X206983897Y-49183466D01*
X207018633Y-49164899D01*
X207056326Y-49153465D01*
X207101661Y-49149000D01*
X208188339Y-49149000D01*
X208233674Y-49153465D01*
X208233674Y-49153465D01*
G37*
G36*
X125048674Y-47883465D02*
G01*
X125086367Y-47894899D01*
X125121103Y-47913466D01*
X125151548Y-47938452D01*
X125176534Y-47968897D01*
X125195101Y-48003633D01*
X125206535Y-48041326D01*
X125211000Y-48086661D01*
X125211000Y-48923339D01*
X125206535Y-48968674D01*
X125195101Y-49006367D01*
X125176534Y-49041103D01*
X125151548Y-49071548D01*
X125121103Y-49096534D01*
X125086367Y-49115101D01*
X125048674Y-49126535D01*
X125003339Y-49131000D01*
X123916661Y-49131000D01*
X123871326Y-49126535D01*
X123833633Y-49115101D01*
X123798897Y-49096534D01*
X123768452Y-49071548D01*
X123743466Y-49041103D01*
X123724899Y-49006367D01*
X123713465Y-48968674D01*
X123709000Y-48923339D01*
X123709000Y-48086661D01*
X123713465Y-48041326D01*
X123724899Y-48003633D01*
X123743466Y-47968897D01*
X123768452Y-47938452D01*
X123798897Y-47913466D01*
X123833633Y-47894899D01*
X123871326Y-47883465D01*
X123916661Y-47879000D01*
X125003339Y-47879000D01*
X125048674Y-47883465D01*
X125048674Y-47883465D01*
G37*
G36*
X119968674Y-47883465D02*
G01*
X120006367Y-47894899D01*
X120041103Y-47913466D01*
X120071548Y-47938452D01*
X120096534Y-47968897D01*
X120115101Y-48003633D01*
X120126535Y-48041326D01*
X120131000Y-48086661D01*
X120131000Y-48923339D01*
X120126535Y-48968674D01*
X120115101Y-49006367D01*
X120096534Y-49041103D01*
X120071548Y-49071548D01*
X120041103Y-49096534D01*
X120006367Y-49115101D01*
X119968674Y-49126535D01*
X119923339Y-49131000D01*
X118836661Y-49131000D01*
X118791326Y-49126535D01*
X118753633Y-49115101D01*
X118718897Y-49096534D01*
X118688452Y-49071548D01*
X118663466Y-49041103D01*
X118644899Y-49006367D01*
X118633465Y-48968674D01*
X118629000Y-48923339D01*
X118629000Y-48086661D01*
X118633465Y-48041326D01*
X118644899Y-48003633D01*
X118663466Y-47968897D01*
X118688452Y-47938452D01*
X118718897Y-47913466D01*
X118753633Y-47894899D01*
X118791326Y-47883465D01*
X118836661Y-47879000D01*
X119923339Y-47879000D01*
X119968674Y-47883465D01*
X119968674Y-47883465D01*
G37*
G36*
X152024928Y-46346764D02*
G01*
X152046009Y-46353160D01*
X152065445Y-46363548D01*
X152082476Y-46377524D01*
X152096452Y-46394555D01*
X152106840Y-46413991D01*
X152113236Y-46435072D01*
X152116000Y-46463140D01*
X152116000Y-48376860D01*
X152113236Y-48404928D01*
X152106840Y-48426009D01*
X152096452Y-48445445D01*
X152082476Y-48462476D01*
X152065445Y-48476452D01*
X152046009Y-48486840D01*
X152024928Y-48493236D01*
X151996860Y-48496000D01*
X151533140Y-48496000D01*
X151505072Y-48493236D01*
X151483991Y-48486840D01*
X151464555Y-48476452D01*
X151447524Y-48462476D01*
X151433548Y-48445445D01*
X151423160Y-48426009D01*
X151416764Y-48404928D01*
X151414000Y-48376860D01*
X151414000Y-46463140D01*
X151416764Y-46435072D01*
X151423160Y-46413991D01*
X151433548Y-46394555D01*
X151447524Y-46377524D01*
X151464555Y-46363548D01*
X151483991Y-46353160D01*
X151505072Y-46346764D01*
X151533140Y-46344000D01*
X151996860Y-46344000D01*
X152024928Y-46346764D01*
X152024928Y-46346764D01*
G37*
G36*
X150754928Y-46346764D02*
G01*
X150776009Y-46353160D01*
X150795445Y-46363548D01*
X150812476Y-46377524D01*
X150826452Y-46394555D01*
X150836840Y-46413991D01*
X150843236Y-46435072D01*
X150846000Y-46463140D01*
X150846000Y-48376860D01*
X150843236Y-48404928D01*
X150836840Y-48426009D01*
X150826452Y-48445445D01*
X150812476Y-48462476D01*
X150795445Y-48476452D01*
X150776009Y-48486840D01*
X150754928Y-48493236D01*
X150726860Y-48496000D01*
X150263140Y-48496000D01*
X150235072Y-48493236D01*
X150213991Y-48486840D01*
X150194555Y-48476452D01*
X150177524Y-48462476D01*
X150163548Y-48445445D01*
X150153160Y-48426009D01*
X150146764Y-48404928D01*
X150144000Y-48376860D01*
X150144000Y-46463140D01*
X150146764Y-46435072D01*
X150153160Y-46413991D01*
X150163548Y-46394555D01*
X150177524Y-46377524D01*
X150194555Y-46363548D01*
X150213991Y-46353160D01*
X150235072Y-46346764D01*
X150263140Y-46344000D01*
X150726860Y-46344000D01*
X150754928Y-46346764D01*
X150754928Y-46346764D01*
G37*
G36*
X149484928Y-46346764D02*
G01*
X149506009Y-46353160D01*
X149525445Y-46363548D01*
X149542476Y-46377524D01*
X149556452Y-46394555D01*
X149566840Y-46413991D01*
X149573236Y-46435072D01*
X149576000Y-46463140D01*
X149576000Y-48376860D01*
X149573236Y-48404928D01*
X149566840Y-48426009D01*
X149556452Y-48445445D01*
X149542476Y-48462476D01*
X149525445Y-48476452D01*
X149506009Y-48486840D01*
X149484928Y-48493236D01*
X149456860Y-48496000D01*
X148993140Y-48496000D01*
X148965072Y-48493236D01*
X148943991Y-48486840D01*
X148924555Y-48476452D01*
X148907524Y-48462476D01*
X148893548Y-48445445D01*
X148883160Y-48426009D01*
X148876764Y-48404928D01*
X148874000Y-48376860D01*
X148874000Y-46463140D01*
X148876764Y-46435072D01*
X148883160Y-46413991D01*
X148893548Y-46394555D01*
X148907524Y-46377524D01*
X148924555Y-46363548D01*
X148943991Y-46353160D01*
X148965072Y-46346764D01*
X148993140Y-46344000D01*
X149456860Y-46344000D01*
X149484928Y-46346764D01*
X149484928Y-46346764D01*
G37*
G36*
X148214928Y-46346764D02*
G01*
X148236009Y-46353160D01*
X148255445Y-46363548D01*
X148272476Y-46377524D01*
X148286452Y-46394555D01*
X148296840Y-46413991D01*
X148303236Y-46435072D01*
X148306000Y-46463140D01*
X148306000Y-48376860D01*
X148303236Y-48404928D01*
X148296840Y-48426009D01*
X148286452Y-48445445D01*
X148272476Y-48462476D01*
X148255445Y-48476452D01*
X148236009Y-48486840D01*
X148214928Y-48493236D01*
X148186860Y-48496000D01*
X147723140Y-48496000D01*
X147695072Y-48493236D01*
X147673991Y-48486840D01*
X147654555Y-48476452D01*
X147637524Y-48462476D01*
X147623548Y-48445445D01*
X147613160Y-48426009D01*
X147606764Y-48404928D01*
X147604000Y-48376860D01*
X147604000Y-46463140D01*
X147606764Y-46435072D01*
X147613160Y-46413991D01*
X147623548Y-46394555D01*
X147637524Y-46377524D01*
X147654555Y-46363548D01*
X147673991Y-46353160D01*
X147695072Y-46346764D01*
X147723140Y-46344000D01*
X148186860Y-46344000D01*
X148214928Y-46346764D01*
X148214928Y-46346764D01*
G37*
G36*
X146944928Y-46346764D02*
G01*
X146966009Y-46353160D01*
X146985445Y-46363548D01*
X147002476Y-46377524D01*
X147016452Y-46394555D01*
X147026840Y-46413991D01*
X147033236Y-46435072D01*
X147036000Y-46463140D01*
X147036000Y-48376860D01*
X147033236Y-48404928D01*
X147026840Y-48426009D01*
X147016452Y-48445445D01*
X147002476Y-48462476D01*
X146985445Y-48476452D01*
X146966009Y-48486840D01*
X146944928Y-48493236D01*
X146916860Y-48496000D01*
X146453140Y-48496000D01*
X146425072Y-48493236D01*
X146403991Y-48486840D01*
X146384555Y-48476452D01*
X146367524Y-48462476D01*
X146353548Y-48445445D01*
X146343160Y-48426009D01*
X146336764Y-48404928D01*
X146334000Y-48376860D01*
X146334000Y-46463140D01*
X146336764Y-46435072D01*
X146343160Y-46413991D01*
X146353548Y-46394555D01*
X146367524Y-46377524D01*
X146384555Y-46363548D01*
X146403991Y-46353160D01*
X146425072Y-46346764D01*
X146453140Y-46344000D01*
X146916860Y-46344000D01*
X146944928Y-46346764D01*
X146944928Y-46346764D01*
G37*
G36*
X145674928Y-46346764D02*
G01*
X145696009Y-46353160D01*
X145715445Y-46363548D01*
X145732476Y-46377524D01*
X145746452Y-46394555D01*
X145756840Y-46413991D01*
X145763236Y-46435072D01*
X145766000Y-46463140D01*
X145766000Y-48376860D01*
X145763236Y-48404928D01*
X145756840Y-48426009D01*
X145746452Y-48445445D01*
X145732476Y-48462476D01*
X145715445Y-48476452D01*
X145696009Y-48486840D01*
X145674928Y-48493236D01*
X145646860Y-48496000D01*
X145183140Y-48496000D01*
X145155072Y-48493236D01*
X145133991Y-48486840D01*
X145114555Y-48476452D01*
X145097524Y-48462476D01*
X145083548Y-48445445D01*
X145073160Y-48426009D01*
X145066764Y-48404928D01*
X145064000Y-48376860D01*
X145064000Y-46463140D01*
X145066764Y-46435072D01*
X145073160Y-46413991D01*
X145083548Y-46394555D01*
X145097524Y-46377524D01*
X145114555Y-46363548D01*
X145133991Y-46353160D01*
X145155072Y-46346764D01*
X145183140Y-46344000D01*
X145646860Y-46344000D01*
X145674928Y-46346764D01*
X145674928Y-46346764D01*
G37*
G36*
X144404928Y-46346764D02*
G01*
X144426009Y-46353160D01*
X144445445Y-46363548D01*
X144462476Y-46377524D01*
X144476452Y-46394555D01*
X144486840Y-46413991D01*
X144493236Y-46435072D01*
X144496000Y-46463140D01*
X144496000Y-48376860D01*
X144493236Y-48404928D01*
X144486840Y-48426009D01*
X144476452Y-48445445D01*
X144462476Y-48462476D01*
X144445445Y-48476452D01*
X144426009Y-48486840D01*
X144404928Y-48493236D01*
X144376860Y-48496000D01*
X143913140Y-48496000D01*
X143885072Y-48493236D01*
X143863991Y-48486840D01*
X143844555Y-48476452D01*
X143827524Y-48462476D01*
X143813548Y-48445445D01*
X143803160Y-48426009D01*
X143796764Y-48404928D01*
X143794000Y-48376860D01*
X143794000Y-46463140D01*
X143796764Y-46435072D01*
X143803160Y-46413991D01*
X143813548Y-46394555D01*
X143827524Y-46377524D01*
X143844555Y-46363548D01*
X143863991Y-46353160D01*
X143885072Y-46346764D01*
X143913140Y-46344000D01*
X144376860Y-46344000D01*
X144404928Y-46346764D01*
X144404928Y-46346764D01*
G37*
G36*
X153294928Y-46346764D02*
G01*
X153316009Y-46353160D01*
X153335445Y-46363548D01*
X153352476Y-46377524D01*
X153366452Y-46394555D01*
X153376840Y-46413991D01*
X153383236Y-46435072D01*
X153386000Y-46463140D01*
X153386000Y-48376860D01*
X153383236Y-48404928D01*
X153376840Y-48426009D01*
X153366452Y-48445445D01*
X153352476Y-48462476D01*
X153335445Y-48476452D01*
X153316009Y-48486840D01*
X153294928Y-48493236D01*
X153266860Y-48496000D01*
X152803140Y-48496000D01*
X152775072Y-48493236D01*
X152753991Y-48486840D01*
X152734555Y-48476452D01*
X152717524Y-48462476D01*
X152703548Y-48445445D01*
X152693160Y-48426009D01*
X152686764Y-48404928D01*
X152684000Y-48376860D01*
X152684000Y-46463140D01*
X152686764Y-46435072D01*
X152693160Y-46413991D01*
X152703548Y-46394555D01*
X152717524Y-46377524D01*
X152734555Y-46363548D01*
X152753991Y-46353160D01*
X152775072Y-46346764D01*
X152803140Y-46344000D01*
X153266860Y-46344000D01*
X153294928Y-46346764D01*
X153294928Y-46346764D01*
G37*
G36*
X141864928Y-46346764D02*
G01*
X141886009Y-46353160D01*
X141905445Y-46363548D01*
X141922476Y-46377524D01*
X141936452Y-46394555D01*
X141946840Y-46413991D01*
X141953236Y-46435072D01*
X141956000Y-46463140D01*
X141956000Y-48376860D01*
X141953236Y-48404928D01*
X141946840Y-48426009D01*
X141936452Y-48445445D01*
X141922476Y-48462476D01*
X141905445Y-48476452D01*
X141886009Y-48486840D01*
X141864928Y-48493236D01*
X141836860Y-48496000D01*
X141373140Y-48496000D01*
X141345072Y-48493236D01*
X141323991Y-48486840D01*
X141304555Y-48476452D01*
X141287524Y-48462476D01*
X141273548Y-48445445D01*
X141263160Y-48426009D01*
X141256764Y-48404928D01*
X141254000Y-48376860D01*
X141254000Y-46463140D01*
X141256764Y-46435072D01*
X141263160Y-46413991D01*
X141273548Y-46394555D01*
X141287524Y-46377524D01*
X141304555Y-46363548D01*
X141323991Y-46353160D01*
X141345072Y-46346764D01*
X141373140Y-46344000D01*
X141836860Y-46344000D01*
X141864928Y-46346764D01*
X141864928Y-46346764D01*
G37*
G36*
X140594928Y-46346764D02*
G01*
X140616009Y-46353160D01*
X140635445Y-46363548D01*
X140652476Y-46377524D01*
X140666452Y-46394555D01*
X140676840Y-46413991D01*
X140683236Y-46435072D01*
X140686000Y-46463140D01*
X140686000Y-48376860D01*
X140683236Y-48404928D01*
X140676840Y-48426009D01*
X140666452Y-48445445D01*
X140652476Y-48462476D01*
X140635445Y-48476452D01*
X140616009Y-48486840D01*
X140594928Y-48493236D01*
X140566860Y-48496000D01*
X140103140Y-48496000D01*
X140075072Y-48493236D01*
X140053991Y-48486840D01*
X140034555Y-48476452D01*
X140017524Y-48462476D01*
X140003548Y-48445445D01*
X139993160Y-48426009D01*
X139986764Y-48404928D01*
X139984000Y-48376860D01*
X139984000Y-46463140D01*
X139986764Y-46435072D01*
X139993160Y-46413991D01*
X140003548Y-46394555D01*
X140017524Y-46377524D01*
X140034555Y-46363548D01*
X140053991Y-46353160D01*
X140075072Y-46346764D01*
X140103140Y-46344000D01*
X140566860Y-46344000D01*
X140594928Y-46346764D01*
X140594928Y-46346764D01*
G37*
G36*
X154564928Y-46346764D02*
G01*
X154586009Y-46353160D01*
X154605445Y-46363548D01*
X154622476Y-46377524D01*
X154636452Y-46394555D01*
X154646840Y-46413991D01*
X154653236Y-46435072D01*
X154656000Y-46463140D01*
X154656000Y-48376860D01*
X154653236Y-48404928D01*
X154646840Y-48426009D01*
X154636452Y-48445445D01*
X154622476Y-48462476D01*
X154605445Y-48476452D01*
X154586009Y-48486840D01*
X154564928Y-48493236D01*
X154536860Y-48496000D01*
X154073140Y-48496000D01*
X154045072Y-48493236D01*
X154023991Y-48486840D01*
X154004555Y-48476452D01*
X153987524Y-48462476D01*
X153973548Y-48445445D01*
X153963160Y-48426009D01*
X153956764Y-48404928D01*
X153954000Y-48376860D01*
X153954000Y-46463140D01*
X153956764Y-46435072D01*
X153963160Y-46413991D01*
X153973548Y-46394555D01*
X153987524Y-46377524D01*
X154004555Y-46363548D01*
X154023991Y-46353160D01*
X154045072Y-46346764D01*
X154073140Y-46344000D01*
X154536860Y-46344000D01*
X154564928Y-46346764D01*
X154564928Y-46346764D01*
G37*
G36*
X143134928Y-46346764D02*
G01*
X143156009Y-46353160D01*
X143175445Y-46363548D01*
X143192476Y-46377524D01*
X143206452Y-46394555D01*
X143216840Y-46413991D01*
X143223236Y-46435072D01*
X143226000Y-46463140D01*
X143226000Y-48376860D01*
X143223236Y-48404928D01*
X143216840Y-48426009D01*
X143206452Y-48445445D01*
X143192476Y-48462476D01*
X143175445Y-48476452D01*
X143156009Y-48486840D01*
X143134928Y-48493236D01*
X143106860Y-48496000D01*
X142643140Y-48496000D01*
X142615072Y-48493236D01*
X142593991Y-48486840D01*
X142574555Y-48476452D01*
X142557524Y-48462476D01*
X142543548Y-48445445D01*
X142533160Y-48426009D01*
X142526764Y-48404928D01*
X142524000Y-48376860D01*
X142524000Y-46463140D01*
X142526764Y-46435072D01*
X142533160Y-46413991D01*
X142543548Y-46394555D01*
X142557524Y-46377524D01*
X142574555Y-46363548D01*
X142593991Y-46353160D01*
X142615072Y-46346764D01*
X142643140Y-46344000D01*
X143106860Y-46344000D01*
X143134928Y-46346764D01*
X143134928Y-46346764D01*
G37*
G36*
X132385000Y-47180700D02*
G01*
X129235000Y-47180700D01*
X129235000Y-45478500D01*
X132385000Y-45478500D01*
X132385000Y-47180700D01*
X132385000Y-47180700D01*
G37*
G36*
X216010443Y-44017519D02*
G01*
X216076627Y-44024037D01*
X216246466Y-44075557D01*
X216402991Y-44159222D01*
X216438729Y-44188552D01*
X216540186Y-44271814D01*
X216623448Y-44373271D01*
X216652778Y-44409009D01*
X216736443Y-44565534D01*
X216787963Y-44735373D01*
X216805359Y-44912000D01*
X216787963Y-45088627D01*
X216736443Y-45258466D01*
X216652778Y-45414991D01*
X216623448Y-45450729D01*
X216540186Y-45552186D01*
X216438729Y-45635448D01*
X216402991Y-45664778D01*
X216246466Y-45748443D01*
X216076627Y-45799963D01*
X216010443Y-45806481D01*
X215944260Y-45813000D01*
X215855740Y-45813000D01*
X215789557Y-45806481D01*
X215723373Y-45799963D01*
X215553534Y-45748443D01*
X215397009Y-45664778D01*
X215361271Y-45635448D01*
X215259814Y-45552186D01*
X215176552Y-45450729D01*
X215147222Y-45414991D01*
X215063557Y-45258466D01*
X215012037Y-45088627D01*
X214994641Y-44912000D01*
X215012037Y-44735373D01*
X215063557Y-44565534D01*
X215147222Y-44409009D01*
X215176552Y-44373271D01*
X215259814Y-44271814D01*
X215361271Y-44188552D01*
X215397009Y-44159222D01*
X215553534Y-44075557D01*
X215723373Y-44024037D01*
X215789557Y-44017519D01*
X215855740Y-44011000D01*
X215944260Y-44011000D01*
X216010443Y-44017519D01*
X216010443Y-44017519D01*
G37*
G36*
X213470443Y-44017519D02*
G01*
X213536627Y-44024037D01*
X213706466Y-44075557D01*
X213862991Y-44159222D01*
X213898729Y-44188552D01*
X214000186Y-44271814D01*
X214083448Y-44373271D01*
X214112778Y-44409009D01*
X214196443Y-44565534D01*
X214247963Y-44735373D01*
X214265359Y-44912000D01*
X214247963Y-45088627D01*
X214196443Y-45258466D01*
X214112778Y-45414991D01*
X214083448Y-45450729D01*
X214000186Y-45552186D01*
X213898729Y-45635448D01*
X213862991Y-45664778D01*
X213706466Y-45748443D01*
X213536627Y-45799963D01*
X213470443Y-45806481D01*
X213404260Y-45813000D01*
X213315740Y-45813000D01*
X213249557Y-45806481D01*
X213183373Y-45799963D01*
X213013534Y-45748443D01*
X212857009Y-45664778D01*
X212821271Y-45635448D01*
X212719814Y-45552186D01*
X212636552Y-45450729D01*
X212607222Y-45414991D01*
X212523557Y-45258466D01*
X212472037Y-45088627D01*
X212454641Y-44912000D01*
X212472037Y-44735373D01*
X212523557Y-44565534D01*
X212607222Y-44409009D01*
X212636552Y-44373271D01*
X212719814Y-44271814D01*
X212821271Y-44188552D01*
X212857009Y-44159222D01*
X213013534Y-44075557D01*
X213183373Y-44024037D01*
X213249557Y-44017519D01*
X213315740Y-44011000D01*
X213404260Y-44011000D01*
X213470443Y-44017519D01*
X213470443Y-44017519D01*
G37*
G36*
X210930443Y-44017519D02*
G01*
X210996627Y-44024037D01*
X211166466Y-44075557D01*
X211322991Y-44159222D01*
X211358729Y-44188552D01*
X211460186Y-44271814D01*
X211543448Y-44373271D01*
X211572778Y-44409009D01*
X211656443Y-44565534D01*
X211707963Y-44735373D01*
X211725359Y-44912000D01*
X211707963Y-45088627D01*
X211656443Y-45258466D01*
X211572778Y-45414991D01*
X211543448Y-45450729D01*
X211460186Y-45552186D01*
X211358729Y-45635448D01*
X211322991Y-45664778D01*
X211166466Y-45748443D01*
X210996627Y-45799963D01*
X210930443Y-45806481D01*
X210864260Y-45813000D01*
X210775740Y-45813000D01*
X210709557Y-45806481D01*
X210643373Y-45799963D01*
X210473534Y-45748443D01*
X210317009Y-45664778D01*
X210281271Y-45635448D01*
X210179814Y-45552186D01*
X210096552Y-45450729D01*
X210067222Y-45414991D01*
X209983557Y-45258466D01*
X209932037Y-45088627D01*
X209914641Y-44912000D01*
X209932037Y-44735373D01*
X209983557Y-44565534D01*
X210067222Y-44409009D01*
X210096552Y-44373271D01*
X210179814Y-44271814D01*
X210281271Y-44188552D01*
X210317009Y-44159222D01*
X210473534Y-44075557D01*
X210643373Y-44024037D01*
X210709557Y-44017519D01*
X210775740Y-44011000D01*
X210864260Y-44011000D01*
X210930443Y-44017519D01*
X210930443Y-44017519D01*
G37*
G36*
X208390443Y-44017519D02*
G01*
X208456627Y-44024037D01*
X208626466Y-44075557D01*
X208782991Y-44159222D01*
X208818729Y-44188552D01*
X208920186Y-44271814D01*
X209003448Y-44373271D01*
X209032778Y-44409009D01*
X209116443Y-44565534D01*
X209167963Y-44735373D01*
X209185359Y-44912000D01*
X209167963Y-45088627D01*
X209116443Y-45258466D01*
X209032778Y-45414991D01*
X209003448Y-45450729D01*
X208920186Y-45552186D01*
X208818729Y-45635448D01*
X208782991Y-45664778D01*
X208626466Y-45748443D01*
X208456627Y-45799963D01*
X208390443Y-45806481D01*
X208324260Y-45813000D01*
X208235740Y-45813000D01*
X208169557Y-45806481D01*
X208103373Y-45799963D01*
X207933534Y-45748443D01*
X207777009Y-45664778D01*
X207741271Y-45635448D01*
X207639814Y-45552186D01*
X207556552Y-45450729D01*
X207527222Y-45414991D01*
X207443557Y-45258466D01*
X207392037Y-45088627D01*
X207374641Y-44912000D01*
X207392037Y-44735373D01*
X207443557Y-44565534D01*
X207527222Y-44409009D01*
X207556552Y-44373271D01*
X207639814Y-44271814D01*
X207741271Y-44188552D01*
X207777009Y-44159222D01*
X207933534Y-44075557D01*
X208103373Y-44024037D01*
X208169557Y-44017519D01*
X208235740Y-44011000D01*
X208324260Y-44011000D01*
X208390443Y-44017519D01*
X208390443Y-44017519D01*
G37*
G36*
X205850443Y-44017519D02*
G01*
X205916627Y-44024037D01*
X206086466Y-44075557D01*
X206242991Y-44159222D01*
X206278729Y-44188552D01*
X206380186Y-44271814D01*
X206463448Y-44373271D01*
X206492778Y-44409009D01*
X206576443Y-44565534D01*
X206627963Y-44735373D01*
X206645359Y-44912000D01*
X206627963Y-45088627D01*
X206576443Y-45258466D01*
X206492778Y-45414991D01*
X206463448Y-45450729D01*
X206380186Y-45552186D01*
X206278729Y-45635448D01*
X206242991Y-45664778D01*
X206086466Y-45748443D01*
X205916627Y-45799963D01*
X205850443Y-45806481D01*
X205784260Y-45813000D01*
X205695740Y-45813000D01*
X205629557Y-45806481D01*
X205563373Y-45799963D01*
X205393534Y-45748443D01*
X205237009Y-45664778D01*
X205201271Y-45635448D01*
X205099814Y-45552186D01*
X205016552Y-45450729D01*
X204987222Y-45414991D01*
X204903557Y-45258466D01*
X204852037Y-45088627D01*
X204834641Y-44912000D01*
X204852037Y-44735373D01*
X204903557Y-44565534D01*
X204987222Y-44409009D01*
X205016552Y-44373271D01*
X205099814Y-44271814D01*
X205201271Y-44188552D01*
X205237009Y-44159222D01*
X205393534Y-44075557D01*
X205563373Y-44024037D01*
X205629557Y-44017519D01*
X205695740Y-44011000D01*
X205784260Y-44011000D01*
X205850443Y-44017519D01*
X205850443Y-44017519D01*
G37*
G36*
X203310443Y-44017519D02*
G01*
X203376627Y-44024037D01*
X203546466Y-44075557D01*
X203702991Y-44159222D01*
X203738729Y-44188552D01*
X203840186Y-44271814D01*
X203923448Y-44373271D01*
X203952778Y-44409009D01*
X204036443Y-44565534D01*
X204087963Y-44735373D01*
X204105359Y-44912000D01*
X204087963Y-45088627D01*
X204036443Y-45258466D01*
X203952778Y-45414991D01*
X203923448Y-45450729D01*
X203840186Y-45552186D01*
X203738729Y-45635448D01*
X203702991Y-45664778D01*
X203546466Y-45748443D01*
X203376627Y-45799963D01*
X203310443Y-45806481D01*
X203244260Y-45813000D01*
X203155740Y-45813000D01*
X203089557Y-45806481D01*
X203023373Y-45799963D01*
X202853534Y-45748443D01*
X202697009Y-45664778D01*
X202661271Y-45635448D01*
X202559814Y-45552186D01*
X202476552Y-45450729D01*
X202447222Y-45414991D01*
X202363557Y-45258466D01*
X202312037Y-45088627D01*
X202294641Y-44912000D01*
X202312037Y-44735373D01*
X202363557Y-44565534D01*
X202447222Y-44409009D01*
X202476552Y-44373271D01*
X202559814Y-44271814D01*
X202661271Y-44188552D01*
X202697009Y-44159222D01*
X202853534Y-44075557D01*
X203023373Y-44024037D01*
X203089557Y-44017519D01*
X203155740Y-44011000D01*
X203244260Y-44011000D01*
X203310443Y-44017519D01*
X203310443Y-44017519D01*
G37*
G36*
X200770443Y-44017519D02*
G01*
X200836627Y-44024037D01*
X201006466Y-44075557D01*
X201162991Y-44159222D01*
X201198729Y-44188552D01*
X201300186Y-44271814D01*
X201383448Y-44373271D01*
X201412778Y-44409009D01*
X201496443Y-44565534D01*
X201547963Y-44735373D01*
X201565359Y-44912000D01*
X201547963Y-45088627D01*
X201496443Y-45258466D01*
X201412778Y-45414991D01*
X201383448Y-45450729D01*
X201300186Y-45552186D01*
X201198729Y-45635448D01*
X201162991Y-45664778D01*
X201006466Y-45748443D01*
X200836627Y-45799963D01*
X200770443Y-45806481D01*
X200704260Y-45813000D01*
X200615740Y-45813000D01*
X200549557Y-45806481D01*
X200483373Y-45799963D01*
X200313534Y-45748443D01*
X200157009Y-45664778D01*
X200121271Y-45635448D01*
X200019814Y-45552186D01*
X199936552Y-45450729D01*
X199907222Y-45414991D01*
X199823557Y-45258466D01*
X199772037Y-45088627D01*
X199754641Y-44912000D01*
X199772037Y-44735373D01*
X199823557Y-44565534D01*
X199907222Y-44409009D01*
X199936552Y-44373271D01*
X200019814Y-44271814D01*
X200121271Y-44188552D01*
X200157009Y-44159222D01*
X200313534Y-44075557D01*
X200483373Y-44024037D01*
X200549557Y-44017519D01*
X200615740Y-44011000D01*
X200704260Y-44011000D01*
X200770443Y-44017519D01*
X200770443Y-44017519D01*
G37*
G36*
X198230443Y-44017519D02*
G01*
X198296627Y-44024037D01*
X198466466Y-44075557D01*
X198622991Y-44159222D01*
X198658729Y-44188552D01*
X198760186Y-44271814D01*
X198843448Y-44373271D01*
X198872778Y-44409009D01*
X198956443Y-44565534D01*
X199007963Y-44735373D01*
X199025359Y-44912000D01*
X199007963Y-45088627D01*
X198956443Y-45258466D01*
X198872778Y-45414991D01*
X198843448Y-45450729D01*
X198760186Y-45552186D01*
X198658729Y-45635448D01*
X198622991Y-45664778D01*
X198466466Y-45748443D01*
X198296627Y-45799963D01*
X198230443Y-45806481D01*
X198164260Y-45813000D01*
X198075740Y-45813000D01*
X198009557Y-45806481D01*
X197943373Y-45799963D01*
X197773534Y-45748443D01*
X197617009Y-45664778D01*
X197581271Y-45635448D01*
X197479814Y-45552186D01*
X197396552Y-45450729D01*
X197367222Y-45414991D01*
X197283557Y-45258466D01*
X197232037Y-45088627D01*
X197214641Y-44912000D01*
X197232037Y-44735373D01*
X197283557Y-44565534D01*
X197367222Y-44409009D01*
X197396552Y-44373271D01*
X197479814Y-44271814D01*
X197581271Y-44188552D01*
X197617009Y-44159222D01*
X197773534Y-44075557D01*
X197943373Y-44024037D01*
X198009557Y-44017519D01*
X198075740Y-44011000D01*
X198164260Y-44011000D01*
X198230443Y-44017519D01*
X198230443Y-44017519D01*
G37*
G36*
X221881000Y-45813000D02*
G01*
X220079000Y-45813000D01*
X220079000Y-44011000D01*
X221881000Y-44011000D01*
X221881000Y-45813000D01*
X221881000Y-45813000D01*
G37*
G36*
X193150443Y-44017519D02*
G01*
X193216627Y-44024037D01*
X193386466Y-44075557D01*
X193542991Y-44159222D01*
X193578729Y-44188552D01*
X193680186Y-44271814D01*
X193763448Y-44373271D01*
X193792778Y-44409009D01*
X193876443Y-44565534D01*
X193927963Y-44735373D01*
X193945359Y-44912000D01*
X193927963Y-45088627D01*
X193876443Y-45258466D01*
X193792778Y-45414991D01*
X193763448Y-45450729D01*
X193680186Y-45552186D01*
X193578729Y-45635448D01*
X193542991Y-45664778D01*
X193386466Y-45748443D01*
X193216627Y-45799963D01*
X193150443Y-45806481D01*
X193084260Y-45813000D01*
X192995740Y-45813000D01*
X192929557Y-45806481D01*
X192863373Y-45799963D01*
X192693534Y-45748443D01*
X192537009Y-45664778D01*
X192501271Y-45635448D01*
X192399814Y-45552186D01*
X192316552Y-45450729D01*
X192287222Y-45414991D01*
X192203557Y-45258466D01*
X192152037Y-45088627D01*
X192134641Y-44912000D01*
X192152037Y-44735373D01*
X192203557Y-44565534D01*
X192287222Y-44409009D01*
X192316552Y-44373271D01*
X192399814Y-44271814D01*
X192501271Y-44188552D01*
X192537009Y-44159222D01*
X192693534Y-44075557D01*
X192863373Y-44024037D01*
X192929557Y-44017519D01*
X192995740Y-44011000D01*
X193084260Y-44011000D01*
X193150443Y-44017519D01*
X193150443Y-44017519D01*
G37*
G36*
X190610443Y-44017519D02*
G01*
X190676627Y-44024037D01*
X190846466Y-44075557D01*
X191002991Y-44159222D01*
X191038729Y-44188552D01*
X191140186Y-44271814D01*
X191223448Y-44373271D01*
X191252778Y-44409009D01*
X191336443Y-44565534D01*
X191387963Y-44735373D01*
X191405359Y-44912000D01*
X191387963Y-45088627D01*
X191336443Y-45258466D01*
X191252778Y-45414991D01*
X191223448Y-45450729D01*
X191140186Y-45552186D01*
X191038729Y-45635448D01*
X191002991Y-45664778D01*
X190846466Y-45748443D01*
X190676627Y-45799963D01*
X190610443Y-45806481D01*
X190544260Y-45813000D01*
X190455740Y-45813000D01*
X190389557Y-45806481D01*
X190323373Y-45799963D01*
X190153534Y-45748443D01*
X189997009Y-45664778D01*
X189961271Y-45635448D01*
X189859814Y-45552186D01*
X189776552Y-45450729D01*
X189747222Y-45414991D01*
X189663557Y-45258466D01*
X189612037Y-45088627D01*
X189594641Y-44912000D01*
X189612037Y-44735373D01*
X189663557Y-44565534D01*
X189747222Y-44409009D01*
X189776552Y-44373271D01*
X189859814Y-44271814D01*
X189961271Y-44188552D01*
X189997009Y-44159222D01*
X190153534Y-44075557D01*
X190323373Y-44024037D01*
X190389557Y-44017519D01*
X190455740Y-44011000D01*
X190544260Y-44011000D01*
X190610443Y-44017519D01*
X190610443Y-44017519D01*
G37*
G36*
X188070443Y-44017519D02*
G01*
X188136627Y-44024037D01*
X188306466Y-44075557D01*
X188462991Y-44159222D01*
X188498729Y-44188552D01*
X188600186Y-44271814D01*
X188683448Y-44373271D01*
X188712778Y-44409009D01*
X188796443Y-44565534D01*
X188847963Y-44735373D01*
X188865359Y-44912000D01*
X188847963Y-45088627D01*
X188796443Y-45258466D01*
X188712778Y-45414991D01*
X188683448Y-45450729D01*
X188600186Y-45552186D01*
X188498729Y-45635448D01*
X188462991Y-45664778D01*
X188306466Y-45748443D01*
X188136627Y-45799963D01*
X188070443Y-45806481D01*
X188004260Y-45813000D01*
X187915740Y-45813000D01*
X187849557Y-45806481D01*
X187783373Y-45799963D01*
X187613534Y-45748443D01*
X187457009Y-45664778D01*
X187421271Y-45635448D01*
X187319814Y-45552186D01*
X187236552Y-45450729D01*
X187207222Y-45414991D01*
X187123557Y-45258466D01*
X187072037Y-45088627D01*
X187054641Y-44912000D01*
X187072037Y-44735373D01*
X187123557Y-44565534D01*
X187207222Y-44409009D01*
X187236552Y-44373271D01*
X187319814Y-44271814D01*
X187421271Y-44188552D01*
X187457009Y-44159222D01*
X187613534Y-44075557D01*
X187783373Y-44024037D01*
X187849557Y-44017519D01*
X187915740Y-44011000D01*
X188004260Y-44011000D01*
X188070443Y-44017519D01*
X188070443Y-44017519D01*
G37*
G36*
X185530443Y-44017519D02*
G01*
X185596627Y-44024037D01*
X185766466Y-44075557D01*
X185922991Y-44159222D01*
X185958729Y-44188552D01*
X186060186Y-44271814D01*
X186143448Y-44373271D01*
X186172778Y-44409009D01*
X186256443Y-44565534D01*
X186307963Y-44735373D01*
X186325359Y-44912000D01*
X186307963Y-45088627D01*
X186256443Y-45258466D01*
X186172778Y-45414991D01*
X186143448Y-45450729D01*
X186060186Y-45552186D01*
X185958729Y-45635448D01*
X185922991Y-45664778D01*
X185766466Y-45748443D01*
X185596627Y-45799963D01*
X185530443Y-45806481D01*
X185464260Y-45813000D01*
X185375740Y-45813000D01*
X185309557Y-45806481D01*
X185243373Y-45799963D01*
X185073534Y-45748443D01*
X184917009Y-45664778D01*
X184881271Y-45635448D01*
X184779814Y-45552186D01*
X184696552Y-45450729D01*
X184667222Y-45414991D01*
X184583557Y-45258466D01*
X184532037Y-45088627D01*
X184514641Y-44912000D01*
X184532037Y-44735373D01*
X184583557Y-44565534D01*
X184667222Y-44409009D01*
X184696552Y-44373271D01*
X184779814Y-44271814D01*
X184881271Y-44188552D01*
X184917009Y-44159222D01*
X185073534Y-44075557D01*
X185243373Y-44024037D01*
X185309557Y-44017519D01*
X185375740Y-44011000D01*
X185464260Y-44011000D01*
X185530443Y-44017519D01*
X185530443Y-44017519D01*
G37*
G36*
X182990443Y-44017519D02*
G01*
X183056627Y-44024037D01*
X183226466Y-44075557D01*
X183382991Y-44159222D01*
X183418729Y-44188552D01*
X183520186Y-44271814D01*
X183603448Y-44373271D01*
X183632778Y-44409009D01*
X183716443Y-44565534D01*
X183767963Y-44735373D01*
X183785359Y-44912000D01*
X183767963Y-45088627D01*
X183716443Y-45258466D01*
X183632778Y-45414991D01*
X183603448Y-45450729D01*
X183520186Y-45552186D01*
X183418729Y-45635448D01*
X183382991Y-45664778D01*
X183226466Y-45748443D01*
X183056627Y-45799963D01*
X182990443Y-45806481D01*
X182924260Y-45813000D01*
X182835740Y-45813000D01*
X182769557Y-45806481D01*
X182703373Y-45799963D01*
X182533534Y-45748443D01*
X182377009Y-45664778D01*
X182341271Y-45635448D01*
X182239814Y-45552186D01*
X182156552Y-45450729D01*
X182127222Y-45414991D01*
X182043557Y-45258466D01*
X181992037Y-45088627D01*
X181974641Y-44912000D01*
X181992037Y-44735373D01*
X182043557Y-44565534D01*
X182127222Y-44409009D01*
X182156552Y-44373271D01*
X182239814Y-44271814D01*
X182341271Y-44188552D01*
X182377009Y-44159222D01*
X182533534Y-44075557D01*
X182703373Y-44024037D01*
X182769557Y-44017519D01*
X182835740Y-44011000D01*
X182924260Y-44011000D01*
X182990443Y-44017519D01*
X182990443Y-44017519D01*
G37*
G36*
X180450443Y-44017519D02*
G01*
X180516627Y-44024037D01*
X180686466Y-44075557D01*
X180842991Y-44159222D01*
X180878729Y-44188552D01*
X180980186Y-44271814D01*
X181063448Y-44373271D01*
X181092778Y-44409009D01*
X181176443Y-44565534D01*
X181227963Y-44735373D01*
X181245359Y-44912000D01*
X181227963Y-45088627D01*
X181176443Y-45258466D01*
X181092778Y-45414991D01*
X181063448Y-45450729D01*
X180980186Y-45552186D01*
X180878729Y-45635448D01*
X180842991Y-45664778D01*
X180686466Y-45748443D01*
X180516627Y-45799963D01*
X180450443Y-45806481D01*
X180384260Y-45813000D01*
X180295740Y-45813000D01*
X180229557Y-45806481D01*
X180163373Y-45799963D01*
X179993534Y-45748443D01*
X179837009Y-45664778D01*
X179801271Y-45635448D01*
X179699814Y-45552186D01*
X179616552Y-45450729D01*
X179587222Y-45414991D01*
X179503557Y-45258466D01*
X179452037Y-45088627D01*
X179434641Y-44912000D01*
X179452037Y-44735373D01*
X179503557Y-44565534D01*
X179587222Y-44409009D01*
X179616552Y-44373271D01*
X179699814Y-44271814D01*
X179801271Y-44188552D01*
X179837009Y-44159222D01*
X179993534Y-44075557D01*
X180163373Y-44024037D01*
X180229557Y-44017519D01*
X180295740Y-44011000D01*
X180384260Y-44011000D01*
X180450443Y-44017519D01*
X180450443Y-44017519D01*
G37*
G36*
X177910443Y-44017519D02*
G01*
X177976627Y-44024037D01*
X178146466Y-44075557D01*
X178302991Y-44159222D01*
X178338729Y-44188552D01*
X178440186Y-44271814D01*
X178523448Y-44373271D01*
X178552778Y-44409009D01*
X178636443Y-44565534D01*
X178687963Y-44735373D01*
X178705359Y-44912000D01*
X178687963Y-45088627D01*
X178636443Y-45258466D01*
X178552778Y-45414991D01*
X178523448Y-45450729D01*
X178440186Y-45552186D01*
X178338729Y-45635448D01*
X178302991Y-45664778D01*
X178146466Y-45748443D01*
X177976627Y-45799963D01*
X177910443Y-45806481D01*
X177844260Y-45813000D01*
X177755740Y-45813000D01*
X177689557Y-45806481D01*
X177623373Y-45799963D01*
X177453534Y-45748443D01*
X177297009Y-45664778D01*
X177261271Y-45635448D01*
X177159814Y-45552186D01*
X177076552Y-45450729D01*
X177047222Y-45414991D01*
X176963557Y-45258466D01*
X176912037Y-45088627D01*
X176894641Y-44912000D01*
X176912037Y-44735373D01*
X176963557Y-44565534D01*
X177047222Y-44409009D01*
X177076552Y-44373271D01*
X177159814Y-44271814D01*
X177261271Y-44188552D01*
X177297009Y-44159222D01*
X177453534Y-44075557D01*
X177623373Y-44024037D01*
X177689557Y-44017519D01*
X177755740Y-44011000D01*
X177844260Y-44011000D01*
X177910443Y-44017519D01*
X177910443Y-44017519D01*
G37*
G36*
X175370443Y-44017519D02*
G01*
X175436627Y-44024037D01*
X175606466Y-44075557D01*
X175762991Y-44159222D01*
X175798729Y-44188552D01*
X175900186Y-44271814D01*
X175983448Y-44373271D01*
X176012778Y-44409009D01*
X176096443Y-44565534D01*
X176147963Y-44735373D01*
X176165359Y-44912000D01*
X176147963Y-45088627D01*
X176096443Y-45258466D01*
X176012778Y-45414991D01*
X175983448Y-45450729D01*
X175900186Y-45552186D01*
X175798729Y-45635448D01*
X175762991Y-45664778D01*
X175606466Y-45748443D01*
X175436627Y-45799963D01*
X175370443Y-45806481D01*
X175304260Y-45813000D01*
X175215740Y-45813000D01*
X175149557Y-45806481D01*
X175083373Y-45799963D01*
X174913534Y-45748443D01*
X174757009Y-45664778D01*
X174721271Y-45635448D01*
X174619814Y-45552186D01*
X174536552Y-45450729D01*
X174507222Y-45414991D01*
X174423557Y-45258466D01*
X174372037Y-45088627D01*
X174354641Y-44912000D01*
X174372037Y-44735373D01*
X174423557Y-44565534D01*
X174507222Y-44409009D01*
X174536552Y-44373271D01*
X174619814Y-44271814D01*
X174721271Y-44188552D01*
X174757009Y-44159222D01*
X174913534Y-44075557D01*
X175083373Y-44024037D01*
X175149557Y-44017519D01*
X175215740Y-44011000D01*
X175304260Y-44011000D01*
X175370443Y-44017519D01*
X175370443Y-44017519D01*
G37*
G36*
X172830443Y-44017519D02*
G01*
X172896627Y-44024037D01*
X173066466Y-44075557D01*
X173222991Y-44159222D01*
X173258729Y-44188552D01*
X173360186Y-44271814D01*
X173443448Y-44373271D01*
X173472778Y-44409009D01*
X173556443Y-44565534D01*
X173607963Y-44735373D01*
X173625359Y-44912000D01*
X173607963Y-45088627D01*
X173556443Y-45258466D01*
X173472778Y-45414991D01*
X173443448Y-45450729D01*
X173360186Y-45552186D01*
X173258729Y-45635448D01*
X173222991Y-45664778D01*
X173066466Y-45748443D01*
X172896627Y-45799963D01*
X172830443Y-45806481D01*
X172764260Y-45813000D01*
X172675740Y-45813000D01*
X172609557Y-45806481D01*
X172543373Y-45799963D01*
X172373534Y-45748443D01*
X172217009Y-45664778D01*
X172181271Y-45635448D01*
X172079814Y-45552186D01*
X171996552Y-45450729D01*
X171967222Y-45414991D01*
X171883557Y-45258466D01*
X171832037Y-45088627D01*
X171814641Y-44912000D01*
X171832037Y-44735373D01*
X171883557Y-44565534D01*
X171967222Y-44409009D01*
X171996552Y-44373271D01*
X172079814Y-44271814D01*
X172181271Y-44188552D01*
X172217009Y-44159222D01*
X172373534Y-44075557D01*
X172543373Y-44024037D01*
X172609557Y-44017519D01*
X172675740Y-44011000D01*
X172764260Y-44011000D01*
X172830443Y-44017519D01*
X172830443Y-44017519D01*
G37*
G36*
X170290443Y-44017519D02*
G01*
X170356627Y-44024037D01*
X170526466Y-44075557D01*
X170682991Y-44159222D01*
X170718729Y-44188552D01*
X170820186Y-44271814D01*
X170903448Y-44373271D01*
X170932778Y-44409009D01*
X171016443Y-44565534D01*
X171067963Y-44735373D01*
X171085359Y-44912000D01*
X171067963Y-45088627D01*
X171016443Y-45258466D01*
X170932778Y-45414991D01*
X170903448Y-45450729D01*
X170820186Y-45552186D01*
X170718729Y-45635448D01*
X170682991Y-45664778D01*
X170526466Y-45748443D01*
X170356627Y-45799963D01*
X170290443Y-45806481D01*
X170224260Y-45813000D01*
X170135740Y-45813000D01*
X170069557Y-45806481D01*
X170003373Y-45799963D01*
X169833534Y-45748443D01*
X169677009Y-45664778D01*
X169641271Y-45635448D01*
X169539814Y-45552186D01*
X169456552Y-45450729D01*
X169427222Y-45414991D01*
X169343557Y-45258466D01*
X169292037Y-45088627D01*
X169274641Y-44912000D01*
X169292037Y-44735373D01*
X169343557Y-44565534D01*
X169427222Y-44409009D01*
X169456552Y-44373271D01*
X169539814Y-44271814D01*
X169641271Y-44188552D01*
X169677009Y-44159222D01*
X169833534Y-44075557D01*
X170003373Y-44024037D01*
X170069557Y-44017519D01*
X170135740Y-44011000D01*
X170224260Y-44011000D01*
X170290443Y-44017519D01*
X170290443Y-44017519D01*
G37*
G36*
X167750443Y-44017519D02*
G01*
X167816627Y-44024037D01*
X167986466Y-44075557D01*
X168142991Y-44159222D01*
X168178729Y-44188552D01*
X168280186Y-44271814D01*
X168363448Y-44373271D01*
X168392778Y-44409009D01*
X168476443Y-44565534D01*
X168527963Y-44735373D01*
X168545359Y-44912000D01*
X168527963Y-45088627D01*
X168476443Y-45258466D01*
X168392778Y-45414991D01*
X168363448Y-45450729D01*
X168280186Y-45552186D01*
X168178729Y-45635448D01*
X168142991Y-45664778D01*
X167986466Y-45748443D01*
X167816627Y-45799963D01*
X167750443Y-45806481D01*
X167684260Y-45813000D01*
X167595740Y-45813000D01*
X167529557Y-45806481D01*
X167463373Y-45799963D01*
X167293534Y-45748443D01*
X167137009Y-45664778D01*
X167101271Y-45635448D01*
X166999814Y-45552186D01*
X166916552Y-45450729D01*
X166887222Y-45414991D01*
X166803557Y-45258466D01*
X166752037Y-45088627D01*
X166734641Y-44912000D01*
X166752037Y-44735373D01*
X166803557Y-44565534D01*
X166887222Y-44409009D01*
X166916552Y-44373271D01*
X166999814Y-44271814D01*
X167101271Y-44188552D01*
X167137009Y-44159222D01*
X167293534Y-44075557D01*
X167463373Y-44024037D01*
X167529557Y-44017519D01*
X167595740Y-44011000D01*
X167684260Y-44011000D01*
X167750443Y-44017519D01*
X167750443Y-44017519D01*
G37*
G36*
X165210443Y-44017519D02*
G01*
X165276627Y-44024037D01*
X165446466Y-44075557D01*
X165602991Y-44159222D01*
X165638729Y-44188552D01*
X165740186Y-44271814D01*
X165823448Y-44373271D01*
X165852778Y-44409009D01*
X165936443Y-44565534D01*
X165987963Y-44735373D01*
X166005359Y-44912000D01*
X165987963Y-45088627D01*
X165936443Y-45258466D01*
X165852778Y-45414991D01*
X165823448Y-45450729D01*
X165740186Y-45552186D01*
X165638729Y-45635448D01*
X165602991Y-45664778D01*
X165446466Y-45748443D01*
X165276627Y-45799963D01*
X165210443Y-45806481D01*
X165144260Y-45813000D01*
X165055740Y-45813000D01*
X164989557Y-45806481D01*
X164923373Y-45799963D01*
X164753534Y-45748443D01*
X164597009Y-45664778D01*
X164561271Y-45635448D01*
X164459814Y-45552186D01*
X164376552Y-45450729D01*
X164347222Y-45414991D01*
X164263557Y-45258466D01*
X164212037Y-45088627D01*
X164194641Y-44912000D01*
X164212037Y-44735373D01*
X164263557Y-44565534D01*
X164347222Y-44409009D01*
X164376552Y-44373271D01*
X164459814Y-44271814D01*
X164561271Y-44188552D01*
X164597009Y-44159222D01*
X164753534Y-44075557D01*
X164923373Y-44024037D01*
X164989557Y-44017519D01*
X165055740Y-44011000D01*
X165144260Y-44011000D01*
X165210443Y-44017519D01*
X165210443Y-44017519D01*
G37*
G36*
X162670443Y-44017519D02*
G01*
X162736627Y-44024037D01*
X162906466Y-44075557D01*
X163062991Y-44159222D01*
X163098729Y-44188552D01*
X163200186Y-44271814D01*
X163283448Y-44373271D01*
X163312778Y-44409009D01*
X163396443Y-44565534D01*
X163447963Y-44735373D01*
X163465359Y-44912000D01*
X163447963Y-45088627D01*
X163396443Y-45258466D01*
X163312778Y-45414991D01*
X163283448Y-45450729D01*
X163200186Y-45552186D01*
X163098729Y-45635448D01*
X163062991Y-45664778D01*
X162906466Y-45748443D01*
X162736627Y-45799963D01*
X162670443Y-45806481D01*
X162604260Y-45813000D01*
X162515740Y-45813000D01*
X162449557Y-45806481D01*
X162383373Y-45799963D01*
X162213534Y-45748443D01*
X162057009Y-45664778D01*
X162021271Y-45635448D01*
X161919814Y-45552186D01*
X161836552Y-45450729D01*
X161807222Y-45414991D01*
X161723557Y-45258466D01*
X161672037Y-45088627D01*
X161654641Y-44912000D01*
X161672037Y-44735373D01*
X161723557Y-44565534D01*
X161807222Y-44409009D01*
X161836552Y-44373271D01*
X161919814Y-44271814D01*
X162021271Y-44188552D01*
X162057009Y-44159222D01*
X162213534Y-44075557D01*
X162383373Y-44024037D01*
X162449557Y-44017519D01*
X162515740Y-44011000D01*
X162604260Y-44011000D01*
X162670443Y-44017519D01*
X162670443Y-44017519D01*
G37*
G36*
X195690443Y-44017519D02*
G01*
X195756627Y-44024037D01*
X195926466Y-44075557D01*
X196082991Y-44159222D01*
X196118729Y-44188552D01*
X196220186Y-44271814D01*
X196303448Y-44373271D01*
X196332778Y-44409009D01*
X196416443Y-44565534D01*
X196467963Y-44735373D01*
X196485359Y-44912000D01*
X196467963Y-45088627D01*
X196416443Y-45258466D01*
X196332778Y-45414991D01*
X196303448Y-45450729D01*
X196220186Y-45552186D01*
X196118729Y-45635448D01*
X196082991Y-45664778D01*
X195926466Y-45748443D01*
X195756627Y-45799963D01*
X195690443Y-45806481D01*
X195624260Y-45813000D01*
X195535740Y-45813000D01*
X195469557Y-45806481D01*
X195403373Y-45799963D01*
X195233534Y-45748443D01*
X195077009Y-45664778D01*
X195041271Y-45635448D01*
X194939814Y-45552186D01*
X194856552Y-45450729D01*
X194827222Y-45414991D01*
X194743557Y-45258466D01*
X194692037Y-45088627D01*
X194674641Y-44912000D01*
X194692037Y-44735373D01*
X194743557Y-44565534D01*
X194827222Y-44409009D01*
X194856552Y-44373271D01*
X194939814Y-44271814D01*
X195041271Y-44188552D01*
X195077009Y-44159222D01*
X195233534Y-44075557D01*
X195403373Y-44024037D01*
X195469557Y-44017519D01*
X195535740Y-44011000D01*
X195624260Y-44011000D01*
X195690443Y-44017519D01*
X195690443Y-44017519D01*
G37*
G36*
X218550443Y-44017519D02*
G01*
X218616627Y-44024037D01*
X218786466Y-44075557D01*
X218942991Y-44159222D01*
X218978729Y-44188552D01*
X219080186Y-44271814D01*
X219163448Y-44373271D01*
X219192778Y-44409009D01*
X219276443Y-44565534D01*
X219327963Y-44735373D01*
X219345359Y-44912000D01*
X219327963Y-45088627D01*
X219276443Y-45258466D01*
X219192778Y-45414991D01*
X219163448Y-45450729D01*
X219080186Y-45552186D01*
X218978729Y-45635448D01*
X218942991Y-45664778D01*
X218786466Y-45748443D01*
X218616627Y-45799963D01*
X218550443Y-45806481D01*
X218484260Y-45813000D01*
X218395740Y-45813000D01*
X218329557Y-45806481D01*
X218263373Y-45799963D01*
X218093534Y-45748443D01*
X217937009Y-45664778D01*
X217901271Y-45635448D01*
X217799814Y-45552186D01*
X217716552Y-45450729D01*
X217687222Y-45414991D01*
X217603557Y-45258466D01*
X217552037Y-45088627D01*
X217534641Y-44912000D01*
X217552037Y-44735373D01*
X217603557Y-44565534D01*
X217687222Y-44409009D01*
X217716552Y-44373271D01*
X217799814Y-44271814D01*
X217901271Y-44188552D01*
X217937009Y-44159222D01*
X218093534Y-44075557D01*
X218263373Y-44024037D01*
X218329557Y-44017519D01*
X218395740Y-44011000D01*
X218484260Y-44011000D01*
X218550443Y-44017519D01*
X218550443Y-44017519D01*
G37*
G36*
X123408674Y-43703465D02*
G01*
X123446367Y-43714899D01*
X123481103Y-43733466D01*
X123511548Y-43758452D01*
X123536534Y-43788897D01*
X123555101Y-43823633D01*
X123566535Y-43861326D01*
X123571000Y-43906661D01*
X123571000Y-44993339D01*
X123566535Y-45038674D01*
X123555101Y-45076367D01*
X123536534Y-45111103D01*
X123511548Y-45141548D01*
X123481103Y-45166534D01*
X123446367Y-45185101D01*
X123408674Y-45196535D01*
X123363339Y-45201000D01*
X122526661Y-45201000D01*
X122481326Y-45196535D01*
X122443633Y-45185101D01*
X122408897Y-45166534D01*
X122378452Y-45141548D01*
X122353466Y-45111103D01*
X122334899Y-45076367D01*
X122323465Y-45038674D01*
X122319000Y-44993339D01*
X122319000Y-43906661D01*
X122323465Y-43861326D01*
X122334899Y-43823633D01*
X122353466Y-43788897D01*
X122378452Y-43758452D01*
X122408897Y-43733466D01*
X122443633Y-43714899D01*
X122481326Y-43703465D01*
X122526661Y-43699000D01*
X123363339Y-43699000D01*
X123408674Y-43703465D01*
X123408674Y-43703465D01*
G37*
G36*
X121358674Y-43703465D02*
G01*
X121396367Y-43714899D01*
X121431103Y-43733466D01*
X121461548Y-43758452D01*
X121486534Y-43788897D01*
X121505101Y-43823633D01*
X121516535Y-43861326D01*
X121521000Y-43906661D01*
X121521000Y-44993339D01*
X121516535Y-45038674D01*
X121505101Y-45076367D01*
X121486534Y-45111103D01*
X121461548Y-45141548D01*
X121431103Y-45166534D01*
X121396367Y-45185101D01*
X121358674Y-45196535D01*
X121313339Y-45201000D01*
X120476661Y-45201000D01*
X120431326Y-45196535D01*
X120393633Y-45185101D01*
X120358897Y-45166534D01*
X120328452Y-45141548D01*
X120303466Y-45111103D01*
X120284899Y-45076367D01*
X120273465Y-45038674D01*
X120269000Y-44993339D01*
X120269000Y-43906661D01*
X120273465Y-43861326D01*
X120284899Y-43823633D01*
X120303466Y-43788897D01*
X120328452Y-43758452D01*
X120358897Y-43733466D01*
X120393633Y-43714899D01*
X120431326Y-43703465D01*
X120476661Y-43699000D01*
X121313339Y-43699000D01*
X121358674Y-43703465D01*
X121358674Y-43703465D01*
G37*
M02*
