G04 #@! TF.GenerationSoftware,KiCad,Pcbnew,(5.1.2-1)-1*
G04 #@! TF.CreationDate,2019-05-15T17:13:11-07:00*
G04 #@! TF.ProjectId,control_board,636f6e74-726f-46c5-9f62-6f6172642e6b,rev?*
G04 #@! TF.SameCoordinates,Original*
G04 #@! TF.FileFunction,Paste,Top*
G04 #@! TF.FilePolarity,Positive*
%FSLAX46Y46*%
G04 Gerber Fmt 4.6, Leading zero omitted, Abs format (unit mm)*
G04 Created by KiCad (PCBNEW (5.1.2-1)-1) date 2019-05-15 17:13:11*
%MOMM*%
%LPD*%
G04 APERTURE LIST*
%ADD10C,0.100000*%
%ADD11C,1.150000*%
%ADD12C,0.600000*%
%ADD13R,0.838200X1.600200*%
%ADD14R,3.048000X1.600200*%
G04 APERTURE END LIST*
D10*
G36*
X208119505Y-51251204D02*
G01*
X208143773Y-51254804D01*
X208167572Y-51260765D01*
X208190671Y-51269030D01*
X208212850Y-51279520D01*
X208233893Y-51292132D01*
X208253599Y-51306747D01*
X208271777Y-51323223D01*
X208288253Y-51341401D01*
X208302868Y-51361107D01*
X208315480Y-51382150D01*
X208325970Y-51404329D01*
X208334235Y-51427428D01*
X208340196Y-51451227D01*
X208343796Y-51475495D01*
X208345000Y-51499999D01*
X208345000Y-52150001D01*
X208343796Y-52174505D01*
X208340196Y-52198773D01*
X208334235Y-52222572D01*
X208325970Y-52245671D01*
X208315480Y-52267850D01*
X208302868Y-52288893D01*
X208288253Y-52308599D01*
X208271777Y-52326777D01*
X208253599Y-52343253D01*
X208233893Y-52357868D01*
X208212850Y-52370480D01*
X208190671Y-52380970D01*
X208167572Y-52389235D01*
X208143773Y-52395196D01*
X208119505Y-52398796D01*
X208095001Y-52400000D01*
X207194999Y-52400000D01*
X207170495Y-52398796D01*
X207146227Y-52395196D01*
X207122428Y-52389235D01*
X207099329Y-52380970D01*
X207077150Y-52370480D01*
X207056107Y-52357868D01*
X207036401Y-52343253D01*
X207018223Y-52326777D01*
X207001747Y-52308599D01*
X206987132Y-52288893D01*
X206974520Y-52267850D01*
X206964030Y-52245671D01*
X206955765Y-52222572D01*
X206949804Y-52198773D01*
X206946204Y-52174505D01*
X206945000Y-52150001D01*
X206945000Y-51499999D01*
X206946204Y-51475495D01*
X206949804Y-51451227D01*
X206955765Y-51427428D01*
X206964030Y-51404329D01*
X206974520Y-51382150D01*
X206987132Y-51361107D01*
X207001747Y-51341401D01*
X207018223Y-51323223D01*
X207036401Y-51306747D01*
X207056107Y-51292132D01*
X207077150Y-51279520D01*
X207099329Y-51269030D01*
X207122428Y-51260765D01*
X207146227Y-51254804D01*
X207170495Y-51251204D01*
X207194999Y-51250000D01*
X208095001Y-51250000D01*
X208119505Y-51251204D01*
X208119505Y-51251204D01*
G37*
D11*
X207645000Y-51825000D03*
D10*
G36*
X208119505Y-49201204D02*
G01*
X208143773Y-49204804D01*
X208167572Y-49210765D01*
X208190671Y-49219030D01*
X208212850Y-49229520D01*
X208233893Y-49242132D01*
X208253599Y-49256747D01*
X208271777Y-49273223D01*
X208288253Y-49291401D01*
X208302868Y-49311107D01*
X208315480Y-49332150D01*
X208325970Y-49354329D01*
X208334235Y-49377428D01*
X208340196Y-49401227D01*
X208343796Y-49425495D01*
X208345000Y-49449999D01*
X208345000Y-50100001D01*
X208343796Y-50124505D01*
X208340196Y-50148773D01*
X208334235Y-50172572D01*
X208325970Y-50195671D01*
X208315480Y-50217850D01*
X208302868Y-50238893D01*
X208288253Y-50258599D01*
X208271777Y-50276777D01*
X208253599Y-50293253D01*
X208233893Y-50307868D01*
X208212850Y-50320480D01*
X208190671Y-50330970D01*
X208167572Y-50339235D01*
X208143773Y-50345196D01*
X208119505Y-50348796D01*
X208095001Y-50350000D01*
X207194999Y-50350000D01*
X207170495Y-50348796D01*
X207146227Y-50345196D01*
X207122428Y-50339235D01*
X207099329Y-50330970D01*
X207077150Y-50320480D01*
X207056107Y-50307868D01*
X207036401Y-50293253D01*
X207018223Y-50276777D01*
X207001747Y-50258599D01*
X206987132Y-50238893D01*
X206974520Y-50217850D01*
X206964030Y-50195671D01*
X206955765Y-50172572D01*
X206949804Y-50148773D01*
X206946204Y-50124505D01*
X206945000Y-50100001D01*
X206945000Y-49449999D01*
X206946204Y-49425495D01*
X206949804Y-49401227D01*
X206955765Y-49377428D01*
X206964030Y-49354329D01*
X206974520Y-49332150D01*
X206987132Y-49311107D01*
X207001747Y-49291401D01*
X207018223Y-49273223D01*
X207036401Y-49256747D01*
X207056107Y-49242132D01*
X207077150Y-49229520D01*
X207099329Y-49219030D01*
X207122428Y-49210765D01*
X207146227Y-49204804D01*
X207170495Y-49201204D01*
X207194999Y-49200000D01*
X208095001Y-49200000D01*
X208119505Y-49201204D01*
X208119505Y-49201204D01*
G37*
D11*
X207645000Y-49775000D03*
D10*
G36*
X203039505Y-51251204D02*
G01*
X203063773Y-51254804D01*
X203087572Y-51260765D01*
X203110671Y-51269030D01*
X203132850Y-51279520D01*
X203153893Y-51292132D01*
X203173599Y-51306747D01*
X203191777Y-51323223D01*
X203208253Y-51341401D01*
X203222868Y-51361107D01*
X203235480Y-51382150D01*
X203245970Y-51404329D01*
X203254235Y-51427428D01*
X203260196Y-51451227D01*
X203263796Y-51475495D01*
X203265000Y-51499999D01*
X203265000Y-52150001D01*
X203263796Y-52174505D01*
X203260196Y-52198773D01*
X203254235Y-52222572D01*
X203245970Y-52245671D01*
X203235480Y-52267850D01*
X203222868Y-52288893D01*
X203208253Y-52308599D01*
X203191777Y-52326777D01*
X203173599Y-52343253D01*
X203153893Y-52357868D01*
X203132850Y-52370480D01*
X203110671Y-52380970D01*
X203087572Y-52389235D01*
X203063773Y-52395196D01*
X203039505Y-52398796D01*
X203015001Y-52400000D01*
X202114999Y-52400000D01*
X202090495Y-52398796D01*
X202066227Y-52395196D01*
X202042428Y-52389235D01*
X202019329Y-52380970D01*
X201997150Y-52370480D01*
X201976107Y-52357868D01*
X201956401Y-52343253D01*
X201938223Y-52326777D01*
X201921747Y-52308599D01*
X201907132Y-52288893D01*
X201894520Y-52267850D01*
X201884030Y-52245671D01*
X201875765Y-52222572D01*
X201869804Y-52198773D01*
X201866204Y-52174505D01*
X201865000Y-52150001D01*
X201865000Y-51499999D01*
X201866204Y-51475495D01*
X201869804Y-51451227D01*
X201875765Y-51427428D01*
X201884030Y-51404329D01*
X201894520Y-51382150D01*
X201907132Y-51361107D01*
X201921747Y-51341401D01*
X201938223Y-51323223D01*
X201956401Y-51306747D01*
X201976107Y-51292132D01*
X201997150Y-51279520D01*
X202019329Y-51269030D01*
X202042428Y-51260765D01*
X202066227Y-51254804D01*
X202090495Y-51251204D01*
X202114999Y-51250000D01*
X203015001Y-51250000D01*
X203039505Y-51251204D01*
X203039505Y-51251204D01*
G37*
D11*
X202565000Y-51825000D03*
D10*
G36*
X203039505Y-49201204D02*
G01*
X203063773Y-49204804D01*
X203087572Y-49210765D01*
X203110671Y-49219030D01*
X203132850Y-49229520D01*
X203153893Y-49242132D01*
X203173599Y-49256747D01*
X203191777Y-49273223D01*
X203208253Y-49291401D01*
X203222868Y-49311107D01*
X203235480Y-49332150D01*
X203245970Y-49354329D01*
X203254235Y-49377428D01*
X203260196Y-49401227D01*
X203263796Y-49425495D01*
X203265000Y-49449999D01*
X203265000Y-50100001D01*
X203263796Y-50124505D01*
X203260196Y-50148773D01*
X203254235Y-50172572D01*
X203245970Y-50195671D01*
X203235480Y-50217850D01*
X203222868Y-50238893D01*
X203208253Y-50258599D01*
X203191777Y-50276777D01*
X203173599Y-50293253D01*
X203153893Y-50307868D01*
X203132850Y-50320480D01*
X203110671Y-50330970D01*
X203087572Y-50339235D01*
X203063773Y-50345196D01*
X203039505Y-50348796D01*
X203015001Y-50350000D01*
X202114999Y-50350000D01*
X202090495Y-50348796D01*
X202066227Y-50345196D01*
X202042428Y-50339235D01*
X202019329Y-50330970D01*
X201997150Y-50320480D01*
X201976107Y-50307868D01*
X201956401Y-50293253D01*
X201938223Y-50276777D01*
X201921747Y-50258599D01*
X201907132Y-50238893D01*
X201894520Y-50217850D01*
X201884030Y-50195671D01*
X201875765Y-50172572D01*
X201869804Y-50148773D01*
X201866204Y-50124505D01*
X201865000Y-50100001D01*
X201865000Y-49449999D01*
X201866204Y-49425495D01*
X201869804Y-49401227D01*
X201875765Y-49377428D01*
X201884030Y-49354329D01*
X201894520Y-49332150D01*
X201907132Y-49311107D01*
X201921747Y-49291401D01*
X201938223Y-49273223D01*
X201956401Y-49256747D01*
X201976107Y-49242132D01*
X201997150Y-49229520D01*
X202019329Y-49219030D01*
X202042428Y-49210765D01*
X202066227Y-49204804D01*
X202090495Y-49201204D01*
X202114999Y-49200000D01*
X203015001Y-49200000D01*
X203039505Y-49201204D01*
X203039505Y-49201204D01*
G37*
D11*
X202565000Y-49775000D03*
D10*
G36*
X119854505Y-49981204D02*
G01*
X119878773Y-49984804D01*
X119902572Y-49990765D01*
X119925671Y-49999030D01*
X119947850Y-50009520D01*
X119968893Y-50022132D01*
X119988599Y-50036747D01*
X120006777Y-50053223D01*
X120023253Y-50071401D01*
X120037868Y-50091107D01*
X120050480Y-50112150D01*
X120060970Y-50134329D01*
X120069235Y-50157428D01*
X120075196Y-50181227D01*
X120078796Y-50205495D01*
X120080000Y-50229999D01*
X120080000Y-50880001D01*
X120078796Y-50904505D01*
X120075196Y-50928773D01*
X120069235Y-50952572D01*
X120060970Y-50975671D01*
X120050480Y-50997850D01*
X120037868Y-51018893D01*
X120023253Y-51038599D01*
X120006777Y-51056777D01*
X119988599Y-51073253D01*
X119968893Y-51087868D01*
X119947850Y-51100480D01*
X119925671Y-51110970D01*
X119902572Y-51119235D01*
X119878773Y-51125196D01*
X119854505Y-51128796D01*
X119830001Y-51130000D01*
X118929999Y-51130000D01*
X118905495Y-51128796D01*
X118881227Y-51125196D01*
X118857428Y-51119235D01*
X118834329Y-51110970D01*
X118812150Y-51100480D01*
X118791107Y-51087868D01*
X118771401Y-51073253D01*
X118753223Y-51056777D01*
X118736747Y-51038599D01*
X118722132Y-51018893D01*
X118709520Y-50997850D01*
X118699030Y-50975671D01*
X118690765Y-50952572D01*
X118684804Y-50928773D01*
X118681204Y-50904505D01*
X118680000Y-50880001D01*
X118680000Y-50229999D01*
X118681204Y-50205495D01*
X118684804Y-50181227D01*
X118690765Y-50157428D01*
X118699030Y-50134329D01*
X118709520Y-50112150D01*
X118722132Y-50091107D01*
X118736747Y-50071401D01*
X118753223Y-50053223D01*
X118771401Y-50036747D01*
X118791107Y-50022132D01*
X118812150Y-50009520D01*
X118834329Y-49999030D01*
X118857428Y-49990765D01*
X118881227Y-49984804D01*
X118905495Y-49981204D01*
X118929999Y-49980000D01*
X119830001Y-49980000D01*
X119854505Y-49981204D01*
X119854505Y-49981204D01*
G37*
D11*
X119380000Y-50555000D03*
D10*
G36*
X119854505Y-47931204D02*
G01*
X119878773Y-47934804D01*
X119902572Y-47940765D01*
X119925671Y-47949030D01*
X119947850Y-47959520D01*
X119968893Y-47972132D01*
X119988599Y-47986747D01*
X120006777Y-48003223D01*
X120023253Y-48021401D01*
X120037868Y-48041107D01*
X120050480Y-48062150D01*
X120060970Y-48084329D01*
X120069235Y-48107428D01*
X120075196Y-48131227D01*
X120078796Y-48155495D01*
X120080000Y-48179999D01*
X120080000Y-48830001D01*
X120078796Y-48854505D01*
X120075196Y-48878773D01*
X120069235Y-48902572D01*
X120060970Y-48925671D01*
X120050480Y-48947850D01*
X120037868Y-48968893D01*
X120023253Y-48988599D01*
X120006777Y-49006777D01*
X119988599Y-49023253D01*
X119968893Y-49037868D01*
X119947850Y-49050480D01*
X119925671Y-49060970D01*
X119902572Y-49069235D01*
X119878773Y-49075196D01*
X119854505Y-49078796D01*
X119830001Y-49080000D01*
X118929999Y-49080000D01*
X118905495Y-49078796D01*
X118881227Y-49075196D01*
X118857428Y-49069235D01*
X118834329Y-49060970D01*
X118812150Y-49050480D01*
X118791107Y-49037868D01*
X118771401Y-49023253D01*
X118753223Y-49006777D01*
X118736747Y-48988599D01*
X118722132Y-48968893D01*
X118709520Y-48947850D01*
X118699030Y-48925671D01*
X118690765Y-48902572D01*
X118684804Y-48878773D01*
X118681204Y-48854505D01*
X118680000Y-48830001D01*
X118680000Y-48179999D01*
X118681204Y-48155495D01*
X118684804Y-48131227D01*
X118690765Y-48107428D01*
X118699030Y-48084329D01*
X118709520Y-48062150D01*
X118722132Y-48041107D01*
X118736747Y-48021401D01*
X118753223Y-48003223D01*
X118771401Y-47986747D01*
X118791107Y-47972132D01*
X118812150Y-47959520D01*
X118834329Y-47949030D01*
X118857428Y-47940765D01*
X118881227Y-47934804D01*
X118905495Y-47931204D01*
X118929999Y-47930000D01*
X119830001Y-47930000D01*
X119854505Y-47931204D01*
X119854505Y-47931204D01*
G37*
D11*
X119380000Y-48505000D03*
D10*
G36*
X124934505Y-49981204D02*
G01*
X124958773Y-49984804D01*
X124982572Y-49990765D01*
X125005671Y-49999030D01*
X125027850Y-50009520D01*
X125048893Y-50022132D01*
X125068599Y-50036747D01*
X125086777Y-50053223D01*
X125103253Y-50071401D01*
X125117868Y-50091107D01*
X125130480Y-50112150D01*
X125140970Y-50134329D01*
X125149235Y-50157428D01*
X125155196Y-50181227D01*
X125158796Y-50205495D01*
X125160000Y-50229999D01*
X125160000Y-50880001D01*
X125158796Y-50904505D01*
X125155196Y-50928773D01*
X125149235Y-50952572D01*
X125140970Y-50975671D01*
X125130480Y-50997850D01*
X125117868Y-51018893D01*
X125103253Y-51038599D01*
X125086777Y-51056777D01*
X125068599Y-51073253D01*
X125048893Y-51087868D01*
X125027850Y-51100480D01*
X125005671Y-51110970D01*
X124982572Y-51119235D01*
X124958773Y-51125196D01*
X124934505Y-51128796D01*
X124910001Y-51130000D01*
X124009999Y-51130000D01*
X123985495Y-51128796D01*
X123961227Y-51125196D01*
X123937428Y-51119235D01*
X123914329Y-51110970D01*
X123892150Y-51100480D01*
X123871107Y-51087868D01*
X123851401Y-51073253D01*
X123833223Y-51056777D01*
X123816747Y-51038599D01*
X123802132Y-51018893D01*
X123789520Y-50997850D01*
X123779030Y-50975671D01*
X123770765Y-50952572D01*
X123764804Y-50928773D01*
X123761204Y-50904505D01*
X123760000Y-50880001D01*
X123760000Y-50229999D01*
X123761204Y-50205495D01*
X123764804Y-50181227D01*
X123770765Y-50157428D01*
X123779030Y-50134329D01*
X123789520Y-50112150D01*
X123802132Y-50091107D01*
X123816747Y-50071401D01*
X123833223Y-50053223D01*
X123851401Y-50036747D01*
X123871107Y-50022132D01*
X123892150Y-50009520D01*
X123914329Y-49999030D01*
X123937428Y-49990765D01*
X123961227Y-49984804D01*
X123985495Y-49981204D01*
X124009999Y-49980000D01*
X124910001Y-49980000D01*
X124934505Y-49981204D01*
X124934505Y-49981204D01*
G37*
D11*
X124460000Y-50555000D03*
D10*
G36*
X124934505Y-47931204D02*
G01*
X124958773Y-47934804D01*
X124982572Y-47940765D01*
X125005671Y-47949030D01*
X125027850Y-47959520D01*
X125048893Y-47972132D01*
X125068599Y-47986747D01*
X125086777Y-48003223D01*
X125103253Y-48021401D01*
X125117868Y-48041107D01*
X125130480Y-48062150D01*
X125140970Y-48084329D01*
X125149235Y-48107428D01*
X125155196Y-48131227D01*
X125158796Y-48155495D01*
X125160000Y-48179999D01*
X125160000Y-48830001D01*
X125158796Y-48854505D01*
X125155196Y-48878773D01*
X125149235Y-48902572D01*
X125140970Y-48925671D01*
X125130480Y-48947850D01*
X125117868Y-48968893D01*
X125103253Y-48988599D01*
X125086777Y-49006777D01*
X125068599Y-49023253D01*
X125048893Y-49037868D01*
X125027850Y-49050480D01*
X125005671Y-49060970D01*
X124982572Y-49069235D01*
X124958773Y-49075196D01*
X124934505Y-49078796D01*
X124910001Y-49080000D01*
X124009999Y-49080000D01*
X123985495Y-49078796D01*
X123961227Y-49075196D01*
X123937428Y-49069235D01*
X123914329Y-49060970D01*
X123892150Y-49050480D01*
X123871107Y-49037868D01*
X123851401Y-49023253D01*
X123833223Y-49006777D01*
X123816747Y-48988599D01*
X123802132Y-48968893D01*
X123789520Y-48947850D01*
X123779030Y-48925671D01*
X123770765Y-48902572D01*
X123764804Y-48878773D01*
X123761204Y-48854505D01*
X123760000Y-48830001D01*
X123760000Y-48179999D01*
X123761204Y-48155495D01*
X123764804Y-48131227D01*
X123770765Y-48107428D01*
X123779030Y-48084329D01*
X123789520Y-48062150D01*
X123802132Y-48041107D01*
X123816747Y-48021401D01*
X123833223Y-48003223D01*
X123851401Y-47986747D01*
X123871107Y-47972132D01*
X123892150Y-47959520D01*
X123914329Y-47949030D01*
X123937428Y-47940765D01*
X123961227Y-47934804D01*
X123985495Y-47931204D01*
X124009999Y-47930000D01*
X124910001Y-47930000D01*
X124934505Y-47931204D01*
X124934505Y-47931204D01*
G37*
D11*
X124460000Y-48505000D03*
D10*
G36*
X210289505Y-54546204D02*
G01*
X210313773Y-54549804D01*
X210337572Y-54555765D01*
X210360671Y-54564030D01*
X210382850Y-54574520D01*
X210403893Y-54587132D01*
X210423599Y-54601747D01*
X210441777Y-54618223D01*
X210458253Y-54636401D01*
X210472868Y-54656107D01*
X210485480Y-54677150D01*
X210495970Y-54699329D01*
X210504235Y-54722428D01*
X210510196Y-54746227D01*
X210513796Y-54770495D01*
X210515000Y-54794999D01*
X210515000Y-55695001D01*
X210513796Y-55719505D01*
X210510196Y-55743773D01*
X210504235Y-55767572D01*
X210495970Y-55790671D01*
X210485480Y-55812850D01*
X210472868Y-55833893D01*
X210458253Y-55853599D01*
X210441777Y-55871777D01*
X210423599Y-55888253D01*
X210403893Y-55902868D01*
X210382850Y-55915480D01*
X210360671Y-55925970D01*
X210337572Y-55934235D01*
X210313773Y-55940196D01*
X210289505Y-55943796D01*
X210265001Y-55945000D01*
X209614999Y-55945000D01*
X209590495Y-55943796D01*
X209566227Y-55940196D01*
X209542428Y-55934235D01*
X209519329Y-55925970D01*
X209497150Y-55915480D01*
X209476107Y-55902868D01*
X209456401Y-55888253D01*
X209438223Y-55871777D01*
X209421747Y-55853599D01*
X209407132Y-55833893D01*
X209394520Y-55812850D01*
X209384030Y-55790671D01*
X209375765Y-55767572D01*
X209369804Y-55743773D01*
X209366204Y-55719505D01*
X209365000Y-55695001D01*
X209365000Y-54794999D01*
X209366204Y-54770495D01*
X209369804Y-54746227D01*
X209375765Y-54722428D01*
X209384030Y-54699329D01*
X209394520Y-54677150D01*
X209407132Y-54656107D01*
X209421747Y-54636401D01*
X209438223Y-54618223D01*
X209456401Y-54601747D01*
X209476107Y-54587132D01*
X209497150Y-54574520D01*
X209519329Y-54564030D01*
X209542428Y-54555765D01*
X209566227Y-54549804D01*
X209590495Y-54546204D01*
X209614999Y-54545000D01*
X210265001Y-54545000D01*
X210289505Y-54546204D01*
X210289505Y-54546204D01*
G37*
D11*
X209940000Y-55245000D03*
D10*
G36*
X208239505Y-54546204D02*
G01*
X208263773Y-54549804D01*
X208287572Y-54555765D01*
X208310671Y-54564030D01*
X208332850Y-54574520D01*
X208353893Y-54587132D01*
X208373599Y-54601747D01*
X208391777Y-54618223D01*
X208408253Y-54636401D01*
X208422868Y-54656107D01*
X208435480Y-54677150D01*
X208445970Y-54699329D01*
X208454235Y-54722428D01*
X208460196Y-54746227D01*
X208463796Y-54770495D01*
X208465000Y-54794999D01*
X208465000Y-55695001D01*
X208463796Y-55719505D01*
X208460196Y-55743773D01*
X208454235Y-55767572D01*
X208445970Y-55790671D01*
X208435480Y-55812850D01*
X208422868Y-55833893D01*
X208408253Y-55853599D01*
X208391777Y-55871777D01*
X208373599Y-55888253D01*
X208353893Y-55902868D01*
X208332850Y-55915480D01*
X208310671Y-55925970D01*
X208287572Y-55934235D01*
X208263773Y-55940196D01*
X208239505Y-55943796D01*
X208215001Y-55945000D01*
X207564999Y-55945000D01*
X207540495Y-55943796D01*
X207516227Y-55940196D01*
X207492428Y-55934235D01*
X207469329Y-55925970D01*
X207447150Y-55915480D01*
X207426107Y-55902868D01*
X207406401Y-55888253D01*
X207388223Y-55871777D01*
X207371747Y-55853599D01*
X207357132Y-55833893D01*
X207344520Y-55812850D01*
X207334030Y-55790671D01*
X207325765Y-55767572D01*
X207319804Y-55743773D01*
X207316204Y-55719505D01*
X207315000Y-55695001D01*
X207315000Y-54794999D01*
X207316204Y-54770495D01*
X207319804Y-54746227D01*
X207325765Y-54722428D01*
X207334030Y-54699329D01*
X207344520Y-54677150D01*
X207357132Y-54656107D01*
X207371747Y-54636401D01*
X207388223Y-54618223D01*
X207406401Y-54601747D01*
X207426107Y-54587132D01*
X207447150Y-54574520D01*
X207469329Y-54564030D01*
X207492428Y-54555765D01*
X207516227Y-54549804D01*
X207540495Y-54546204D01*
X207564999Y-54545000D01*
X208215001Y-54545000D01*
X208239505Y-54546204D01*
X208239505Y-54546204D01*
G37*
D11*
X207890000Y-55245000D03*
D10*
G36*
X196054505Y-50471204D02*
G01*
X196078773Y-50474804D01*
X196102572Y-50480765D01*
X196125671Y-50489030D01*
X196147850Y-50499520D01*
X196168893Y-50512132D01*
X196188599Y-50526747D01*
X196206777Y-50543223D01*
X196223253Y-50561401D01*
X196237868Y-50581107D01*
X196250480Y-50602150D01*
X196260970Y-50624329D01*
X196269235Y-50647428D01*
X196275196Y-50671227D01*
X196278796Y-50695495D01*
X196280000Y-50719999D01*
X196280000Y-51370001D01*
X196278796Y-51394505D01*
X196275196Y-51418773D01*
X196269235Y-51442572D01*
X196260970Y-51465671D01*
X196250480Y-51487850D01*
X196237868Y-51508893D01*
X196223253Y-51528599D01*
X196206777Y-51546777D01*
X196188599Y-51563253D01*
X196168893Y-51577868D01*
X196147850Y-51590480D01*
X196125671Y-51600970D01*
X196102572Y-51609235D01*
X196078773Y-51615196D01*
X196054505Y-51618796D01*
X196030001Y-51620000D01*
X195129999Y-51620000D01*
X195105495Y-51618796D01*
X195081227Y-51615196D01*
X195057428Y-51609235D01*
X195034329Y-51600970D01*
X195012150Y-51590480D01*
X194991107Y-51577868D01*
X194971401Y-51563253D01*
X194953223Y-51546777D01*
X194936747Y-51528599D01*
X194922132Y-51508893D01*
X194909520Y-51487850D01*
X194899030Y-51465671D01*
X194890765Y-51442572D01*
X194884804Y-51418773D01*
X194881204Y-51394505D01*
X194880000Y-51370001D01*
X194880000Y-50719999D01*
X194881204Y-50695495D01*
X194884804Y-50671227D01*
X194890765Y-50647428D01*
X194899030Y-50624329D01*
X194909520Y-50602150D01*
X194922132Y-50581107D01*
X194936747Y-50561401D01*
X194953223Y-50543223D01*
X194971401Y-50526747D01*
X194991107Y-50512132D01*
X195012150Y-50499520D01*
X195034329Y-50489030D01*
X195057428Y-50480765D01*
X195081227Y-50474804D01*
X195105495Y-50471204D01*
X195129999Y-50470000D01*
X196030001Y-50470000D01*
X196054505Y-50471204D01*
X196054505Y-50471204D01*
G37*
D11*
X195580000Y-51045000D03*
D10*
G36*
X196054505Y-52521204D02*
G01*
X196078773Y-52524804D01*
X196102572Y-52530765D01*
X196125671Y-52539030D01*
X196147850Y-52549520D01*
X196168893Y-52562132D01*
X196188599Y-52576747D01*
X196206777Y-52593223D01*
X196223253Y-52611401D01*
X196237868Y-52631107D01*
X196250480Y-52652150D01*
X196260970Y-52674329D01*
X196269235Y-52697428D01*
X196275196Y-52721227D01*
X196278796Y-52745495D01*
X196280000Y-52769999D01*
X196280000Y-53420001D01*
X196278796Y-53444505D01*
X196275196Y-53468773D01*
X196269235Y-53492572D01*
X196260970Y-53515671D01*
X196250480Y-53537850D01*
X196237868Y-53558893D01*
X196223253Y-53578599D01*
X196206777Y-53596777D01*
X196188599Y-53613253D01*
X196168893Y-53627868D01*
X196147850Y-53640480D01*
X196125671Y-53650970D01*
X196102572Y-53659235D01*
X196078773Y-53665196D01*
X196054505Y-53668796D01*
X196030001Y-53670000D01*
X195129999Y-53670000D01*
X195105495Y-53668796D01*
X195081227Y-53665196D01*
X195057428Y-53659235D01*
X195034329Y-53650970D01*
X195012150Y-53640480D01*
X194991107Y-53627868D01*
X194971401Y-53613253D01*
X194953223Y-53596777D01*
X194936747Y-53578599D01*
X194922132Y-53558893D01*
X194909520Y-53537850D01*
X194899030Y-53515671D01*
X194890765Y-53492572D01*
X194884804Y-53468773D01*
X194881204Y-53444505D01*
X194880000Y-53420001D01*
X194880000Y-52769999D01*
X194881204Y-52745495D01*
X194884804Y-52721227D01*
X194890765Y-52697428D01*
X194899030Y-52674329D01*
X194909520Y-52652150D01*
X194922132Y-52631107D01*
X194936747Y-52611401D01*
X194953223Y-52593223D01*
X194971401Y-52576747D01*
X194991107Y-52562132D01*
X195012150Y-52549520D01*
X195034329Y-52539030D01*
X195057428Y-52530765D01*
X195081227Y-52524804D01*
X195105495Y-52521204D01*
X195129999Y-52520000D01*
X196030001Y-52520000D01*
X196054505Y-52521204D01*
X196054505Y-52521204D01*
G37*
D11*
X195580000Y-53095000D03*
D10*
G36*
X194784505Y-110161204D02*
G01*
X194808773Y-110164804D01*
X194832572Y-110170765D01*
X194855671Y-110179030D01*
X194877850Y-110189520D01*
X194898893Y-110202132D01*
X194918599Y-110216747D01*
X194936777Y-110233223D01*
X194953253Y-110251401D01*
X194967868Y-110271107D01*
X194980480Y-110292150D01*
X194990970Y-110314329D01*
X194999235Y-110337428D01*
X195005196Y-110361227D01*
X195008796Y-110385495D01*
X195010000Y-110409999D01*
X195010000Y-111060001D01*
X195008796Y-111084505D01*
X195005196Y-111108773D01*
X194999235Y-111132572D01*
X194990970Y-111155671D01*
X194980480Y-111177850D01*
X194967868Y-111198893D01*
X194953253Y-111218599D01*
X194936777Y-111236777D01*
X194918599Y-111253253D01*
X194898893Y-111267868D01*
X194877850Y-111280480D01*
X194855671Y-111290970D01*
X194832572Y-111299235D01*
X194808773Y-111305196D01*
X194784505Y-111308796D01*
X194760001Y-111310000D01*
X193859999Y-111310000D01*
X193835495Y-111308796D01*
X193811227Y-111305196D01*
X193787428Y-111299235D01*
X193764329Y-111290970D01*
X193742150Y-111280480D01*
X193721107Y-111267868D01*
X193701401Y-111253253D01*
X193683223Y-111236777D01*
X193666747Y-111218599D01*
X193652132Y-111198893D01*
X193639520Y-111177850D01*
X193629030Y-111155671D01*
X193620765Y-111132572D01*
X193614804Y-111108773D01*
X193611204Y-111084505D01*
X193610000Y-111060001D01*
X193610000Y-110409999D01*
X193611204Y-110385495D01*
X193614804Y-110361227D01*
X193620765Y-110337428D01*
X193629030Y-110314329D01*
X193639520Y-110292150D01*
X193652132Y-110271107D01*
X193666747Y-110251401D01*
X193683223Y-110233223D01*
X193701401Y-110216747D01*
X193721107Y-110202132D01*
X193742150Y-110189520D01*
X193764329Y-110179030D01*
X193787428Y-110170765D01*
X193811227Y-110164804D01*
X193835495Y-110161204D01*
X193859999Y-110160000D01*
X194760001Y-110160000D01*
X194784505Y-110161204D01*
X194784505Y-110161204D01*
G37*
D11*
X194310000Y-110735000D03*
D10*
G36*
X194784505Y-112211204D02*
G01*
X194808773Y-112214804D01*
X194832572Y-112220765D01*
X194855671Y-112229030D01*
X194877850Y-112239520D01*
X194898893Y-112252132D01*
X194918599Y-112266747D01*
X194936777Y-112283223D01*
X194953253Y-112301401D01*
X194967868Y-112321107D01*
X194980480Y-112342150D01*
X194990970Y-112364329D01*
X194999235Y-112387428D01*
X195005196Y-112411227D01*
X195008796Y-112435495D01*
X195010000Y-112459999D01*
X195010000Y-113110001D01*
X195008796Y-113134505D01*
X195005196Y-113158773D01*
X194999235Y-113182572D01*
X194990970Y-113205671D01*
X194980480Y-113227850D01*
X194967868Y-113248893D01*
X194953253Y-113268599D01*
X194936777Y-113286777D01*
X194918599Y-113303253D01*
X194898893Y-113317868D01*
X194877850Y-113330480D01*
X194855671Y-113340970D01*
X194832572Y-113349235D01*
X194808773Y-113355196D01*
X194784505Y-113358796D01*
X194760001Y-113360000D01*
X193859999Y-113360000D01*
X193835495Y-113358796D01*
X193811227Y-113355196D01*
X193787428Y-113349235D01*
X193764329Y-113340970D01*
X193742150Y-113330480D01*
X193721107Y-113317868D01*
X193701401Y-113303253D01*
X193683223Y-113286777D01*
X193666747Y-113268599D01*
X193652132Y-113248893D01*
X193639520Y-113227850D01*
X193629030Y-113205671D01*
X193620765Y-113182572D01*
X193614804Y-113158773D01*
X193611204Y-113134505D01*
X193610000Y-113110001D01*
X193610000Y-112459999D01*
X193611204Y-112435495D01*
X193614804Y-112411227D01*
X193620765Y-112387428D01*
X193629030Y-112364329D01*
X193639520Y-112342150D01*
X193652132Y-112321107D01*
X193666747Y-112301401D01*
X193683223Y-112283223D01*
X193701401Y-112266747D01*
X193721107Y-112252132D01*
X193742150Y-112239520D01*
X193764329Y-112229030D01*
X193787428Y-112220765D01*
X193811227Y-112214804D01*
X193835495Y-112211204D01*
X193859999Y-112210000D01*
X194760001Y-112210000D01*
X194784505Y-112211204D01*
X194784505Y-112211204D01*
G37*
D11*
X194310000Y-112785000D03*
D10*
G36*
X193514505Y-50471204D02*
G01*
X193538773Y-50474804D01*
X193562572Y-50480765D01*
X193585671Y-50489030D01*
X193607850Y-50499520D01*
X193628893Y-50512132D01*
X193648599Y-50526747D01*
X193666777Y-50543223D01*
X193683253Y-50561401D01*
X193697868Y-50581107D01*
X193710480Y-50602150D01*
X193720970Y-50624329D01*
X193729235Y-50647428D01*
X193735196Y-50671227D01*
X193738796Y-50695495D01*
X193740000Y-50719999D01*
X193740000Y-51370001D01*
X193738796Y-51394505D01*
X193735196Y-51418773D01*
X193729235Y-51442572D01*
X193720970Y-51465671D01*
X193710480Y-51487850D01*
X193697868Y-51508893D01*
X193683253Y-51528599D01*
X193666777Y-51546777D01*
X193648599Y-51563253D01*
X193628893Y-51577868D01*
X193607850Y-51590480D01*
X193585671Y-51600970D01*
X193562572Y-51609235D01*
X193538773Y-51615196D01*
X193514505Y-51618796D01*
X193490001Y-51620000D01*
X192589999Y-51620000D01*
X192565495Y-51618796D01*
X192541227Y-51615196D01*
X192517428Y-51609235D01*
X192494329Y-51600970D01*
X192472150Y-51590480D01*
X192451107Y-51577868D01*
X192431401Y-51563253D01*
X192413223Y-51546777D01*
X192396747Y-51528599D01*
X192382132Y-51508893D01*
X192369520Y-51487850D01*
X192359030Y-51465671D01*
X192350765Y-51442572D01*
X192344804Y-51418773D01*
X192341204Y-51394505D01*
X192340000Y-51370001D01*
X192340000Y-50719999D01*
X192341204Y-50695495D01*
X192344804Y-50671227D01*
X192350765Y-50647428D01*
X192359030Y-50624329D01*
X192369520Y-50602150D01*
X192382132Y-50581107D01*
X192396747Y-50561401D01*
X192413223Y-50543223D01*
X192431401Y-50526747D01*
X192451107Y-50512132D01*
X192472150Y-50499520D01*
X192494329Y-50489030D01*
X192517428Y-50480765D01*
X192541227Y-50474804D01*
X192565495Y-50471204D01*
X192589999Y-50470000D01*
X193490001Y-50470000D01*
X193514505Y-50471204D01*
X193514505Y-50471204D01*
G37*
D11*
X193040000Y-51045000D03*
D10*
G36*
X193514505Y-52521204D02*
G01*
X193538773Y-52524804D01*
X193562572Y-52530765D01*
X193585671Y-52539030D01*
X193607850Y-52549520D01*
X193628893Y-52562132D01*
X193648599Y-52576747D01*
X193666777Y-52593223D01*
X193683253Y-52611401D01*
X193697868Y-52631107D01*
X193710480Y-52652150D01*
X193720970Y-52674329D01*
X193729235Y-52697428D01*
X193735196Y-52721227D01*
X193738796Y-52745495D01*
X193740000Y-52769999D01*
X193740000Y-53420001D01*
X193738796Y-53444505D01*
X193735196Y-53468773D01*
X193729235Y-53492572D01*
X193720970Y-53515671D01*
X193710480Y-53537850D01*
X193697868Y-53558893D01*
X193683253Y-53578599D01*
X193666777Y-53596777D01*
X193648599Y-53613253D01*
X193628893Y-53627868D01*
X193607850Y-53640480D01*
X193585671Y-53650970D01*
X193562572Y-53659235D01*
X193538773Y-53665196D01*
X193514505Y-53668796D01*
X193490001Y-53670000D01*
X192589999Y-53670000D01*
X192565495Y-53668796D01*
X192541227Y-53665196D01*
X192517428Y-53659235D01*
X192494329Y-53650970D01*
X192472150Y-53640480D01*
X192451107Y-53627868D01*
X192431401Y-53613253D01*
X192413223Y-53596777D01*
X192396747Y-53578599D01*
X192382132Y-53558893D01*
X192369520Y-53537850D01*
X192359030Y-53515671D01*
X192350765Y-53492572D01*
X192344804Y-53468773D01*
X192341204Y-53444505D01*
X192340000Y-53420001D01*
X192340000Y-52769999D01*
X192341204Y-52745495D01*
X192344804Y-52721227D01*
X192350765Y-52697428D01*
X192359030Y-52674329D01*
X192369520Y-52652150D01*
X192382132Y-52631107D01*
X192396747Y-52611401D01*
X192413223Y-52593223D01*
X192431401Y-52576747D01*
X192451107Y-52562132D01*
X192472150Y-52549520D01*
X192494329Y-52539030D01*
X192517428Y-52530765D01*
X192541227Y-52524804D01*
X192565495Y-52521204D01*
X192589999Y-52520000D01*
X193490001Y-52520000D01*
X193514505Y-52521204D01*
X193514505Y-52521204D01*
G37*
D11*
X193040000Y-53095000D03*
D10*
G36*
X169384505Y-112211204D02*
G01*
X169408773Y-112214804D01*
X169432572Y-112220765D01*
X169455671Y-112229030D01*
X169477850Y-112239520D01*
X169498893Y-112252132D01*
X169518599Y-112266747D01*
X169536777Y-112283223D01*
X169553253Y-112301401D01*
X169567868Y-112321107D01*
X169580480Y-112342150D01*
X169590970Y-112364329D01*
X169599235Y-112387428D01*
X169605196Y-112411227D01*
X169608796Y-112435495D01*
X169610000Y-112459999D01*
X169610000Y-113110001D01*
X169608796Y-113134505D01*
X169605196Y-113158773D01*
X169599235Y-113182572D01*
X169590970Y-113205671D01*
X169580480Y-113227850D01*
X169567868Y-113248893D01*
X169553253Y-113268599D01*
X169536777Y-113286777D01*
X169518599Y-113303253D01*
X169498893Y-113317868D01*
X169477850Y-113330480D01*
X169455671Y-113340970D01*
X169432572Y-113349235D01*
X169408773Y-113355196D01*
X169384505Y-113358796D01*
X169360001Y-113360000D01*
X168459999Y-113360000D01*
X168435495Y-113358796D01*
X168411227Y-113355196D01*
X168387428Y-113349235D01*
X168364329Y-113340970D01*
X168342150Y-113330480D01*
X168321107Y-113317868D01*
X168301401Y-113303253D01*
X168283223Y-113286777D01*
X168266747Y-113268599D01*
X168252132Y-113248893D01*
X168239520Y-113227850D01*
X168229030Y-113205671D01*
X168220765Y-113182572D01*
X168214804Y-113158773D01*
X168211204Y-113134505D01*
X168210000Y-113110001D01*
X168210000Y-112459999D01*
X168211204Y-112435495D01*
X168214804Y-112411227D01*
X168220765Y-112387428D01*
X168229030Y-112364329D01*
X168239520Y-112342150D01*
X168252132Y-112321107D01*
X168266747Y-112301401D01*
X168283223Y-112283223D01*
X168301401Y-112266747D01*
X168321107Y-112252132D01*
X168342150Y-112239520D01*
X168364329Y-112229030D01*
X168387428Y-112220765D01*
X168411227Y-112214804D01*
X168435495Y-112211204D01*
X168459999Y-112210000D01*
X169360001Y-112210000D01*
X169384505Y-112211204D01*
X169384505Y-112211204D01*
G37*
D11*
X168910000Y-112785000D03*
D10*
G36*
X169384505Y-110161204D02*
G01*
X169408773Y-110164804D01*
X169432572Y-110170765D01*
X169455671Y-110179030D01*
X169477850Y-110189520D01*
X169498893Y-110202132D01*
X169518599Y-110216747D01*
X169536777Y-110233223D01*
X169553253Y-110251401D01*
X169567868Y-110271107D01*
X169580480Y-110292150D01*
X169590970Y-110314329D01*
X169599235Y-110337428D01*
X169605196Y-110361227D01*
X169608796Y-110385495D01*
X169610000Y-110409999D01*
X169610000Y-111060001D01*
X169608796Y-111084505D01*
X169605196Y-111108773D01*
X169599235Y-111132572D01*
X169590970Y-111155671D01*
X169580480Y-111177850D01*
X169567868Y-111198893D01*
X169553253Y-111218599D01*
X169536777Y-111236777D01*
X169518599Y-111253253D01*
X169498893Y-111267868D01*
X169477850Y-111280480D01*
X169455671Y-111290970D01*
X169432572Y-111299235D01*
X169408773Y-111305196D01*
X169384505Y-111308796D01*
X169360001Y-111310000D01*
X168459999Y-111310000D01*
X168435495Y-111308796D01*
X168411227Y-111305196D01*
X168387428Y-111299235D01*
X168364329Y-111290970D01*
X168342150Y-111280480D01*
X168321107Y-111267868D01*
X168301401Y-111253253D01*
X168283223Y-111236777D01*
X168266747Y-111218599D01*
X168252132Y-111198893D01*
X168239520Y-111177850D01*
X168229030Y-111155671D01*
X168220765Y-111132572D01*
X168214804Y-111108773D01*
X168211204Y-111084505D01*
X168210000Y-111060001D01*
X168210000Y-110409999D01*
X168211204Y-110385495D01*
X168214804Y-110361227D01*
X168220765Y-110337428D01*
X168229030Y-110314329D01*
X168239520Y-110292150D01*
X168252132Y-110271107D01*
X168266747Y-110251401D01*
X168283223Y-110233223D01*
X168301401Y-110216747D01*
X168321107Y-110202132D01*
X168342150Y-110189520D01*
X168364329Y-110179030D01*
X168387428Y-110170765D01*
X168411227Y-110164804D01*
X168435495Y-110161204D01*
X168459999Y-110160000D01*
X169360001Y-110160000D01*
X169384505Y-110161204D01*
X169384505Y-110161204D01*
G37*
D11*
X168910000Y-110735000D03*
D10*
G36*
X190974505Y-52521204D02*
G01*
X190998773Y-52524804D01*
X191022572Y-52530765D01*
X191045671Y-52539030D01*
X191067850Y-52549520D01*
X191088893Y-52562132D01*
X191108599Y-52576747D01*
X191126777Y-52593223D01*
X191143253Y-52611401D01*
X191157868Y-52631107D01*
X191170480Y-52652150D01*
X191180970Y-52674329D01*
X191189235Y-52697428D01*
X191195196Y-52721227D01*
X191198796Y-52745495D01*
X191200000Y-52769999D01*
X191200000Y-53420001D01*
X191198796Y-53444505D01*
X191195196Y-53468773D01*
X191189235Y-53492572D01*
X191180970Y-53515671D01*
X191170480Y-53537850D01*
X191157868Y-53558893D01*
X191143253Y-53578599D01*
X191126777Y-53596777D01*
X191108599Y-53613253D01*
X191088893Y-53627868D01*
X191067850Y-53640480D01*
X191045671Y-53650970D01*
X191022572Y-53659235D01*
X190998773Y-53665196D01*
X190974505Y-53668796D01*
X190950001Y-53670000D01*
X190049999Y-53670000D01*
X190025495Y-53668796D01*
X190001227Y-53665196D01*
X189977428Y-53659235D01*
X189954329Y-53650970D01*
X189932150Y-53640480D01*
X189911107Y-53627868D01*
X189891401Y-53613253D01*
X189873223Y-53596777D01*
X189856747Y-53578599D01*
X189842132Y-53558893D01*
X189829520Y-53537850D01*
X189819030Y-53515671D01*
X189810765Y-53492572D01*
X189804804Y-53468773D01*
X189801204Y-53444505D01*
X189800000Y-53420001D01*
X189800000Y-52769999D01*
X189801204Y-52745495D01*
X189804804Y-52721227D01*
X189810765Y-52697428D01*
X189819030Y-52674329D01*
X189829520Y-52652150D01*
X189842132Y-52631107D01*
X189856747Y-52611401D01*
X189873223Y-52593223D01*
X189891401Y-52576747D01*
X189911107Y-52562132D01*
X189932150Y-52549520D01*
X189954329Y-52539030D01*
X189977428Y-52530765D01*
X190001227Y-52524804D01*
X190025495Y-52521204D01*
X190049999Y-52520000D01*
X190950001Y-52520000D01*
X190974505Y-52521204D01*
X190974505Y-52521204D01*
G37*
D11*
X190500000Y-53095000D03*
D10*
G36*
X190974505Y-50471204D02*
G01*
X190998773Y-50474804D01*
X191022572Y-50480765D01*
X191045671Y-50489030D01*
X191067850Y-50499520D01*
X191088893Y-50512132D01*
X191108599Y-50526747D01*
X191126777Y-50543223D01*
X191143253Y-50561401D01*
X191157868Y-50581107D01*
X191170480Y-50602150D01*
X191180970Y-50624329D01*
X191189235Y-50647428D01*
X191195196Y-50671227D01*
X191198796Y-50695495D01*
X191200000Y-50719999D01*
X191200000Y-51370001D01*
X191198796Y-51394505D01*
X191195196Y-51418773D01*
X191189235Y-51442572D01*
X191180970Y-51465671D01*
X191170480Y-51487850D01*
X191157868Y-51508893D01*
X191143253Y-51528599D01*
X191126777Y-51546777D01*
X191108599Y-51563253D01*
X191088893Y-51577868D01*
X191067850Y-51590480D01*
X191045671Y-51600970D01*
X191022572Y-51609235D01*
X190998773Y-51615196D01*
X190974505Y-51618796D01*
X190950001Y-51620000D01*
X190049999Y-51620000D01*
X190025495Y-51618796D01*
X190001227Y-51615196D01*
X189977428Y-51609235D01*
X189954329Y-51600970D01*
X189932150Y-51590480D01*
X189911107Y-51577868D01*
X189891401Y-51563253D01*
X189873223Y-51546777D01*
X189856747Y-51528599D01*
X189842132Y-51508893D01*
X189829520Y-51487850D01*
X189819030Y-51465671D01*
X189810765Y-51442572D01*
X189804804Y-51418773D01*
X189801204Y-51394505D01*
X189800000Y-51370001D01*
X189800000Y-50719999D01*
X189801204Y-50695495D01*
X189804804Y-50671227D01*
X189810765Y-50647428D01*
X189819030Y-50624329D01*
X189829520Y-50602150D01*
X189842132Y-50581107D01*
X189856747Y-50561401D01*
X189873223Y-50543223D01*
X189891401Y-50526747D01*
X189911107Y-50512132D01*
X189932150Y-50499520D01*
X189954329Y-50489030D01*
X189977428Y-50480765D01*
X190001227Y-50474804D01*
X190025495Y-50471204D01*
X190049999Y-50470000D01*
X190950001Y-50470000D01*
X190974505Y-50471204D01*
X190974505Y-50471204D01*
G37*
D11*
X190500000Y-51045000D03*
D10*
G36*
X143984505Y-112211204D02*
G01*
X144008773Y-112214804D01*
X144032572Y-112220765D01*
X144055671Y-112229030D01*
X144077850Y-112239520D01*
X144098893Y-112252132D01*
X144118599Y-112266747D01*
X144136777Y-112283223D01*
X144153253Y-112301401D01*
X144167868Y-112321107D01*
X144180480Y-112342150D01*
X144190970Y-112364329D01*
X144199235Y-112387428D01*
X144205196Y-112411227D01*
X144208796Y-112435495D01*
X144210000Y-112459999D01*
X144210000Y-113110001D01*
X144208796Y-113134505D01*
X144205196Y-113158773D01*
X144199235Y-113182572D01*
X144190970Y-113205671D01*
X144180480Y-113227850D01*
X144167868Y-113248893D01*
X144153253Y-113268599D01*
X144136777Y-113286777D01*
X144118599Y-113303253D01*
X144098893Y-113317868D01*
X144077850Y-113330480D01*
X144055671Y-113340970D01*
X144032572Y-113349235D01*
X144008773Y-113355196D01*
X143984505Y-113358796D01*
X143960001Y-113360000D01*
X143059999Y-113360000D01*
X143035495Y-113358796D01*
X143011227Y-113355196D01*
X142987428Y-113349235D01*
X142964329Y-113340970D01*
X142942150Y-113330480D01*
X142921107Y-113317868D01*
X142901401Y-113303253D01*
X142883223Y-113286777D01*
X142866747Y-113268599D01*
X142852132Y-113248893D01*
X142839520Y-113227850D01*
X142829030Y-113205671D01*
X142820765Y-113182572D01*
X142814804Y-113158773D01*
X142811204Y-113134505D01*
X142810000Y-113110001D01*
X142810000Y-112459999D01*
X142811204Y-112435495D01*
X142814804Y-112411227D01*
X142820765Y-112387428D01*
X142829030Y-112364329D01*
X142839520Y-112342150D01*
X142852132Y-112321107D01*
X142866747Y-112301401D01*
X142883223Y-112283223D01*
X142901401Y-112266747D01*
X142921107Y-112252132D01*
X142942150Y-112239520D01*
X142964329Y-112229030D01*
X142987428Y-112220765D01*
X143011227Y-112214804D01*
X143035495Y-112211204D01*
X143059999Y-112210000D01*
X143960001Y-112210000D01*
X143984505Y-112211204D01*
X143984505Y-112211204D01*
G37*
D11*
X143510000Y-112785000D03*
D10*
G36*
X143984505Y-110161204D02*
G01*
X144008773Y-110164804D01*
X144032572Y-110170765D01*
X144055671Y-110179030D01*
X144077850Y-110189520D01*
X144098893Y-110202132D01*
X144118599Y-110216747D01*
X144136777Y-110233223D01*
X144153253Y-110251401D01*
X144167868Y-110271107D01*
X144180480Y-110292150D01*
X144190970Y-110314329D01*
X144199235Y-110337428D01*
X144205196Y-110361227D01*
X144208796Y-110385495D01*
X144210000Y-110409999D01*
X144210000Y-111060001D01*
X144208796Y-111084505D01*
X144205196Y-111108773D01*
X144199235Y-111132572D01*
X144190970Y-111155671D01*
X144180480Y-111177850D01*
X144167868Y-111198893D01*
X144153253Y-111218599D01*
X144136777Y-111236777D01*
X144118599Y-111253253D01*
X144098893Y-111267868D01*
X144077850Y-111280480D01*
X144055671Y-111290970D01*
X144032572Y-111299235D01*
X144008773Y-111305196D01*
X143984505Y-111308796D01*
X143960001Y-111310000D01*
X143059999Y-111310000D01*
X143035495Y-111308796D01*
X143011227Y-111305196D01*
X142987428Y-111299235D01*
X142964329Y-111290970D01*
X142942150Y-111280480D01*
X142921107Y-111267868D01*
X142901401Y-111253253D01*
X142883223Y-111236777D01*
X142866747Y-111218599D01*
X142852132Y-111198893D01*
X142839520Y-111177850D01*
X142829030Y-111155671D01*
X142820765Y-111132572D01*
X142814804Y-111108773D01*
X142811204Y-111084505D01*
X142810000Y-111060001D01*
X142810000Y-110409999D01*
X142811204Y-110385495D01*
X142814804Y-110361227D01*
X142820765Y-110337428D01*
X142829030Y-110314329D01*
X142839520Y-110292150D01*
X142852132Y-110271107D01*
X142866747Y-110251401D01*
X142883223Y-110233223D01*
X142901401Y-110216747D01*
X142921107Y-110202132D01*
X142942150Y-110189520D01*
X142964329Y-110179030D01*
X142987428Y-110170765D01*
X143011227Y-110164804D01*
X143035495Y-110161204D01*
X143059999Y-110160000D01*
X143960001Y-110160000D01*
X143984505Y-110161204D01*
X143984505Y-110161204D01*
G37*
D11*
X143510000Y-110735000D03*
D10*
G36*
X188434505Y-52521204D02*
G01*
X188458773Y-52524804D01*
X188482572Y-52530765D01*
X188505671Y-52539030D01*
X188527850Y-52549520D01*
X188548893Y-52562132D01*
X188568599Y-52576747D01*
X188586777Y-52593223D01*
X188603253Y-52611401D01*
X188617868Y-52631107D01*
X188630480Y-52652150D01*
X188640970Y-52674329D01*
X188649235Y-52697428D01*
X188655196Y-52721227D01*
X188658796Y-52745495D01*
X188660000Y-52769999D01*
X188660000Y-53420001D01*
X188658796Y-53444505D01*
X188655196Y-53468773D01*
X188649235Y-53492572D01*
X188640970Y-53515671D01*
X188630480Y-53537850D01*
X188617868Y-53558893D01*
X188603253Y-53578599D01*
X188586777Y-53596777D01*
X188568599Y-53613253D01*
X188548893Y-53627868D01*
X188527850Y-53640480D01*
X188505671Y-53650970D01*
X188482572Y-53659235D01*
X188458773Y-53665196D01*
X188434505Y-53668796D01*
X188410001Y-53670000D01*
X187509999Y-53670000D01*
X187485495Y-53668796D01*
X187461227Y-53665196D01*
X187437428Y-53659235D01*
X187414329Y-53650970D01*
X187392150Y-53640480D01*
X187371107Y-53627868D01*
X187351401Y-53613253D01*
X187333223Y-53596777D01*
X187316747Y-53578599D01*
X187302132Y-53558893D01*
X187289520Y-53537850D01*
X187279030Y-53515671D01*
X187270765Y-53492572D01*
X187264804Y-53468773D01*
X187261204Y-53444505D01*
X187260000Y-53420001D01*
X187260000Y-52769999D01*
X187261204Y-52745495D01*
X187264804Y-52721227D01*
X187270765Y-52697428D01*
X187279030Y-52674329D01*
X187289520Y-52652150D01*
X187302132Y-52631107D01*
X187316747Y-52611401D01*
X187333223Y-52593223D01*
X187351401Y-52576747D01*
X187371107Y-52562132D01*
X187392150Y-52549520D01*
X187414329Y-52539030D01*
X187437428Y-52530765D01*
X187461227Y-52524804D01*
X187485495Y-52521204D01*
X187509999Y-52520000D01*
X188410001Y-52520000D01*
X188434505Y-52521204D01*
X188434505Y-52521204D01*
G37*
D11*
X187960000Y-53095000D03*
D10*
G36*
X188434505Y-50471204D02*
G01*
X188458773Y-50474804D01*
X188482572Y-50480765D01*
X188505671Y-50489030D01*
X188527850Y-50499520D01*
X188548893Y-50512132D01*
X188568599Y-50526747D01*
X188586777Y-50543223D01*
X188603253Y-50561401D01*
X188617868Y-50581107D01*
X188630480Y-50602150D01*
X188640970Y-50624329D01*
X188649235Y-50647428D01*
X188655196Y-50671227D01*
X188658796Y-50695495D01*
X188660000Y-50719999D01*
X188660000Y-51370001D01*
X188658796Y-51394505D01*
X188655196Y-51418773D01*
X188649235Y-51442572D01*
X188640970Y-51465671D01*
X188630480Y-51487850D01*
X188617868Y-51508893D01*
X188603253Y-51528599D01*
X188586777Y-51546777D01*
X188568599Y-51563253D01*
X188548893Y-51577868D01*
X188527850Y-51590480D01*
X188505671Y-51600970D01*
X188482572Y-51609235D01*
X188458773Y-51615196D01*
X188434505Y-51618796D01*
X188410001Y-51620000D01*
X187509999Y-51620000D01*
X187485495Y-51618796D01*
X187461227Y-51615196D01*
X187437428Y-51609235D01*
X187414329Y-51600970D01*
X187392150Y-51590480D01*
X187371107Y-51577868D01*
X187351401Y-51563253D01*
X187333223Y-51546777D01*
X187316747Y-51528599D01*
X187302132Y-51508893D01*
X187289520Y-51487850D01*
X187279030Y-51465671D01*
X187270765Y-51442572D01*
X187264804Y-51418773D01*
X187261204Y-51394505D01*
X187260000Y-51370001D01*
X187260000Y-50719999D01*
X187261204Y-50695495D01*
X187264804Y-50671227D01*
X187270765Y-50647428D01*
X187279030Y-50624329D01*
X187289520Y-50602150D01*
X187302132Y-50581107D01*
X187316747Y-50561401D01*
X187333223Y-50543223D01*
X187351401Y-50526747D01*
X187371107Y-50512132D01*
X187392150Y-50499520D01*
X187414329Y-50489030D01*
X187437428Y-50480765D01*
X187461227Y-50474804D01*
X187485495Y-50471204D01*
X187509999Y-50470000D01*
X188410001Y-50470000D01*
X188434505Y-50471204D01*
X188434505Y-50471204D01*
G37*
D11*
X187960000Y-51045000D03*
D10*
G36*
X118584505Y-110161204D02*
G01*
X118608773Y-110164804D01*
X118632572Y-110170765D01*
X118655671Y-110179030D01*
X118677850Y-110189520D01*
X118698893Y-110202132D01*
X118718599Y-110216747D01*
X118736777Y-110233223D01*
X118753253Y-110251401D01*
X118767868Y-110271107D01*
X118780480Y-110292150D01*
X118790970Y-110314329D01*
X118799235Y-110337428D01*
X118805196Y-110361227D01*
X118808796Y-110385495D01*
X118810000Y-110409999D01*
X118810000Y-111060001D01*
X118808796Y-111084505D01*
X118805196Y-111108773D01*
X118799235Y-111132572D01*
X118790970Y-111155671D01*
X118780480Y-111177850D01*
X118767868Y-111198893D01*
X118753253Y-111218599D01*
X118736777Y-111236777D01*
X118718599Y-111253253D01*
X118698893Y-111267868D01*
X118677850Y-111280480D01*
X118655671Y-111290970D01*
X118632572Y-111299235D01*
X118608773Y-111305196D01*
X118584505Y-111308796D01*
X118560001Y-111310000D01*
X117659999Y-111310000D01*
X117635495Y-111308796D01*
X117611227Y-111305196D01*
X117587428Y-111299235D01*
X117564329Y-111290970D01*
X117542150Y-111280480D01*
X117521107Y-111267868D01*
X117501401Y-111253253D01*
X117483223Y-111236777D01*
X117466747Y-111218599D01*
X117452132Y-111198893D01*
X117439520Y-111177850D01*
X117429030Y-111155671D01*
X117420765Y-111132572D01*
X117414804Y-111108773D01*
X117411204Y-111084505D01*
X117410000Y-111060001D01*
X117410000Y-110409999D01*
X117411204Y-110385495D01*
X117414804Y-110361227D01*
X117420765Y-110337428D01*
X117429030Y-110314329D01*
X117439520Y-110292150D01*
X117452132Y-110271107D01*
X117466747Y-110251401D01*
X117483223Y-110233223D01*
X117501401Y-110216747D01*
X117521107Y-110202132D01*
X117542150Y-110189520D01*
X117564329Y-110179030D01*
X117587428Y-110170765D01*
X117611227Y-110164804D01*
X117635495Y-110161204D01*
X117659999Y-110160000D01*
X118560001Y-110160000D01*
X118584505Y-110161204D01*
X118584505Y-110161204D01*
G37*
D11*
X118110000Y-110735000D03*
D10*
G36*
X118584505Y-112211204D02*
G01*
X118608773Y-112214804D01*
X118632572Y-112220765D01*
X118655671Y-112229030D01*
X118677850Y-112239520D01*
X118698893Y-112252132D01*
X118718599Y-112266747D01*
X118736777Y-112283223D01*
X118753253Y-112301401D01*
X118767868Y-112321107D01*
X118780480Y-112342150D01*
X118790970Y-112364329D01*
X118799235Y-112387428D01*
X118805196Y-112411227D01*
X118808796Y-112435495D01*
X118810000Y-112459999D01*
X118810000Y-113110001D01*
X118808796Y-113134505D01*
X118805196Y-113158773D01*
X118799235Y-113182572D01*
X118790970Y-113205671D01*
X118780480Y-113227850D01*
X118767868Y-113248893D01*
X118753253Y-113268599D01*
X118736777Y-113286777D01*
X118718599Y-113303253D01*
X118698893Y-113317868D01*
X118677850Y-113330480D01*
X118655671Y-113340970D01*
X118632572Y-113349235D01*
X118608773Y-113355196D01*
X118584505Y-113358796D01*
X118560001Y-113360000D01*
X117659999Y-113360000D01*
X117635495Y-113358796D01*
X117611227Y-113355196D01*
X117587428Y-113349235D01*
X117564329Y-113340970D01*
X117542150Y-113330480D01*
X117521107Y-113317868D01*
X117501401Y-113303253D01*
X117483223Y-113286777D01*
X117466747Y-113268599D01*
X117452132Y-113248893D01*
X117439520Y-113227850D01*
X117429030Y-113205671D01*
X117420765Y-113182572D01*
X117414804Y-113158773D01*
X117411204Y-113134505D01*
X117410000Y-113110001D01*
X117410000Y-112459999D01*
X117411204Y-112435495D01*
X117414804Y-112411227D01*
X117420765Y-112387428D01*
X117429030Y-112364329D01*
X117439520Y-112342150D01*
X117452132Y-112321107D01*
X117466747Y-112301401D01*
X117483223Y-112283223D01*
X117501401Y-112266747D01*
X117521107Y-112252132D01*
X117542150Y-112239520D01*
X117564329Y-112229030D01*
X117587428Y-112220765D01*
X117611227Y-112214804D01*
X117635495Y-112211204D01*
X117659999Y-112210000D01*
X118560001Y-112210000D01*
X118584505Y-112211204D01*
X118584505Y-112211204D01*
G37*
D11*
X118110000Y-112785000D03*
D10*
G36*
X185894505Y-50471204D02*
G01*
X185918773Y-50474804D01*
X185942572Y-50480765D01*
X185965671Y-50489030D01*
X185987850Y-50499520D01*
X186008893Y-50512132D01*
X186028599Y-50526747D01*
X186046777Y-50543223D01*
X186063253Y-50561401D01*
X186077868Y-50581107D01*
X186090480Y-50602150D01*
X186100970Y-50624329D01*
X186109235Y-50647428D01*
X186115196Y-50671227D01*
X186118796Y-50695495D01*
X186120000Y-50719999D01*
X186120000Y-51370001D01*
X186118796Y-51394505D01*
X186115196Y-51418773D01*
X186109235Y-51442572D01*
X186100970Y-51465671D01*
X186090480Y-51487850D01*
X186077868Y-51508893D01*
X186063253Y-51528599D01*
X186046777Y-51546777D01*
X186028599Y-51563253D01*
X186008893Y-51577868D01*
X185987850Y-51590480D01*
X185965671Y-51600970D01*
X185942572Y-51609235D01*
X185918773Y-51615196D01*
X185894505Y-51618796D01*
X185870001Y-51620000D01*
X184969999Y-51620000D01*
X184945495Y-51618796D01*
X184921227Y-51615196D01*
X184897428Y-51609235D01*
X184874329Y-51600970D01*
X184852150Y-51590480D01*
X184831107Y-51577868D01*
X184811401Y-51563253D01*
X184793223Y-51546777D01*
X184776747Y-51528599D01*
X184762132Y-51508893D01*
X184749520Y-51487850D01*
X184739030Y-51465671D01*
X184730765Y-51442572D01*
X184724804Y-51418773D01*
X184721204Y-51394505D01*
X184720000Y-51370001D01*
X184720000Y-50719999D01*
X184721204Y-50695495D01*
X184724804Y-50671227D01*
X184730765Y-50647428D01*
X184739030Y-50624329D01*
X184749520Y-50602150D01*
X184762132Y-50581107D01*
X184776747Y-50561401D01*
X184793223Y-50543223D01*
X184811401Y-50526747D01*
X184831107Y-50512132D01*
X184852150Y-50499520D01*
X184874329Y-50489030D01*
X184897428Y-50480765D01*
X184921227Y-50474804D01*
X184945495Y-50471204D01*
X184969999Y-50470000D01*
X185870001Y-50470000D01*
X185894505Y-50471204D01*
X185894505Y-50471204D01*
G37*
D11*
X185420000Y-51045000D03*
D10*
G36*
X185894505Y-52521204D02*
G01*
X185918773Y-52524804D01*
X185942572Y-52530765D01*
X185965671Y-52539030D01*
X185987850Y-52549520D01*
X186008893Y-52562132D01*
X186028599Y-52576747D01*
X186046777Y-52593223D01*
X186063253Y-52611401D01*
X186077868Y-52631107D01*
X186090480Y-52652150D01*
X186100970Y-52674329D01*
X186109235Y-52697428D01*
X186115196Y-52721227D01*
X186118796Y-52745495D01*
X186120000Y-52769999D01*
X186120000Y-53420001D01*
X186118796Y-53444505D01*
X186115196Y-53468773D01*
X186109235Y-53492572D01*
X186100970Y-53515671D01*
X186090480Y-53537850D01*
X186077868Y-53558893D01*
X186063253Y-53578599D01*
X186046777Y-53596777D01*
X186028599Y-53613253D01*
X186008893Y-53627868D01*
X185987850Y-53640480D01*
X185965671Y-53650970D01*
X185942572Y-53659235D01*
X185918773Y-53665196D01*
X185894505Y-53668796D01*
X185870001Y-53670000D01*
X184969999Y-53670000D01*
X184945495Y-53668796D01*
X184921227Y-53665196D01*
X184897428Y-53659235D01*
X184874329Y-53650970D01*
X184852150Y-53640480D01*
X184831107Y-53627868D01*
X184811401Y-53613253D01*
X184793223Y-53596777D01*
X184776747Y-53578599D01*
X184762132Y-53558893D01*
X184749520Y-53537850D01*
X184739030Y-53515671D01*
X184730765Y-53492572D01*
X184724804Y-53468773D01*
X184721204Y-53444505D01*
X184720000Y-53420001D01*
X184720000Y-52769999D01*
X184721204Y-52745495D01*
X184724804Y-52721227D01*
X184730765Y-52697428D01*
X184739030Y-52674329D01*
X184749520Y-52652150D01*
X184762132Y-52631107D01*
X184776747Y-52611401D01*
X184793223Y-52593223D01*
X184811401Y-52576747D01*
X184831107Y-52562132D01*
X184852150Y-52549520D01*
X184874329Y-52539030D01*
X184897428Y-52530765D01*
X184921227Y-52524804D01*
X184945495Y-52521204D01*
X184969999Y-52520000D01*
X185870001Y-52520000D01*
X185894505Y-52521204D01*
X185894505Y-52521204D01*
G37*
D11*
X185420000Y-53095000D03*
D10*
G36*
X93184505Y-110161204D02*
G01*
X93208773Y-110164804D01*
X93232572Y-110170765D01*
X93255671Y-110179030D01*
X93277850Y-110189520D01*
X93298893Y-110202132D01*
X93318599Y-110216747D01*
X93336777Y-110233223D01*
X93353253Y-110251401D01*
X93367868Y-110271107D01*
X93380480Y-110292150D01*
X93390970Y-110314329D01*
X93399235Y-110337428D01*
X93405196Y-110361227D01*
X93408796Y-110385495D01*
X93410000Y-110409999D01*
X93410000Y-111060001D01*
X93408796Y-111084505D01*
X93405196Y-111108773D01*
X93399235Y-111132572D01*
X93390970Y-111155671D01*
X93380480Y-111177850D01*
X93367868Y-111198893D01*
X93353253Y-111218599D01*
X93336777Y-111236777D01*
X93318599Y-111253253D01*
X93298893Y-111267868D01*
X93277850Y-111280480D01*
X93255671Y-111290970D01*
X93232572Y-111299235D01*
X93208773Y-111305196D01*
X93184505Y-111308796D01*
X93160001Y-111310000D01*
X92259999Y-111310000D01*
X92235495Y-111308796D01*
X92211227Y-111305196D01*
X92187428Y-111299235D01*
X92164329Y-111290970D01*
X92142150Y-111280480D01*
X92121107Y-111267868D01*
X92101401Y-111253253D01*
X92083223Y-111236777D01*
X92066747Y-111218599D01*
X92052132Y-111198893D01*
X92039520Y-111177850D01*
X92029030Y-111155671D01*
X92020765Y-111132572D01*
X92014804Y-111108773D01*
X92011204Y-111084505D01*
X92010000Y-111060001D01*
X92010000Y-110409999D01*
X92011204Y-110385495D01*
X92014804Y-110361227D01*
X92020765Y-110337428D01*
X92029030Y-110314329D01*
X92039520Y-110292150D01*
X92052132Y-110271107D01*
X92066747Y-110251401D01*
X92083223Y-110233223D01*
X92101401Y-110216747D01*
X92121107Y-110202132D01*
X92142150Y-110189520D01*
X92164329Y-110179030D01*
X92187428Y-110170765D01*
X92211227Y-110164804D01*
X92235495Y-110161204D01*
X92259999Y-110160000D01*
X93160001Y-110160000D01*
X93184505Y-110161204D01*
X93184505Y-110161204D01*
G37*
D11*
X92710000Y-110735000D03*
D10*
G36*
X93184505Y-112211204D02*
G01*
X93208773Y-112214804D01*
X93232572Y-112220765D01*
X93255671Y-112229030D01*
X93277850Y-112239520D01*
X93298893Y-112252132D01*
X93318599Y-112266747D01*
X93336777Y-112283223D01*
X93353253Y-112301401D01*
X93367868Y-112321107D01*
X93380480Y-112342150D01*
X93390970Y-112364329D01*
X93399235Y-112387428D01*
X93405196Y-112411227D01*
X93408796Y-112435495D01*
X93410000Y-112459999D01*
X93410000Y-113110001D01*
X93408796Y-113134505D01*
X93405196Y-113158773D01*
X93399235Y-113182572D01*
X93390970Y-113205671D01*
X93380480Y-113227850D01*
X93367868Y-113248893D01*
X93353253Y-113268599D01*
X93336777Y-113286777D01*
X93318599Y-113303253D01*
X93298893Y-113317868D01*
X93277850Y-113330480D01*
X93255671Y-113340970D01*
X93232572Y-113349235D01*
X93208773Y-113355196D01*
X93184505Y-113358796D01*
X93160001Y-113360000D01*
X92259999Y-113360000D01*
X92235495Y-113358796D01*
X92211227Y-113355196D01*
X92187428Y-113349235D01*
X92164329Y-113340970D01*
X92142150Y-113330480D01*
X92121107Y-113317868D01*
X92101401Y-113303253D01*
X92083223Y-113286777D01*
X92066747Y-113268599D01*
X92052132Y-113248893D01*
X92039520Y-113227850D01*
X92029030Y-113205671D01*
X92020765Y-113182572D01*
X92014804Y-113158773D01*
X92011204Y-113134505D01*
X92010000Y-113110001D01*
X92010000Y-112459999D01*
X92011204Y-112435495D01*
X92014804Y-112411227D01*
X92020765Y-112387428D01*
X92029030Y-112364329D01*
X92039520Y-112342150D01*
X92052132Y-112321107D01*
X92066747Y-112301401D01*
X92083223Y-112283223D01*
X92101401Y-112266747D01*
X92121107Y-112252132D01*
X92142150Y-112239520D01*
X92164329Y-112229030D01*
X92187428Y-112220765D01*
X92211227Y-112214804D01*
X92235495Y-112211204D01*
X92259999Y-112210000D01*
X93160001Y-112210000D01*
X93184505Y-112211204D01*
X93184505Y-112211204D01*
G37*
D11*
X92710000Y-112785000D03*
D10*
G36*
X200619505Y-54546204D02*
G01*
X200643773Y-54549804D01*
X200667572Y-54555765D01*
X200690671Y-54564030D01*
X200712850Y-54574520D01*
X200733893Y-54587132D01*
X200753599Y-54601747D01*
X200771777Y-54618223D01*
X200788253Y-54636401D01*
X200802868Y-54656107D01*
X200815480Y-54677150D01*
X200825970Y-54699329D01*
X200834235Y-54722428D01*
X200840196Y-54746227D01*
X200843796Y-54770495D01*
X200845000Y-54794999D01*
X200845000Y-55695001D01*
X200843796Y-55719505D01*
X200840196Y-55743773D01*
X200834235Y-55767572D01*
X200825970Y-55790671D01*
X200815480Y-55812850D01*
X200802868Y-55833893D01*
X200788253Y-55853599D01*
X200771777Y-55871777D01*
X200753599Y-55888253D01*
X200733893Y-55902868D01*
X200712850Y-55915480D01*
X200690671Y-55925970D01*
X200667572Y-55934235D01*
X200643773Y-55940196D01*
X200619505Y-55943796D01*
X200595001Y-55945000D01*
X199944999Y-55945000D01*
X199920495Y-55943796D01*
X199896227Y-55940196D01*
X199872428Y-55934235D01*
X199849329Y-55925970D01*
X199827150Y-55915480D01*
X199806107Y-55902868D01*
X199786401Y-55888253D01*
X199768223Y-55871777D01*
X199751747Y-55853599D01*
X199737132Y-55833893D01*
X199724520Y-55812850D01*
X199714030Y-55790671D01*
X199705765Y-55767572D01*
X199699804Y-55743773D01*
X199696204Y-55719505D01*
X199695000Y-55695001D01*
X199695000Y-54794999D01*
X199696204Y-54770495D01*
X199699804Y-54746227D01*
X199705765Y-54722428D01*
X199714030Y-54699329D01*
X199724520Y-54677150D01*
X199737132Y-54656107D01*
X199751747Y-54636401D01*
X199768223Y-54618223D01*
X199786401Y-54601747D01*
X199806107Y-54587132D01*
X199827150Y-54574520D01*
X199849329Y-54564030D01*
X199872428Y-54555765D01*
X199896227Y-54549804D01*
X199920495Y-54546204D01*
X199944999Y-54545000D01*
X200595001Y-54545000D01*
X200619505Y-54546204D01*
X200619505Y-54546204D01*
G37*
D11*
X200270000Y-55245000D03*
D10*
G36*
X202669505Y-54546204D02*
G01*
X202693773Y-54549804D01*
X202717572Y-54555765D01*
X202740671Y-54564030D01*
X202762850Y-54574520D01*
X202783893Y-54587132D01*
X202803599Y-54601747D01*
X202821777Y-54618223D01*
X202838253Y-54636401D01*
X202852868Y-54656107D01*
X202865480Y-54677150D01*
X202875970Y-54699329D01*
X202884235Y-54722428D01*
X202890196Y-54746227D01*
X202893796Y-54770495D01*
X202895000Y-54794999D01*
X202895000Y-55695001D01*
X202893796Y-55719505D01*
X202890196Y-55743773D01*
X202884235Y-55767572D01*
X202875970Y-55790671D01*
X202865480Y-55812850D01*
X202852868Y-55833893D01*
X202838253Y-55853599D01*
X202821777Y-55871777D01*
X202803599Y-55888253D01*
X202783893Y-55902868D01*
X202762850Y-55915480D01*
X202740671Y-55925970D01*
X202717572Y-55934235D01*
X202693773Y-55940196D01*
X202669505Y-55943796D01*
X202645001Y-55945000D01*
X201994999Y-55945000D01*
X201970495Y-55943796D01*
X201946227Y-55940196D01*
X201922428Y-55934235D01*
X201899329Y-55925970D01*
X201877150Y-55915480D01*
X201856107Y-55902868D01*
X201836401Y-55888253D01*
X201818223Y-55871777D01*
X201801747Y-55853599D01*
X201787132Y-55833893D01*
X201774520Y-55812850D01*
X201764030Y-55790671D01*
X201755765Y-55767572D01*
X201749804Y-55743773D01*
X201746204Y-55719505D01*
X201745000Y-55695001D01*
X201745000Y-54794999D01*
X201746204Y-54770495D01*
X201749804Y-54746227D01*
X201755765Y-54722428D01*
X201764030Y-54699329D01*
X201774520Y-54677150D01*
X201787132Y-54656107D01*
X201801747Y-54636401D01*
X201818223Y-54618223D01*
X201836401Y-54601747D01*
X201856107Y-54587132D01*
X201877150Y-54574520D01*
X201899329Y-54564030D01*
X201922428Y-54555765D01*
X201946227Y-54549804D01*
X201970495Y-54546204D01*
X201994999Y-54545000D01*
X202645001Y-54545000D01*
X202669505Y-54546204D01*
X202669505Y-54546204D01*
G37*
D11*
X202320000Y-55245000D03*
D10*
G36*
X121244505Y-43751204D02*
G01*
X121268773Y-43754804D01*
X121292572Y-43760765D01*
X121315671Y-43769030D01*
X121337850Y-43779520D01*
X121358893Y-43792132D01*
X121378599Y-43806747D01*
X121396777Y-43823223D01*
X121413253Y-43841401D01*
X121427868Y-43861107D01*
X121440480Y-43882150D01*
X121450970Y-43904329D01*
X121459235Y-43927428D01*
X121465196Y-43951227D01*
X121468796Y-43975495D01*
X121470000Y-43999999D01*
X121470000Y-44900001D01*
X121468796Y-44924505D01*
X121465196Y-44948773D01*
X121459235Y-44972572D01*
X121450970Y-44995671D01*
X121440480Y-45017850D01*
X121427868Y-45038893D01*
X121413253Y-45058599D01*
X121396777Y-45076777D01*
X121378599Y-45093253D01*
X121358893Y-45107868D01*
X121337850Y-45120480D01*
X121315671Y-45130970D01*
X121292572Y-45139235D01*
X121268773Y-45145196D01*
X121244505Y-45148796D01*
X121220001Y-45150000D01*
X120569999Y-45150000D01*
X120545495Y-45148796D01*
X120521227Y-45145196D01*
X120497428Y-45139235D01*
X120474329Y-45130970D01*
X120452150Y-45120480D01*
X120431107Y-45107868D01*
X120411401Y-45093253D01*
X120393223Y-45076777D01*
X120376747Y-45058599D01*
X120362132Y-45038893D01*
X120349520Y-45017850D01*
X120339030Y-44995671D01*
X120330765Y-44972572D01*
X120324804Y-44948773D01*
X120321204Y-44924505D01*
X120320000Y-44900001D01*
X120320000Y-43999999D01*
X120321204Y-43975495D01*
X120324804Y-43951227D01*
X120330765Y-43927428D01*
X120339030Y-43904329D01*
X120349520Y-43882150D01*
X120362132Y-43861107D01*
X120376747Y-43841401D01*
X120393223Y-43823223D01*
X120411401Y-43806747D01*
X120431107Y-43792132D01*
X120452150Y-43779520D01*
X120474329Y-43769030D01*
X120497428Y-43760765D01*
X120521227Y-43754804D01*
X120545495Y-43751204D01*
X120569999Y-43750000D01*
X121220001Y-43750000D01*
X121244505Y-43751204D01*
X121244505Y-43751204D01*
G37*
D11*
X120895000Y-44450000D03*
D10*
G36*
X123294505Y-43751204D02*
G01*
X123318773Y-43754804D01*
X123342572Y-43760765D01*
X123365671Y-43769030D01*
X123387850Y-43779520D01*
X123408893Y-43792132D01*
X123428599Y-43806747D01*
X123446777Y-43823223D01*
X123463253Y-43841401D01*
X123477868Y-43861107D01*
X123490480Y-43882150D01*
X123500970Y-43904329D01*
X123509235Y-43927428D01*
X123515196Y-43951227D01*
X123518796Y-43975495D01*
X123520000Y-43999999D01*
X123520000Y-44900001D01*
X123518796Y-44924505D01*
X123515196Y-44948773D01*
X123509235Y-44972572D01*
X123500970Y-44995671D01*
X123490480Y-45017850D01*
X123477868Y-45038893D01*
X123463253Y-45058599D01*
X123446777Y-45076777D01*
X123428599Y-45093253D01*
X123408893Y-45107868D01*
X123387850Y-45120480D01*
X123365671Y-45130970D01*
X123342572Y-45139235D01*
X123318773Y-45145196D01*
X123294505Y-45148796D01*
X123270001Y-45150000D01*
X122619999Y-45150000D01*
X122595495Y-45148796D01*
X122571227Y-45145196D01*
X122547428Y-45139235D01*
X122524329Y-45130970D01*
X122502150Y-45120480D01*
X122481107Y-45107868D01*
X122461401Y-45093253D01*
X122443223Y-45076777D01*
X122426747Y-45058599D01*
X122412132Y-45038893D01*
X122399520Y-45017850D01*
X122389030Y-44995671D01*
X122380765Y-44972572D01*
X122374804Y-44948773D01*
X122371204Y-44924505D01*
X122370000Y-44900001D01*
X122370000Y-43999999D01*
X122371204Y-43975495D01*
X122374804Y-43951227D01*
X122380765Y-43927428D01*
X122389030Y-43904329D01*
X122399520Y-43882150D01*
X122412132Y-43861107D01*
X122426747Y-43841401D01*
X122443223Y-43823223D01*
X122461401Y-43806747D01*
X122481107Y-43792132D01*
X122502150Y-43779520D01*
X122524329Y-43769030D01*
X122547428Y-43760765D01*
X122571227Y-43754804D01*
X122595495Y-43751204D01*
X122619999Y-43750000D01*
X123270001Y-43750000D01*
X123294505Y-43751204D01*
X123294505Y-43751204D01*
G37*
D11*
X122945000Y-44450000D03*
D10*
G36*
X140499703Y-46395722D02*
G01*
X140514264Y-46397882D01*
X140528543Y-46401459D01*
X140542403Y-46406418D01*
X140555710Y-46412712D01*
X140568336Y-46420280D01*
X140580159Y-46429048D01*
X140591066Y-46438934D01*
X140600952Y-46449841D01*
X140609720Y-46461664D01*
X140617288Y-46474290D01*
X140623582Y-46487597D01*
X140628541Y-46501457D01*
X140632118Y-46515736D01*
X140634278Y-46530297D01*
X140635000Y-46545000D01*
X140635000Y-48295000D01*
X140634278Y-48309703D01*
X140632118Y-48324264D01*
X140628541Y-48338543D01*
X140623582Y-48352403D01*
X140617288Y-48365710D01*
X140609720Y-48378336D01*
X140600952Y-48390159D01*
X140591066Y-48401066D01*
X140580159Y-48410952D01*
X140568336Y-48419720D01*
X140555710Y-48427288D01*
X140542403Y-48433582D01*
X140528543Y-48438541D01*
X140514264Y-48442118D01*
X140499703Y-48444278D01*
X140485000Y-48445000D01*
X140185000Y-48445000D01*
X140170297Y-48444278D01*
X140155736Y-48442118D01*
X140141457Y-48438541D01*
X140127597Y-48433582D01*
X140114290Y-48427288D01*
X140101664Y-48419720D01*
X140089841Y-48410952D01*
X140078934Y-48401066D01*
X140069048Y-48390159D01*
X140060280Y-48378336D01*
X140052712Y-48365710D01*
X140046418Y-48352403D01*
X140041459Y-48338543D01*
X140037882Y-48324264D01*
X140035722Y-48309703D01*
X140035000Y-48295000D01*
X140035000Y-46545000D01*
X140035722Y-46530297D01*
X140037882Y-46515736D01*
X140041459Y-46501457D01*
X140046418Y-46487597D01*
X140052712Y-46474290D01*
X140060280Y-46461664D01*
X140069048Y-46449841D01*
X140078934Y-46438934D01*
X140089841Y-46429048D01*
X140101664Y-46420280D01*
X140114290Y-46412712D01*
X140127597Y-46406418D01*
X140141457Y-46401459D01*
X140155736Y-46397882D01*
X140170297Y-46395722D01*
X140185000Y-46395000D01*
X140485000Y-46395000D01*
X140499703Y-46395722D01*
X140499703Y-46395722D01*
G37*
D12*
X140335000Y-47420000D03*
D10*
G36*
X141769703Y-46395722D02*
G01*
X141784264Y-46397882D01*
X141798543Y-46401459D01*
X141812403Y-46406418D01*
X141825710Y-46412712D01*
X141838336Y-46420280D01*
X141850159Y-46429048D01*
X141861066Y-46438934D01*
X141870952Y-46449841D01*
X141879720Y-46461664D01*
X141887288Y-46474290D01*
X141893582Y-46487597D01*
X141898541Y-46501457D01*
X141902118Y-46515736D01*
X141904278Y-46530297D01*
X141905000Y-46545000D01*
X141905000Y-48295000D01*
X141904278Y-48309703D01*
X141902118Y-48324264D01*
X141898541Y-48338543D01*
X141893582Y-48352403D01*
X141887288Y-48365710D01*
X141879720Y-48378336D01*
X141870952Y-48390159D01*
X141861066Y-48401066D01*
X141850159Y-48410952D01*
X141838336Y-48419720D01*
X141825710Y-48427288D01*
X141812403Y-48433582D01*
X141798543Y-48438541D01*
X141784264Y-48442118D01*
X141769703Y-48444278D01*
X141755000Y-48445000D01*
X141455000Y-48445000D01*
X141440297Y-48444278D01*
X141425736Y-48442118D01*
X141411457Y-48438541D01*
X141397597Y-48433582D01*
X141384290Y-48427288D01*
X141371664Y-48419720D01*
X141359841Y-48410952D01*
X141348934Y-48401066D01*
X141339048Y-48390159D01*
X141330280Y-48378336D01*
X141322712Y-48365710D01*
X141316418Y-48352403D01*
X141311459Y-48338543D01*
X141307882Y-48324264D01*
X141305722Y-48309703D01*
X141305000Y-48295000D01*
X141305000Y-46545000D01*
X141305722Y-46530297D01*
X141307882Y-46515736D01*
X141311459Y-46501457D01*
X141316418Y-46487597D01*
X141322712Y-46474290D01*
X141330280Y-46461664D01*
X141339048Y-46449841D01*
X141348934Y-46438934D01*
X141359841Y-46429048D01*
X141371664Y-46420280D01*
X141384290Y-46412712D01*
X141397597Y-46406418D01*
X141411457Y-46401459D01*
X141425736Y-46397882D01*
X141440297Y-46395722D01*
X141455000Y-46395000D01*
X141755000Y-46395000D01*
X141769703Y-46395722D01*
X141769703Y-46395722D01*
G37*
D12*
X141605000Y-47420000D03*
D10*
G36*
X143039703Y-46395722D02*
G01*
X143054264Y-46397882D01*
X143068543Y-46401459D01*
X143082403Y-46406418D01*
X143095710Y-46412712D01*
X143108336Y-46420280D01*
X143120159Y-46429048D01*
X143131066Y-46438934D01*
X143140952Y-46449841D01*
X143149720Y-46461664D01*
X143157288Y-46474290D01*
X143163582Y-46487597D01*
X143168541Y-46501457D01*
X143172118Y-46515736D01*
X143174278Y-46530297D01*
X143175000Y-46545000D01*
X143175000Y-48295000D01*
X143174278Y-48309703D01*
X143172118Y-48324264D01*
X143168541Y-48338543D01*
X143163582Y-48352403D01*
X143157288Y-48365710D01*
X143149720Y-48378336D01*
X143140952Y-48390159D01*
X143131066Y-48401066D01*
X143120159Y-48410952D01*
X143108336Y-48419720D01*
X143095710Y-48427288D01*
X143082403Y-48433582D01*
X143068543Y-48438541D01*
X143054264Y-48442118D01*
X143039703Y-48444278D01*
X143025000Y-48445000D01*
X142725000Y-48445000D01*
X142710297Y-48444278D01*
X142695736Y-48442118D01*
X142681457Y-48438541D01*
X142667597Y-48433582D01*
X142654290Y-48427288D01*
X142641664Y-48419720D01*
X142629841Y-48410952D01*
X142618934Y-48401066D01*
X142609048Y-48390159D01*
X142600280Y-48378336D01*
X142592712Y-48365710D01*
X142586418Y-48352403D01*
X142581459Y-48338543D01*
X142577882Y-48324264D01*
X142575722Y-48309703D01*
X142575000Y-48295000D01*
X142575000Y-46545000D01*
X142575722Y-46530297D01*
X142577882Y-46515736D01*
X142581459Y-46501457D01*
X142586418Y-46487597D01*
X142592712Y-46474290D01*
X142600280Y-46461664D01*
X142609048Y-46449841D01*
X142618934Y-46438934D01*
X142629841Y-46429048D01*
X142641664Y-46420280D01*
X142654290Y-46412712D01*
X142667597Y-46406418D01*
X142681457Y-46401459D01*
X142695736Y-46397882D01*
X142710297Y-46395722D01*
X142725000Y-46395000D01*
X143025000Y-46395000D01*
X143039703Y-46395722D01*
X143039703Y-46395722D01*
G37*
D12*
X142875000Y-47420000D03*
D10*
G36*
X144309703Y-46395722D02*
G01*
X144324264Y-46397882D01*
X144338543Y-46401459D01*
X144352403Y-46406418D01*
X144365710Y-46412712D01*
X144378336Y-46420280D01*
X144390159Y-46429048D01*
X144401066Y-46438934D01*
X144410952Y-46449841D01*
X144419720Y-46461664D01*
X144427288Y-46474290D01*
X144433582Y-46487597D01*
X144438541Y-46501457D01*
X144442118Y-46515736D01*
X144444278Y-46530297D01*
X144445000Y-46545000D01*
X144445000Y-48295000D01*
X144444278Y-48309703D01*
X144442118Y-48324264D01*
X144438541Y-48338543D01*
X144433582Y-48352403D01*
X144427288Y-48365710D01*
X144419720Y-48378336D01*
X144410952Y-48390159D01*
X144401066Y-48401066D01*
X144390159Y-48410952D01*
X144378336Y-48419720D01*
X144365710Y-48427288D01*
X144352403Y-48433582D01*
X144338543Y-48438541D01*
X144324264Y-48442118D01*
X144309703Y-48444278D01*
X144295000Y-48445000D01*
X143995000Y-48445000D01*
X143980297Y-48444278D01*
X143965736Y-48442118D01*
X143951457Y-48438541D01*
X143937597Y-48433582D01*
X143924290Y-48427288D01*
X143911664Y-48419720D01*
X143899841Y-48410952D01*
X143888934Y-48401066D01*
X143879048Y-48390159D01*
X143870280Y-48378336D01*
X143862712Y-48365710D01*
X143856418Y-48352403D01*
X143851459Y-48338543D01*
X143847882Y-48324264D01*
X143845722Y-48309703D01*
X143845000Y-48295000D01*
X143845000Y-46545000D01*
X143845722Y-46530297D01*
X143847882Y-46515736D01*
X143851459Y-46501457D01*
X143856418Y-46487597D01*
X143862712Y-46474290D01*
X143870280Y-46461664D01*
X143879048Y-46449841D01*
X143888934Y-46438934D01*
X143899841Y-46429048D01*
X143911664Y-46420280D01*
X143924290Y-46412712D01*
X143937597Y-46406418D01*
X143951457Y-46401459D01*
X143965736Y-46397882D01*
X143980297Y-46395722D01*
X143995000Y-46395000D01*
X144295000Y-46395000D01*
X144309703Y-46395722D01*
X144309703Y-46395722D01*
G37*
D12*
X144145000Y-47420000D03*
D10*
G36*
X145579703Y-46395722D02*
G01*
X145594264Y-46397882D01*
X145608543Y-46401459D01*
X145622403Y-46406418D01*
X145635710Y-46412712D01*
X145648336Y-46420280D01*
X145660159Y-46429048D01*
X145671066Y-46438934D01*
X145680952Y-46449841D01*
X145689720Y-46461664D01*
X145697288Y-46474290D01*
X145703582Y-46487597D01*
X145708541Y-46501457D01*
X145712118Y-46515736D01*
X145714278Y-46530297D01*
X145715000Y-46545000D01*
X145715000Y-48295000D01*
X145714278Y-48309703D01*
X145712118Y-48324264D01*
X145708541Y-48338543D01*
X145703582Y-48352403D01*
X145697288Y-48365710D01*
X145689720Y-48378336D01*
X145680952Y-48390159D01*
X145671066Y-48401066D01*
X145660159Y-48410952D01*
X145648336Y-48419720D01*
X145635710Y-48427288D01*
X145622403Y-48433582D01*
X145608543Y-48438541D01*
X145594264Y-48442118D01*
X145579703Y-48444278D01*
X145565000Y-48445000D01*
X145265000Y-48445000D01*
X145250297Y-48444278D01*
X145235736Y-48442118D01*
X145221457Y-48438541D01*
X145207597Y-48433582D01*
X145194290Y-48427288D01*
X145181664Y-48419720D01*
X145169841Y-48410952D01*
X145158934Y-48401066D01*
X145149048Y-48390159D01*
X145140280Y-48378336D01*
X145132712Y-48365710D01*
X145126418Y-48352403D01*
X145121459Y-48338543D01*
X145117882Y-48324264D01*
X145115722Y-48309703D01*
X145115000Y-48295000D01*
X145115000Y-46545000D01*
X145115722Y-46530297D01*
X145117882Y-46515736D01*
X145121459Y-46501457D01*
X145126418Y-46487597D01*
X145132712Y-46474290D01*
X145140280Y-46461664D01*
X145149048Y-46449841D01*
X145158934Y-46438934D01*
X145169841Y-46429048D01*
X145181664Y-46420280D01*
X145194290Y-46412712D01*
X145207597Y-46406418D01*
X145221457Y-46401459D01*
X145235736Y-46397882D01*
X145250297Y-46395722D01*
X145265000Y-46395000D01*
X145565000Y-46395000D01*
X145579703Y-46395722D01*
X145579703Y-46395722D01*
G37*
D12*
X145415000Y-47420000D03*
D10*
G36*
X146849703Y-46395722D02*
G01*
X146864264Y-46397882D01*
X146878543Y-46401459D01*
X146892403Y-46406418D01*
X146905710Y-46412712D01*
X146918336Y-46420280D01*
X146930159Y-46429048D01*
X146941066Y-46438934D01*
X146950952Y-46449841D01*
X146959720Y-46461664D01*
X146967288Y-46474290D01*
X146973582Y-46487597D01*
X146978541Y-46501457D01*
X146982118Y-46515736D01*
X146984278Y-46530297D01*
X146985000Y-46545000D01*
X146985000Y-48295000D01*
X146984278Y-48309703D01*
X146982118Y-48324264D01*
X146978541Y-48338543D01*
X146973582Y-48352403D01*
X146967288Y-48365710D01*
X146959720Y-48378336D01*
X146950952Y-48390159D01*
X146941066Y-48401066D01*
X146930159Y-48410952D01*
X146918336Y-48419720D01*
X146905710Y-48427288D01*
X146892403Y-48433582D01*
X146878543Y-48438541D01*
X146864264Y-48442118D01*
X146849703Y-48444278D01*
X146835000Y-48445000D01*
X146535000Y-48445000D01*
X146520297Y-48444278D01*
X146505736Y-48442118D01*
X146491457Y-48438541D01*
X146477597Y-48433582D01*
X146464290Y-48427288D01*
X146451664Y-48419720D01*
X146439841Y-48410952D01*
X146428934Y-48401066D01*
X146419048Y-48390159D01*
X146410280Y-48378336D01*
X146402712Y-48365710D01*
X146396418Y-48352403D01*
X146391459Y-48338543D01*
X146387882Y-48324264D01*
X146385722Y-48309703D01*
X146385000Y-48295000D01*
X146385000Y-46545000D01*
X146385722Y-46530297D01*
X146387882Y-46515736D01*
X146391459Y-46501457D01*
X146396418Y-46487597D01*
X146402712Y-46474290D01*
X146410280Y-46461664D01*
X146419048Y-46449841D01*
X146428934Y-46438934D01*
X146439841Y-46429048D01*
X146451664Y-46420280D01*
X146464290Y-46412712D01*
X146477597Y-46406418D01*
X146491457Y-46401459D01*
X146505736Y-46397882D01*
X146520297Y-46395722D01*
X146535000Y-46395000D01*
X146835000Y-46395000D01*
X146849703Y-46395722D01*
X146849703Y-46395722D01*
G37*
D12*
X146685000Y-47420000D03*
D10*
G36*
X148119703Y-46395722D02*
G01*
X148134264Y-46397882D01*
X148148543Y-46401459D01*
X148162403Y-46406418D01*
X148175710Y-46412712D01*
X148188336Y-46420280D01*
X148200159Y-46429048D01*
X148211066Y-46438934D01*
X148220952Y-46449841D01*
X148229720Y-46461664D01*
X148237288Y-46474290D01*
X148243582Y-46487597D01*
X148248541Y-46501457D01*
X148252118Y-46515736D01*
X148254278Y-46530297D01*
X148255000Y-46545000D01*
X148255000Y-48295000D01*
X148254278Y-48309703D01*
X148252118Y-48324264D01*
X148248541Y-48338543D01*
X148243582Y-48352403D01*
X148237288Y-48365710D01*
X148229720Y-48378336D01*
X148220952Y-48390159D01*
X148211066Y-48401066D01*
X148200159Y-48410952D01*
X148188336Y-48419720D01*
X148175710Y-48427288D01*
X148162403Y-48433582D01*
X148148543Y-48438541D01*
X148134264Y-48442118D01*
X148119703Y-48444278D01*
X148105000Y-48445000D01*
X147805000Y-48445000D01*
X147790297Y-48444278D01*
X147775736Y-48442118D01*
X147761457Y-48438541D01*
X147747597Y-48433582D01*
X147734290Y-48427288D01*
X147721664Y-48419720D01*
X147709841Y-48410952D01*
X147698934Y-48401066D01*
X147689048Y-48390159D01*
X147680280Y-48378336D01*
X147672712Y-48365710D01*
X147666418Y-48352403D01*
X147661459Y-48338543D01*
X147657882Y-48324264D01*
X147655722Y-48309703D01*
X147655000Y-48295000D01*
X147655000Y-46545000D01*
X147655722Y-46530297D01*
X147657882Y-46515736D01*
X147661459Y-46501457D01*
X147666418Y-46487597D01*
X147672712Y-46474290D01*
X147680280Y-46461664D01*
X147689048Y-46449841D01*
X147698934Y-46438934D01*
X147709841Y-46429048D01*
X147721664Y-46420280D01*
X147734290Y-46412712D01*
X147747597Y-46406418D01*
X147761457Y-46401459D01*
X147775736Y-46397882D01*
X147790297Y-46395722D01*
X147805000Y-46395000D01*
X148105000Y-46395000D01*
X148119703Y-46395722D01*
X148119703Y-46395722D01*
G37*
D12*
X147955000Y-47420000D03*
D10*
G36*
X149389703Y-46395722D02*
G01*
X149404264Y-46397882D01*
X149418543Y-46401459D01*
X149432403Y-46406418D01*
X149445710Y-46412712D01*
X149458336Y-46420280D01*
X149470159Y-46429048D01*
X149481066Y-46438934D01*
X149490952Y-46449841D01*
X149499720Y-46461664D01*
X149507288Y-46474290D01*
X149513582Y-46487597D01*
X149518541Y-46501457D01*
X149522118Y-46515736D01*
X149524278Y-46530297D01*
X149525000Y-46545000D01*
X149525000Y-48295000D01*
X149524278Y-48309703D01*
X149522118Y-48324264D01*
X149518541Y-48338543D01*
X149513582Y-48352403D01*
X149507288Y-48365710D01*
X149499720Y-48378336D01*
X149490952Y-48390159D01*
X149481066Y-48401066D01*
X149470159Y-48410952D01*
X149458336Y-48419720D01*
X149445710Y-48427288D01*
X149432403Y-48433582D01*
X149418543Y-48438541D01*
X149404264Y-48442118D01*
X149389703Y-48444278D01*
X149375000Y-48445000D01*
X149075000Y-48445000D01*
X149060297Y-48444278D01*
X149045736Y-48442118D01*
X149031457Y-48438541D01*
X149017597Y-48433582D01*
X149004290Y-48427288D01*
X148991664Y-48419720D01*
X148979841Y-48410952D01*
X148968934Y-48401066D01*
X148959048Y-48390159D01*
X148950280Y-48378336D01*
X148942712Y-48365710D01*
X148936418Y-48352403D01*
X148931459Y-48338543D01*
X148927882Y-48324264D01*
X148925722Y-48309703D01*
X148925000Y-48295000D01*
X148925000Y-46545000D01*
X148925722Y-46530297D01*
X148927882Y-46515736D01*
X148931459Y-46501457D01*
X148936418Y-46487597D01*
X148942712Y-46474290D01*
X148950280Y-46461664D01*
X148959048Y-46449841D01*
X148968934Y-46438934D01*
X148979841Y-46429048D01*
X148991664Y-46420280D01*
X149004290Y-46412712D01*
X149017597Y-46406418D01*
X149031457Y-46401459D01*
X149045736Y-46397882D01*
X149060297Y-46395722D01*
X149075000Y-46395000D01*
X149375000Y-46395000D01*
X149389703Y-46395722D01*
X149389703Y-46395722D01*
G37*
D12*
X149225000Y-47420000D03*
D10*
G36*
X150659703Y-46395722D02*
G01*
X150674264Y-46397882D01*
X150688543Y-46401459D01*
X150702403Y-46406418D01*
X150715710Y-46412712D01*
X150728336Y-46420280D01*
X150740159Y-46429048D01*
X150751066Y-46438934D01*
X150760952Y-46449841D01*
X150769720Y-46461664D01*
X150777288Y-46474290D01*
X150783582Y-46487597D01*
X150788541Y-46501457D01*
X150792118Y-46515736D01*
X150794278Y-46530297D01*
X150795000Y-46545000D01*
X150795000Y-48295000D01*
X150794278Y-48309703D01*
X150792118Y-48324264D01*
X150788541Y-48338543D01*
X150783582Y-48352403D01*
X150777288Y-48365710D01*
X150769720Y-48378336D01*
X150760952Y-48390159D01*
X150751066Y-48401066D01*
X150740159Y-48410952D01*
X150728336Y-48419720D01*
X150715710Y-48427288D01*
X150702403Y-48433582D01*
X150688543Y-48438541D01*
X150674264Y-48442118D01*
X150659703Y-48444278D01*
X150645000Y-48445000D01*
X150345000Y-48445000D01*
X150330297Y-48444278D01*
X150315736Y-48442118D01*
X150301457Y-48438541D01*
X150287597Y-48433582D01*
X150274290Y-48427288D01*
X150261664Y-48419720D01*
X150249841Y-48410952D01*
X150238934Y-48401066D01*
X150229048Y-48390159D01*
X150220280Y-48378336D01*
X150212712Y-48365710D01*
X150206418Y-48352403D01*
X150201459Y-48338543D01*
X150197882Y-48324264D01*
X150195722Y-48309703D01*
X150195000Y-48295000D01*
X150195000Y-46545000D01*
X150195722Y-46530297D01*
X150197882Y-46515736D01*
X150201459Y-46501457D01*
X150206418Y-46487597D01*
X150212712Y-46474290D01*
X150220280Y-46461664D01*
X150229048Y-46449841D01*
X150238934Y-46438934D01*
X150249841Y-46429048D01*
X150261664Y-46420280D01*
X150274290Y-46412712D01*
X150287597Y-46406418D01*
X150301457Y-46401459D01*
X150315736Y-46397882D01*
X150330297Y-46395722D01*
X150345000Y-46395000D01*
X150645000Y-46395000D01*
X150659703Y-46395722D01*
X150659703Y-46395722D01*
G37*
D12*
X150495000Y-47420000D03*
D10*
G36*
X151929703Y-46395722D02*
G01*
X151944264Y-46397882D01*
X151958543Y-46401459D01*
X151972403Y-46406418D01*
X151985710Y-46412712D01*
X151998336Y-46420280D01*
X152010159Y-46429048D01*
X152021066Y-46438934D01*
X152030952Y-46449841D01*
X152039720Y-46461664D01*
X152047288Y-46474290D01*
X152053582Y-46487597D01*
X152058541Y-46501457D01*
X152062118Y-46515736D01*
X152064278Y-46530297D01*
X152065000Y-46545000D01*
X152065000Y-48295000D01*
X152064278Y-48309703D01*
X152062118Y-48324264D01*
X152058541Y-48338543D01*
X152053582Y-48352403D01*
X152047288Y-48365710D01*
X152039720Y-48378336D01*
X152030952Y-48390159D01*
X152021066Y-48401066D01*
X152010159Y-48410952D01*
X151998336Y-48419720D01*
X151985710Y-48427288D01*
X151972403Y-48433582D01*
X151958543Y-48438541D01*
X151944264Y-48442118D01*
X151929703Y-48444278D01*
X151915000Y-48445000D01*
X151615000Y-48445000D01*
X151600297Y-48444278D01*
X151585736Y-48442118D01*
X151571457Y-48438541D01*
X151557597Y-48433582D01*
X151544290Y-48427288D01*
X151531664Y-48419720D01*
X151519841Y-48410952D01*
X151508934Y-48401066D01*
X151499048Y-48390159D01*
X151490280Y-48378336D01*
X151482712Y-48365710D01*
X151476418Y-48352403D01*
X151471459Y-48338543D01*
X151467882Y-48324264D01*
X151465722Y-48309703D01*
X151465000Y-48295000D01*
X151465000Y-46545000D01*
X151465722Y-46530297D01*
X151467882Y-46515736D01*
X151471459Y-46501457D01*
X151476418Y-46487597D01*
X151482712Y-46474290D01*
X151490280Y-46461664D01*
X151499048Y-46449841D01*
X151508934Y-46438934D01*
X151519841Y-46429048D01*
X151531664Y-46420280D01*
X151544290Y-46412712D01*
X151557597Y-46406418D01*
X151571457Y-46401459D01*
X151585736Y-46397882D01*
X151600297Y-46395722D01*
X151615000Y-46395000D01*
X151915000Y-46395000D01*
X151929703Y-46395722D01*
X151929703Y-46395722D01*
G37*
D12*
X151765000Y-47420000D03*
D10*
G36*
X153199703Y-46395722D02*
G01*
X153214264Y-46397882D01*
X153228543Y-46401459D01*
X153242403Y-46406418D01*
X153255710Y-46412712D01*
X153268336Y-46420280D01*
X153280159Y-46429048D01*
X153291066Y-46438934D01*
X153300952Y-46449841D01*
X153309720Y-46461664D01*
X153317288Y-46474290D01*
X153323582Y-46487597D01*
X153328541Y-46501457D01*
X153332118Y-46515736D01*
X153334278Y-46530297D01*
X153335000Y-46545000D01*
X153335000Y-48295000D01*
X153334278Y-48309703D01*
X153332118Y-48324264D01*
X153328541Y-48338543D01*
X153323582Y-48352403D01*
X153317288Y-48365710D01*
X153309720Y-48378336D01*
X153300952Y-48390159D01*
X153291066Y-48401066D01*
X153280159Y-48410952D01*
X153268336Y-48419720D01*
X153255710Y-48427288D01*
X153242403Y-48433582D01*
X153228543Y-48438541D01*
X153214264Y-48442118D01*
X153199703Y-48444278D01*
X153185000Y-48445000D01*
X152885000Y-48445000D01*
X152870297Y-48444278D01*
X152855736Y-48442118D01*
X152841457Y-48438541D01*
X152827597Y-48433582D01*
X152814290Y-48427288D01*
X152801664Y-48419720D01*
X152789841Y-48410952D01*
X152778934Y-48401066D01*
X152769048Y-48390159D01*
X152760280Y-48378336D01*
X152752712Y-48365710D01*
X152746418Y-48352403D01*
X152741459Y-48338543D01*
X152737882Y-48324264D01*
X152735722Y-48309703D01*
X152735000Y-48295000D01*
X152735000Y-46545000D01*
X152735722Y-46530297D01*
X152737882Y-46515736D01*
X152741459Y-46501457D01*
X152746418Y-46487597D01*
X152752712Y-46474290D01*
X152760280Y-46461664D01*
X152769048Y-46449841D01*
X152778934Y-46438934D01*
X152789841Y-46429048D01*
X152801664Y-46420280D01*
X152814290Y-46412712D01*
X152827597Y-46406418D01*
X152841457Y-46401459D01*
X152855736Y-46397882D01*
X152870297Y-46395722D01*
X152885000Y-46395000D01*
X153185000Y-46395000D01*
X153199703Y-46395722D01*
X153199703Y-46395722D01*
G37*
D12*
X153035000Y-47420000D03*
D10*
G36*
X154469703Y-46395722D02*
G01*
X154484264Y-46397882D01*
X154498543Y-46401459D01*
X154512403Y-46406418D01*
X154525710Y-46412712D01*
X154538336Y-46420280D01*
X154550159Y-46429048D01*
X154561066Y-46438934D01*
X154570952Y-46449841D01*
X154579720Y-46461664D01*
X154587288Y-46474290D01*
X154593582Y-46487597D01*
X154598541Y-46501457D01*
X154602118Y-46515736D01*
X154604278Y-46530297D01*
X154605000Y-46545000D01*
X154605000Y-48295000D01*
X154604278Y-48309703D01*
X154602118Y-48324264D01*
X154598541Y-48338543D01*
X154593582Y-48352403D01*
X154587288Y-48365710D01*
X154579720Y-48378336D01*
X154570952Y-48390159D01*
X154561066Y-48401066D01*
X154550159Y-48410952D01*
X154538336Y-48419720D01*
X154525710Y-48427288D01*
X154512403Y-48433582D01*
X154498543Y-48438541D01*
X154484264Y-48442118D01*
X154469703Y-48444278D01*
X154455000Y-48445000D01*
X154155000Y-48445000D01*
X154140297Y-48444278D01*
X154125736Y-48442118D01*
X154111457Y-48438541D01*
X154097597Y-48433582D01*
X154084290Y-48427288D01*
X154071664Y-48419720D01*
X154059841Y-48410952D01*
X154048934Y-48401066D01*
X154039048Y-48390159D01*
X154030280Y-48378336D01*
X154022712Y-48365710D01*
X154016418Y-48352403D01*
X154011459Y-48338543D01*
X154007882Y-48324264D01*
X154005722Y-48309703D01*
X154005000Y-48295000D01*
X154005000Y-46545000D01*
X154005722Y-46530297D01*
X154007882Y-46515736D01*
X154011459Y-46501457D01*
X154016418Y-46487597D01*
X154022712Y-46474290D01*
X154030280Y-46461664D01*
X154039048Y-46449841D01*
X154048934Y-46438934D01*
X154059841Y-46429048D01*
X154071664Y-46420280D01*
X154084290Y-46412712D01*
X154097597Y-46406418D01*
X154111457Y-46401459D01*
X154125736Y-46397882D01*
X154140297Y-46395722D01*
X154155000Y-46395000D01*
X154455000Y-46395000D01*
X154469703Y-46395722D01*
X154469703Y-46395722D01*
G37*
D12*
X154305000Y-47420000D03*
D10*
G36*
X154469703Y-55695722D02*
G01*
X154484264Y-55697882D01*
X154498543Y-55701459D01*
X154512403Y-55706418D01*
X154525710Y-55712712D01*
X154538336Y-55720280D01*
X154550159Y-55729048D01*
X154561066Y-55738934D01*
X154570952Y-55749841D01*
X154579720Y-55761664D01*
X154587288Y-55774290D01*
X154593582Y-55787597D01*
X154598541Y-55801457D01*
X154602118Y-55815736D01*
X154604278Y-55830297D01*
X154605000Y-55845000D01*
X154605000Y-57595000D01*
X154604278Y-57609703D01*
X154602118Y-57624264D01*
X154598541Y-57638543D01*
X154593582Y-57652403D01*
X154587288Y-57665710D01*
X154579720Y-57678336D01*
X154570952Y-57690159D01*
X154561066Y-57701066D01*
X154550159Y-57710952D01*
X154538336Y-57719720D01*
X154525710Y-57727288D01*
X154512403Y-57733582D01*
X154498543Y-57738541D01*
X154484264Y-57742118D01*
X154469703Y-57744278D01*
X154455000Y-57745000D01*
X154155000Y-57745000D01*
X154140297Y-57744278D01*
X154125736Y-57742118D01*
X154111457Y-57738541D01*
X154097597Y-57733582D01*
X154084290Y-57727288D01*
X154071664Y-57719720D01*
X154059841Y-57710952D01*
X154048934Y-57701066D01*
X154039048Y-57690159D01*
X154030280Y-57678336D01*
X154022712Y-57665710D01*
X154016418Y-57652403D01*
X154011459Y-57638543D01*
X154007882Y-57624264D01*
X154005722Y-57609703D01*
X154005000Y-57595000D01*
X154005000Y-55845000D01*
X154005722Y-55830297D01*
X154007882Y-55815736D01*
X154011459Y-55801457D01*
X154016418Y-55787597D01*
X154022712Y-55774290D01*
X154030280Y-55761664D01*
X154039048Y-55749841D01*
X154048934Y-55738934D01*
X154059841Y-55729048D01*
X154071664Y-55720280D01*
X154084290Y-55712712D01*
X154097597Y-55706418D01*
X154111457Y-55701459D01*
X154125736Y-55697882D01*
X154140297Y-55695722D01*
X154155000Y-55695000D01*
X154455000Y-55695000D01*
X154469703Y-55695722D01*
X154469703Y-55695722D01*
G37*
D12*
X154305000Y-56720000D03*
D10*
G36*
X153199703Y-55695722D02*
G01*
X153214264Y-55697882D01*
X153228543Y-55701459D01*
X153242403Y-55706418D01*
X153255710Y-55712712D01*
X153268336Y-55720280D01*
X153280159Y-55729048D01*
X153291066Y-55738934D01*
X153300952Y-55749841D01*
X153309720Y-55761664D01*
X153317288Y-55774290D01*
X153323582Y-55787597D01*
X153328541Y-55801457D01*
X153332118Y-55815736D01*
X153334278Y-55830297D01*
X153335000Y-55845000D01*
X153335000Y-57595000D01*
X153334278Y-57609703D01*
X153332118Y-57624264D01*
X153328541Y-57638543D01*
X153323582Y-57652403D01*
X153317288Y-57665710D01*
X153309720Y-57678336D01*
X153300952Y-57690159D01*
X153291066Y-57701066D01*
X153280159Y-57710952D01*
X153268336Y-57719720D01*
X153255710Y-57727288D01*
X153242403Y-57733582D01*
X153228543Y-57738541D01*
X153214264Y-57742118D01*
X153199703Y-57744278D01*
X153185000Y-57745000D01*
X152885000Y-57745000D01*
X152870297Y-57744278D01*
X152855736Y-57742118D01*
X152841457Y-57738541D01*
X152827597Y-57733582D01*
X152814290Y-57727288D01*
X152801664Y-57719720D01*
X152789841Y-57710952D01*
X152778934Y-57701066D01*
X152769048Y-57690159D01*
X152760280Y-57678336D01*
X152752712Y-57665710D01*
X152746418Y-57652403D01*
X152741459Y-57638543D01*
X152737882Y-57624264D01*
X152735722Y-57609703D01*
X152735000Y-57595000D01*
X152735000Y-55845000D01*
X152735722Y-55830297D01*
X152737882Y-55815736D01*
X152741459Y-55801457D01*
X152746418Y-55787597D01*
X152752712Y-55774290D01*
X152760280Y-55761664D01*
X152769048Y-55749841D01*
X152778934Y-55738934D01*
X152789841Y-55729048D01*
X152801664Y-55720280D01*
X152814290Y-55712712D01*
X152827597Y-55706418D01*
X152841457Y-55701459D01*
X152855736Y-55697882D01*
X152870297Y-55695722D01*
X152885000Y-55695000D01*
X153185000Y-55695000D01*
X153199703Y-55695722D01*
X153199703Y-55695722D01*
G37*
D12*
X153035000Y-56720000D03*
D10*
G36*
X151929703Y-55695722D02*
G01*
X151944264Y-55697882D01*
X151958543Y-55701459D01*
X151972403Y-55706418D01*
X151985710Y-55712712D01*
X151998336Y-55720280D01*
X152010159Y-55729048D01*
X152021066Y-55738934D01*
X152030952Y-55749841D01*
X152039720Y-55761664D01*
X152047288Y-55774290D01*
X152053582Y-55787597D01*
X152058541Y-55801457D01*
X152062118Y-55815736D01*
X152064278Y-55830297D01*
X152065000Y-55845000D01*
X152065000Y-57595000D01*
X152064278Y-57609703D01*
X152062118Y-57624264D01*
X152058541Y-57638543D01*
X152053582Y-57652403D01*
X152047288Y-57665710D01*
X152039720Y-57678336D01*
X152030952Y-57690159D01*
X152021066Y-57701066D01*
X152010159Y-57710952D01*
X151998336Y-57719720D01*
X151985710Y-57727288D01*
X151972403Y-57733582D01*
X151958543Y-57738541D01*
X151944264Y-57742118D01*
X151929703Y-57744278D01*
X151915000Y-57745000D01*
X151615000Y-57745000D01*
X151600297Y-57744278D01*
X151585736Y-57742118D01*
X151571457Y-57738541D01*
X151557597Y-57733582D01*
X151544290Y-57727288D01*
X151531664Y-57719720D01*
X151519841Y-57710952D01*
X151508934Y-57701066D01*
X151499048Y-57690159D01*
X151490280Y-57678336D01*
X151482712Y-57665710D01*
X151476418Y-57652403D01*
X151471459Y-57638543D01*
X151467882Y-57624264D01*
X151465722Y-57609703D01*
X151465000Y-57595000D01*
X151465000Y-55845000D01*
X151465722Y-55830297D01*
X151467882Y-55815736D01*
X151471459Y-55801457D01*
X151476418Y-55787597D01*
X151482712Y-55774290D01*
X151490280Y-55761664D01*
X151499048Y-55749841D01*
X151508934Y-55738934D01*
X151519841Y-55729048D01*
X151531664Y-55720280D01*
X151544290Y-55712712D01*
X151557597Y-55706418D01*
X151571457Y-55701459D01*
X151585736Y-55697882D01*
X151600297Y-55695722D01*
X151615000Y-55695000D01*
X151915000Y-55695000D01*
X151929703Y-55695722D01*
X151929703Y-55695722D01*
G37*
D12*
X151765000Y-56720000D03*
D10*
G36*
X150659703Y-55695722D02*
G01*
X150674264Y-55697882D01*
X150688543Y-55701459D01*
X150702403Y-55706418D01*
X150715710Y-55712712D01*
X150728336Y-55720280D01*
X150740159Y-55729048D01*
X150751066Y-55738934D01*
X150760952Y-55749841D01*
X150769720Y-55761664D01*
X150777288Y-55774290D01*
X150783582Y-55787597D01*
X150788541Y-55801457D01*
X150792118Y-55815736D01*
X150794278Y-55830297D01*
X150795000Y-55845000D01*
X150795000Y-57595000D01*
X150794278Y-57609703D01*
X150792118Y-57624264D01*
X150788541Y-57638543D01*
X150783582Y-57652403D01*
X150777288Y-57665710D01*
X150769720Y-57678336D01*
X150760952Y-57690159D01*
X150751066Y-57701066D01*
X150740159Y-57710952D01*
X150728336Y-57719720D01*
X150715710Y-57727288D01*
X150702403Y-57733582D01*
X150688543Y-57738541D01*
X150674264Y-57742118D01*
X150659703Y-57744278D01*
X150645000Y-57745000D01*
X150345000Y-57745000D01*
X150330297Y-57744278D01*
X150315736Y-57742118D01*
X150301457Y-57738541D01*
X150287597Y-57733582D01*
X150274290Y-57727288D01*
X150261664Y-57719720D01*
X150249841Y-57710952D01*
X150238934Y-57701066D01*
X150229048Y-57690159D01*
X150220280Y-57678336D01*
X150212712Y-57665710D01*
X150206418Y-57652403D01*
X150201459Y-57638543D01*
X150197882Y-57624264D01*
X150195722Y-57609703D01*
X150195000Y-57595000D01*
X150195000Y-55845000D01*
X150195722Y-55830297D01*
X150197882Y-55815736D01*
X150201459Y-55801457D01*
X150206418Y-55787597D01*
X150212712Y-55774290D01*
X150220280Y-55761664D01*
X150229048Y-55749841D01*
X150238934Y-55738934D01*
X150249841Y-55729048D01*
X150261664Y-55720280D01*
X150274290Y-55712712D01*
X150287597Y-55706418D01*
X150301457Y-55701459D01*
X150315736Y-55697882D01*
X150330297Y-55695722D01*
X150345000Y-55695000D01*
X150645000Y-55695000D01*
X150659703Y-55695722D01*
X150659703Y-55695722D01*
G37*
D12*
X150495000Y-56720000D03*
D10*
G36*
X149389703Y-55695722D02*
G01*
X149404264Y-55697882D01*
X149418543Y-55701459D01*
X149432403Y-55706418D01*
X149445710Y-55712712D01*
X149458336Y-55720280D01*
X149470159Y-55729048D01*
X149481066Y-55738934D01*
X149490952Y-55749841D01*
X149499720Y-55761664D01*
X149507288Y-55774290D01*
X149513582Y-55787597D01*
X149518541Y-55801457D01*
X149522118Y-55815736D01*
X149524278Y-55830297D01*
X149525000Y-55845000D01*
X149525000Y-57595000D01*
X149524278Y-57609703D01*
X149522118Y-57624264D01*
X149518541Y-57638543D01*
X149513582Y-57652403D01*
X149507288Y-57665710D01*
X149499720Y-57678336D01*
X149490952Y-57690159D01*
X149481066Y-57701066D01*
X149470159Y-57710952D01*
X149458336Y-57719720D01*
X149445710Y-57727288D01*
X149432403Y-57733582D01*
X149418543Y-57738541D01*
X149404264Y-57742118D01*
X149389703Y-57744278D01*
X149375000Y-57745000D01*
X149075000Y-57745000D01*
X149060297Y-57744278D01*
X149045736Y-57742118D01*
X149031457Y-57738541D01*
X149017597Y-57733582D01*
X149004290Y-57727288D01*
X148991664Y-57719720D01*
X148979841Y-57710952D01*
X148968934Y-57701066D01*
X148959048Y-57690159D01*
X148950280Y-57678336D01*
X148942712Y-57665710D01*
X148936418Y-57652403D01*
X148931459Y-57638543D01*
X148927882Y-57624264D01*
X148925722Y-57609703D01*
X148925000Y-57595000D01*
X148925000Y-55845000D01*
X148925722Y-55830297D01*
X148927882Y-55815736D01*
X148931459Y-55801457D01*
X148936418Y-55787597D01*
X148942712Y-55774290D01*
X148950280Y-55761664D01*
X148959048Y-55749841D01*
X148968934Y-55738934D01*
X148979841Y-55729048D01*
X148991664Y-55720280D01*
X149004290Y-55712712D01*
X149017597Y-55706418D01*
X149031457Y-55701459D01*
X149045736Y-55697882D01*
X149060297Y-55695722D01*
X149075000Y-55695000D01*
X149375000Y-55695000D01*
X149389703Y-55695722D01*
X149389703Y-55695722D01*
G37*
D12*
X149225000Y-56720000D03*
D10*
G36*
X148119703Y-55695722D02*
G01*
X148134264Y-55697882D01*
X148148543Y-55701459D01*
X148162403Y-55706418D01*
X148175710Y-55712712D01*
X148188336Y-55720280D01*
X148200159Y-55729048D01*
X148211066Y-55738934D01*
X148220952Y-55749841D01*
X148229720Y-55761664D01*
X148237288Y-55774290D01*
X148243582Y-55787597D01*
X148248541Y-55801457D01*
X148252118Y-55815736D01*
X148254278Y-55830297D01*
X148255000Y-55845000D01*
X148255000Y-57595000D01*
X148254278Y-57609703D01*
X148252118Y-57624264D01*
X148248541Y-57638543D01*
X148243582Y-57652403D01*
X148237288Y-57665710D01*
X148229720Y-57678336D01*
X148220952Y-57690159D01*
X148211066Y-57701066D01*
X148200159Y-57710952D01*
X148188336Y-57719720D01*
X148175710Y-57727288D01*
X148162403Y-57733582D01*
X148148543Y-57738541D01*
X148134264Y-57742118D01*
X148119703Y-57744278D01*
X148105000Y-57745000D01*
X147805000Y-57745000D01*
X147790297Y-57744278D01*
X147775736Y-57742118D01*
X147761457Y-57738541D01*
X147747597Y-57733582D01*
X147734290Y-57727288D01*
X147721664Y-57719720D01*
X147709841Y-57710952D01*
X147698934Y-57701066D01*
X147689048Y-57690159D01*
X147680280Y-57678336D01*
X147672712Y-57665710D01*
X147666418Y-57652403D01*
X147661459Y-57638543D01*
X147657882Y-57624264D01*
X147655722Y-57609703D01*
X147655000Y-57595000D01*
X147655000Y-55845000D01*
X147655722Y-55830297D01*
X147657882Y-55815736D01*
X147661459Y-55801457D01*
X147666418Y-55787597D01*
X147672712Y-55774290D01*
X147680280Y-55761664D01*
X147689048Y-55749841D01*
X147698934Y-55738934D01*
X147709841Y-55729048D01*
X147721664Y-55720280D01*
X147734290Y-55712712D01*
X147747597Y-55706418D01*
X147761457Y-55701459D01*
X147775736Y-55697882D01*
X147790297Y-55695722D01*
X147805000Y-55695000D01*
X148105000Y-55695000D01*
X148119703Y-55695722D01*
X148119703Y-55695722D01*
G37*
D12*
X147955000Y-56720000D03*
D10*
G36*
X146849703Y-55695722D02*
G01*
X146864264Y-55697882D01*
X146878543Y-55701459D01*
X146892403Y-55706418D01*
X146905710Y-55712712D01*
X146918336Y-55720280D01*
X146930159Y-55729048D01*
X146941066Y-55738934D01*
X146950952Y-55749841D01*
X146959720Y-55761664D01*
X146967288Y-55774290D01*
X146973582Y-55787597D01*
X146978541Y-55801457D01*
X146982118Y-55815736D01*
X146984278Y-55830297D01*
X146985000Y-55845000D01*
X146985000Y-57595000D01*
X146984278Y-57609703D01*
X146982118Y-57624264D01*
X146978541Y-57638543D01*
X146973582Y-57652403D01*
X146967288Y-57665710D01*
X146959720Y-57678336D01*
X146950952Y-57690159D01*
X146941066Y-57701066D01*
X146930159Y-57710952D01*
X146918336Y-57719720D01*
X146905710Y-57727288D01*
X146892403Y-57733582D01*
X146878543Y-57738541D01*
X146864264Y-57742118D01*
X146849703Y-57744278D01*
X146835000Y-57745000D01*
X146535000Y-57745000D01*
X146520297Y-57744278D01*
X146505736Y-57742118D01*
X146491457Y-57738541D01*
X146477597Y-57733582D01*
X146464290Y-57727288D01*
X146451664Y-57719720D01*
X146439841Y-57710952D01*
X146428934Y-57701066D01*
X146419048Y-57690159D01*
X146410280Y-57678336D01*
X146402712Y-57665710D01*
X146396418Y-57652403D01*
X146391459Y-57638543D01*
X146387882Y-57624264D01*
X146385722Y-57609703D01*
X146385000Y-57595000D01*
X146385000Y-55845000D01*
X146385722Y-55830297D01*
X146387882Y-55815736D01*
X146391459Y-55801457D01*
X146396418Y-55787597D01*
X146402712Y-55774290D01*
X146410280Y-55761664D01*
X146419048Y-55749841D01*
X146428934Y-55738934D01*
X146439841Y-55729048D01*
X146451664Y-55720280D01*
X146464290Y-55712712D01*
X146477597Y-55706418D01*
X146491457Y-55701459D01*
X146505736Y-55697882D01*
X146520297Y-55695722D01*
X146535000Y-55695000D01*
X146835000Y-55695000D01*
X146849703Y-55695722D01*
X146849703Y-55695722D01*
G37*
D12*
X146685000Y-56720000D03*
D10*
G36*
X145579703Y-55695722D02*
G01*
X145594264Y-55697882D01*
X145608543Y-55701459D01*
X145622403Y-55706418D01*
X145635710Y-55712712D01*
X145648336Y-55720280D01*
X145660159Y-55729048D01*
X145671066Y-55738934D01*
X145680952Y-55749841D01*
X145689720Y-55761664D01*
X145697288Y-55774290D01*
X145703582Y-55787597D01*
X145708541Y-55801457D01*
X145712118Y-55815736D01*
X145714278Y-55830297D01*
X145715000Y-55845000D01*
X145715000Y-57595000D01*
X145714278Y-57609703D01*
X145712118Y-57624264D01*
X145708541Y-57638543D01*
X145703582Y-57652403D01*
X145697288Y-57665710D01*
X145689720Y-57678336D01*
X145680952Y-57690159D01*
X145671066Y-57701066D01*
X145660159Y-57710952D01*
X145648336Y-57719720D01*
X145635710Y-57727288D01*
X145622403Y-57733582D01*
X145608543Y-57738541D01*
X145594264Y-57742118D01*
X145579703Y-57744278D01*
X145565000Y-57745000D01*
X145265000Y-57745000D01*
X145250297Y-57744278D01*
X145235736Y-57742118D01*
X145221457Y-57738541D01*
X145207597Y-57733582D01*
X145194290Y-57727288D01*
X145181664Y-57719720D01*
X145169841Y-57710952D01*
X145158934Y-57701066D01*
X145149048Y-57690159D01*
X145140280Y-57678336D01*
X145132712Y-57665710D01*
X145126418Y-57652403D01*
X145121459Y-57638543D01*
X145117882Y-57624264D01*
X145115722Y-57609703D01*
X145115000Y-57595000D01*
X145115000Y-55845000D01*
X145115722Y-55830297D01*
X145117882Y-55815736D01*
X145121459Y-55801457D01*
X145126418Y-55787597D01*
X145132712Y-55774290D01*
X145140280Y-55761664D01*
X145149048Y-55749841D01*
X145158934Y-55738934D01*
X145169841Y-55729048D01*
X145181664Y-55720280D01*
X145194290Y-55712712D01*
X145207597Y-55706418D01*
X145221457Y-55701459D01*
X145235736Y-55697882D01*
X145250297Y-55695722D01*
X145265000Y-55695000D01*
X145565000Y-55695000D01*
X145579703Y-55695722D01*
X145579703Y-55695722D01*
G37*
D12*
X145415000Y-56720000D03*
D10*
G36*
X144309703Y-55695722D02*
G01*
X144324264Y-55697882D01*
X144338543Y-55701459D01*
X144352403Y-55706418D01*
X144365710Y-55712712D01*
X144378336Y-55720280D01*
X144390159Y-55729048D01*
X144401066Y-55738934D01*
X144410952Y-55749841D01*
X144419720Y-55761664D01*
X144427288Y-55774290D01*
X144433582Y-55787597D01*
X144438541Y-55801457D01*
X144442118Y-55815736D01*
X144444278Y-55830297D01*
X144445000Y-55845000D01*
X144445000Y-57595000D01*
X144444278Y-57609703D01*
X144442118Y-57624264D01*
X144438541Y-57638543D01*
X144433582Y-57652403D01*
X144427288Y-57665710D01*
X144419720Y-57678336D01*
X144410952Y-57690159D01*
X144401066Y-57701066D01*
X144390159Y-57710952D01*
X144378336Y-57719720D01*
X144365710Y-57727288D01*
X144352403Y-57733582D01*
X144338543Y-57738541D01*
X144324264Y-57742118D01*
X144309703Y-57744278D01*
X144295000Y-57745000D01*
X143995000Y-57745000D01*
X143980297Y-57744278D01*
X143965736Y-57742118D01*
X143951457Y-57738541D01*
X143937597Y-57733582D01*
X143924290Y-57727288D01*
X143911664Y-57719720D01*
X143899841Y-57710952D01*
X143888934Y-57701066D01*
X143879048Y-57690159D01*
X143870280Y-57678336D01*
X143862712Y-57665710D01*
X143856418Y-57652403D01*
X143851459Y-57638543D01*
X143847882Y-57624264D01*
X143845722Y-57609703D01*
X143845000Y-57595000D01*
X143845000Y-55845000D01*
X143845722Y-55830297D01*
X143847882Y-55815736D01*
X143851459Y-55801457D01*
X143856418Y-55787597D01*
X143862712Y-55774290D01*
X143870280Y-55761664D01*
X143879048Y-55749841D01*
X143888934Y-55738934D01*
X143899841Y-55729048D01*
X143911664Y-55720280D01*
X143924290Y-55712712D01*
X143937597Y-55706418D01*
X143951457Y-55701459D01*
X143965736Y-55697882D01*
X143980297Y-55695722D01*
X143995000Y-55695000D01*
X144295000Y-55695000D01*
X144309703Y-55695722D01*
X144309703Y-55695722D01*
G37*
D12*
X144145000Y-56720000D03*
D10*
G36*
X143039703Y-55695722D02*
G01*
X143054264Y-55697882D01*
X143068543Y-55701459D01*
X143082403Y-55706418D01*
X143095710Y-55712712D01*
X143108336Y-55720280D01*
X143120159Y-55729048D01*
X143131066Y-55738934D01*
X143140952Y-55749841D01*
X143149720Y-55761664D01*
X143157288Y-55774290D01*
X143163582Y-55787597D01*
X143168541Y-55801457D01*
X143172118Y-55815736D01*
X143174278Y-55830297D01*
X143175000Y-55845000D01*
X143175000Y-57595000D01*
X143174278Y-57609703D01*
X143172118Y-57624264D01*
X143168541Y-57638543D01*
X143163582Y-57652403D01*
X143157288Y-57665710D01*
X143149720Y-57678336D01*
X143140952Y-57690159D01*
X143131066Y-57701066D01*
X143120159Y-57710952D01*
X143108336Y-57719720D01*
X143095710Y-57727288D01*
X143082403Y-57733582D01*
X143068543Y-57738541D01*
X143054264Y-57742118D01*
X143039703Y-57744278D01*
X143025000Y-57745000D01*
X142725000Y-57745000D01*
X142710297Y-57744278D01*
X142695736Y-57742118D01*
X142681457Y-57738541D01*
X142667597Y-57733582D01*
X142654290Y-57727288D01*
X142641664Y-57719720D01*
X142629841Y-57710952D01*
X142618934Y-57701066D01*
X142609048Y-57690159D01*
X142600280Y-57678336D01*
X142592712Y-57665710D01*
X142586418Y-57652403D01*
X142581459Y-57638543D01*
X142577882Y-57624264D01*
X142575722Y-57609703D01*
X142575000Y-57595000D01*
X142575000Y-55845000D01*
X142575722Y-55830297D01*
X142577882Y-55815736D01*
X142581459Y-55801457D01*
X142586418Y-55787597D01*
X142592712Y-55774290D01*
X142600280Y-55761664D01*
X142609048Y-55749841D01*
X142618934Y-55738934D01*
X142629841Y-55729048D01*
X142641664Y-55720280D01*
X142654290Y-55712712D01*
X142667597Y-55706418D01*
X142681457Y-55701459D01*
X142695736Y-55697882D01*
X142710297Y-55695722D01*
X142725000Y-55695000D01*
X143025000Y-55695000D01*
X143039703Y-55695722D01*
X143039703Y-55695722D01*
G37*
D12*
X142875000Y-56720000D03*
D10*
G36*
X141769703Y-55695722D02*
G01*
X141784264Y-55697882D01*
X141798543Y-55701459D01*
X141812403Y-55706418D01*
X141825710Y-55712712D01*
X141838336Y-55720280D01*
X141850159Y-55729048D01*
X141861066Y-55738934D01*
X141870952Y-55749841D01*
X141879720Y-55761664D01*
X141887288Y-55774290D01*
X141893582Y-55787597D01*
X141898541Y-55801457D01*
X141902118Y-55815736D01*
X141904278Y-55830297D01*
X141905000Y-55845000D01*
X141905000Y-57595000D01*
X141904278Y-57609703D01*
X141902118Y-57624264D01*
X141898541Y-57638543D01*
X141893582Y-57652403D01*
X141887288Y-57665710D01*
X141879720Y-57678336D01*
X141870952Y-57690159D01*
X141861066Y-57701066D01*
X141850159Y-57710952D01*
X141838336Y-57719720D01*
X141825710Y-57727288D01*
X141812403Y-57733582D01*
X141798543Y-57738541D01*
X141784264Y-57742118D01*
X141769703Y-57744278D01*
X141755000Y-57745000D01*
X141455000Y-57745000D01*
X141440297Y-57744278D01*
X141425736Y-57742118D01*
X141411457Y-57738541D01*
X141397597Y-57733582D01*
X141384290Y-57727288D01*
X141371664Y-57719720D01*
X141359841Y-57710952D01*
X141348934Y-57701066D01*
X141339048Y-57690159D01*
X141330280Y-57678336D01*
X141322712Y-57665710D01*
X141316418Y-57652403D01*
X141311459Y-57638543D01*
X141307882Y-57624264D01*
X141305722Y-57609703D01*
X141305000Y-57595000D01*
X141305000Y-55845000D01*
X141305722Y-55830297D01*
X141307882Y-55815736D01*
X141311459Y-55801457D01*
X141316418Y-55787597D01*
X141322712Y-55774290D01*
X141330280Y-55761664D01*
X141339048Y-55749841D01*
X141348934Y-55738934D01*
X141359841Y-55729048D01*
X141371664Y-55720280D01*
X141384290Y-55712712D01*
X141397597Y-55706418D01*
X141411457Y-55701459D01*
X141425736Y-55697882D01*
X141440297Y-55695722D01*
X141455000Y-55695000D01*
X141755000Y-55695000D01*
X141769703Y-55695722D01*
X141769703Y-55695722D01*
G37*
D12*
X141605000Y-56720000D03*
D10*
G36*
X140499703Y-55695722D02*
G01*
X140514264Y-55697882D01*
X140528543Y-55701459D01*
X140542403Y-55706418D01*
X140555710Y-55712712D01*
X140568336Y-55720280D01*
X140580159Y-55729048D01*
X140591066Y-55738934D01*
X140600952Y-55749841D01*
X140609720Y-55761664D01*
X140617288Y-55774290D01*
X140623582Y-55787597D01*
X140628541Y-55801457D01*
X140632118Y-55815736D01*
X140634278Y-55830297D01*
X140635000Y-55845000D01*
X140635000Y-57595000D01*
X140634278Y-57609703D01*
X140632118Y-57624264D01*
X140628541Y-57638543D01*
X140623582Y-57652403D01*
X140617288Y-57665710D01*
X140609720Y-57678336D01*
X140600952Y-57690159D01*
X140591066Y-57701066D01*
X140580159Y-57710952D01*
X140568336Y-57719720D01*
X140555710Y-57727288D01*
X140542403Y-57733582D01*
X140528543Y-57738541D01*
X140514264Y-57742118D01*
X140499703Y-57744278D01*
X140485000Y-57745000D01*
X140185000Y-57745000D01*
X140170297Y-57744278D01*
X140155736Y-57742118D01*
X140141457Y-57738541D01*
X140127597Y-57733582D01*
X140114290Y-57727288D01*
X140101664Y-57719720D01*
X140089841Y-57710952D01*
X140078934Y-57701066D01*
X140069048Y-57690159D01*
X140060280Y-57678336D01*
X140052712Y-57665710D01*
X140046418Y-57652403D01*
X140041459Y-57638543D01*
X140037882Y-57624264D01*
X140035722Y-57609703D01*
X140035000Y-57595000D01*
X140035000Y-55845000D01*
X140035722Y-55830297D01*
X140037882Y-55815736D01*
X140041459Y-55801457D01*
X140046418Y-55787597D01*
X140052712Y-55774290D01*
X140060280Y-55761664D01*
X140069048Y-55749841D01*
X140078934Y-55738934D01*
X140089841Y-55729048D01*
X140101664Y-55720280D01*
X140114290Y-55712712D01*
X140127597Y-55706418D01*
X140141457Y-55701459D01*
X140155736Y-55697882D01*
X140170297Y-55695722D01*
X140185000Y-55695000D01*
X140485000Y-55695000D01*
X140499703Y-55695722D01*
X140499703Y-55695722D01*
G37*
D12*
X140335000Y-56720000D03*
D13*
X128510000Y-52730400D03*
X130810000Y-52730400D03*
X133110000Y-52730400D03*
D14*
X130810000Y-46329600D03*
M02*
